%TF.GenerationSoftware,KiCad,Pcbnew,9.0.4-9.0.4-0~ubuntu24.04.1*%
%TF.CreationDate,2025-08-23T17:14:42+02:00*%
%TF.ProjectId,hv_board,68765f62-6f61-4726-942e-6b696361645f,rev?*%
%TF.SameCoordinates,Original*%
%TF.FileFunction,Legend,Top*%
%TF.FilePolarity,Positive*%
%FSLAX46Y46*%
G04 Gerber Fmt 4.6, Leading zero omitted, Abs format (unit mm)*
G04 Created by KiCad (PCBNEW 9.0.4-9.0.4-0~ubuntu24.04.1) date 2025-08-23 17:14:42*
%MOMM*%
%LPD*%
G01*
G04 APERTURE LIST*
G04 Aperture macros list*
%AMRoundRect*
0 Rectangle with rounded corners*
0 $1 Rounding radius*
0 $2 $3 $4 $5 $6 $7 $8 $9 X,Y pos of 4 corners*
0 Add a 4 corners polygon primitive as box body*
4,1,4,$2,$3,$4,$5,$6,$7,$8,$9,$2,$3,0*
0 Add four circle primitives for the rounded corners*
1,1,$1+$1,$2,$3*
1,1,$1+$1,$4,$5*
1,1,$1+$1,$6,$7*
1,1,$1+$1,$8,$9*
0 Add four rect primitives between the rounded corners*
20,1,$1+$1,$2,$3,$4,$5,0*
20,1,$1+$1,$4,$5,$6,$7,0*
20,1,$1+$1,$6,$7,$8,$9,0*
20,1,$1+$1,$8,$9,$2,$3,0*%
G04 Aperture macros list end*
%ADD10C,0.150000*%
%ADD11C,0.254000*%
%ADD12C,0.152400*%
%ADD13C,0.120000*%
%ADD14C,0.200000*%
%ADD15C,0.100000*%
%ADD16C,1.549400*%
%ADD17RoundRect,0.249999X1.075001X-0.450001X1.075001X0.450001X-1.075001X0.450001X-1.075001X-0.450001X0*%
%ADD18R,1.625600X1.625600*%
%ADD19C,1.625600*%
%ADD20R,2.000000X2.000000*%
%ADD21O,2.000000X2.000000*%
%ADD22RoundRect,0.250000X-0.350000X-0.450000X0.350000X-0.450000X0.350000X0.450000X-0.350000X0.450000X0*%
%ADD23C,3.810000*%
%ADD24R,2.175000X2.175000*%
%ADD25C,2.175000*%
%ADD26C,1.270000*%
%ADD27R,0.711200X0.406400*%
%ADD28RoundRect,0.249999X0.450001X1.075001X-0.450001X1.075001X-0.450001X-1.075001X0.450001X-1.075001X0*%
%ADD29O,3.000000X2.000000*%
%ADD30R,2.000000X3.000000*%
%ADD31O,2.000000X3.000000*%
%ADD32RoundRect,0.250000X0.350000X0.450000X-0.350000X0.450000X-0.350000X-0.450000X0.350000X-0.450000X0*%
%ADD33RoundRect,0.150000X-0.587500X-0.150000X0.587500X-0.150000X0.587500X0.150000X-0.587500X0.150000X0*%
%ADD34R,0.965200X1.600200*%
%ADD35RoundRect,0.250000X0.625000X-0.400000X0.625000X0.400000X-0.625000X0.400000X-0.625000X-0.400000X0*%
%ADD36R,1.422400X1.422400*%
%ADD37C,1.422400*%
%ADD38R,1.320800X1.320800*%
%ADD39C,1.320800*%
%ADD40R,2.000000X1.905000*%
%ADD41O,2.000000X1.905000*%
%ADD42RoundRect,0.250000X0.550000X-0.550000X0.550000X0.550000X-0.550000X0.550000X-0.550000X-0.550000X0*%
%ADD43C,1.600000*%
%ADD44RoundRect,0.249999X-1.075001X0.450001X-1.075001X-0.450001X1.075001X-0.450001X1.075001X0.450001X0*%
%ADD45C,1.778000*%
%ADD46R,1.473200X1.473200*%
%ADD47C,1.473200*%
%ADD48R,1.350000X1.350000*%
%ADD49C,1.350000*%
%ADD50RoundRect,0.150000X-0.150000X0.587500X-0.150000X-0.587500X0.150000X-0.587500X0.150000X0.587500X0*%
G04 APERTURE END LIST*
D10*
X133238095Y-75954819D02*
X133238095Y-76764342D01*
X133238095Y-76764342D02*
X133285714Y-76859580D01*
X133285714Y-76859580D02*
X133333333Y-76907200D01*
X133333333Y-76907200D02*
X133428571Y-76954819D01*
X133428571Y-76954819D02*
X133619047Y-76954819D01*
X133619047Y-76954819D02*
X133714285Y-76907200D01*
X133714285Y-76907200D02*
X133761904Y-76859580D01*
X133761904Y-76859580D02*
X133809523Y-76764342D01*
X133809523Y-76764342D02*
X133809523Y-75954819D01*
X134238095Y-76050057D02*
X134285714Y-76002438D01*
X134285714Y-76002438D02*
X134380952Y-75954819D01*
X134380952Y-75954819D02*
X134619047Y-75954819D01*
X134619047Y-75954819D02*
X134714285Y-76002438D01*
X134714285Y-76002438D02*
X134761904Y-76050057D01*
X134761904Y-76050057D02*
X134809523Y-76145295D01*
X134809523Y-76145295D02*
X134809523Y-76240533D01*
X134809523Y-76240533D02*
X134761904Y-76383390D01*
X134761904Y-76383390D02*
X134190476Y-76954819D01*
X134190476Y-76954819D02*
X134809523Y-76954819D01*
X134999999Y-88045180D02*
X134999999Y-87807085D01*
X135238094Y-87902323D02*
X134999999Y-87807085D01*
X134999999Y-87807085D02*
X134761904Y-87902323D01*
X135142856Y-87616609D02*
X134999999Y-87807085D01*
X134999999Y-87807085D02*
X134857142Y-87616609D01*
X135000000Y-86454819D02*
X135000000Y-86692914D01*
X134761905Y-86597676D02*
X135000000Y-86692914D01*
X135000000Y-86692914D02*
X135238095Y-86597676D01*
X134857143Y-86883390D02*
X135000000Y-86692914D01*
X135000000Y-86692914D02*
X135142857Y-86883390D01*
X181333333Y-78954819D02*
X181000000Y-78478628D01*
X180761905Y-78954819D02*
X180761905Y-77954819D01*
X180761905Y-77954819D02*
X181142857Y-77954819D01*
X181142857Y-77954819D02*
X181238095Y-78002438D01*
X181238095Y-78002438D02*
X181285714Y-78050057D01*
X181285714Y-78050057D02*
X181333333Y-78145295D01*
X181333333Y-78145295D02*
X181333333Y-78288152D01*
X181333333Y-78288152D02*
X181285714Y-78383390D01*
X181285714Y-78383390D02*
X181238095Y-78431009D01*
X181238095Y-78431009D02*
X181142857Y-78478628D01*
X181142857Y-78478628D02*
X180761905Y-78478628D01*
X182190476Y-77954819D02*
X182000000Y-77954819D01*
X182000000Y-77954819D02*
X181904762Y-78002438D01*
X181904762Y-78002438D02*
X181857143Y-78050057D01*
X181857143Y-78050057D02*
X181761905Y-78192914D01*
X181761905Y-78192914D02*
X181714286Y-78383390D01*
X181714286Y-78383390D02*
X181714286Y-78764342D01*
X181714286Y-78764342D02*
X181761905Y-78859580D01*
X181761905Y-78859580D02*
X181809524Y-78907200D01*
X181809524Y-78907200D02*
X181904762Y-78954819D01*
X181904762Y-78954819D02*
X182095238Y-78954819D01*
X182095238Y-78954819D02*
X182190476Y-78907200D01*
X182190476Y-78907200D02*
X182238095Y-78859580D01*
X182238095Y-78859580D02*
X182285714Y-78764342D01*
X182285714Y-78764342D02*
X182285714Y-78526247D01*
X182285714Y-78526247D02*
X182238095Y-78431009D01*
X182238095Y-78431009D02*
X182190476Y-78383390D01*
X182190476Y-78383390D02*
X182095238Y-78335771D01*
X182095238Y-78335771D02*
X181904762Y-78335771D01*
X181904762Y-78335771D02*
X181809524Y-78383390D01*
X181809524Y-78383390D02*
X181761905Y-78431009D01*
X181761905Y-78431009D02*
X181714286Y-78526247D01*
X168626666Y-100431009D02*
X168293333Y-100431009D01*
X168293333Y-100954819D02*
X168293333Y-99954819D01*
X168293333Y-99954819D02*
X168769523Y-99954819D01*
X169674285Y-100954819D02*
X169102857Y-100954819D01*
X169388571Y-100954819D02*
X169388571Y-99954819D01*
X169388571Y-99954819D02*
X169293333Y-100097676D01*
X169293333Y-100097676D02*
X169198095Y-100192914D01*
X169198095Y-100192914D02*
X169102857Y-100240533D01*
X180761905Y-86454819D02*
X180761905Y-85454819D01*
X180761905Y-85454819D02*
X181000000Y-85454819D01*
X181000000Y-85454819D02*
X181142857Y-85502438D01*
X181142857Y-85502438D02*
X181238095Y-85597676D01*
X181238095Y-85597676D02*
X181285714Y-85692914D01*
X181285714Y-85692914D02*
X181333333Y-85883390D01*
X181333333Y-85883390D02*
X181333333Y-86026247D01*
X181333333Y-86026247D02*
X181285714Y-86216723D01*
X181285714Y-86216723D02*
X181238095Y-86311961D01*
X181238095Y-86311961D02*
X181142857Y-86407200D01*
X181142857Y-86407200D02*
X181000000Y-86454819D01*
X181000000Y-86454819D02*
X180761905Y-86454819D01*
X182285714Y-86454819D02*
X181714286Y-86454819D01*
X182000000Y-86454819D02*
X182000000Y-85454819D01*
X182000000Y-85454819D02*
X181904762Y-85597676D01*
X181904762Y-85597676D02*
X181809524Y-85692914D01*
X181809524Y-85692914D02*
X181714286Y-85740533D01*
X115833333Y-57454819D02*
X115500000Y-56978628D01*
X115261905Y-57454819D02*
X115261905Y-56454819D01*
X115261905Y-56454819D02*
X115642857Y-56454819D01*
X115642857Y-56454819D02*
X115738095Y-56502438D01*
X115738095Y-56502438D02*
X115785714Y-56550057D01*
X115785714Y-56550057D02*
X115833333Y-56645295D01*
X115833333Y-56645295D02*
X115833333Y-56788152D01*
X115833333Y-56788152D02*
X115785714Y-56883390D01*
X115785714Y-56883390D02*
X115738095Y-56931009D01*
X115738095Y-56931009D02*
X115642857Y-56978628D01*
X115642857Y-56978628D02*
X115261905Y-56978628D01*
X116785714Y-57454819D02*
X116214286Y-57454819D01*
X116500000Y-57454819D02*
X116500000Y-56454819D01*
X116500000Y-56454819D02*
X116404762Y-56597676D01*
X116404762Y-56597676D02*
X116309524Y-56692914D01*
X116309524Y-56692914D02*
X116214286Y-56740533D01*
X181333333Y-66454819D02*
X181000000Y-65978628D01*
X180761905Y-66454819D02*
X180761905Y-65454819D01*
X180761905Y-65454819D02*
X181142857Y-65454819D01*
X181142857Y-65454819D02*
X181238095Y-65502438D01*
X181238095Y-65502438D02*
X181285714Y-65550057D01*
X181285714Y-65550057D02*
X181333333Y-65645295D01*
X181333333Y-65645295D02*
X181333333Y-65788152D01*
X181333333Y-65788152D02*
X181285714Y-65883390D01*
X181285714Y-65883390D02*
X181238095Y-65931009D01*
X181238095Y-65931009D02*
X181142857Y-65978628D01*
X181142857Y-65978628D02*
X180761905Y-65978628D01*
X182238095Y-65454819D02*
X181761905Y-65454819D01*
X181761905Y-65454819D02*
X181714286Y-65931009D01*
X181714286Y-65931009D02*
X181761905Y-65883390D01*
X181761905Y-65883390D02*
X181857143Y-65835771D01*
X181857143Y-65835771D02*
X182095238Y-65835771D01*
X182095238Y-65835771D02*
X182190476Y-65883390D01*
X182190476Y-65883390D02*
X182238095Y-65931009D01*
X182238095Y-65931009D02*
X182285714Y-66026247D01*
X182285714Y-66026247D02*
X182285714Y-66264342D01*
X182285714Y-66264342D02*
X182238095Y-66359580D01*
X182238095Y-66359580D02*
X182190476Y-66407200D01*
X182190476Y-66407200D02*
X182095238Y-66454819D01*
X182095238Y-66454819D02*
X181857143Y-66454819D01*
X181857143Y-66454819D02*
X181761905Y-66407200D01*
X181761905Y-66407200D02*
X181714286Y-66359580D01*
D11*
X177076667Y-104304318D02*
X177076667Y-105211461D01*
X177076667Y-105211461D02*
X177016190Y-105392889D01*
X177016190Y-105392889D02*
X176895238Y-105513842D01*
X176895238Y-105513842D02*
X176713809Y-105574318D01*
X176713809Y-105574318D02*
X176592857Y-105574318D01*
X178346667Y-105574318D02*
X177620952Y-105574318D01*
X177983809Y-105574318D02*
X177983809Y-104304318D01*
X177983809Y-104304318D02*
X177862857Y-104485746D01*
X177862857Y-104485746D02*
X177741905Y-104606699D01*
X177741905Y-104606699D02*
X177620952Y-104667175D01*
D10*
X168948095Y-56994819D02*
X168948095Y-57804342D01*
X168948095Y-57804342D02*
X168995714Y-57899580D01*
X168995714Y-57899580D02*
X169043333Y-57947200D01*
X169043333Y-57947200D02*
X169138571Y-57994819D01*
X169138571Y-57994819D02*
X169329047Y-57994819D01*
X169329047Y-57994819D02*
X169424285Y-57947200D01*
X169424285Y-57947200D02*
X169471904Y-57899580D01*
X169471904Y-57899580D02*
X169519523Y-57804342D01*
X169519523Y-57804342D02*
X169519523Y-56994819D01*
X169900476Y-56994819D02*
X170567142Y-56994819D01*
X170567142Y-56994819D02*
X170138571Y-57994819D01*
X165520000Y-53454819D02*
X165520000Y-53692914D01*
X165281905Y-53597676D02*
X165520000Y-53692914D01*
X165520000Y-53692914D02*
X165758095Y-53597676D01*
X165377143Y-53883390D02*
X165520000Y-53692914D01*
X165520000Y-53692914D02*
X165662857Y-53883390D01*
X165500000Y-52454819D02*
X165500000Y-52692914D01*
X165261905Y-52597676D02*
X165500000Y-52692914D01*
X165500000Y-52692914D02*
X165738095Y-52597676D01*
X165357143Y-52883390D02*
X165500000Y-52692914D01*
X165500000Y-52692914D02*
X165642857Y-52883390D01*
D11*
X124076667Y-104304318D02*
X124076667Y-105211461D01*
X124076667Y-105211461D02*
X124016190Y-105392889D01*
X124016190Y-105392889D02*
X123895238Y-105513842D01*
X123895238Y-105513842D02*
X123713809Y-105574318D01*
X123713809Y-105574318D02*
X123592857Y-105574318D01*
X125286190Y-104304318D02*
X124681428Y-104304318D01*
X124681428Y-104304318D02*
X124620952Y-104909080D01*
X124620952Y-104909080D02*
X124681428Y-104848603D01*
X124681428Y-104848603D02*
X124802381Y-104788127D01*
X124802381Y-104788127D02*
X125104762Y-104788127D01*
X125104762Y-104788127D02*
X125225714Y-104848603D01*
X125225714Y-104848603D02*
X125286190Y-104909080D01*
X125286190Y-104909080D02*
X125346667Y-105030032D01*
X125346667Y-105030032D02*
X125346667Y-105332413D01*
X125346667Y-105332413D02*
X125286190Y-105453365D01*
X125286190Y-105453365D02*
X125225714Y-105513842D01*
X125225714Y-105513842D02*
X125104762Y-105574318D01*
X125104762Y-105574318D02*
X124802381Y-105574318D01*
X124802381Y-105574318D02*
X124681428Y-105513842D01*
X124681428Y-105513842D02*
X124620952Y-105453365D01*
D10*
X118238095Y-58954819D02*
X118238095Y-59764342D01*
X118238095Y-59764342D02*
X118285714Y-59859580D01*
X118285714Y-59859580D02*
X118333333Y-59907200D01*
X118333333Y-59907200D02*
X118428571Y-59954819D01*
X118428571Y-59954819D02*
X118619047Y-59954819D01*
X118619047Y-59954819D02*
X118714285Y-59907200D01*
X118714285Y-59907200D02*
X118761904Y-59859580D01*
X118761904Y-59859580D02*
X118809523Y-59764342D01*
X118809523Y-59764342D02*
X118809523Y-58954819D01*
X119190476Y-58954819D02*
X119809523Y-58954819D01*
X119809523Y-58954819D02*
X119476190Y-59335771D01*
X119476190Y-59335771D02*
X119619047Y-59335771D01*
X119619047Y-59335771D02*
X119714285Y-59383390D01*
X119714285Y-59383390D02*
X119761904Y-59431009D01*
X119761904Y-59431009D02*
X119809523Y-59526247D01*
X119809523Y-59526247D02*
X119809523Y-59764342D01*
X119809523Y-59764342D02*
X119761904Y-59859580D01*
X119761904Y-59859580D02*
X119714285Y-59907200D01*
X119714285Y-59907200D02*
X119619047Y-59954819D01*
X119619047Y-59954819D02*
X119333333Y-59954819D01*
X119333333Y-59954819D02*
X119238095Y-59907200D01*
X119238095Y-59907200D02*
X119190476Y-59859580D01*
X117069600Y-58954819D02*
X117069600Y-59192914D01*
X116831505Y-59097676D02*
X117069600Y-59192914D01*
X117069600Y-59192914D02*
X117307695Y-59097676D01*
X116926743Y-59383390D02*
X117069600Y-59192914D01*
X117069600Y-59192914D02*
X117212457Y-59383390D01*
X117069600Y-58954819D02*
X117069600Y-59192914D01*
X116831505Y-59097676D02*
X117069600Y-59192914D01*
X117069600Y-59192914D02*
X117307695Y-59097676D01*
X116926743Y-59383390D02*
X117069600Y-59192914D01*
X117069600Y-59192914D02*
X117212457Y-59383390D01*
X133357142Y-95734819D02*
X133023809Y-95258628D01*
X132785714Y-95734819D02*
X132785714Y-94734819D01*
X132785714Y-94734819D02*
X133166666Y-94734819D01*
X133166666Y-94734819D02*
X133261904Y-94782438D01*
X133261904Y-94782438D02*
X133309523Y-94830057D01*
X133309523Y-94830057D02*
X133357142Y-94925295D01*
X133357142Y-94925295D02*
X133357142Y-95068152D01*
X133357142Y-95068152D02*
X133309523Y-95163390D01*
X133309523Y-95163390D02*
X133261904Y-95211009D01*
X133261904Y-95211009D02*
X133166666Y-95258628D01*
X133166666Y-95258628D02*
X132785714Y-95258628D01*
X134309523Y-95734819D02*
X133738095Y-95734819D01*
X134023809Y-95734819D02*
X134023809Y-94734819D01*
X134023809Y-94734819D02*
X133928571Y-94877676D01*
X133928571Y-94877676D02*
X133833333Y-94972914D01*
X133833333Y-94972914D02*
X133738095Y-95020533D01*
X135261904Y-95734819D02*
X134690476Y-95734819D01*
X134976190Y-95734819D02*
X134976190Y-94734819D01*
X134976190Y-94734819D02*
X134880952Y-94877676D01*
X134880952Y-94877676D02*
X134785714Y-94972914D01*
X134785714Y-94972914D02*
X134690476Y-95020533D01*
X122761905Y-74454819D02*
X122761905Y-73454819D01*
X123333333Y-74454819D02*
X122904762Y-73883390D01*
X123333333Y-73454819D02*
X122761905Y-74026247D01*
X124285714Y-74454819D02*
X123714286Y-74454819D01*
X124000000Y-74454819D02*
X124000000Y-73454819D01*
X124000000Y-73454819D02*
X123904762Y-73597676D01*
X123904762Y-73597676D02*
X123809524Y-73692914D01*
X123809524Y-73692914D02*
X123714286Y-73740533D01*
X155833333Y-95604819D02*
X155500000Y-95128628D01*
X155261905Y-95604819D02*
X155261905Y-94604819D01*
X155261905Y-94604819D02*
X155642857Y-94604819D01*
X155642857Y-94604819D02*
X155738095Y-94652438D01*
X155738095Y-94652438D02*
X155785714Y-94700057D01*
X155785714Y-94700057D02*
X155833333Y-94795295D01*
X155833333Y-94795295D02*
X155833333Y-94938152D01*
X155833333Y-94938152D02*
X155785714Y-95033390D01*
X155785714Y-95033390D02*
X155738095Y-95081009D01*
X155738095Y-95081009D02*
X155642857Y-95128628D01*
X155642857Y-95128628D02*
X155261905Y-95128628D01*
X156166667Y-94604819D02*
X156833333Y-94604819D01*
X156833333Y-94604819D02*
X156404762Y-95604819D01*
X122404761Y-59050057D02*
X122309523Y-59002438D01*
X122309523Y-59002438D02*
X122214285Y-58907200D01*
X122214285Y-58907200D02*
X122071428Y-58764342D01*
X122071428Y-58764342D02*
X121976190Y-58716723D01*
X121976190Y-58716723D02*
X121880952Y-58716723D01*
X121928571Y-58954819D02*
X121833333Y-58907200D01*
X121833333Y-58907200D02*
X121738095Y-58811961D01*
X121738095Y-58811961D02*
X121690476Y-58621485D01*
X121690476Y-58621485D02*
X121690476Y-58288152D01*
X121690476Y-58288152D02*
X121738095Y-58097676D01*
X121738095Y-58097676D02*
X121833333Y-58002438D01*
X121833333Y-58002438D02*
X121928571Y-57954819D01*
X121928571Y-57954819D02*
X122119047Y-57954819D01*
X122119047Y-57954819D02*
X122214285Y-58002438D01*
X122214285Y-58002438D02*
X122309523Y-58097676D01*
X122309523Y-58097676D02*
X122357142Y-58288152D01*
X122357142Y-58288152D02*
X122357142Y-58621485D01*
X122357142Y-58621485D02*
X122309523Y-58811961D01*
X122309523Y-58811961D02*
X122214285Y-58907200D01*
X122214285Y-58907200D02*
X122119047Y-58954819D01*
X122119047Y-58954819D02*
X121928571Y-58954819D01*
X123309523Y-58954819D02*
X122738095Y-58954819D01*
X123023809Y-58954819D02*
X123023809Y-57954819D01*
X123023809Y-57954819D02*
X122928571Y-58097676D01*
X122928571Y-58097676D02*
X122833333Y-58192914D01*
X122833333Y-58192914D02*
X122738095Y-58240533D01*
X128193466Y-59431009D02*
X127860133Y-59431009D01*
X127860133Y-59954819D02*
X127860133Y-58954819D01*
X127860133Y-58954819D02*
X128336323Y-58954819D01*
X129145847Y-59288152D02*
X129145847Y-59954819D01*
X128907752Y-58907200D02*
X128669657Y-59621485D01*
X128669657Y-59621485D02*
X129288704Y-59621485D01*
X131124819Y-62116666D02*
X130648628Y-62449999D01*
X131124819Y-62688094D02*
X130124819Y-62688094D01*
X130124819Y-62688094D02*
X130124819Y-62307142D01*
X130124819Y-62307142D02*
X130172438Y-62211904D01*
X130172438Y-62211904D02*
X130220057Y-62164285D01*
X130220057Y-62164285D02*
X130315295Y-62116666D01*
X130315295Y-62116666D02*
X130458152Y-62116666D01*
X130458152Y-62116666D02*
X130553390Y-62164285D01*
X130553390Y-62164285D02*
X130601009Y-62211904D01*
X130601009Y-62211904D02*
X130648628Y-62307142D01*
X130648628Y-62307142D02*
X130648628Y-62688094D01*
X130553390Y-61545237D02*
X130505771Y-61640475D01*
X130505771Y-61640475D02*
X130458152Y-61688094D01*
X130458152Y-61688094D02*
X130362914Y-61735713D01*
X130362914Y-61735713D02*
X130315295Y-61735713D01*
X130315295Y-61735713D02*
X130220057Y-61688094D01*
X130220057Y-61688094D02*
X130172438Y-61640475D01*
X130172438Y-61640475D02*
X130124819Y-61545237D01*
X130124819Y-61545237D02*
X130124819Y-61354761D01*
X130124819Y-61354761D02*
X130172438Y-61259523D01*
X130172438Y-61259523D02*
X130220057Y-61211904D01*
X130220057Y-61211904D02*
X130315295Y-61164285D01*
X130315295Y-61164285D02*
X130362914Y-61164285D01*
X130362914Y-61164285D02*
X130458152Y-61211904D01*
X130458152Y-61211904D02*
X130505771Y-61259523D01*
X130505771Y-61259523D02*
X130553390Y-61354761D01*
X130553390Y-61354761D02*
X130553390Y-61545237D01*
X130553390Y-61545237D02*
X130601009Y-61640475D01*
X130601009Y-61640475D02*
X130648628Y-61688094D01*
X130648628Y-61688094D02*
X130743866Y-61735713D01*
X130743866Y-61735713D02*
X130934342Y-61735713D01*
X130934342Y-61735713D02*
X131029580Y-61688094D01*
X131029580Y-61688094D02*
X131077200Y-61640475D01*
X131077200Y-61640475D02*
X131124819Y-61545237D01*
X131124819Y-61545237D02*
X131124819Y-61354761D01*
X131124819Y-61354761D02*
X131077200Y-61259523D01*
X131077200Y-61259523D02*
X131029580Y-61211904D01*
X131029580Y-61211904D02*
X130934342Y-61164285D01*
X130934342Y-61164285D02*
X130743866Y-61164285D01*
X130743866Y-61164285D02*
X130648628Y-61211904D01*
X130648628Y-61211904D02*
X130601009Y-61259523D01*
X130601009Y-61259523D02*
X130553390Y-61354761D01*
D11*
X155076667Y-104304318D02*
X155076667Y-105211461D01*
X155076667Y-105211461D02*
X155016190Y-105392889D01*
X155016190Y-105392889D02*
X154895238Y-105513842D01*
X154895238Y-105513842D02*
X154713809Y-105574318D01*
X154713809Y-105574318D02*
X154592857Y-105574318D01*
X155560476Y-104304318D02*
X156346667Y-104304318D01*
X156346667Y-104304318D02*
X155923333Y-104788127D01*
X155923333Y-104788127D02*
X156104762Y-104788127D01*
X156104762Y-104788127D02*
X156225714Y-104848603D01*
X156225714Y-104848603D02*
X156286190Y-104909080D01*
X156286190Y-104909080D02*
X156346667Y-105030032D01*
X156346667Y-105030032D02*
X156346667Y-105332413D01*
X156346667Y-105332413D02*
X156286190Y-105453365D01*
X156286190Y-105453365D02*
X156225714Y-105513842D01*
X156225714Y-105513842D02*
X156104762Y-105574318D01*
X156104762Y-105574318D02*
X155741905Y-105574318D01*
X155741905Y-105574318D02*
X155620952Y-105513842D01*
X155620952Y-105513842D02*
X155560476Y-105453365D01*
D10*
X148833333Y-99359580D02*
X148785714Y-99407200D01*
X148785714Y-99407200D02*
X148642857Y-99454819D01*
X148642857Y-99454819D02*
X148547619Y-99454819D01*
X148547619Y-99454819D02*
X148404762Y-99407200D01*
X148404762Y-99407200D02*
X148309524Y-99311961D01*
X148309524Y-99311961D02*
X148261905Y-99216723D01*
X148261905Y-99216723D02*
X148214286Y-99026247D01*
X148214286Y-99026247D02*
X148214286Y-98883390D01*
X148214286Y-98883390D02*
X148261905Y-98692914D01*
X148261905Y-98692914D02*
X148309524Y-98597676D01*
X148309524Y-98597676D02*
X148404762Y-98502438D01*
X148404762Y-98502438D02*
X148547619Y-98454819D01*
X148547619Y-98454819D02*
X148642857Y-98454819D01*
X148642857Y-98454819D02*
X148785714Y-98502438D01*
X148785714Y-98502438D02*
X148833333Y-98550057D01*
X149214286Y-98550057D02*
X149261905Y-98502438D01*
X149261905Y-98502438D02*
X149357143Y-98454819D01*
X149357143Y-98454819D02*
X149595238Y-98454819D01*
X149595238Y-98454819D02*
X149690476Y-98502438D01*
X149690476Y-98502438D02*
X149738095Y-98550057D01*
X149738095Y-98550057D02*
X149785714Y-98645295D01*
X149785714Y-98645295D02*
X149785714Y-98740533D01*
X149785714Y-98740533D02*
X149738095Y-98883390D01*
X149738095Y-98883390D02*
X149166667Y-99454819D01*
X149166667Y-99454819D02*
X149785714Y-99454819D01*
X168928095Y-66454819D02*
X168928095Y-67264342D01*
X168928095Y-67264342D02*
X168975714Y-67359580D01*
X168975714Y-67359580D02*
X169023333Y-67407200D01*
X169023333Y-67407200D02*
X169118571Y-67454819D01*
X169118571Y-67454819D02*
X169309047Y-67454819D01*
X169309047Y-67454819D02*
X169404285Y-67407200D01*
X169404285Y-67407200D02*
X169451904Y-67359580D01*
X169451904Y-67359580D02*
X169499523Y-67264342D01*
X169499523Y-67264342D02*
X169499523Y-66454819D01*
X170404285Y-66454819D02*
X170213809Y-66454819D01*
X170213809Y-66454819D02*
X170118571Y-66502438D01*
X170118571Y-66502438D02*
X170070952Y-66550057D01*
X170070952Y-66550057D02*
X169975714Y-66692914D01*
X169975714Y-66692914D02*
X169928095Y-66883390D01*
X169928095Y-66883390D02*
X169928095Y-67264342D01*
X169928095Y-67264342D02*
X169975714Y-67359580D01*
X169975714Y-67359580D02*
X170023333Y-67407200D01*
X170023333Y-67407200D02*
X170118571Y-67454819D01*
X170118571Y-67454819D02*
X170309047Y-67454819D01*
X170309047Y-67454819D02*
X170404285Y-67407200D01*
X170404285Y-67407200D02*
X170451904Y-67359580D01*
X170451904Y-67359580D02*
X170499523Y-67264342D01*
X170499523Y-67264342D02*
X170499523Y-67026247D01*
X170499523Y-67026247D02*
X170451904Y-66931009D01*
X170451904Y-66931009D02*
X170404285Y-66883390D01*
X170404285Y-66883390D02*
X170309047Y-66835771D01*
X170309047Y-66835771D02*
X170118571Y-66835771D01*
X170118571Y-66835771D02*
X170023333Y-66883390D01*
X170023333Y-66883390D02*
X169975714Y-66931009D01*
X169975714Y-66931009D02*
X169928095Y-67026247D01*
X173999999Y-72045180D02*
X173999999Y-71807085D01*
X174238094Y-71902323D02*
X173999999Y-71807085D01*
X173999999Y-71807085D02*
X173761904Y-71902323D01*
X174142856Y-71616609D02*
X173999999Y-71807085D01*
X173999999Y-71807085D02*
X173857142Y-71616609D01*
X174000000Y-70417219D02*
X174000000Y-70655314D01*
X173761905Y-70560076D02*
X174000000Y-70655314D01*
X174000000Y-70655314D02*
X174238095Y-70560076D01*
X173857143Y-70845790D02*
X174000000Y-70655314D01*
X174000000Y-70655314D02*
X174142857Y-70845790D01*
D11*
X134076667Y-104304318D02*
X134076667Y-105211461D01*
X134076667Y-105211461D02*
X134016190Y-105392889D01*
X134016190Y-105392889D02*
X133895238Y-105513842D01*
X133895238Y-105513842D02*
X133713809Y-105574318D01*
X133713809Y-105574318D02*
X133592857Y-105574318D01*
X134620952Y-104425270D02*
X134681428Y-104364794D01*
X134681428Y-104364794D02*
X134802381Y-104304318D01*
X134802381Y-104304318D02*
X135104762Y-104304318D01*
X135104762Y-104304318D02*
X135225714Y-104364794D01*
X135225714Y-104364794D02*
X135286190Y-104425270D01*
X135286190Y-104425270D02*
X135346667Y-104546222D01*
X135346667Y-104546222D02*
X135346667Y-104667175D01*
X135346667Y-104667175D02*
X135286190Y-104848603D01*
X135286190Y-104848603D02*
X134560476Y-105574318D01*
X134560476Y-105574318D02*
X135346667Y-105574318D01*
D10*
X167450057Y-79095238D02*
X167402438Y-79190476D01*
X167402438Y-79190476D02*
X167307200Y-79285714D01*
X167307200Y-79285714D02*
X167164342Y-79428571D01*
X167164342Y-79428571D02*
X167116723Y-79523809D01*
X167116723Y-79523809D02*
X167116723Y-79619047D01*
X167354819Y-79571428D02*
X167307200Y-79666666D01*
X167307200Y-79666666D02*
X167211961Y-79761904D01*
X167211961Y-79761904D02*
X167021485Y-79809523D01*
X167021485Y-79809523D02*
X166688152Y-79809523D01*
X166688152Y-79809523D02*
X166497676Y-79761904D01*
X166497676Y-79761904D02*
X166402438Y-79666666D01*
X166402438Y-79666666D02*
X166354819Y-79571428D01*
X166354819Y-79571428D02*
X166354819Y-79380952D01*
X166354819Y-79380952D02*
X166402438Y-79285714D01*
X166402438Y-79285714D02*
X166497676Y-79190476D01*
X166497676Y-79190476D02*
X166688152Y-79142857D01*
X166688152Y-79142857D02*
X167021485Y-79142857D01*
X167021485Y-79142857D02*
X167211961Y-79190476D01*
X167211961Y-79190476D02*
X167307200Y-79285714D01*
X167307200Y-79285714D02*
X167354819Y-79380952D01*
X167354819Y-79380952D02*
X167354819Y-79571428D01*
X166688152Y-78285714D02*
X167354819Y-78285714D01*
X166307200Y-78523809D02*
X167021485Y-78761904D01*
X167021485Y-78761904D02*
X167021485Y-78142857D01*
X139859580Y-56166666D02*
X139907200Y-56214285D01*
X139907200Y-56214285D02*
X139954819Y-56357142D01*
X139954819Y-56357142D02*
X139954819Y-56452380D01*
X139954819Y-56452380D02*
X139907200Y-56595237D01*
X139907200Y-56595237D02*
X139811961Y-56690475D01*
X139811961Y-56690475D02*
X139716723Y-56738094D01*
X139716723Y-56738094D02*
X139526247Y-56785713D01*
X139526247Y-56785713D02*
X139383390Y-56785713D01*
X139383390Y-56785713D02*
X139192914Y-56738094D01*
X139192914Y-56738094D02*
X139097676Y-56690475D01*
X139097676Y-56690475D02*
X139002438Y-56595237D01*
X139002438Y-56595237D02*
X138954819Y-56452380D01*
X138954819Y-56452380D02*
X138954819Y-56357142D01*
X138954819Y-56357142D02*
X139002438Y-56214285D01*
X139002438Y-56214285D02*
X139050057Y-56166666D01*
X138954819Y-55833332D02*
X138954819Y-55214285D01*
X138954819Y-55214285D02*
X139335771Y-55547618D01*
X139335771Y-55547618D02*
X139335771Y-55404761D01*
X139335771Y-55404761D02*
X139383390Y-55309523D01*
X139383390Y-55309523D02*
X139431009Y-55261904D01*
X139431009Y-55261904D02*
X139526247Y-55214285D01*
X139526247Y-55214285D02*
X139764342Y-55214285D01*
X139764342Y-55214285D02*
X139859580Y-55261904D01*
X139859580Y-55261904D02*
X139907200Y-55309523D01*
X139907200Y-55309523D02*
X139954819Y-55404761D01*
X139954819Y-55404761D02*
X139954819Y-55690475D01*
X139954819Y-55690475D02*
X139907200Y-55785713D01*
X139907200Y-55785713D02*
X139859580Y-55833332D01*
X181333333Y-58054819D02*
X181000000Y-57578628D01*
X180761905Y-58054819D02*
X180761905Y-57054819D01*
X180761905Y-57054819D02*
X181142857Y-57054819D01*
X181142857Y-57054819D02*
X181238095Y-57102438D01*
X181238095Y-57102438D02*
X181285714Y-57150057D01*
X181285714Y-57150057D02*
X181333333Y-57245295D01*
X181333333Y-57245295D02*
X181333333Y-57388152D01*
X181333333Y-57388152D02*
X181285714Y-57483390D01*
X181285714Y-57483390D02*
X181238095Y-57531009D01*
X181238095Y-57531009D02*
X181142857Y-57578628D01*
X181142857Y-57578628D02*
X180761905Y-57578628D01*
X181809524Y-58054819D02*
X182000000Y-58054819D01*
X182000000Y-58054819D02*
X182095238Y-58007200D01*
X182095238Y-58007200D02*
X182142857Y-57959580D01*
X182142857Y-57959580D02*
X182238095Y-57816723D01*
X182238095Y-57816723D02*
X182285714Y-57626247D01*
X182285714Y-57626247D02*
X182285714Y-57245295D01*
X182285714Y-57245295D02*
X182238095Y-57150057D01*
X182238095Y-57150057D02*
X182190476Y-57102438D01*
X182190476Y-57102438D02*
X182095238Y-57054819D01*
X182095238Y-57054819D02*
X181904762Y-57054819D01*
X181904762Y-57054819D02*
X181809524Y-57102438D01*
X181809524Y-57102438D02*
X181761905Y-57150057D01*
X181761905Y-57150057D02*
X181714286Y-57245295D01*
X181714286Y-57245295D02*
X181714286Y-57483390D01*
X181714286Y-57483390D02*
X181761905Y-57578628D01*
X181761905Y-57578628D02*
X181809524Y-57626247D01*
X181809524Y-57626247D02*
X181904762Y-57673866D01*
X181904762Y-57673866D02*
X182095238Y-57673866D01*
X182095238Y-57673866D02*
X182190476Y-57626247D01*
X182190476Y-57626247D02*
X182238095Y-57578628D01*
X182238095Y-57578628D02*
X182285714Y-57483390D01*
D11*
X142076667Y-104304318D02*
X142076667Y-105211461D01*
X142076667Y-105211461D02*
X142016190Y-105392889D01*
X142016190Y-105392889D02*
X141895238Y-105513842D01*
X141895238Y-105513842D02*
X141713809Y-105574318D01*
X141713809Y-105574318D02*
X141592857Y-105574318D01*
X143225714Y-104727651D02*
X143225714Y-105574318D01*
X142923333Y-104243842D02*
X142620952Y-105150984D01*
X142620952Y-105150984D02*
X143407143Y-105150984D01*
D10*
X130954819Y-57142857D02*
X130478628Y-57476190D01*
X130954819Y-57714285D02*
X129954819Y-57714285D01*
X129954819Y-57714285D02*
X129954819Y-57333333D01*
X129954819Y-57333333D02*
X130002438Y-57238095D01*
X130002438Y-57238095D02*
X130050057Y-57190476D01*
X130050057Y-57190476D02*
X130145295Y-57142857D01*
X130145295Y-57142857D02*
X130288152Y-57142857D01*
X130288152Y-57142857D02*
X130383390Y-57190476D01*
X130383390Y-57190476D02*
X130431009Y-57238095D01*
X130431009Y-57238095D02*
X130478628Y-57333333D01*
X130478628Y-57333333D02*
X130478628Y-57714285D01*
X130050057Y-56761904D02*
X130002438Y-56714285D01*
X130002438Y-56714285D02*
X129954819Y-56619047D01*
X129954819Y-56619047D02*
X129954819Y-56380952D01*
X129954819Y-56380952D02*
X130002438Y-56285714D01*
X130002438Y-56285714D02*
X130050057Y-56238095D01*
X130050057Y-56238095D02*
X130145295Y-56190476D01*
X130145295Y-56190476D02*
X130240533Y-56190476D01*
X130240533Y-56190476D02*
X130383390Y-56238095D01*
X130383390Y-56238095D02*
X130954819Y-56809523D01*
X130954819Y-56809523D02*
X130954819Y-56190476D01*
X130383390Y-55619047D02*
X130335771Y-55714285D01*
X130335771Y-55714285D02*
X130288152Y-55761904D01*
X130288152Y-55761904D02*
X130192914Y-55809523D01*
X130192914Y-55809523D02*
X130145295Y-55809523D01*
X130145295Y-55809523D02*
X130050057Y-55761904D01*
X130050057Y-55761904D02*
X130002438Y-55714285D01*
X130002438Y-55714285D02*
X129954819Y-55619047D01*
X129954819Y-55619047D02*
X129954819Y-55428571D01*
X129954819Y-55428571D02*
X130002438Y-55333333D01*
X130002438Y-55333333D02*
X130050057Y-55285714D01*
X130050057Y-55285714D02*
X130145295Y-55238095D01*
X130145295Y-55238095D02*
X130192914Y-55238095D01*
X130192914Y-55238095D02*
X130288152Y-55285714D01*
X130288152Y-55285714D02*
X130335771Y-55333333D01*
X130335771Y-55333333D02*
X130383390Y-55428571D01*
X130383390Y-55428571D02*
X130383390Y-55619047D01*
X130383390Y-55619047D02*
X130431009Y-55714285D01*
X130431009Y-55714285D02*
X130478628Y-55761904D01*
X130478628Y-55761904D02*
X130573866Y-55809523D01*
X130573866Y-55809523D02*
X130764342Y-55809523D01*
X130764342Y-55809523D02*
X130859580Y-55761904D01*
X130859580Y-55761904D02*
X130907200Y-55714285D01*
X130907200Y-55714285D02*
X130954819Y-55619047D01*
X130954819Y-55619047D02*
X130954819Y-55428571D01*
X130954819Y-55428571D02*
X130907200Y-55333333D01*
X130907200Y-55333333D02*
X130859580Y-55285714D01*
X130859580Y-55285714D02*
X130764342Y-55238095D01*
X130764342Y-55238095D02*
X130573866Y-55238095D01*
X130573866Y-55238095D02*
X130478628Y-55285714D01*
X130478628Y-55285714D02*
X130431009Y-55333333D01*
X130431009Y-55333333D02*
X130383390Y-55428571D01*
X161333333Y-99359580D02*
X161285714Y-99407200D01*
X161285714Y-99407200D02*
X161142857Y-99454819D01*
X161142857Y-99454819D02*
X161047619Y-99454819D01*
X161047619Y-99454819D02*
X160904762Y-99407200D01*
X160904762Y-99407200D02*
X160809524Y-99311961D01*
X160809524Y-99311961D02*
X160761905Y-99216723D01*
X160761905Y-99216723D02*
X160714286Y-99026247D01*
X160714286Y-99026247D02*
X160714286Y-98883390D01*
X160714286Y-98883390D02*
X160761905Y-98692914D01*
X160761905Y-98692914D02*
X160809524Y-98597676D01*
X160809524Y-98597676D02*
X160904762Y-98502438D01*
X160904762Y-98502438D02*
X161047619Y-98454819D01*
X161047619Y-98454819D02*
X161142857Y-98454819D01*
X161142857Y-98454819D02*
X161285714Y-98502438D01*
X161285714Y-98502438D02*
X161333333Y-98550057D01*
X162285714Y-99454819D02*
X161714286Y-99454819D01*
X162000000Y-99454819D02*
X162000000Y-98454819D01*
X162000000Y-98454819D02*
X161904762Y-98597676D01*
X161904762Y-98597676D02*
X161809524Y-98692914D01*
X161809524Y-98692914D02*
X161714286Y-98740533D01*
X151238095Y-71954819D02*
X151238095Y-72764342D01*
X151238095Y-72764342D02*
X151285714Y-72859580D01*
X151285714Y-72859580D02*
X151333333Y-72907200D01*
X151333333Y-72907200D02*
X151428571Y-72954819D01*
X151428571Y-72954819D02*
X151619047Y-72954819D01*
X151619047Y-72954819D02*
X151714285Y-72907200D01*
X151714285Y-72907200D02*
X151761904Y-72859580D01*
X151761904Y-72859580D02*
X151809523Y-72764342D01*
X151809523Y-72764342D02*
X151809523Y-71954819D01*
X152809523Y-72954819D02*
X152238095Y-72954819D01*
X152523809Y-72954819D02*
X152523809Y-71954819D01*
X152523809Y-71954819D02*
X152428571Y-72097676D01*
X152428571Y-72097676D02*
X152333333Y-72192914D01*
X152333333Y-72192914D02*
X152238095Y-72240533D01*
X139454819Y-90499999D02*
X139692914Y-90499999D01*
X139597676Y-90738094D02*
X139692914Y-90499999D01*
X139692914Y-90499999D02*
X139597676Y-90261904D01*
X139883390Y-90642856D02*
X139692914Y-90499999D01*
X139692914Y-90499999D02*
X139883390Y-90357142D01*
X139454819Y-89499999D02*
X139692914Y-89499999D01*
X139597676Y-89738094D02*
X139692914Y-89499999D01*
X139692914Y-89499999D02*
X139597676Y-89261904D01*
X139883390Y-89642856D02*
X139692914Y-89499999D01*
X139692914Y-89499999D02*
X139883390Y-89357142D01*
X167666666Y-90796009D02*
X167333333Y-90796009D01*
X167333333Y-91319819D02*
X167333333Y-90319819D01*
X167333333Y-90319819D02*
X167809523Y-90319819D01*
X168142857Y-90415057D02*
X168190476Y-90367438D01*
X168190476Y-90367438D02*
X168285714Y-90319819D01*
X168285714Y-90319819D02*
X168523809Y-90319819D01*
X168523809Y-90319819D02*
X168619047Y-90367438D01*
X168619047Y-90367438D02*
X168666666Y-90415057D01*
X168666666Y-90415057D02*
X168714285Y-90510295D01*
X168714285Y-90510295D02*
X168714285Y-90605533D01*
X168714285Y-90605533D02*
X168666666Y-90748390D01*
X168666666Y-90748390D02*
X168095238Y-91319819D01*
X168095238Y-91319819D02*
X168714285Y-91319819D01*
X128666666Y-53454819D02*
X128666666Y-54169104D01*
X128666666Y-54169104D02*
X128619047Y-54311961D01*
X128619047Y-54311961D02*
X128523809Y-54407200D01*
X128523809Y-54407200D02*
X128380952Y-54454819D01*
X128380952Y-54454819D02*
X128285714Y-54454819D01*
X129571428Y-53454819D02*
X129380952Y-53454819D01*
X129380952Y-53454819D02*
X129285714Y-53502438D01*
X129285714Y-53502438D02*
X129238095Y-53550057D01*
X129238095Y-53550057D02*
X129142857Y-53692914D01*
X129142857Y-53692914D02*
X129095238Y-53883390D01*
X129095238Y-53883390D02*
X129095238Y-54264342D01*
X129095238Y-54264342D02*
X129142857Y-54359580D01*
X129142857Y-54359580D02*
X129190476Y-54407200D01*
X129190476Y-54407200D02*
X129285714Y-54454819D01*
X129285714Y-54454819D02*
X129476190Y-54454819D01*
X129476190Y-54454819D02*
X129571428Y-54407200D01*
X129571428Y-54407200D02*
X129619047Y-54359580D01*
X129619047Y-54359580D02*
X129666666Y-54264342D01*
X129666666Y-54264342D02*
X129666666Y-54026247D01*
X129666666Y-54026247D02*
X129619047Y-53931009D01*
X129619047Y-53931009D02*
X129571428Y-53883390D01*
X129571428Y-53883390D02*
X129476190Y-53835771D01*
X129476190Y-53835771D02*
X129285714Y-53835771D01*
X129285714Y-53835771D02*
X129190476Y-53883390D01*
X129190476Y-53883390D02*
X129142857Y-53931009D01*
X129142857Y-53931009D02*
X129095238Y-54026247D01*
X134238095Y-65454819D02*
X134238095Y-66264342D01*
X134238095Y-66264342D02*
X134285714Y-66359580D01*
X134285714Y-66359580D02*
X134333333Y-66407200D01*
X134333333Y-66407200D02*
X134428571Y-66454819D01*
X134428571Y-66454819D02*
X134619047Y-66454819D01*
X134619047Y-66454819D02*
X134714285Y-66407200D01*
X134714285Y-66407200D02*
X134761904Y-66359580D01*
X134761904Y-66359580D02*
X134809523Y-66264342D01*
X134809523Y-66264342D02*
X134809523Y-65454819D01*
X135714285Y-65788152D02*
X135714285Y-66454819D01*
X135476190Y-65407200D02*
X135238095Y-66121485D01*
X135238095Y-66121485D02*
X135857142Y-66121485D01*
X136930400Y-65454819D02*
X136930400Y-65692914D01*
X136692305Y-65597676D02*
X136930400Y-65692914D01*
X136930400Y-65692914D02*
X137168495Y-65597676D01*
X136787543Y-65883390D02*
X136930400Y-65692914D01*
X136930400Y-65692914D02*
X137073257Y-65883390D01*
X136930399Y-66545180D02*
X136930399Y-66307085D01*
X137168494Y-66402323D02*
X136930399Y-66307085D01*
X136930399Y-66307085D02*
X136692304Y-66402323D01*
X137073256Y-66116609D02*
X136930399Y-66307085D01*
X136930399Y-66307085D02*
X136787542Y-66116609D01*
X140050057Y-62095238D02*
X140002438Y-62190476D01*
X140002438Y-62190476D02*
X139907200Y-62285714D01*
X139907200Y-62285714D02*
X139764342Y-62428571D01*
X139764342Y-62428571D02*
X139716723Y-62523809D01*
X139716723Y-62523809D02*
X139716723Y-62619047D01*
X139954819Y-62571428D02*
X139907200Y-62666666D01*
X139907200Y-62666666D02*
X139811961Y-62761904D01*
X139811961Y-62761904D02*
X139621485Y-62809523D01*
X139621485Y-62809523D02*
X139288152Y-62809523D01*
X139288152Y-62809523D02*
X139097676Y-62761904D01*
X139097676Y-62761904D02*
X139002438Y-62666666D01*
X139002438Y-62666666D02*
X138954819Y-62571428D01*
X138954819Y-62571428D02*
X138954819Y-62380952D01*
X138954819Y-62380952D02*
X139002438Y-62285714D01*
X139002438Y-62285714D02*
X139097676Y-62190476D01*
X139097676Y-62190476D02*
X139288152Y-62142857D01*
X139288152Y-62142857D02*
X139621485Y-62142857D01*
X139621485Y-62142857D02*
X139811961Y-62190476D01*
X139811961Y-62190476D02*
X139907200Y-62285714D01*
X139907200Y-62285714D02*
X139954819Y-62380952D01*
X139954819Y-62380952D02*
X139954819Y-62571428D01*
X139050057Y-61761904D02*
X139002438Y-61714285D01*
X139002438Y-61714285D02*
X138954819Y-61619047D01*
X138954819Y-61619047D02*
X138954819Y-61380952D01*
X138954819Y-61380952D02*
X139002438Y-61285714D01*
X139002438Y-61285714D02*
X139050057Y-61238095D01*
X139050057Y-61238095D02*
X139145295Y-61190476D01*
X139145295Y-61190476D02*
X139240533Y-61190476D01*
X139240533Y-61190476D02*
X139383390Y-61238095D01*
X139383390Y-61238095D02*
X139954819Y-61809523D01*
X139954819Y-61809523D02*
X139954819Y-61190476D01*
D12*
%TO.C,U2*%
X130266200Y-67624100D02*
X130266200Y-88375900D01*
X130266200Y-88375900D02*
X136052244Y-88375900D01*
X136646756Y-88375900D02*
X137733800Y-88375900D01*
X137733800Y-67624100D02*
X130266200Y-67624100D01*
X137733800Y-88375900D02*
X137733800Y-67624100D01*
D13*
%TO.C,R6*%
X177640000Y-79927064D02*
X177640000Y-76872936D01*
X180360000Y-79927064D02*
X180360000Y-76872936D01*
D12*
%TO.C,F1*%
X174103500Y-101135000D02*
X174103500Y-99865000D01*
X174738500Y-100500000D02*
X173468500Y-100500000D01*
X173341500Y-100500000D02*
G75*
G02*
X164578500Y-100500000I-4381500J0D01*
G01*
X164578500Y-100500000D02*
G75*
G02*
X173341500Y-100500000I4381500J0D01*
G01*
D13*
%TO.C,D1*%
X179926000Y-86451000D02*
X174084000Y-86451000D01*
X181069000Y-87594000D02*
G75*
G02*
X174084000Y-86451000I-4064000J-2921000D01*
G01*
%TO.C,R1*%
X118772936Y-56265000D02*
X119227064Y-56265000D01*
X118772936Y-57735000D02*
X119227064Y-57735000D01*
%TO.C,R5*%
X177685000Y-67427064D02*
X177685000Y-64372936D01*
X180405000Y-67427064D02*
X180405000Y-64372936D01*
D14*
%TO.C,H1*%
X166765000Y-72395000D02*
X166765000Y-76600000D01*
X166765000Y-81400000D02*
X166765000Y-85605000D01*
X166765000Y-85605000D02*
X176285000Y-85605000D01*
X176285000Y-72395000D02*
X166765000Y-72395000D01*
X176285000Y-85605000D02*
X176285000Y-72395000D01*
%TO.C,J1*%
X175100000Y-117800000D02*
X175100000Y-103900000D01*
X175900000Y-104900000D02*
X175900000Y-117800000D01*
X175900000Y-117800000D02*
X175100000Y-117800000D01*
D15*
X177500000Y-96300000D02*
X177500000Y-96300000D01*
X177500000Y-96400000D02*
X177500000Y-96400000D01*
D14*
X178300000Y-99800000D02*
X178300000Y-100800000D01*
X179900000Y-99900000D02*
X179900000Y-101900000D01*
D15*
X177500000Y-96300000D02*
G75*
G02*
X177500000Y-96400000I0J-50000D01*
G01*
X177500000Y-96400000D02*
G75*
G02*
X177500000Y-96300000I0J50000D01*
G01*
D12*
%TO.C,U7*%
X166281000Y-52968000D02*
X166281000Y-54110416D01*
X166281000Y-55889584D02*
X166281000Y-56650416D01*
X166281000Y-58429584D02*
X166281000Y-59190416D01*
X166281000Y-60969584D02*
X166281000Y-62112000D01*
X166281000Y-62112000D02*
X173139000Y-62112000D01*
X173139000Y-52968000D02*
X166281000Y-52968000D01*
X173139000Y-54110416D02*
X173139000Y-52968000D01*
X173139000Y-56650416D02*
X173139000Y-55889584D01*
X173139000Y-59190416D02*
X173139000Y-58429584D01*
X173139000Y-62112000D02*
X173139000Y-60969584D01*
D14*
%TO.C,J5*%
X122100000Y-117800000D02*
X122100000Y-103900000D01*
X122900000Y-104900000D02*
X122900000Y-117800000D01*
X122900000Y-117800000D02*
X122100000Y-117800000D01*
D15*
X124500000Y-96300000D02*
X124500000Y-96300000D01*
X124500000Y-96400000D02*
X124500000Y-96400000D01*
D14*
X125300000Y-99800000D02*
X125300000Y-100800000D01*
X126900000Y-99900000D02*
X126900000Y-101900000D01*
D15*
X124500000Y-96300000D02*
G75*
G02*
X124500000Y-96400000I0J-50000D01*
G01*
X124500000Y-96400000D02*
G75*
G02*
X124500000Y-96300000I0J50000D01*
G01*
D12*
%TO.C,U3*%
X117971300Y-58699900D02*
X117971300Y-58964060D01*
X117971300Y-60035940D02*
X117971300Y-60300100D01*
X117971300Y-60300100D02*
X120028700Y-60300100D01*
X120028700Y-58699900D02*
X117971300Y-58699900D01*
X120028700Y-58964060D02*
X120028700Y-58699900D01*
X120028700Y-60300100D02*
X120028700Y-60035940D01*
D13*
%TO.C,R11*%
X135527064Y-91640000D02*
X132472936Y-91640000D01*
X135527064Y-94360000D02*
X132472936Y-94360000D01*
%TO.C,K1*%
X116250000Y-60600000D02*
X116250000Y-62100000D01*
X116450000Y-60800000D02*
X116450000Y-90200000D01*
X116450000Y-90200000D02*
X129550000Y-90200000D01*
X117750000Y-60600000D02*
X116250000Y-60600000D01*
X119250000Y-65890000D02*
X119250000Y-67160000D01*
X119250000Y-67160000D02*
X120520000Y-67160000D01*
X120520000Y-65890000D02*
X120520000Y-67160000D01*
X120520000Y-67160000D02*
X120520000Y-68430000D01*
X120520000Y-68430000D02*
X125600000Y-68430000D01*
D15*
X121790000Y-65890000D02*
X123060000Y-68430000D01*
D13*
X125600000Y-65890000D02*
X120520000Y-65890000D01*
X125600000Y-67160000D02*
X126870000Y-67160000D01*
X125600000Y-68430000D02*
X125600000Y-65890000D01*
X126870000Y-67160000D02*
X126870000Y-65890000D01*
X129550000Y-60800000D02*
X116450000Y-60800000D01*
X129550000Y-90200000D02*
X129550000Y-60800000D01*
%TO.C,R7*%
X156227064Y-92765000D02*
X155772936Y-92765000D01*
X156227064Y-94235000D02*
X155772936Y-94235000D01*
%TO.C,Q1*%
X123562500Y-56940000D02*
X122912500Y-56940000D01*
X123562500Y-56940000D02*
X124212500Y-56940000D01*
X123562500Y-60060000D02*
X122912500Y-60060000D01*
X123562500Y-60060000D02*
X124212500Y-60060000D01*
X122400000Y-56990000D02*
X122160000Y-56660000D01*
X122640000Y-56660000D01*
X122400000Y-56990000D01*
G36*
X122400000Y-56990000D02*
G01*
X122160000Y-56660000D01*
X122640000Y-56660000D01*
X122400000Y-56990000D01*
G37*
D12*
%TO.C,F4*%
X127843750Y-60427100D02*
X129209850Y-60427100D01*
X129209850Y-58572900D02*
X127843750Y-58572900D01*
D13*
%TO.C,R8*%
X131590000Y-62677064D02*
X131590000Y-61222936D01*
X133410000Y-62677064D02*
X133410000Y-61222936D01*
D14*
%TO.C,J3*%
X153100000Y-117800000D02*
X153100000Y-103900000D01*
X153900000Y-104900000D02*
X153900000Y-117800000D01*
X153900000Y-117800000D02*
X153100000Y-117800000D01*
D15*
X155500000Y-96300000D02*
X155500000Y-96300000D01*
X155500000Y-96400000D02*
X155500000Y-96400000D01*
D14*
X156300000Y-99800000D02*
X156300000Y-100800000D01*
X157900000Y-99900000D02*
X157900000Y-101900000D01*
D15*
X155500000Y-96300000D02*
G75*
G02*
X155500000Y-96400000I0J-50000D01*
G01*
X155500000Y-96400000D02*
G75*
G02*
X155500000Y-96300000I0J50000D01*
G01*
D12*
%TO.C,C2*%
X146879100Y-105375400D02*
X146879100Y-92624600D01*
X151120900Y-92624600D02*
X146879100Y-92624600D01*
X151120900Y-105375400D02*
X146879100Y-105375400D01*
X151120900Y-105375400D02*
X151120900Y-92624600D01*
%TO.C,U6*%
X166261000Y-62428000D02*
X166261000Y-63542849D01*
X166261000Y-65377151D02*
X166261000Y-66082849D01*
X166261000Y-67917151D02*
X166261000Y-68622849D01*
X166261000Y-70457151D02*
X166261000Y-71572000D01*
X166261000Y-71572000D02*
X173119000Y-71572000D01*
X173119000Y-62428000D02*
X166261000Y-62428000D01*
X173119000Y-63542849D02*
X173119000Y-62428000D01*
X173119000Y-66082849D02*
X173119000Y-65377151D01*
X173119000Y-68546860D02*
X173119000Y-67917151D01*
X173119000Y-71572000D02*
X173119000Y-70533140D01*
D14*
%TO.C,J2*%
X132100000Y-117800000D02*
X132100000Y-103900000D01*
X132900000Y-104900000D02*
X132900000Y-117800000D01*
X132900000Y-117800000D02*
X132100000Y-117800000D01*
D15*
X134500000Y-96300000D02*
X134500000Y-96300000D01*
X134500000Y-96400000D02*
X134500000Y-96400000D01*
D14*
X135300000Y-99800000D02*
X135300000Y-100800000D01*
X136900000Y-99900000D02*
X136900000Y-101900000D01*
D15*
X134500000Y-96300000D02*
G75*
G02*
X134500000Y-96400000I0J-50000D01*
G01*
X134500000Y-96400000D02*
G75*
G02*
X134500000Y-96300000I0J50000D01*
G01*
D13*
%TO.C,Q4*%
X167740000Y-73890000D02*
X172360000Y-73890000D01*
X167740000Y-77150000D02*
X169120000Y-77150000D01*
X167740000Y-80850000D02*
X169120000Y-80850000D01*
X167740000Y-84110000D02*
X167740000Y-73890000D01*
X169120000Y-84110000D02*
X169120000Y-73890000D01*
X172360000Y-73890000D02*
X172360000Y-84110000D01*
X172360000Y-84110000D02*
X167740000Y-84110000D01*
%TO.C,C3*%
X131770000Y-56210000D02*
X138230000Y-56210000D01*
X131770000Y-56250000D02*
X138230000Y-56250000D01*
X131771000Y-56170000D02*
X138229000Y-56170000D01*
X131772000Y-56130000D02*
X138228000Y-56130000D01*
X131774000Y-56090000D02*
X138226000Y-56090000D01*
X131776000Y-56050000D02*
X138224000Y-56050000D01*
X131779000Y-56010000D02*
X133960000Y-56010000D01*
X131782000Y-55970000D02*
X133960000Y-55970000D01*
X131786000Y-55930000D02*
X133960000Y-55930000D01*
X131790000Y-55890000D02*
X133960000Y-55890000D01*
X131795000Y-55850000D02*
X133960000Y-55850000D01*
X131800000Y-55810000D02*
X133960000Y-55810000D01*
X131805000Y-55770000D02*
X133960000Y-55770000D01*
X131812000Y-55730000D02*
X133960000Y-55730000D01*
X131818000Y-55690000D02*
X133960000Y-55690000D01*
X131826000Y-55650000D02*
X133960000Y-55650000D01*
X131833000Y-55610000D02*
X133960000Y-55610000D01*
X131841000Y-55570000D02*
X133960000Y-55570000D01*
X131850000Y-55530000D02*
X133960000Y-55530000D01*
X131860000Y-55490000D02*
X133960000Y-55490000D01*
X131869000Y-55450000D02*
X133960000Y-55450000D01*
X131880000Y-55410000D02*
X133960000Y-55410000D01*
X131891000Y-55370000D02*
X133960000Y-55370000D01*
X131902000Y-55330000D02*
X133960000Y-55330000D01*
X131914000Y-55290000D02*
X133960000Y-55290000D01*
X131927000Y-55250000D02*
X133960000Y-55250000D01*
X131940000Y-55210000D02*
X133960000Y-55210000D01*
X131953000Y-55170000D02*
X133960000Y-55170000D01*
X131968000Y-55130000D02*
X133960000Y-55130000D01*
X131983000Y-55090000D02*
X133960000Y-55090000D01*
X131998000Y-55050000D02*
X133960000Y-55050000D01*
X132014000Y-55010000D02*
X133960000Y-55010000D01*
X132031000Y-54970000D02*
X133960000Y-54970000D01*
X132048000Y-54930000D02*
X133960000Y-54930000D01*
X132066000Y-54890000D02*
X133960000Y-54890000D01*
X132085000Y-54850000D02*
X133960000Y-54850000D01*
X132104000Y-54810000D02*
X133960000Y-54810000D01*
X132124000Y-54770000D02*
X133960000Y-54770000D01*
X132145000Y-54730000D02*
X133960000Y-54730000D01*
X132166000Y-54690000D02*
X133960000Y-54690000D01*
X132188000Y-54650000D02*
X133960000Y-54650000D01*
X132211000Y-54610000D02*
X133960000Y-54610000D01*
X132235000Y-54570000D02*
X133960000Y-54570000D01*
X132259000Y-54530000D02*
X133960000Y-54530000D01*
X132284000Y-54490000D02*
X133960000Y-54490000D01*
X132310000Y-54450000D02*
X133960000Y-54450000D01*
X132337000Y-54410000D02*
X133960000Y-54410000D01*
X132364000Y-54370000D02*
X133960000Y-54370000D01*
X132393000Y-54330000D02*
X133960000Y-54330000D01*
X132423000Y-54290000D02*
X133960000Y-54290000D01*
X132453000Y-54250000D02*
X133960000Y-54250000D01*
X132484000Y-54210000D02*
X133960000Y-54210000D01*
X132517000Y-54170000D02*
X133960000Y-54170000D01*
X132550000Y-54130000D02*
X133960000Y-54130000D01*
X132585000Y-54090000D02*
X133960000Y-54090000D01*
X132621000Y-54050000D02*
X133960000Y-54050000D01*
X132658000Y-54010000D02*
X133960000Y-54010000D01*
X132696000Y-53970000D02*
X133960000Y-53970000D01*
X132736000Y-53930000D02*
X137264000Y-53930000D01*
X132777000Y-53890000D02*
X137223000Y-53890000D01*
X132819000Y-53850000D02*
X137181000Y-53850000D01*
X132846000Y-59435241D02*
X133476000Y-59435241D01*
X132863000Y-53810000D02*
X137137000Y-53810000D01*
X132909000Y-53770000D02*
X137091000Y-53770000D01*
X132956000Y-53730000D02*
X137044000Y-53730000D01*
X133005000Y-53690000D02*
X136995000Y-53690000D01*
X133057000Y-53650000D02*
X136943000Y-53650000D01*
X133110000Y-53610000D02*
X136890000Y-53610000D01*
X133161000Y-59750241D02*
X133161000Y-59120241D01*
X133166000Y-53570000D02*
X136834000Y-53570000D01*
X133225000Y-53530000D02*
X136775000Y-53530000D01*
X133286000Y-53490000D02*
X136714000Y-53490000D01*
X133351000Y-53450000D02*
X136649000Y-53450000D01*
X133419000Y-53410000D02*
X136581000Y-53410000D01*
X133491000Y-53370000D02*
X136509000Y-53370000D01*
X133568000Y-53330000D02*
X136432000Y-53330000D01*
X133650000Y-53290000D02*
X136350000Y-53290000D01*
X133739000Y-53250000D02*
X136261000Y-53250000D01*
X133835000Y-53210000D02*
X136165000Y-53210000D01*
X133942000Y-53170000D02*
X136058000Y-53170000D01*
X134061000Y-53130000D02*
X135939000Y-53130000D01*
X134199000Y-53090000D02*
X135801000Y-53090000D01*
X134367000Y-53050000D02*
X135633000Y-53050000D01*
X134598000Y-53010000D02*
X135402000Y-53010000D01*
X136040000Y-53970000D02*
X137304000Y-53970000D01*
X136040000Y-54010000D02*
X137342000Y-54010000D01*
X136040000Y-54050000D02*
X137379000Y-54050000D01*
X136040000Y-54090000D02*
X137415000Y-54090000D01*
X136040000Y-54130000D02*
X137450000Y-54130000D01*
X136040000Y-54170000D02*
X137483000Y-54170000D01*
X136040000Y-54210000D02*
X137516000Y-54210000D01*
X136040000Y-54250000D02*
X137547000Y-54250000D01*
X136040000Y-54290000D02*
X137577000Y-54290000D01*
X136040000Y-54330000D02*
X137607000Y-54330000D01*
X136040000Y-54370000D02*
X137636000Y-54370000D01*
X136040000Y-54410000D02*
X137663000Y-54410000D01*
X136040000Y-54450000D02*
X137690000Y-54450000D01*
X136040000Y-54490000D02*
X137716000Y-54490000D01*
X136040000Y-54530000D02*
X137741000Y-54530000D01*
X136040000Y-54570000D02*
X137765000Y-54570000D01*
X136040000Y-54610000D02*
X137789000Y-54610000D01*
X136040000Y-54650000D02*
X137812000Y-54650000D01*
X136040000Y-54690000D02*
X137834000Y-54690000D01*
X136040000Y-54730000D02*
X137855000Y-54730000D01*
X136040000Y-54770000D02*
X137876000Y-54770000D01*
X136040000Y-54810000D02*
X137896000Y-54810000D01*
X136040000Y-54850000D02*
X137915000Y-54850000D01*
X136040000Y-54890000D02*
X137934000Y-54890000D01*
X136040000Y-54930000D02*
X137952000Y-54930000D01*
X136040000Y-54970000D02*
X137969000Y-54970000D01*
X136040000Y-55010000D02*
X137986000Y-55010000D01*
X136040000Y-55050000D02*
X138002000Y-55050000D01*
X136040000Y-55090000D02*
X138017000Y-55090000D01*
X136040000Y-55130000D02*
X138032000Y-55130000D01*
X136040000Y-55170000D02*
X138047000Y-55170000D01*
X136040000Y-55210000D02*
X138060000Y-55210000D01*
X136040000Y-55250000D02*
X138073000Y-55250000D01*
X136040000Y-55290000D02*
X138086000Y-55290000D01*
X136040000Y-55330000D02*
X138098000Y-55330000D01*
X136040000Y-55370000D02*
X138109000Y-55370000D01*
X136040000Y-55410000D02*
X138120000Y-55410000D01*
X136040000Y-55450000D02*
X138131000Y-55450000D01*
X136040000Y-55490000D02*
X138140000Y-55490000D01*
X136040000Y-55530000D02*
X138150000Y-55530000D01*
X136040000Y-55570000D02*
X138159000Y-55570000D01*
X136040000Y-55610000D02*
X138167000Y-55610000D01*
X136040000Y-55650000D02*
X138174000Y-55650000D01*
X136040000Y-55690000D02*
X138182000Y-55690000D01*
X136040000Y-55730000D02*
X138188000Y-55730000D01*
X136040000Y-55770000D02*
X138195000Y-55770000D01*
X136040000Y-55810000D02*
X138200000Y-55810000D01*
X136040000Y-55850000D02*
X138205000Y-55850000D01*
X136040000Y-55890000D02*
X138210000Y-55890000D01*
X136040000Y-55930000D02*
X138214000Y-55930000D01*
X136040000Y-55970000D02*
X138218000Y-55970000D01*
X136040000Y-56010000D02*
X138221000Y-56010000D01*
X138270000Y-56250000D02*
G75*
G02*
X131730000Y-56250000I-3270000J0D01*
G01*
X131730000Y-56250000D02*
G75*
G02*
X138270000Y-56250000I3270000J0D01*
G01*
%TO.C,R9*%
X177640000Y-56072936D02*
X177640000Y-59127064D01*
X180360000Y-56072936D02*
X180360000Y-59127064D01*
D14*
%TO.C,J4*%
X140100000Y-117800000D02*
X140100000Y-103900000D01*
X140900000Y-104900000D02*
X140900000Y-117800000D01*
X140900000Y-117800000D02*
X140100000Y-117800000D01*
D15*
X142500000Y-96300000D02*
X142500000Y-96300000D01*
X142500000Y-96400000D02*
X142500000Y-96400000D01*
D14*
X143300000Y-99800000D02*
X143300000Y-100800000D01*
X144900000Y-99900000D02*
X144900000Y-101900000D01*
D15*
X142500000Y-96300000D02*
G75*
G02*
X142500000Y-96400000I0J-50000D01*
G01*
X142500000Y-96400000D02*
G75*
G02*
X142500000Y-96300000I0J50000D01*
G01*
D13*
%TO.C,R28*%
X127772936Y-56265000D02*
X128227064Y-56265000D01*
X127772936Y-57735000D02*
X128227064Y-57735000D01*
D12*
%TO.C,C1*%
X159379100Y-92624600D02*
X159379100Y-105375400D01*
X159379100Y-92624600D02*
X163620900Y-92624600D01*
X159379100Y-105375400D02*
X163620900Y-105375400D01*
X163620900Y-92624600D02*
X163620900Y-105375400D01*
%TO.C,U1*%
X138673000Y-53323000D02*
X138673000Y-91677000D01*
X138673000Y-91677000D02*
X164327000Y-91677000D01*
X164327000Y-53323000D02*
X138673000Y-53323000D01*
X164327000Y-91677000D02*
X164327000Y-53323000D01*
%TO.C,F2*%
X165726700Y-86407300D02*
X165726700Y-95322700D01*
X165726700Y-86407300D02*
X170273300Y-86407300D01*
X165726700Y-95322700D02*
X170273300Y-95322700D01*
X167365000Y-96084700D02*
X168635000Y-96084700D01*
X168000000Y-96719700D02*
X168000000Y-95449700D01*
X170273300Y-86407300D02*
X170273300Y-95322700D01*
D13*
%TO.C,J6*%
X115690000Y-55610000D02*
X115690000Y-54500000D01*
X116800000Y-55610000D02*
X115690000Y-55610000D01*
X117800000Y-53390000D02*
X127910000Y-53390000D01*
X117800000Y-55610000D02*
X117800000Y-53390000D01*
X117800000Y-55610000D02*
X127910000Y-55610000D01*
X127910000Y-55610000D02*
X127910000Y-53390000D01*
D12*
%TO.C,U4*%
X133971300Y-65199900D02*
X133971300Y-65464060D01*
X133971300Y-66535940D02*
X133971300Y-66800100D01*
X133971300Y-66800100D02*
X136028700Y-66800100D01*
X136028700Y-65199900D02*
X133971300Y-65199900D01*
X136028700Y-65464060D02*
X136028700Y-65199900D01*
X136028700Y-66800100D02*
X136028700Y-66535940D01*
D13*
%TO.C,Q2*%
X134490000Y-62437500D02*
X134490000Y-61787500D01*
X134490000Y-62437500D02*
X134490000Y-63087500D01*
X137610000Y-62437500D02*
X137610000Y-61787500D01*
X137610000Y-62437500D02*
X137610000Y-63087500D01*
X137890000Y-61515000D02*
X137560000Y-61275000D01*
X137890000Y-61035000D01*
X137890000Y-61515000D01*
G36*
X137890000Y-61515000D02*
G01*
X137560000Y-61275000D01*
X137890000Y-61035000D01*
X137890000Y-61515000D01*
G37*
%TD*%
%LPC*%
D16*
%TO.C,U2*%
X136349500Y-87309100D03*
X136349500Y-80298700D03*
X136349500Y-68792500D03*
X131650500Y-68792500D03*
%TD*%
D17*
%TO.C,R6*%
X179000000Y-80800000D03*
X179000000Y-76000000D03*
%TD*%
D18*
%TO.C,F1*%
X171500000Y-100500000D03*
D19*
X166420000Y-100500000D03*
%TD*%
D20*
%TO.C,D1*%
X179545000Y-87975000D03*
D21*
X174465000Y-87975000D03*
X174465000Y-93055000D03*
X179545000Y-93055000D03*
%TD*%
D22*
%TO.C,R1*%
X118000000Y-57000000D03*
X120000000Y-57000000D03*
%TD*%
D17*
%TO.C,R5*%
X179045000Y-68300000D03*
X179045000Y-63500000D03*
%TD*%
D23*
%TO.C,H1*%
X167400000Y-79000000D03*
%TD*%
D24*
%TO.C,J1*%
X177500000Y-97900000D03*
D25*
X177500000Y-103000000D03*
%TD*%
D26*
%TO.C,U7*%
X165900000Y-55000000D03*
X165900000Y-57540000D03*
X165900000Y-60080000D03*
X173520000Y-60080000D03*
X173520000Y-57540000D03*
X173520000Y-55000000D03*
%TD*%
D24*
%TO.C,J5*%
X124500000Y-97900000D03*
D25*
X124500000Y-103000000D03*
%TD*%
D27*
%TO.C,U3*%
X117806200Y-59500000D03*
X120193800Y-59500000D03*
%TD*%
D28*
%TO.C,R11*%
X136400000Y-93000000D03*
X131600000Y-93000000D03*
%TD*%
D29*
%TO.C,K1*%
X126750000Y-83650000D03*
X119250000Y-83650000D03*
X126750000Y-78610000D03*
X119250000Y-78610000D03*
X126750000Y-88690000D03*
X119250000Y-88690000D03*
D30*
X119250000Y-63350000D03*
D31*
X126750000Y-63350000D03*
%TD*%
D32*
%TO.C,R7*%
X157000000Y-93500000D03*
X155000000Y-93500000D03*
%TD*%
D33*
%TO.C,Q1*%
X122625000Y-57550000D03*
X122625000Y-59450000D03*
X124500000Y-58500000D03*
%TD*%
D34*
%TO.C,F4*%
X130000000Y-59500000D03*
X127053600Y-59500000D03*
%TD*%
D35*
%TO.C,R8*%
X132500000Y-63500000D03*
X132500000Y-60400000D03*
%TD*%
D24*
%TO.C,J3*%
X155500000Y-97900000D03*
D25*
X155500000Y-103000000D03*
%TD*%
D36*
%TO.C,C2*%
X149000000Y-94000000D03*
D37*
X149000000Y-104000000D03*
%TD*%
D38*
%TO.C,U6*%
X173500000Y-69540000D03*
D39*
X173500000Y-67000000D03*
X173500000Y-64460000D03*
X165880000Y-64460000D03*
X165880000Y-67000000D03*
X165880000Y-69540000D03*
%TD*%
D24*
%TO.C,J2*%
X134500000Y-97900000D03*
D25*
X134500000Y-103000000D03*
%TD*%
D40*
%TO.C,Q4*%
X171000000Y-81540000D03*
D41*
X171000000Y-79000000D03*
X171000000Y-76460000D03*
%TD*%
D42*
%TO.C,C3*%
X135000000Y-57500000D03*
D43*
X135000000Y-55000000D03*
%TD*%
D44*
%TO.C,R9*%
X179000000Y-55200000D03*
X179000000Y-60000000D03*
%TD*%
D24*
%TO.C,J4*%
X142500000Y-97900000D03*
D25*
X142500000Y-103000000D03*
%TD*%
D22*
%TO.C,R28*%
X127000000Y-57000000D03*
X129000000Y-57000000D03*
%TD*%
D36*
%TO.C,C1*%
X161500000Y-104000000D03*
D37*
X161500000Y-94000000D03*
%TD*%
D45*
%TO.C,U1*%
X142610000Y-89010000D03*
X161660000Y-89010000D03*
X161660000Y-55990000D03*
X148960000Y-55990000D03*
%TD*%
D46*
%TO.C,F2*%
X168000000Y-93405000D03*
D47*
X168000000Y-88325000D03*
%TD*%
D48*
%TO.C,J6*%
X116800000Y-54500000D03*
D49*
X118800000Y-54500000D03*
X120800000Y-54500000D03*
X122800000Y-54500000D03*
X124800000Y-54500000D03*
X126800000Y-54500000D03*
%TD*%
D27*
%TO.C,U4*%
X136193800Y-66000000D03*
X133806200Y-66000000D03*
%TD*%
D50*
%TO.C,Q2*%
X137000000Y-61500000D03*
X135100000Y-61500000D03*
X136050000Y-63375000D03*
%TD*%
%LPD*%
M02*
