%TF.GenerationSoftware,KiCad,Pcbnew,9.0.4-9.0.4-0~ubuntu24.04.1*%
%TF.CreationDate,2025-08-23T17:14:42+02:00*%
%TF.ProjectId,hv_board,68765f62-6f61-4726-942e-6b696361645f,rev?*%
%TF.SameCoordinates,Original*%
%TF.FileFunction,Soldermask,Top*%
%TF.FilePolarity,Negative*%
%FSLAX46Y46*%
G04 Gerber Fmt 4.6, Leading zero omitted, Abs format (unit mm)*
G04 Created by KiCad (PCBNEW 9.0.4-9.0.4-0~ubuntu24.04.1) date 2025-08-23 17:14:42*
%MOMM*%
%LPD*%
G01*
G04 APERTURE LIST*
G04 Aperture macros list*
%AMRoundRect*
0 Rectangle with rounded corners*
0 $1 Rounding radius*
0 $2 $3 $4 $5 $6 $7 $8 $9 X,Y pos of 4 corners*
0 Add a 4 corners polygon primitive as box body*
4,1,4,$2,$3,$4,$5,$6,$7,$8,$9,$2,$3,0*
0 Add four circle primitives for the rounded corners*
1,1,$1+$1,$2,$3*
1,1,$1+$1,$4,$5*
1,1,$1+$1,$6,$7*
1,1,$1+$1,$8,$9*
0 Add four rect primitives between the rounded corners*
20,1,$1+$1,$2,$3,$4,$5,0*
20,1,$1+$1,$4,$5,$6,$7,0*
20,1,$1+$1,$6,$7,$8,$9,0*
20,1,$1+$1,$8,$9,$2,$3,0*%
G04 Aperture macros list end*
%ADD10C,1.549400*%
%ADD11RoundRect,0.249999X1.075001X-0.450001X1.075001X0.450001X-1.075001X0.450001X-1.075001X-0.450001X0*%
%ADD12R,1.625600X1.625600*%
%ADD13C,1.625600*%
%ADD14R,2.000000X2.000000*%
%ADD15O,2.000000X2.000000*%
%ADD16RoundRect,0.250000X-0.350000X-0.450000X0.350000X-0.450000X0.350000X0.450000X-0.350000X0.450000X0*%
%ADD17C,3.810000*%
%ADD18R,2.175000X2.175000*%
%ADD19C,2.175000*%
%ADD20C,1.270000*%
%ADD21R,0.711200X0.406400*%
%ADD22RoundRect,0.249999X0.450001X1.075001X-0.450001X1.075001X-0.450001X-1.075001X0.450001X-1.075001X0*%
%ADD23O,3.000000X2.000000*%
%ADD24R,2.000000X3.000000*%
%ADD25O,2.000000X3.000000*%
%ADD26RoundRect,0.250000X0.350000X0.450000X-0.350000X0.450000X-0.350000X-0.450000X0.350000X-0.450000X0*%
%ADD27RoundRect,0.150000X-0.587500X-0.150000X0.587500X-0.150000X0.587500X0.150000X-0.587500X0.150000X0*%
%ADD28R,0.965200X1.600200*%
%ADD29RoundRect,0.250000X0.625000X-0.400000X0.625000X0.400000X-0.625000X0.400000X-0.625000X-0.400000X0*%
%ADD30R,1.422400X1.422400*%
%ADD31C,1.422400*%
%ADD32R,1.320800X1.320800*%
%ADD33C,1.320800*%
%ADD34R,2.000000X1.905000*%
%ADD35O,2.000000X1.905000*%
%ADD36RoundRect,0.250000X0.550000X-0.550000X0.550000X0.550000X-0.550000X0.550000X-0.550000X-0.550000X0*%
%ADD37C,1.600000*%
%ADD38RoundRect,0.249999X-1.075001X0.450001X-1.075001X-0.450001X1.075001X-0.450001X1.075001X0.450001X0*%
%ADD39C,1.778000*%
%ADD40R,1.473200X1.473200*%
%ADD41C,1.473200*%
%ADD42R,1.350000X1.350000*%
%ADD43C,1.350000*%
%ADD44RoundRect,0.150000X-0.150000X0.587500X-0.150000X-0.587500X0.150000X-0.587500X0.150000X0.587500X0*%
G04 APERTURE END LIST*
D10*
%TO.C,U2*%
X136349500Y-87309100D03*
X136349500Y-80298700D03*
X136349500Y-68792500D03*
X131650500Y-68792500D03*
%TD*%
D11*
%TO.C,R6*%
X179000000Y-80800000D03*
X179000000Y-76000000D03*
%TD*%
D12*
%TO.C,F1*%
X171500000Y-100500000D03*
D13*
X166420000Y-100500000D03*
%TD*%
D14*
%TO.C,D1*%
X179545000Y-87975000D03*
D15*
X174465000Y-87975000D03*
X174465000Y-93055000D03*
X179545000Y-93055000D03*
%TD*%
D16*
%TO.C,R1*%
X118000000Y-57000000D03*
X120000000Y-57000000D03*
%TD*%
D11*
%TO.C,R5*%
X179045000Y-68300000D03*
X179045000Y-63500000D03*
%TD*%
D17*
%TO.C,H1*%
X167400000Y-79000000D03*
%TD*%
D18*
%TO.C,J1*%
X177500000Y-97900000D03*
D19*
X177500000Y-103000000D03*
%TD*%
D20*
%TO.C,U7*%
X165900000Y-55000000D03*
X165900000Y-57540000D03*
X165900000Y-60080000D03*
X173520000Y-60080000D03*
X173520000Y-57540000D03*
X173520000Y-55000000D03*
%TD*%
D18*
%TO.C,J5*%
X124500000Y-97900000D03*
D19*
X124500000Y-103000000D03*
%TD*%
D21*
%TO.C,U3*%
X117806200Y-59500000D03*
X120193800Y-59500000D03*
%TD*%
D22*
%TO.C,R11*%
X136400000Y-93000000D03*
X131600000Y-93000000D03*
%TD*%
D23*
%TO.C,K1*%
X126750000Y-83650000D03*
X119250000Y-83650000D03*
X126750000Y-78610000D03*
X119250000Y-78610000D03*
X126750000Y-88690000D03*
X119250000Y-88690000D03*
D24*
X119250000Y-63350000D03*
D25*
X126750000Y-63350000D03*
%TD*%
D26*
%TO.C,R7*%
X157000000Y-93500000D03*
X155000000Y-93500000D03*
%TD*%
D27*
%TO.C,Q1*%
X122625000Y-57550000D03*
X122625000Y-59450000D03*
X124500000Y-58500000D03*
%TD*%
D28*
%TO.C,F4*%
X130000000Y-59500000D03*
X127053600Y-59500000D03*
%TD*%
D29*
%TO.C,R8*%
X132500000Y-63500000D03*
X132500000Y-60400000D03*
%TD*%
D18*
%TO.C,J3*%
X155500000Y-97900000D03*
D19*
X155500000Y-103000000D03*
%TD*%
D30*
%TO.C,C2*%
X149000000Y-94000000D03*
D31*
X149000000Y-104000000D03*
%TD*%
D32*
%TO.C,U6*%
X173500000Y-69540000D03*
D33*
X173500000Y-67000000D03*
X173500000Y-64460000D03*
X165880000Y-64460000D03*
X165880000Y-67000000D03*
X165880000Y-69540000D03*
%TD*%
D18*
%TO.C,J2*%
X134500000Y-97900000D03*
D19*
X134500000Y-103000000D03*
%TD*%
D34*
%TO.C,Q4*%
X171000000Y-81540000D03*
D35*
X171000000Y-79000000D03*
X171000000Y-76460000D03*
%TD*%
D36*
%TO.C,C3*%
X135000000Y-57500000D03*
D37*
X135000000Y-55000000D03*
%TD*%
D38*
%TO.C,R9*%
X179000000Y-55200000D03*
X179000000Y-60000000D03*
%TD*%
D18*
%TO.C,J4*%
X142500000Y-97900000D03*
D19*
X142500000Y-103000000D03*
%TD*%
D16*
%TO.C,R28*%
X127000000Y-57000000D03*
X129000000Y-57000000D03*
%TD*%
D30*
%TO.C,C1*%
X161500000Y-104000000D03*
D31*
X161500000Y-94000000D03*
%TD*%
D39*
%TO.C,U1*%
X142610000Y-89010000D03*
X161660000Y-89010000D03*
X161660000Y-55990000D03*
X148960000Y-55990000D03*
%TD*%
D40*
%TO.C,F2*%
X168000000Y-93405000D03*
D41*
X168000000Y-88325000D03*
%TD*%
D42*
%TO.C,J6*%
X116800000Y-54500000D03*
D43*
X118800000Y-54500000D03*
X120800000Y-54500000D03*
X122800000Y-54500000D03*
X124800000Y-54500000D03*
X126800000Y-54500000D03*
%TD*%
D21*
%TO.C,U4*%
X136193800Y-66000000D03*
X133806200Y-66000000D03*
%TD*%
D44*
%TO.C,Q2*%
X137000000Y-61500000D03*
X135100000Y-61500000D03*
X136050000Y-63375000D03*
%TD*%
M02*
