%TF.GenerationSoftware,KiCad,Pcbnew,9.0.4-9.0.4-0~ubuntu24.04.1*%
%TF.CreationDate,2025-08-23T17:14:51+02:00*%
%TF.ProjectId,hv_board,68765f62-6f61-4726-942e-6b696361645f,rev?*%
%TF.SameCoordinates,Original*%
%TF.FileFunction,Drillmap*%
%TF.FilePolarity,Positive*%
%FSLAX45Y45*%
G04 Gerber Fmt 4.5, Leading zero omitted, Abs format (unit mm)*
G04 Created by KiCad (PCBNEW 9.0.4-9.0.4-0~ubuntu24.04.1) date 2025-08-23 17:14:51*
%MOMM*%
%LPD*%
G01*
G04 APERTURE LIST*
%ADD10C,0.050000*%
%ADD11C,0.200000*%
G04 APERTURE END LIST*
D10*
X11450000Y-5200000D02*
X18350000Y-5200000D01*
X18350000Y-10600000D01*
X11450000Y-10600000D01*
X11450000Y-5200000D01*
D11*
X11708277Y-10913984D02*
X11708277Y-10713984D01*
X11708277Y-10713984D02*
X11755896Y-10713984D01*
X11755896Y-10713984D02*
X11784467Y-10723508D01*
X11784467Y-10723508D02*
X11803515Y-10742555D01*
X11803515Y-10742555D02*
X11813039Y-10761603D01*
X11813039Y-10761603D02*
X11822562Y-10799698D01*
X11822562Y-10799698D02*
X11822562Y-10828270D01*
X11822562Y-10828270D02*
X11813039Y-10866365D01*
X11813039Y-10866365D02*
X11803515Y-10885412D01*
X11803515Y-10885412D02*
X11784467Y-10904460D01*
X11784467Y-10904460D02*
X11755896Y-10913984D01*
X11755896Y-10913984D02*
X11708277Y-10913984D01*
X11908277Y-10913984D02*
X11908277Y-10780650D01*
X11908277Y-10818746D02*
X11917801Y-10799698D01*
X11917801Y-10799698D02*
X11927324Y-10790174D01*
X11927324Y-10790174D02*
X11946372Y-10780650D01*
X11946372Y-10780650D02*
X11965420Y-10780650D01*
X12032086Y-10913984D02*
X12032086Y-10780650D01*
X12032086Y-10713984D02*
X12022562Y-10723508D01*
X12022562Y-10723508D02*
X12032086Y-10733031D01*
X12032086Y-10733031D02*
X12041610Y-10723508D01*
X12041610Y-10723508D02*
X12032086Y-10713984D01*
X12032086Y-10713984D02*
X12032086Y-10733031D01*
X12155896Y-10913984D02*
X12136848Y-10904460D01*
X12136848Y-10904460D02*
X12127324Y-10885412D01*
X12127324Y-10885412D02*
X12127324Y-10713984D01*
X12260658Y-10913984D02*
X12241610Y-10904460D01*
X12241610Y-10904460D02*
X12232086Y-10885412D01*
X12232086Y-10885412D02*
X12232086Y-10713984D01*
X12489229Y-10913984D02*
X12489229Y-10713984D01*
X12489229Y-10713984D02*
X12555896Y-10856841D01*
X12555896Y-10856841D02*
X12622562Y-10713984D01*
X12622562Y-10713984D02*
X12622562Y-10913984D01*
X12803515Y-10913984D02*
X12803515Y-10809222D01*
X12803515Y-10809222D02*
X12793991Y-10790174D01*
X12793991Y-10790174D02*
X12774943Y-10780650D01*
X12774943Y-10780650D02*
X12736848Y-10780650D01*
X12736848Y-10780650D02*
X12717801Y-10790174D01*
X12803515Y-10904460D02*
X12784467Y-10913984D01*
X12784467Y-10913984D02*
X12736848Y-10913984D01*
X12736848Y-10913984D02*
X12717801Y-10904460D01*
X12717801Y-10904460D02*
X12708277Y-10885412D01*
X12708277Y-10885412D02*
X12708277Y-10866365D01*
X12708277Y-10866365D02*
X12717801Y-10847317D01*
X12717801Y-10847317D02*
X12736848Y-10837793D01*
X12736848Y-10837793D02*
X12784467Y-10837793D01*
X12784467Y-10837793D02*
X12803515Y-10828270D01*
X12898753Y-10780650D02*
X12898753Y-10980650D01*
X12898753Y-10790174D02*
X12917801Y-10780650D01*
X12917801Y-10780650D02*
X12955896Y-10780650D01*
X12955896Y-10780650D02*
X12974943Y-10790174D01*
X12974943Y-10790174D02*
X12984467Y-10799698D01*
X12984467Y-10799698D02*
X12993991Y-10818746D01*
X12993991Y-10818746D02*
X12993991Y-10875889D01*
X12993991Y-10875889D02*
X12984467Y-10894936D01*
X12984467Y-10894936D02*
X12974943Y-10904460D01*
X12974943Y-10904460D02*
X12955896Y-10913984D01*
X12955896Y-10913984D02*
X12917801Y-10913984D01*
X12917801Y-10913984D02*
X12898753Y-10904460D01*
X13079705Y-10894936D02*
X13089229Y-10904460D01*
X13089229Y-10904460D02*
X13079705Y-10913984D01*
X13079705Y-10913984D02*
X13070182Y-10904460D01*
X13070182Y-10904460D02*
X13079705Y-10894936D01*
X13079705Y-10894936D02*
X13079705Y-10913984D01*
X13079705Y-10790174D02*
X13089229Y-10799698D01*
X13089229Y-10799698D02*
X13079705Y-10809222D01*
X13079705Y-10809222D02*
X13070182Y-10799698D01*
X13070182Y-10799698D02*
X13079705Y-10790174D01*
X13079705Y-10790174D02*
X13079705Y-10809222D01*
M02*
