%TF.GenerationSoftware,KiCad,Pcbnew,9.0.4-9.0.4-0~ubuntu24.04.1*%
%TF.CreationDate,2025-08-23T17:14:42+02:00*%
%TF.ProjectId,hv_board,68765f62-6f61-4726-942e-6b696361645f,rev?*%
%TF.SameCoordinates,Original*%
%TF.FileFunction,Legend,Bot*%
%TF.FilePolarity,Positive*%
%FSLAX46Y46*%
G04 Gerber Fmt 4.6, Leading zero omitted, Abs format (unit mm)*
G04 Created by KiCad (PCBNEW 9.0.4-9.0.4-0~ubuntu24.04.1) date 2025-08-23 17:14:42*
%MOMM*%
%LPD*%
G01*
G04 APERTURE LIST*
G04 Aperture macros list*
%AMRoundRect*
0 Rectangle with rounded corners*
0 $1 Rounding radius*
0 $2 $3 $4 $5 $6 $7 $8 $9 X,Y pos of 4 corners*
0 Add a 4 corners polygon primitive as box body*
4,1,4,$2,$3,$4,$5,$6,$7,$8,$9,$2,$3,0*
0 Add four circle primitives for the rounded corners*
1,1,$1+$1,$2,$3*
1,1,$1+$1,$4,$5*
1,1,$1+$1,$6,$7*
1,1,$1+$1,$8,$9*
0 Add four rect primitives between the rounded corners*
20,1,$1+$1,$2,$3,$4,$5,0*
20,1,$1+$1,$4,$5,$6,$7,0*
20,1,$1+$1,$6,$7,$8,$9,0*
20,1,$1+$1,$8,$9,$2,$3,0*%
G04 Aperture macros list end*
%ADD10C,1.549400*%
%ADD11R,1.625600X1.625600*%
%ADD12C,1.625600*%
%ADD13R,2.000000X2.000000*%
%ADD14O,2.000000X2.000000*%
%ADD15C,3.810000*%
%ADD16R,2.175000X2.175000*%
%ADD17C,2.175000*%
%ADD18C,1.270000*%
%ADD19O,3.000000X2.000000*%
%ADD20R,2.000000X3.000000*%
%ADD21O,2.000000X3.000000*%
%ADD22R,1.422400X1.422400*%
%ADD23C,1.422400*%
%ADD24R,1.320800X1.320800*%
%ADD25C,1.320800*%
%ADD26R,2.000000X1.905000*%
%ADD27O,2.000000X1.905000*%
%ADD28RoundRect,0.250000X0.550000X-0.550000X0.550000X0.550000X-0.550000X0.550000X-0.550000X-0.550000X0*%
%ADD29C,1.600000*%
%ADD30C,1.778000*%
%ADD31R,1.473200X1.473200*%
%ADD32C,1.473200*%
%ADD33R,1.350000X1.350000*%
%ADD34C,1.350000*%
G04 APERTURE END LIST*
%LPC*%
D10*
%TO.C,U2*%
X136349500Y-87309100D03*
X136349500Y-80298700D03*
X136349500Y-68792500D03*
X131650500Y-68792500D03*
%TD*%
D11*
%TO.C,F1*%
X171500000Y-100500000D03*
D12*
X166420000Y-100500000D03*
%TD*%
D13*
%TO.C,D1*%
X179545000Y-87975000D03*
D14*
X174465000Y-87975000D03*
X174465000Y-93055000D03*
X179545000Y-93055000D03*
%TD*%
D15*
%TO.C,H1*%
X167400000Y-79000000D03*
%TD*%
D16*
%TO.C,J1*%
X177500000Y-97900000D03*
D17*
X177500000Y-103000000D03*
%TD*%
D18*
%TO.C,U7*%
X165900000Y-55000000D03*
X165900000Y-57540000D03*
X165900000Y-60080000D03*
X173520000Y-60080000D03*
X173520000Y-57540000D03*
X173520000Y-55000000D03*
%TD*%
D16*
%TO.C,J5*%
X124500000Y-97900000D03*
D17*
X124500000Y-103000000D03*
%TD*%
D19*
%TO.C,K1*%
X126750000Y-83650000D03*
X119250000Y-83650000D03*
X126750000Y-78610000D03*
X119250000Y-78610000D03*
X126750000Y-88690000D03*
X119250000Y-88690000D03*
D20*
X119250000Y-63350000D03*
D21*
X126750000Y-63350000D03*
%TD*%
D16*
%TO.C,J3*%
X155500000Y-97900000D03*
D17*
X155500000Y-103000000D03*
%TD*%
D22*
%TO.C,C2*%
X149000000Y-94000000D03*
D23*
X149000000Y-104000000D03*
%TD*%
D24*
%TO.C,U6*%
X173500000Y-69540000D03*
D25*
X173500000Y-67000000D03*
X173500000Y-64460000D03*
X165880000Y-64460000D03*
X165880000Y-67000000D03*
X165880000Y-69540000D03*
%TD*%
D16*
%TO.C,J2*%
X134500000Y-97900000D03*
D17*
X134500000Y-103000000D03*
%TD*%
D26*
%TO.C,Q4*%
X171000000Y-81540000D03*
D27*
X171000000Y-79000000D03*
X171000000Y-76460000D03*
%TD*%
D28*
%TO.C,C3*%
X135000000Y-57500000D03*
D29*
X135000000Y-55000000D03*
%TD*%
D16*
%TO.C,J4*%
X142500000Y-97900000D03*
D17*
X142500000Y-103000000D03*
%TD*%
D22*
%TO.C,C1*%
X161500000Y-104000000D03*
D23*
X161500000Y-94000000D03*
%TD*%
D30*
%TO.C,U1*%
X142610000Y-89010000D03*
X161660000Y-89010000D03*
X161660000Y-55990000D03*
X148960000Y-55990000D03*
%TD*%
D31*
%TO.C,F2*%
X168000000Y-93405000D03*
D32*
X168000000Y-88325000D03*
%TD*%
D33*
%TO.C,J6*%
X116800000Y-54500000D03*
D34*
X118800000Y-54500000D03*
X120800000Y-54500000D03*
X122800000Y-54500000D03*
X124800000Y-54500000D03*
X126800000Y-54500000D03*
%TD*%
%LPD*%
M02*
