%TF.GenerationSoftware,KiCad,Pcbnew,9.0.4-9.0.4-0~ubuntu24.04.1*%
%TF.CreationDate,2025-08-23T17:14:42+02:00*%
%TF.ProjectId,hv_board,68765f62-6f61-4726-942e-6b696361645f,rev?*%
%TF.SameCoordinates,Original*%
%TF.FileFunction,Copper,L1,Top*%
%TF.FilePolarity,Positive*%
%FSLAX46Y46*%
G04 Gerber Fmt 4.6, Leading zero omitted, Abs format (unit mm)*
G04 Created by KiCad (PCBNEW 9.0.4-9.0.4-0~ubuntu24.04.1) date 2025-08-23 17:14:42*
%MOMM*%
%LPD*%
G01*
G04 APERTURE LIST*
G04 Aperture macros list*
%AMRoundRect*
0 Rectangle with rounded corners*
0 $1 Rounding radius*
0 $2 $3 $4 $5 $6 $7 $8 $9 X,Y pos of 4 corners*
0 Add a 4 corners polygon primitive as box body*
4,1,4,$2,$3,$4,$5,$6,$7,$8,$9,$2,$3,0*
0 Add four circle primitives for the rounded corners*
1,1,$1+$1,$2,$3*
1,1,$1+$1,$4,$5*
1,1,$1+$1,$6,$7*
1,1,$1+$1,$8,$9*
0 Add four rect primitives between the rounded corners*
20,1,$1+$1,$2,$3,$4,$5,0*
20,1,$1+$1,$4,$5,$6,$7,0*
20,1,$1+$1,$6,$7,$8,$9,0*
20,1,$1+$1,$8,$9,$2,$3,0*%
G04 Aperture macros list end*
%TA.AperFunction,ComponentPad*%
%ADD10C,1.549400*%
%TD*%
%TA.AperFunction,SMDPad,CuDef*%
%ADD11RoundRect,0.249999X1.075001X-0.450001X1.075001X0.450001X-1.075001X0.450001X-1.075001X-0.450001X0*%
%TD*%
%TA.AperFunction,ComponentPad*%
%ADD12R,1.625600X1.625600*%
%TD*%
%TA.AperFunction,ComponentPad*%
%ADD13C,1.625600*%
%TD*%
%TA.AperFunction,ComponentPad*%
%ADD14R,2.000000X2.000000*%
%TD*%
%TA.AperFunction,ComponentPad*%
%ADD15O,2.000000X2.000000*%
%TD*%
%TA.AperFunction,SMDPad,CuDef*%
%ADD16RoundRect,0.250000X-0.350000X-0.450000X0.350000X-0.450000X0.350000X0.450000X-0.350000X0.450000X0*%
%TD*%
%TA.AperFunction,ComponentPad*%
%ADD17C,3.810000*%
%TD*%
%TA.AperFunction,ComponentPad*%
%ADD18R,2.175000X2.175000*%
%TD*%
%TA.AperFunction,ComponentPad*%
%ADD19C,2.175000*%
%TD*%
%TA.AperFunction,ComponentPad*%
%ADD20C,1.270000*%
%TD*%
%TA.AperFunction,SMDPad,CuDef*%
%ADD21R,0.711200X0.406400*%
%TD*%
%TA.AperFunction,SMDPad,CuDef*%
%ADD22RoundRect,0.249999X0.450001X1.075001X-0.450001X1.075001X-0.450001X-1.075001X0.450001X-1.075001X0*%
%TD*%
%TA.AperFunction,ComponentPad*%
%ADD23O,3.000000X2.000000*%
%TD*%
%TA.AperFunction,ComponentPad*%
%ADD24R,2.000000X3.000000*%
%TD*%
%TA.AperFunction,ComponentPad*%
%ADD25O,2.000000X3.000000*%
%TD*%
%TA.AperFunction,SMDPad,CuDef*%
%ADD26RoundRect,0.250000X0.350000X0.450000X-0.350000X0.450000X-0.350000X-0.450000X0.350000X-0.450000X0*%
%TD*%
%TA.AperFunction,SMDPad,CuDef*%
%ADD27RoundRect,0.150000X-0.587500X-0.150000X0.587500X-0.150000X0.587500X0.150000X-0.587500X0.150000X0*%
%TD*%
%TA.AperFunction,SMDPad,CuDef*%
%ADD28R,0.965200X1.600200*%
%TD*%
%TA.AperFunction,SMDPad,CuDef*%
%ADD29RoundRect,0.250000X0.625000X-0.400000X0.625000X0.400000X-0.625000X0.400000X-0.625000X-0.400000X0*%
%TD*%
%TA.AperFunction,ComponentPad*%
%ADD30R,1.422400X1.422400*%
%TD*%
%TA.AperFunction,ComponentPad*%
%ADD31C,1.422400*%
%TD*%
%TA.AperFunction,ComponentPad*%
%ADD32R,1.320800X1.320800*%
%TD*%
%TA.AperFunction,ComponentPad*%
%ADD33C,1.320800*%
%TD*%
%TA.AperFunction,ComponentPad*%
%ADD34R,2.000000X1.905000*%
%TD*%
%TA.AperFunction,ComponentPad*%
%ADD35O,2.000000X1.905000*%
%TD*%
%TA.AperFunction,ComponentPad*%
%ADD36RoundRect,0.250000X0.550000X-0.550000X0.550000X0.550000X-0.550000X0.550000X-0.550000X-0.550000X0*%
%TD*%
%TA.AperFunction,ComponentPad*%
%ADD37C,1.600000*%
%TD*%
%TA.AperFunction,SMDPad,CuDef*%
%ADD38RoundRect,0.249999X-1.075001X0.450001X-1.075001X-0.450001X1.075001X-0.450001X1.075001X0.450001X0*%
%TD*%
%TA.AperFunction,ComponentPad*%
%ADD39C,1.778000*%
%TD*%
%TA.AperFunction,ComponentPad*%
%ADD40R,1.473200X1.473200*%
%TD*%
%TA.AperFunction,ComponentPad*%
%ADD41C,1.473200*%
%TD*%
%TA.AperFunction,ComponentPad*%
%ADD42R,1.350000X1.350000*%
%TD*%
%TA.AperFunction,ComponentPad*%
%ADD43C,1.350000*%
%TD*%
%TA.AperFunction,SMDPad,CuDef*%
%ADD44RoundRect,0.150000X-0.150000X0.587500X-0.150000X-0.587500X0.150000X-0.587500X0.150000X0.587500X0*%
%TD*%
%TA.AperFunction,ViaPad*%
%ADD45C,0.600000*%
%TD*%
%TA.AperFunction,ViaPad*%
%ADD46C,1.600000*%
%TD*%
%TA.AperFunction,ViaPad*%
%ADD47C,1.200000*%
%TD*%
%TA.AperFunction,Conductor*%
%ADD48C,0.600000*%
%TD*%
%TA.AperFunction,Conductor*%
%ADD49C,1.600000*%
%TD*%
%TA.AperFunction,Conductor*%
%ADD50C,0.200000*%
%TD*%
%TA.AperFunction,Conductor*%
%ADD51C,1.200000*%
%TD*%
G04 APERTURE END LIST*
D10*
%TO.P,U2,1,1*%
%TO.N,Net-(Q4-A2)*%
X136349500Y-87309100D03*
%TO.P,U2,2,2*%
%TO.N,230V_L*%
X136349500Y-80298700D03*
%TO.P,U2,3,3*%
%TO.N,12V*%
X136349500Y-68792500D03*
%TO.P,U2,4,4*%
%TO.N,Net-(Q2-D)*%
X131650500Y-68792500D03*
%TD*%
D11*
%TO.P,R6,1*%
%TO.N,Net-(D1-Pad2)*%
X179000000Y-80800000D03*
%TO.P,R6,2*%
%TO.N,230V_N*%
X179000000Y-76000000D03*
%TD*%
D12*
%TO.P,F1,1,1*%
%TO.N,230V_L*%
X171500000Y-100500000D03*
D13*
%TO.P,F1,2,2*%
%TO.N,Net-(U1-ACL)*%
X166420000Y-100500000D03*
%TD*%
D14*
%TO.P,D1,1,+*%
%TO.N,Net-(D1-+)*%
X179545000Y-87975000D03*
D15*
%TO.P,D1,2*%
%TO.N,Net-(D1-Pad2)*%
X174465000Y-87975000D03*
%TO.P,D1,3,-*%
%TO.N,Net-(D1--)*%
X174465000Y-93055000D03*
%TO.P,D1,4*%
%TO.N,Net-(D1-Pad4)*%
X179545000Y-93055000D03*
%TD*%
D16*
%TO.P,R1,1*%
%TO.N,GND*%
X118000000Y-57000000D03*
%TO.P,R1,2*%
%TO.N,Net-(J6-Pin_6)*%
X120000000Y-57000000D03*
%TD*%
D11*
%TO.P,R5,1*%
%TO.N,230V_L*%
X179045000Y-68300000D03*
%TO.P,R5,2*%
%TO.N,Net-(D1-Pad4)*%
X179045000Y-63500000D03*
%TD*%
D17*
%TO.P,H1,1,1*%
%TO.N,unconnected-(H1-Pad1)*%
X167400000Y-79000000D03*
%TD*%
D18*
%TO.P,J1,1,1*%
%TO.N,Net-(F2-Pad1)*%
X177500000Y-97900000D03*
D19*
%TO.P,J1,2,2*%
%TO.N,unconnected-(J1-Pad2)*%
X177500000Y-103000000D03*
%TD*%
D20*
%TO.P,U7,1*%
%TO.N,Net-(R8-Pad2)*%
X165900000Y-55000000D03*
%TO.P,U7,2*%
%TO.N,GND*%
X165900000Y-57540000D03*
%TO.P,U7,3,NC*%
%TO.N,unconnected-(U7-NC-Pad3)*%
X165900000Y-60080000D03*
%TO.P,U7,4*%
%TO.N,Net-(Q4-G)*%
X173520000Y-60080000D03*
%TO.P,U7,5,NC*%
%TO.N,unconnected-(U7-NC-Pad5)*%
X173520000Y-57540000D03*
%TO.P,U7,6*%
%TO.N,Net-(C1-Pad2)*%
X173520000Y-55000000D03*
%TD*%
D18*
%TO.P,J5,1,1*%
%TO.N,Net-(J5-Pad1)*%
X124500000Y-97900000D03*
D19*
%TO.P,J5,2,2*%
%TO.N,unconnected-(J5-Pad2)*%
X124500000Y-103000000D03*
%TD*%
D21*
%TO.P,U3,1*%
%TO.N,12V*%
X117806200Y-59500000D03*
%TO.P,U3,2*%
%TO.N,Net-(Q1-D)*%
X120193800Y-59500000D03*
%TD*%
D22*
%TO.P,R11,1*%
%TO.N,Net-(C2-Pad2)*%
X136400000Y-93000000D03*
%TO.P,R11,2*%
%TO.N,Net-(Q4-A1)*%
X131600000Y-93000000D03*
%TD*%
D23*
%TO.P,K1,11*%
%TO.N,230V_L*%
X126750000Y-83650000D03*
X119250000Y-83650000D03*
%TO.P,K1,12*%
%TO.N,unconnected-(K1-Pad12)*%
X126750000Y-78610000D03*
X119250000Y-78610000D03*
%TO.P,K1,14*%
%TO.N,Net-(J5-Pad1)*%
X126750000Y-88690000D03*
X119250000Y-88690000D03*
D24*
%TO.P,K1,A1*%
%TO.N,Net-(Q1-D)*%
X119250000Y-63350000D03*
D25*
%TO.P,K1,A2*%
%TO.N,12V*%
X126750000Y-63350000D03*
%TD*%
D26*
%TO.P,R7,1*%
%TO.N,Net-(D1-+)*%
X157000000Y-93500000D03*
%TO.P,R7,2*%
%TO.N,Net-(U6-ANODE)*%
X155000000Y-93500000D03*
%TD*%
D27*
%TO.P,Q1,1,G*%
%TO.N,Net-(J6-Pin_6)*%
X122625000Y-57550000D03*
%TO.P,Q1,2,S*%
%TO.N,GND*%
X122625000Y-59450000D03*
%TO.P,Q1,3,D*%
%TO.N,Net-(Q1-D)*%
X124500000Y-58500000D03*
%TD*%
D28*
%TO.P,F4,1,1*%
%TO.N,Net-(U1-+VOUT)*%
X130000000Y-59500000D03*
%TO.P,F4,2,2*%
%TO.N,12V*%
X127053600Y-59500000D03*
%TD*%
D29*
%TO.P,R8,1*%
%TO.N,Net-(J6-Pin_4)*%
X132500000Y-63500000D03*
%TO.P,R8,2*%
%TO.N,Net-(R8-Pad2)*%
X132500000Y-60400000D03*
%TD*%
D18*
%TO.P,J3,1,1*%
%TO.N,230V_N*%
X155500000Y-97900000D03*
D19*
%TO.P,J3,2,2*%
%TO.N,unconnected-(J3-Pad2)*%
X155500000Y-103000000D03*
%TD*%
D30*
%TO.P,C2,1*%
%TO.N,230V_N*%
X149000000Y-94000000D03*
D31*
%TO.P,C2,2*%
%TO.N,Net-(C2-Pad2)*%
X149000000Y-104000000D03*
%TD*%
D32*
%TO.P,U6,1,ANODE*%
%TO.N,Net-(U6-ANODE)*%
X173500000Y-69540000D03*
D33*
%TO.P,U6,2,CATHODE*%
%TO.N,Net-(D1--)*%
X173500000Y-67000000D03*
%TO.P,U6,3,NOCONNECTION*%
%TO.N,unconnected-(U6-NOCONNECTION-Pad3)*%
X173500000Y-64460000D03*
%TO.P,U6,4,EMITTER*%
%TO.N,GND*%
X165880000Y-64460000D03*
%TO.P,U6,5,COLLECTOR*%
%TO.N,Net-(J6-Pin_3)*%
X165880000Y-67000000D03*
%TO.P,U6,6,BASE*%
%TO.N,unconnected-(U6-BASE-Pad6)*%
X165880000Y-69540000D03*
%TD*%
D18*
%TO.P,J2,1,1*%
%TO.N,Net-(Q4-A1)*%
X134500000Y-97900000D03*
D19*
%TO.P,J2,2,2*%
%TO.N,unconnected-(J2-Pad2)*%
X134500000Y-103000000D03*
%TD*%
D34*
%TO.P,Q4,1,A1*%
%TO.N,Net-(Q4-A1)*%
X171000000Y-81540000D03*
D35*
%TO.P,Q4,2,A2*%
%TO.N,Net-(Q4-A2)*%
X171000000Y-79000000D03*
%TO.P,Q4,3,G*%
%TO.N,Net-(Q4-G)*%
X171000000Y-76460000D03*
%TD*%
D36*
%TO.P,C3,1*%
%TO.N,Net-(U1-+VOUT)*%
X135000000Y-57500000D03*
D37*
%TO.P,C3,2*%
%TO.N,GND*%
X135000000Y-55000000D03*
%TD*%
D38*
%TO.P,R9,1*%
%TO.N,Net-(C1-Pad2)*%
X179000000Y-55200000D03*
%TO.P,R9,2*%
%TO.N,Net-(Q4-A2)*%
X179000000Y-60000000D03*
%TD*%
D18*
%TO.P,J4,1,1*%
%TO.N,Net-(Q4-A2)*%
X142500000Y-97900000D03*
D19*
%TO.P,J4,2,2*%
%TO.N,unconnected-(J4-Pad2)*%
X142500000Y-103000000D03*
%TD*%
D16*
%TO.P,R28,1*%
%TO.N,GND*%
X127000000Y-57000000D03*
%TO.P,R28,2*%
%TO.N,Net-(J6-Pin_5)*%
X129000000Y-57000000D03*
%TD*%
D30*
%TO.P,C1,1*%
%TO.N,230V_N*%
X161500000Y-104000000D03*
D31*
%TO.P,C1,2*%
%TO.N,Net-(C1-Pad2)*%
X161500000Y-94000000D03*
%TD*%
D39*
%TO.P,U1,1,ACN*%
%TO.N,230V_N*%
X142610000Y-89010000D03*
%TO.P,U1,2,ACL*%
%TO.N,Net-(U1-ACL)*%
X161660000Y-89010000D03*
%TO.P,U1,3,-VOUT*%
%TO.N,GND*%
X161660000Y-55990000D03*
%TO.P,U1,4,+VOUT*%
%TO.N,Net-(U1-+VOUT)*%
X148960000Y-55990000D03*
%TD*%
D40*
%TO.P,F2,1,1*%
%TO.N,Net-(F2-Pad1)*%
X168000000Y-93405000D03*
D41*
%TO.P,F2,2,2*%
%TO.N,230V_L*%
X168000000Y-88325000D03*
%TD*%
D42*
%TO.P,J6,1,Pin_1*%
%TO.N,12V*%
X116800000Y-54500000D03*
D43*
%TO.P,J6,2,Pin_2*%
%TO.N,GND*%
X118800000Y-54500000D03*
%TO.P,J6,3,Pin_3*%
%TO.N,Net-(J6-Pin_3)*%
X120800000Y-54500000D03*
%TO.P,J6,4,Pin_4*%
%TO.N,Net-(J6-Pin_4)*%
X122800000Y-54500000D03*
%TO.P,J6,5,Pin_5*%
%TO.N,Net-(J6-Pin_5)*%
X124800000Y-54500000D03*
%TO.P,J6,6,Pin_6*%
%TO.N,Net-(J6-Pin_6)*%
X126800000Y-54500000D03*
%TD*%
D21*
%TO.P,U4,1*%
%TO.N,12V*%
X136193800Y-66000000D03*
%TO.P,U4,2*%
%TO.N,Net-(Q2-D)*%
X133806200Y-66000000D03*
%TD*%
D44*
%TO.P,Q2,1,G*%
%TO.N,Net-(J6-Pin_5)*%
X137000000Y-61500000D03*
%TO.P,Q2,2,S*%
%TO.N,GND*%
X135100000Y-61500000D03*
%TO.P,Q2,3,D*%
%TO.N,Net-(Q2-D)*%
X136050000Y-63375000D03*
%TD*%
D45*
%TO.N,GND*%
X119500000Y-68000000D03*
X123502872Y-68000000D03*
X164000000Y-68000000D03*
X168000000Y-68000000D03*
D46*
%TO.N,230V_L*%
X179000000Y-73000000D03*
X160000000Y-80300000D03*
X173000000Y-74000000D03*
%TO.N,230V_N*%
X142610000Y-77500000D03*
X157500000Y-77500000D03*
D47*
%TO.N,Net-(D1-+)*%
X157500000Y-95500000D03*
D45*
%TO.N,Net-(J6-Pin_4)*%
X130500000Y-65000000D03*
D46*
%TO.N,Net-(Q4-G)*%
X164500000Y-74500000D03*
D47*
%TO.N,Net-(U6-ANODE)*%
X149000000Y-74000000D03*
D45*
%TO.N,Net-(R8-Pad2)*%
X140000000Y-59000000D03*
X130500000Y-61500000D03*
%TD*%
D48*
%TO.N,Net-(U1-+VOUT)*%
X132000000Y-57500000D02*
X130000000Y-59500000D01*
X148960000Y-56040000D02*
X148960000Y-55990000D01*
X135000000Y-57500000D02*
X132000000Y-57500000D01*
D49*
%TO.N,230V_L*%
X168000000Y-88325000D02*
X168000000Y-88300000D01*
X119250000Y-83650000D02*
X123000000Y-83650000D01*
X128850000Y-83650000D02*
X132201300Y-80298700D01*
X168000000Y-88300000D02*
X160000000Y-80300000D01*
X160000000Y-75000000D02*
X160000000Y-80300000D01*
X171000000Y-72000000D02*
X163000000Y-72000000D01*
X126750000Y-83650000D02*
X128850000Y-83650000D01*
X123000000Y-83650000D02*
X126750000Y-83650000D01*
X179000000Y-73000000D02*
X179000000Y-68345000D01*
X168000000Y-88325000D02*
X167825000Y-88325000D01*
X163000000Y-72000000D02*
X160000000Y-75000000D01*
X173000000Y-74000000D02*
X171000000Y-72000000D01*
X132201300Y-80298700D02*
X136349500Y-80298700D01*
X179000000Y-68345000D02*
X179045000Y-68300000D01*
%TO.N,Net-(U1-ACL)*%
X166420000Y-97920000D02*
X165000000Y-96500000D01*
X165000000Y-96500000D02*
X165000000Y-92350000D01*
X166420000Y-100500000D02*
X166420000Y-97920000D01*
X165000000Y-92350000D02*
X161660000Y-89010000D01*
%TO.N,Net-(F2-Pad1)*%
X177500000Y-97900000D02*
X174400000Y-97900000D01*
X169905000Y-93405000D02*
X168000000Y-93405000D01*
X174400000Y-97900000D02*
X169905000Y-93405000D01*
%TO.N,230V_N*%
X147600000Y-94000000D02*
X142610000Y-89010000D01*
X151600000Y-94000000D02*
X155500000Y-97900000D01*
X168974000Y-90526000D02*
X171000000Y-88500000D01*
X171000000Y-88500000D02*
X171000000Y-87000000D01*
X174500000Y-81433206D02*
X179000000Y-76933206D01*
X157500000Y-81500000D02*
X166526000Y-90526000D01*
X161500000Y-103900000D02*
X155500000Y-97900000D01*
X171000000Y-87000000D02*
X174500000Y-83500000D01*
X174500000Y-83500000D02*
X174500000Y-81433206D01*
X142610000Y-89010000D02*
X142610000Y-77610000D01*
X166526000Y-90526000D02*
X168974000Y-90526000D01*
X149000000Y-94000000D02*
X151600000Y-94000000D01*
X149000000Y-94000000D02*
X147600000Y-94000000D01*
X161500000Y-104000000D02*
X161500000Y-103900000D01*
X179000000Y-76933206D02*
X179000000Y-76000000D01*
X157500000Y-77500000D02*
X157500000Y-81500000D01*
D50*
%TO.N,Net-(J6-Pin_5)*%
X129000000Y-57000000D02*
X129000000Y-54500000D01*
X130000000Y-53500000D02*
X136500000Y-53500000D01*
X129500000Y-53000000D02*
X130000000Y-53500000D01*
X124800000Y-54500000D02*
X126300000Y-53000000D01*
X126300000Y-53000000D02*
X129500000Y-53000000D01*
X136500000Y-53500000D02*
X138500000Y-55500000D01*
X138500000Y-60000000D02*
X137000000Y-61500000D01*
X129000000Y-54500000D02*
X130000000Y-53500000D01*
X138500000Y-55500000D02*
X138500000Y-60000000D01*
%TO.N,Net-(J6-Pin_6)*%
X124450000Y-57550000D02*
X122625000Y-57550000D01*
X120000000Y-57000000D02*
X121000000Y-57000000D01*
X121000000Y-57000000D02*
X121550000Y-57550000D01*
X126800000Y-54500000D02*
X126800000Y-55200000D01*
X121550000Y-57550000D02*
X122625000Y-57550000D01*
X126800000Y-55200000D02*
X124450000Y-57550000D01*
D48*
%TO.N,Net-(Q1-D)*%
X121850000Y-62350000D02*
X120850000Y-63350000D01*
X120193800Y-59500000D02*
X120193800Y-60693800D01*
X124500000Y-59700000D02*
X121850000Y-62350000D01*
X120193800Y-60693800D02*
X121850000Y-62350000D01*
X124500000Y-58500000D02*
X124500000Y-59700000D01*
X119250000Y-63350000D02*
X119250000Y-62250000D01*
X120850000Y-63350000D02*
X119250000Y-63350000D01*
D49*
%TO.N,unconnected-(K1-Pad12)*%
X119250000Y-78610000D02*
X126750000Y-78610000D01*
D48*
%TO.N,Net-(Q2-D)*%
X133806200Y-65318801D02*
X133806200Y-66000000D01*
X135750001Y-63375000D02*
X133806200Y-65318801D01*
X131650500Y-68792500D02*
X131650500Y-68155700D01*
X131650500Y-68155700D02*
X133806200Y-66000000D01*
X136050000Y-63375000D02*
X135750001Y-63375000D01*
D51*
%TO.N,Net-(D1-+)*%
X157500000Y-94000000D02*
X157000000Y-93500000D01*
X157500000Y-95500000D02*
X157500000Y-94000000D01*
%TO.N,Net-(D1-Pad2)*%
X179000000Y-83440000D02*
X178440000Y-84000000D01*
X174465000Y-87975000D02*
X178440000Y-84000000D01*
X179000000Y-80800000D02*
X179000000Y-83440000D01*
%TO.N,Net-(D1-Pad4)*%
X181946000Y-90654000D02*
X181946000Y-66401000D01*
X179545000Y-93055000D02*
X181946000Y-90654000D01*
X181946000Y-66401000D02*
X179045000Y-63500000D01*
D49*
%TO.N,Net-(Q4-A1)*%
X134500000Y-97900000D02*
X134400000Y-97900000D01*
X134400000Y-97900000D02*
X131600000Y-95100000D01*
X131600000Y-95100000D02*
X131600000Y-93000000D01*
D50*
%TO.N,Net-(J6-Pin_4)*%
X132000000Y-63500000D02*
X132500000Y-63500000D01*
X130500000Y-65000000D02*
X132000000Y-63500000D01*
D49*
%TO.N,Net-(C1-Pad2)*%
X167601400Y-62398600D02*
X171000000Y-59000000D01*
X178800000Y-55000000D02*
X179000000Y-55200000D01*
X154000000Y-70000000D02*
X161601400Y-62398600D01*
X154000000Y-86500000D02*
X154000000Y-70000000D01*
X173180660Y-55000000D02*
X173520000Y-55000000D01*
X161500000Y-94000000D02*
X154000000Y-86500000D01*
X171000000Y-59000000D02*
X171000000Y-57180660D01*
X171000000Y-57180660D02*
X173180660Y-55000000D01*
X173520000Y-55000000D02*
X178800000Y-55000000D01*
X161601400Y-62398600D02*
X167601400Y-62398600D01*
%TO.N,Net-(Q4-G)*%
X164799000Y-74201000D02*
X164500000Y-74500000D01*
X168741000Y-74201000D02*
X164799000Y-74201000D01*
X171000000Y-76460000D02*
X168741000Y-74201000D01*
D51*
%TO.N,Net-(U6-ANODE)*%
X149000000Y-74000000D02*
X145011000Y-77989000D01*
X145011000Y-77989000D02*
X145011000Y-87511000D01*
X152500000Y-91000000D02*
X155000000Y-93500000D01*
X148500000Y-91000000D02*
X152500000Y-91000000D01*
X145011000Y-87511000D02*
X148500000Y-91000000D01*
D50*
%TO.N,Net-(R8-Pad2)*%
X132500000Y-60400000D02*
X131600000Y-60400000D01*
X145500000Y-53500000D02*
X140000000Y-59000000D01*
X131600000Y-60400000D02*
X130500000Y-61500000D01*
X165900000Y-55000000D02*
X164400000Y-53500000D01*
X164400000Y-53500000D02*
X145500000Y-53500000D01*
D49*
%TO.N,Net-(C2-Pad2)*%
X146500000Y-96500000D02*
X143000000Y-93000000D01*
X146500000Y-101500000D02*
X146500000Y-96500000D01*
X143000000Y-93000000D02*
X136400000Y-93000000D01*
X149000000Y-104000000D02*
X146500000Y-101500000D01*
%TO.N,Net-(Q4-A2)*%
X177675001Y-60000000D02*
X175561400Y-62113601D01*
X175561400Y-62113601D02*
X175561400Y-77038600D01*
X175561400Y-77038600D02*
X173600000Y-79000000D01*
X179000000Y-60000000D02*
X177675001Y-60000000D01*
X173600000Y-79000000D02*
X171000000Y-79000000D01*
%TO.N,Net-(J5-Pad1)*%
X119250000Y-88690000D02*
X126750000Y-88690000D01*
X124500000Y-97900000D02*
X126750000Y-95650000D01*
X126750000Y-95650000D02*
X126750000Y-88690000D01*
D48*
%TO.N,12V*%
X126750000Y-69250000D02*
X123500000Y-72500000D01*
X116000000Y-59500000D02*
X116000000Y-58500000D01*
X136349500Y-66155700D02*
X136193800Y-66000000D01*
X127500000Y-72500000D02*
X123500000Y-72500000D01*
X119000000Y-72500000D02*
X116000000Y-69500000D01*
X127053600Y-59500000D02*
X127053600Y-63046400D01*
X136349500Y-68792500D02*
X136349500Y-66155700D01*
X116000000Y-58500000D02*
X116000000Y-55300000D01*
X126750000Y-63350000D02*
X126750000Y-69250000D01*
X116000000Y-65500000D02*
X116000000Y-69500000D01*
X123500000Y-72500000D02*
X119000000Y-72500000D01*
X127500000Y-72500000D02*
X132642000Y-72500000D01*
X132642000Y-72500000D02*
X136349500Y-68792500D01*
X117806200Y-59500000D02*
X116000000Y-59500000D01*
X116000000Y-55300000D02*
X116800000Y-54500000D01*
X116000000Y-65500000D02*
X116000000Y-59500000D01*
X127053600Y-63046400D02*
X126750000Y-63350000D01*
%TD*%
%TA.AperFunction,Conductor*%
%TO.N,GND*%
G36*
X128817941Y-53620185D02*
G01*
X128863696Y-53672989D01*
X128873640Y-53742147D01*
X128844615Y-53805703D01*
X128838583Y-53812181D01*
X128633446Y-54017317D01*
X128633436Y-54017327D01*
X128631286Y-54019478D01*
X128631284Y-54019480D01*
X128519480Y-54131284D01*
X128507303Y-54152376D01*
X128500690Y-54163829D01*
X128500689Y-54163831D01*
X128445010Y-54260270D01*
X128440423Y-54268215D01*
X128399499Y-54420943D01*
X128399499Y-54420945D01*
X128399499Y-54589046D01*
X128399500Y-54589059D01*
X128399500Y-55754091D01*
X128379815Y-55821130D01*
X128335731Y-55859641D01*
X128336813Y-55861395D01*
X128330667Y-55865185D01*
X128330666Y-55865186D01*
X128266054Y-55905039D01*
X128181342Y-55957289D01*
X128057289Y-56081342D01*
X127965187Y-56230663D01*
X127965185Y-56230668D01*
X127953747Y-56265186D01*
X127910001Y-56397203D01*
X127910001Y-56397204D01*
X127910000Y-56397204D01*
X127899500Y-56499983D01*
X127899500Y-57500001D01*
X127899501Y-57500019D01*
X127910000Y-57602796D01*
X127910001Y-57602799D01*
X127965185Y-57769331D01*
X127965187Y-57769336D01*
X128000069Y-57825888D01*
X128057288Y-57918656D01*
X128181344Y-58042712D01*
X128330666Y-58134814D01*
X128497203Y-58189999D01*
X128599991Y-58200500D01*
X129018325Y-58200499D01*
X129085363Y-58220183D01*
X129131118Y-58272987D01*
X129141062Y-58342146D01*
X129117591Y-58398810D01*
X129073604Y-58457569D01*
X129073602Y-58457571D01*
X129024655Y-58588808D01*
X129023309Y-58592417D01*
X129018197Y-58639958D01*
X128991461Y-58704506D01*
X128934068Y-58744354D01*
X128894909Y-58750700D01*
X128158691Y-58750700D01*
X128091652Y-58731015D01*
X128045897Y-58678211D01*
X128035401Y-58639953D01*
X128030291Y-58592416D01*
X127979997Y-58457571D01*
X127979993Y-58457564D01*
X127893747Y-58342355D01*
X127893744Y-58342352D01*
X127778535Y-58256106D01*
X127778528Y-58256102D01*
X127643682Y-58205808D01*
X127643683Y-58205808D01*
X127584083Y-58199401D01*
X127584081Y-58199400D01*
X127584073Y-58199400D01*
X127584064Y-58199400D01*
X126523129Y-58199400D01*
X126523123Y-58199401D01*
X126463516Y-58205808D01*
X126328671Y-58256102D01*
X126328664Y-58256106D01*
X126213455Y-58342352D01*
X126213452Y-58342355D01*
X126127206Y-58457564D01*
X126127202Y-58457571D01*
X126076908Y-58592417D01*
X126070501Y-58652016D01*
X126070500Y-58652035D01*
X126070500Y-60347970D01*
X126070501Y-60347976D01*
X126076908Y-60407583D01*
X126127202Y-60542428D01*
X126127206Y-60542435D01*
X126213452Y-60657644D01*
X126216781Y-60660973D01*
X126250266Y-60722296D01*
X126253100Y-60748654D01*
X126253100Y-61343817D01*
X126233415Y-61410856D01*
X126180611Y-61456611D01*
X126176545Y-61458381D01*
X126174010Y-61459430D01*
X125963566Y-61566657D01*
X125907119Y-61607669D01*
X125772490Y-61705483D01*
X125772488Y-61705485D01*
X125772487Y-61705485D01*
X125605485Y-61872487D01*
X125605485Y-61872488D01*
X125605483Y-61872490D01*
X125600619Y-61879185D01*
X125466657Y-62063566D01*
X125359433Y-62274003D01*
X125286446Y-62498631D01*
X125249500Y-62731902D01*
X125249500Y-63968097D01*
X125286446Y-64201368D01*
X125359433Y-64425996D01*
X125446405Y-64596687D01*
X125466657Y-64636433D01*
X125605483Y-64827510D01*
X125772490Y-64994517D01*
X125898388Y-65085987D01*
X125941051Y-65141313D01*
X125949500Y-65186302D01*
X125949500Y-68867060D01*
X125929815Y-68934099D01*
X125913181Y-68954741D01*
X123904241Y-70963681D01*
X123842918Y-70997166D01*
X123816560Y-71000000D01*
X118683440Y-71000000D01*
X118616401Y-70980315D01*
X118595759Y-70963681D01*
X116836819Y-69204741D01*
X116803334Y-69143418D01*
X116800500Y-69117060D01*
X116800500Y-60424500D01*
X116820185Y-60357461D01*
X116872989Y-60311706D01*
X116924500Y-60300500D01*
X117885044Y-60300500D01*
X117885045Y-60300499D01*
X118039697Y-60269737D01*
X118178960Y-60212053D01*
X118213157Y-60203324D01*
X118269283Y-60197291D01*
X118404131Y-60146996D01*
X118404134Y-60146993D01*
X118411914Y-60142746D01*
X118412534Y-60143881D01*
X118469541Y-60122616D01*
X118478392Y-60122300D01*
X119269300Y-60122300D01*
X119336339Y-60141985D01*
X119382094Y-60194789D01*
X119393300Y-60246300D01*
X119393300Y-60772646D01*
X119424061Y-60927289D01*
X119424064Y-60927301D01*
X119484402Y-61072972D01*
X119484409Y-61072985D01*
X119540285Y-61156609D01*
X119561163Y-61223287D01*
X119542678Y-61290667D01*
X119490699Y-61337357D01*
X119437183Y-61349500D01*
X118202129Y-61349500D01*
X118202123Y-61349501D01*
X118142516Y-61355908D01*
X118007671Y-61406202D01*
X118007664Y-61406206D01*
X117892455Y-61492452D01*
X117892452Y-61492455D01*
X117806206Y-61607664D01*
X117806202Y-61607671D01*
X117755908Y-61742517D01*
X117749501Y-61802116D01*
X117749500Y-61802135D01*
X117749500Y-64897870D01*
X117749501Y-64897876D01*
X117755908Y-64957483D01*
X117806202Y-65092328D01*
X117806206Y-65092335D01*
X117892452Y-65207544D01*
X117892455Y-65207547D01*
X118007664Y-65293793D01*
X118007671Y-65293797D01*
X118142517Y-65344091D01*
X118142516Y-65344091D01*
X118149444Y-65344835D01*
X118202127Y-65350500D01*
X120297872Y-65350499D01*
X120357483Y-65344091D01*
X120492331Y-65293796D01*
X120607546Y-65207546D01*
X120693796Y-65092331D01*
X120744091Y-64957483D01*
X120750500Y-64897873D01*
X120750500Y-64274500D01*
X120770185Y-64207461D01*
X120822989Y-64161706D01*
X120874500Y-64150500D01*
X120928844Y-64150500D01*
X120928845Y-64150499D01*
X121083497Y-64119737D01*
X121229179Y-64059394D01*
X121360289Y-63971789D01*
X122360286Y-62971791D01*
X122360290Y-62971789D01*
X122471789Y-62860290D01*
X122471791Y-62860286D01*
X125121789Y-60210289D01*
X125209394Y-60079179D01*
X125269737Y-59933497D01*
X125300500Y-59778842D01*
X125300500Y-59621158D01*
X125300500Y-59350503D01*
X125320185Y-59283464D01*
X125361377Y-59243772D01*
X125489365Y-59168081D01*
X125605581Y-59051865D01*
X125689244Y-58910398D01*
X125735098Y-58752569D01*
X125738000Y-58715694D01*
X125738000Y-58284306D01*
X125735098Y-58247431D01*
X125730110Y-58230264D01*
X125695046Y-58109573D01*
X125689244Y-58089602D01*
X125605581Y-57948135D01*
X125605579Y-57948133D01*
X125605576Y-57948129D01*
X125489370Y-57831923D01*
X125489362Y-57831917D01*
X125347897Y-57748255D01*
X125343004Y-57746138D01*
X125289299Y-57701445D01*
X125268282Y-57634811D01*
X125286626Y-57567392D01*
X125304572Y-57544662D01*
X127168713Y-55680521D01*
X127168716Y-55680520D01*
X127254927Y-55594307D01*
X127254930Y-55594306D01*
X127286311Y-55571506D01*
X127416096Y-55505378D01*
X127565787Y-55396621D01*
X127696621Y-55265787D01*
X127805378Y-55116096D01*
X127889379Y-54951235D01*
X127946555Y-54775264D01*
X127975500Y-54592514D01*
X127975500Y-54407486D01*
X127946555Y-54224736D01*
X127912585Y-54120185D01*
X127889380Y-54048767D01*
X127889379Y-54048764D01*
X127837878Y-53947689D01*
X127805378Y-53883904D01*
X127791280Y-53864500D01*
X127742519Y-53797385D01*
X127719039Y-53731579D01*
X127734865Y-53663525D01*
X127784970Y-53614830D01*
X127842837Y-53600500D01*
X128750902Y-53600500D01*
X128817941Y-53620185D01*
G37*
%TD.AperFunction*%
%TA.AperFunction,Conductor*%
G36*
X136266942Y-54120185D02*
G01*
X136287584Y-54136819D01*
X137863181Y-55712416D01*
X137896666Y-55773739D01*
X137899500Y-55800097D01*
X137899500Y-59699902D01*
X137879815Y-59766941D01*
X137863181Y-59787583D01*
X137407709Y-60243054D01*
X137346386Y-60276539D01*
X137285435Y-60274450D01*
X137252572Y-60264903D01*
X137252573Y-60264903D01*
X137252569Y-60264902D01*
X137252566Y-60264901D01*
X137252563Y-60264901D01*
X137215701Y-60262000D01*
X137215694Y-60262000D01*
X136784306Y-60262000D01*
X136784298Y-60262000D01*
X136747432Y-60264901D01*
X136747426Y-60264902D01*
X136589606Y-60310754D01*
X136589603Y-60310755D01*
X136448137Y-60394417D01*
X136448129Y-60394423D01*
X136331923Y-60510629D01*
X136331917Y-60510637D01*
X136248255Y-60652103D01*
X136248254Y-60652106D01*
X136202402Y-60809926D01*
X136202401Y-60809932D01*
X136199500Y-60846798D01*
X136199500Y-62013000D01*
X136179815Y-62080039D01*
X136127011Y-62125794D01*
X136075500Y-62137000D01*
X135834298Y-62137000D01*
X135797432Y-62139901D01*
X135797426Y-62139902D01*
X135639606Y-62185754D01*
X135639603Y-62185755D01*
X135498137Y-62269417D01*
X135498129Y-62269423D01*
X135381923Y-62385629D01*
X135381917Y-62385637D01*
X135298255Y-62527103D01*
X135298254Y-62527106D01*
X135252402Y-62684926D01*
X135252401Y-62684931D01*
X135251242Y-62699667D01*
X135226357Y-62764955D01*
X135215305Y-62777617D01*
X134087180Y-63905741D01*
X134025857Y-63939226D01*
X133956165Y-63934242D01*
X133900232Y-63892370D01*
X133875815Y-63826906D01*
X133875499Y-63818083D01*
X133875499Y-63049992D01*
X133867510Y-62971789D01*
X133864999Y-62947203D01*
X133864998Y-62947200D01*
X133836765Y-62862000D01*
X133809814Y-62780666D01*
X133717712Y-62631344D01*
X133593656Y-62507288D01*
X133444334Y-62415186D01*
X133277797Y-62360001D01*
X133277795Y-62360000D01*
X133175010Y-62349500D01*
X131824998Y-62349500D01*
X131824981Y-62349501D01*
X131722203Y-62360000D01*
X131722200Y-62360001D01*
X131555668Y-62415185D01*
X131555663Y-62415187D01*
X131406342Y-62507289D01*
X131282289Y-62631342D01*
X131190187Y-62780663D01*
X131190186Y-62780666D01*
X131135001Y-62947203D01*
X131135001Y-62947204D01*
X131135000Y-62947204D01*
X131124500Y-63049983D01*
X131124500Y-63474902D01*
X131104815Y-63541941D01*
X131088181Y-63562583D01*
X130485339Y-64165425D01*
X130424016Y-64198910D01*
X130421850Y-64199361D01*
X130266508Y-64230261D01*
X130266498Y-64230264D01*
X130120827Y-64290602D01*
X130120814Y-64290609D01*
X129989711Y-64378210D01*
X129989707Y-64378213D01*
X129878213Y-64489707D01*
X129878210Y-64489711D01*
X129790609Y-64620814D01*
X129790602Y-64620827D01*
X129730264Y-64766498D01*
X129730261Y-64766510D01*
X129699500Y-64921153D01*
X129699500Y-65078846D01*
X129730261Y-65233489D01*
X129730264Y-65233501D01*
X129790602Y-65379172D01*
X129790609Y-65379185D01*
X129878210Y-65510288D01*
X129878213Y-65510292D01*
X129989707Y-65621786D01*
X129989711Y-65621789D01*
X130120814Y-65709390D01*
X130120827Y-65709397D01*
X130266498Y-65769735D01*
X130266503Y-65769737D01*
X130421153Y-65800499D01*
X130421156Y-65800500D01*
X130421158Y-65800500D01*
X130578844Y-65800500D01*
X130578845Y-65800499D01*
X130733497Y-65769737D01*
X130879179Y-65709394D01*
X131010289Y-65621789D01*
X131121789Y-65510289D01*
X131209394Y-65379179D01*
X131269737Y-65233497D01*
X131297817Y-65092331D01*
X131300638Y-65078150D01*
X131333023Y-65016239D01*
X131334523Y-65014711D01*
X131668773Y-64680460D01*
X131730094Y-64646977D01*
X131769052Y-64644785D01*
X131824991Y-64650500D01*
X133058003Y-64650499D01*
X133125042Y-64670184D01*
X133170797Y-64722987D01*
X133180741Y-64792146D01*
X133161105Y-64843389D01*
X133096812Y-64939610D01*
X133096802Y-64939628D01*
X133036464Y-65085299D01*
X133036461Y-65085311D01*
X133005700Y-65239954D01*
X133005700Y-65535056D01*
X133004839Y-65539961D01*
X133005464Y-65542704D01*
X132999123Y-65572546D01*
X132998296Y-65577263D01*
X132998095Y-65577817D01*
X132956509Y-65689317D01*
X132955991Y-65694128D01*
X132951770Y-65705791D01*
X132936948Y-65725994D01*
X132922855Y-65751265D01*
X131140211Y-67533911D01*
X131028713Y-67645408D01*
X131028709Y-67645413D01*
X131011644Y-67670951D01*
X130981431Y-67702373D01*
X130932074Y-67738233D01*
X130819763Y-67819832D01*
X130819761Y-67819834D01*
X130819760Y-67819834D01*
X130677834Y-67961760D01*
X130677834Y-67961761D01*
X130677832Y-67961763D01*
X130655217Y-67992890D01*
X130559851Y-68124149D01*
X130468724Y-68302995D01*
X130406700Y-68493885D01*
X130406700Y-68493888D01*
X130406700Y-68493890D01*
X130375300Y-68692140D01*
X130375300Y-68892860D01*
X130381461Y-68931758D01*
X130406700Y-69091111D01*
X130406700Y-69091114D01*
X130468724Y-69282004D01*
X130539627Y-69421158D01*
X130559851Y-69460850D01*
X130677832Y-69623237D01*
X130819763Y-69765168D01*
X130982150Y-69883149D01*
X131160993Y-69974274D01*
X131160995Y-69974275D01*
X131351886Y-70036299D01*
X131351887Y-70036299D01*
X131351890Y-70036300D01*
X131550140Y-70067700D01*
X131550141Y-70067700D01*
X131750859Y-70067700D01*
X131750860Y-70067700D01*
X131949110Y-70036300D01*
X131949113Y-70036299D01*
X131949114Y-70036299D01*
X132140004Y-69974275D01*
X132140004Y-69974274D01*
X132140007Y-69974274D01*
X132318850Y-69883149D01*
X132481237Y-69765168D01*
X132623168Y-69623237D01*
X132741149Y-69460850D01*
X132832274Y-69282007D01*
X132877304Y-69143418D01*
X132894299Y-69091114D01*
X132894299Y-69091113D01*
X132894300Y-69091110D01*
X132925700Y-68892860D01*
X132925700Y-68692140D01*
X132894300Y-68493890D01*
X132894299Y-68493886D01*
X132894299Y-68493885D01*
X132832275Y-68302995D01*
X132806682Y-68252766D01*
X132793786Y-68184097D01*
X132820062Y-68119357D01*
X132829477Y-68108799D01*
X134207333Y-66730943D01*
X134249516Y-66703274D01*
X134262963Y-66697970D01*
X134269283Y-66697291D01*
X134404131Y-66646996D01*
X134417409Y-66637056D01*
X134432896Y-66630948D01*
X134451776Y-66629242D01*
X134469541Y-66622616D01*
X134478392Y-66622300D01*
X135425000Y-66622300D01*
X135492039Y-66641985D01*
X135537794Y-66694789D01*
X135549000Y-66746300D01*
X135549000Y-67738233D01*
X135529315Y-67805272D01*
X135512681Y-67825914D01*
X135376834Y-67961760D01*
X135376834Y-67961761D01*
X135376832Y-67961763D01*
X135354217Y-67992890D01*
X135258851Y-68124149D01*
X135167724Y-68302995D01*
X135105700Y-68493885D01*
X135105700Y-68493888D01*
X135074300Y-68692140D01*
X135074300Y-68884259D01*
X135054615Y-68951298D01*
X135037980Y-68971940D01*
X133552069Y-70457853D01*
X133046241Y-70963681D01*
X132984918Y-70997166D01*
X132958560Y-71000000D01*
X126431440Y-71000000D01*
X126364401Y-70980315D01*
X126318646Y-70927511D01*
X126308702Y-70858353D01*
X126337727Y-70794797D01*
X126343759Y-70788319D01*
X127371786Y-69760292D01*
X127371789Y-69760289D01*
X127459394Y-69629179D01*
X127519737Y-69483497D01*
X127550500Y-69328842D01*
X127550500Y-69171158D01*
X127550500Y-65186302D01*
X127570185Y-65119263D01*
X127601609Y-65085988D01*
X127727510Y-64994517D01*
X127894517Y-64827510D01*
X128033343Y-64636433D01*
X128140568Y-64425992D01*
X128213553Y-64201368D01*
X128226482Y-64119737D01*
X128250500Y-63968097D01*
X128250500Y-62731902D01*
X128213553Y-62498631D01*
X128168509Y-62360001D01*
X128140568Y-62274008D01*
X128140566Y-62274005D01*
X128140566Y-62274003D01*
X128079006Y-62153186D01*
X128033343Y-62063567D01*
X127894517Y-61872490D01*
X127890419Y-61868392D01*
X127856934Y-61807069D01*
X127854100Y-61780711D01*
X127854100Y-60748654D01*
X127873785Y-60681615D01*
X127890419Y-60660973D01*
X127893742Y-60657648D01*
X127893746Y-60657646D01*
X127979996Y-60542431D01*
X128030291Y-60407583D01*
X128035402Y-60360041D01*
X128062139Y-60295494D01*
X128119532Y-60255646D01*
X128158691Y-60249300D01*
X128894909Y-60249300D01*
X128961948Y-60268985D01*
X129007703Y-60321789D01*
X129018199Y-60360047D01*
X129023308Y-60407583D01*
X129073602Y-60542428D01*
X129073606Y-60542435D01*
X129159852Y-60657644D01*
X129159855Y-60657647D01*
X129275064Y-60743893D01*
X129275071Y-60743897D01*
X129320018Y-60760661D01*
X129409917Y-60794191D01*
X129469527Y-60800600D01*
X129772584Y-60800599D01*
X129839622Y-60820283D01*
X129885377Y-60873087D01*
X129895321Y-60942246D01*
X129875685Y-60993490D01*
X129790609Y-61120814D01*
X129790602Y-61120827D01*
X129730264Y-61266498D01*
X129730261Y-61266510D01*
X129699500Y-61421153D01*
X129699500Y-61578846D01*
X129730261Y-61733489D01*
X129730264Y-61733501D01*
X129790602Y-61879172D01*
X129790609Y-61879185D01*
X129878210Y-62010288D01*
X129878213Y-62010292D01*
X129989707Y-62121786D01*
X129989711Y-62121789D01*
X130120814Y-62209390D01*
X130120827Y-62209397D01*
X130265730Y-62269417D01*
X130266503Y-62269737D01*
X130421153Y-62300499D01*
X130421156Y-62300500D01*
X130421158Y-62300500D01*
X130578844Y-62300500D01*
X130578845Y-62300499D01*
X130733497Y-62269737D01*
X130879179Y-62209394D01*
X131010289Y-62121789D01*
X131121789Y-62010289D01*
X131209394Y-61879179D01*
X131212166Y-61872488D01*
X131269735Y-61733501D01*
X131269737Y-61733497D01*
X131300500Y-61578842D01*
X131300500Y-61578839D01*
X131300637Y-61578151D01*
X131309402Y-61561392D01*
X131313423Y-61542914D01*
X131332163Y-61517878D01*
X131333021Y-61516240D01*
X131334476Y-61514757D01*
X131368053Y-61481181D01*
X131429376Y-61447698D01*
X131499067Y-61452684D01*
X131520823Y-61463323D01*
X131555666Y-61484814D01*
X131722203Y-61539999D01*
X131824991Y-61550500D01*
X133175008Y-61550499D01*
X133277797Y-61539999D01*
X133444334Y-61484814D01*
X133593656Y-61392712D01*
X133717712Y-61268656D01*
X133809814Y-61119334D01*
X133864999Y-60952797D01*
X133875500Y-60850009D01*
X133875499Y-59949992D01*
X133873814Y-59933501D01*
X133864999Y-59847203D01*
X133864998Y-59847200D01*
X133845243Y-59787583D01*
X133809814Y-59680666D01*
X133717712Y-59531344D01*
X133593656Y-59407288D01*
X133485002Y-59340270D01*
X133444336Y-59315187D01*
X133444331Y-59315185D01*
X133442862Y-59314698D01*
X133277797Y-59260001D01*
X133277795Y-59260000D01*
X133175010Y-59249500D01*
X131824998Y-59249500D01*
X131824981Y-59249501D01*
X131722203Y-59260000D01*
X131722201Y-59260001D01*
X131695198Y-59268949D01*
X131625370Y-59271349D01*
X131565328Y-59235617D01*
X131534137Y-59173096D01*
X131541698Y-59103636D01*
X131568512Y-59063565D01*
X132295259Y-58336819D01*
X132356582Y-58303334D01*
X132382940Y-58300500D01*
X133654092Y-58300500D01*
X133721131Y-58320185D01*
X133759636Y-58364271D01*
X133761395Y-58363187D01*
X133765185Y-58369331D01*
X133765186Y-58369334D01*
X133857288Y-58518656D01*
X133981344Y-58642712D01*
X134130666Y-58734814D01*
X134297203Y-58789999D01*
X134399991Y-58800500D01*
X135600008Y-58800499D01*
X135702797Y-58789999D01*
X135869334Y-58734814D01*
X136018656Y-58642712D01*
X136142712Y-58518656D01*
X136234814Y-58369334D01*
X136289999Y-58202797D01*
X136300500Y-58100009D01*
X136300499Y-56899992D01*
X136300009Y-56895199D01*
X136289999Y-56797203D01*
X136289998Y-56797200D01*
X136274192Y-56749500D01*
X136234814Y-56630666D01*
X136142712Y-56481344D01*
X136018656Y-56357288D01*
X135869334Y-56265186D01*
X135702797Y-56210001D01*
X135702795Y-56210000D01*
X135600010Y-56199500D01*
X134399998Y-56199500D01*
X134399981Y-56199501D01*
X134297203Y-56210000D01*
X134297200Y-56210001D01*
X134130668Y-56265185D01*
X134130663Y-56265187D01*
X133981342Y-56357289D01*
X133857289Y-56481342D01*
X133761395Y-56636813D01*
X133759600Y-56635706D01*
X133720313Y-56680337D01*
X133654092Y-56699500D01*
X131921155Y-56699500D01*
X131766510Y-56730261D01*
X131766498Y-56730264D01*
X131620827Y-56790602D01*
X131620815Y-56790609D01*
X131522786Y-56856111D01*
X131522785Y-56856112D01*
X131489708Y-56878212D01*
X130204839Y-58163081D01*
X130177911Y-58177784D01*
X130152093Y-58194377D01*
X130145892Y-58195268D01*
X130143516Y-58196566D01*
X130117158Y-58199400D01*
X129961329Y-58199400D01*
X129894290Y-58179715D01*
X129848535Y-58126911D01*
X129838591Y-58057753D01*
X129867616Y-57994197D01*
X129873621Y-57987746D01*
X129942712Y-57918656D01*
X130034814Y-57769334D01*
X130089999Y-57602797D01*
X130100500Y-57500009D01*
X130100499Y-56499992D01*
X130089999Y-56397203D01*
X130034814Y-56230666D01*
X129942712Y-56081344D01*
X129818656Y-55957288D01*
X129669334Y-55865186D01*
X129669332Y-55865185D01*
X129663187Y-55861395D01*
X129664290Y-55859605D01*
X129619649Y-55820290D01*
X129600500Y-55754091D01*
X129600500Y-54800097D01*
X129620185Y-54733058D01*
X129636819Y-54712416D01*
X130212417Y-54136819D01*
X130273740Y-54103334D01*
X130300098Y-54100500D01*
X136199903Y-54100500D01*
X136266942Y-54120185D01*
G37*
%TD.AperFunction*%
%TA.AperFunction,Conductor*%
G36*
X168943039Y-52520185D02*
G01*
X168988794Y-52572989D01*
X169000000Y-52624500D01*
X169000000Y-58968032D01*
X168980315Y-59035071D01*
X168963681Y-59055713D01*
X167057613Y-60961781D01*
X167030685Y-60976484D01*
X167004867Y-60993077D01*
X166998666Y-60993968D01*
X166996290Y-60995266D01*
X166969932Y-60998100D01*
X166879880Y-60998100D01*
X166812841Y-60978415D01*
X166767086Y-60925611D01*
X166757142Y-60856453D01*
X166779562Y-60801214D01*
X166800321Y-60772642D01*
X166871167Y-60675132D01*
X166952309Y-60515881D01*
X166954014Y-60510635D01*
X167007539Y-60345901D01*
X167007539Y-60345900D01*
X167007540Y-60345897D01*
X167035500Y-60169366D01*
X167035500Y-59990634D01*
X167007540Y-59814103D01*
X167007539Y-59814099D01*
X167007539Y-59814098D01*
X166952310Y-59644121D01*
X166952308Y-59644118D01*
X166940930Y-59621786D01*
X166871167Y-59484868D01*
X166766111Y-59340272D01*
X166639728Y-59213889D01*
X166495132Y-59108833D01*
X166335881Y-59027691D01*
X166335878Y-59027689D01*
X166165899Y-58972460D01*
X166048209Y-58953820D01*
X165989366Y-58944500D01*
X165810634Y-58944500D01*
X165751790Y-58953820D01*
X165634101Y-58972460D01*
X165634098Y-58972460D01*
X165464121Y-59027689D01*
X165464118Y-59027691D01*
X165304867Y-59108833D01*
X165160270Y-59213890D01*
X165033890Y-59340270D01*
X164928833Y-59484867D01*
X164847691Y-59644118D01*
X164847689Y-59644121D01*
X164792460Y-59814098D01*
X164792460Y-59814101D01*
X164773551Y-59933489D01*
X164764500Y-59990634D01*
X164764500Y-60169366D01*
X164770982Y-60210289D01*
X164792460Y-60345898D01*
X164792460Y-60345901D01*
X164847689Y-60515878D01*
X164847691Y-60515881D01*
X164928833Y-60675132D01*
X164978793Y-60743896D01*
X165020438Y-60801214D01*
X165043918Y-60867020D01*
X165028093Y-60935074D01*
X164977987Y-60983769D01*
X164920120Y-60998100D01*
X161716757Y-60998100D01*
X161716733Y-60998099D01*
X161711622Y-60998099D01*
X161491178Y-60998099D01*
X161418601Y-61009594D01*
X161273447Y-61032585D01*
X161063796Y-61100703D01*
X161063793Y-61100704D01*
X160867374Y-61200787D01*
X160689041Y-61330352D01*
X160689036Y-61330356D01*
X157055712Y-64963681D01*
X156994389Y-64997166D01*
X156968031Y-65000000D01*
X139999999Y-65000000D01*
X138500000Y-66499999D01*
X138500000Y-69448638D01*
X138480315Y-69515677D01*
X138463681Y-69536319D01*
X137036319Y-70963681D01*
X136974996Y-70997166D01*
X136948638Y-71000000D01*
X135573439Y-71000000D01*
X135506400Y-70980315D01*
X135460645Y-70927511D01*
X135450701Y-70858353D01*
X135479726Y-70794797D01*
X135485758Y-70788319D01*
X136170058Y-70104019D01*
X136231381Y-70070534D01*
X136257739Y-70067700D01*
X136449859Y-70067700D01*
X136449860Y-70067700D01*
X136648110Y-70036300D01*
X136648113Y-70036299D01*
X136648114Y-70036299D01*
X136839004Y-69974275D01*
X136839004Y-69974274D01*
X136839007Y-69974274D01*
X137017850Y-69883149D01*
X137180237Y-69765168D01*
X137322168Y-69623237D01*
X137440149Y-69460850D01*
X137531274Y-69282007D01*
X137576304Y-69143418D01*
X137593299Y-69091114D01*
X137593299Y-69091113D01*
X137593300Y-69091110D01*
X137624700Y-68892860D01*
X137624700Y-68692140D01*
X137593300Y-68493890D01*
X137593299Y-68493886D01*
X137593299Y-68493885D01*
X137531275Y-68302995D01*
X137495799Y-68233370D01*
X137440149Y-68124150D01*
X137322168Y-67961763D01*
X137186319Y-67825914D01*
X137152834Y-67764591D01*
X137150000Y-67738233D01*
X137150000Y-66076855D01*
X137149999Y-66076853D01*
X137136126Y-66007109D01*
X137119237Y-65922203D01*
X137058894Y-65776521D01*
X137058892Y-65776518D01*
X137057575Y-65773338D01*
X137048846Y-65739137D01*
X137047433Y-65725994D01*
X137043491Y-65689317D01*
X136999938Y-65572546D01*
X136993197Y-65554471D01*
X136993193Y-65554464D01*
X136906947Y-65439255D01*
X136906944Y-65439252D01*
X136791735Y-65353006D01*
X136791728Y-65353002D01*
X136656882Y-65302708D01*
X136656884Y-65302708D01*
X136600756Y-65296674D01*
X136566560Y-65287946D01*
X136427301Y-65230264D01*
X136427289Y-65230261D01*
X136272645Y-65199500D01*
X136272642Y-65199500D01*
X136114958Y-65199500D01*
X136114955Y-65199500D01*
X135960310Y-65230261D01*
X135960298Y-65230264D01*
X135821039Y-65287947D01*
X135786840Y-65296676D01*
X135730716Y-65302708D01*
X135595871Y-65353002D01*
X135588086Y-65357254D01*
X135587465Y-65356118D01*
X135530459Y-65377384D01*
X135521608Y-65377700D01*
X135178741Y-65377700D01*
X135111702Y-65358015D01*
X135065947Y-65305211D01*
X135056003Y-65236053D01*
X135085028Y-65172497D01*
X135091060Y-65166019D01*
X135208344Y-65048735D01*
X135628997Y-64628080D01*
X135690318Y-64594597D01*
X135751269Y-64596686D01*
X135797431Y-64610098D01*
X135834306Y-64613000D01*
X135834314Y-64613000D01*
X136265686Y-64613000D01*
X136265694Y-64613000D01*
X136302569Y-64610098D01*
X136302571Y-64610097D01*
X136302573Y-64610097D01*
X136344191Y-64598005D01*
X136460398Y-64564244D01*
X136601865Y-64480581D01*
X136718081Y-64364365D01*
X136801744Y-64222898D01*
X136847598Y-64065069D01*
X136850500Y-64028194D01*
X136850500Y-62862000D01*
X136870185Y-62794961D01*
X136922989Y-62749206D01*
X136974500Y-62738000D01*
X137215686Y-62738000D01*
X137215694Y-62738000D01*
X137252569Y-62735098D01*
X137252571Y-62735097D01*
X137252573Y-62735097D01*
X137298320Y-62721806D01*
X137410398Y-62689244D01*
X137551865Y-62605581D01*
X137668081Y-62489365D01*
X137751744Y-62347898D01*
X137797598Y-62190069D01*
X137800500Y-62153194D01*
X137800500Y-61600096D01*
X137820185Y-61533057D01*
X137836814Y-61512419D01*
X138858506Y-60490727D01*
X138858511Y-60490724D01*
X138868714Y-60480520D01*
X138868716Y-60480520D01*
X138980520Y-60368716D01*
X139059577Y-60231784D01*
X139089534Y-60119981D01*
X139100500Y-60079058D01*
X139100500Y-59920943D01*
X139100500Y-59503439D01*
X139120185Y-59436400D01*
X139172989Y-59390645D01*
X139242147Y-59380701D01*
X139305703Y-59409726D01*
X139327602Y-59434548D01*
X139378210Y-59510288D01*
X139378213Y-59510292D01*
X139489707Y-59621786D01*
X139489711Y-59621789D01*
X139620814Y-59709390D01*
X139620827Y-59709397D01*
X139721907Y-59751265D01*
X139766503Y-59769737D01*
X139921153Y-59800499D01*
X139921156Y-59800500D01*
X139921158Y-59800500D01*
X140078844Y-59800500D01*
X140078845Y-59800499D01*
X140233497Y-59769737D01*
X140379179Y-59709394D01*
X140510289Y-59621789D01*
X140621789Y-59510289D01*
X140709394Y-59379179D01*
X140769737Y-59233497D01*
X140794258Y-59110222D01*
X140800638Y-59078150D01*
X140833023Y-59016239D01*
X140834518Y-59014716D01*
X143968597Y-55880638D01*
X147570500Y-55880638D01*
X147570500Y-56099361D01*
X147604714Y-56315376D01*
X147672297Y-56523380D01*
X147672298Y-56523383D01*
X147771595Y-56718260D01*
X147900142Y-56895193D01*
X148054806Y-57049857D01*
X148220374Y-57170147D01*
X148231743Y-57178407D01*
X148359132Y-57243315D01*
X148426616Y-57277701D01*
X148426619Y-57277702D01*
X148530621Y-57311493D01*
X148634625Y-57345286D01*
X148734672Y-57361132D01*
X148850639Y-57379500D01*
X148850644Y-57379500D01*
X149069361Y-57379500D01*
X149174082Y-57362912D01*
X149285375Y-57345286D01*
X149493383Y-57277701D01*
X149688257Y-57178407D01*
X149787601Y-57106229D01*
X149865193Y-57049857D01*
X149865195Y-57049854D01*
X149865199Y-57049852D01*
X150019852Y-56895199D01*
X150019854Y-56895195D01*
X150019857Y-56895193D01*
X150091052Y-56797200D01*
X150148407Y-56718257D01*
X150247701Y-56523383D01*
X150315286Y-56315375D01*
X150333639Y-56199500D01*
X150349500Y-56099361D01*
X150349500Y-55880638D01*
X150322855Y-55712416D01*
X150315286Y-55664625D01*
X150247701Y-55456617D01*
X150247701Y-55456616D01*
X150213315Y-55389132D01*
X150148407Y-55261743D01*
X150120174Y-55222883D01*
X150019857Y-55084806D01*
X149865193Y-54930142D01*
X149688260Y-54801595D01*
X149688259Y-54801594D01*
X149688257Y-54801593D01*
X149601334Y-54757303D01*
X149493383Y-54702298D01*
X149493380Y-54702297D01*
X149285376Y-54634714D01*
X149069361Y-54600500D01*
X149069356Y-54600500D01*
X148850644Y-54600500D01*
X148850639Y-54600500D01*
X148634623Y-54634714D01*
X148426619Y-54702297D01*
X148426616Y-54702298D01*
X148231739Y-54801595D01*
X148054806Y-54930142D01*
X147900142Y-55084806D01*
X147771595Y-55261739D01*
X147672298Y-55456616D01*
X147672297Y-55456619D01*
X147604714Y-55664623D01*
X147570500Y-55880638D01*
X143968597Y-55880638D01*
X145712417Y-54136819D01*
X145773740Y-54103334D01*
X145800098Y-54100500D01*
X164099903Y-54100500D01*
X164166942Y-54120185D01*
X164187584Y-54136819D01*
X164746745Y-54695980D01*
X164780230Y-54757303D01*
X164781537Y-54803058D01*
X164764500Y-54910628D01*
X164764500Y-55089365D01*
X164792460Y-55265899D01*
X164847689Y-55435878D01*
X164847691Y-55435881D01*
X164928833Y-55595132D01*
X165033889Y-55739728D01*
X165160272Y-55866111D01*
X165304868Y-55971167D01*
X165464119Y-56052309D01*
X165464121Y-56052310D01*
X165622670Y-56103825D01*
X165634103Y-56107540D01*
X165810634Y-56135500D01*
X165810635Y-56135500D01*
X165989365Y-56135500D01*
X165989366Y-56135500D01*
X166165897Y-56107540D01*
X166165900Y-56107539D01*
X166165901Y-56107539D01*
X166335878Y-56052310D01*
X166335878Y-56052309D01*
X166335881Y-56052309D01*
X166495132Y-55971167D01*
X166639728Y-55866111D01*
X166766111Y-55739728D01*
X166871167Y-55595132D01*
X166952309Y-55435881D01*
X167007540Y-55265897D01*
X167035500Y-55089366D01*
X167035500Y-54910634D01*
X167007540Y-54734103D01*
X167007539Y-54734099D01*
X167007539Y-54734098D01*
X166952310Y-54564121D01*
X166952308Y-54564118D01*
X166941763Y-54543421D01*
X166871167Y-54404868D01*
X166766111Y-54260272D01*
X166639728Y-54133889D01*
X166495132Y-54028833D01*
X166335881Y-53947691D01*
X166335878Y-53947689D01*
X166165899Y-53892460D01*
X166040393Y-53872582D01*
X165989366Y-53864500D01*
X165810634Y-53864500D01*
X165810628Y-53864500D01*
X165703058Y-53881537D01*
X165633765Y-53872582D01*
X165595980Y-53846745D01*
X164887590Y-53138355D01*
X164887588Y-53138352D01*
X164768717Y-53019481D01*
X164768716Y-53019480D01*
X164681904Y-52969360D01*
X164681904Y-52969359D01*
X164681900Y-52969358D01*
X164631785Y-52940423D01*
X164479057Y-52899499D01*
X164320943Y-52899499D01*
X164313347Y-52899499D01*
X164313331Y-52899500D01*
X145586670Y-52899500D01*
X145586654Y-52899499D01*
X145579058Y-52899499D01*
X145420943Y-52899499D01*
X145344579Y-52919961D01*
X145268214Y-52940423D01*
X145268209Y-52940426D01*
X145131290Y-53019475D01*
X145131282Y-53019481D01*
X139985339Y-58165425D01*
X139924016Y-58198910D01*
X139921850Y-58199361D01*
X139766508Y-58230261D01*
X139766498Y-58230264D01*
X139620827Y-58290602D01*
X139620814Y-58290609D01*
X139489711Y-58378210D01*
X139489707Y-58378213D01*
X139378213Y-58489707D01*
X139378210Y-58489711D01*
X139327602Y-58565451D01*
X139273989Y-58610256D01*
X139204664Y-58618963D01*
X139141637Y-58588808D01*
X139104918Y-58529365D01*
X139100500Y-58496560D01*
X139100500Y-55420945D01*
X139100500Y-55420943D01*
X139059577Y-55268216D01*
X139059577Y-55268215D01*
X139033404Y-55222883D01*
X139019883Y-55199463D01*
X139019883Y-55199462D01*
X138980524Y-55131290D01*
X138980521Y-55131286D01*
X138980520Y-55131284D01*
X138868716Y-55019480D01*
X138868715Y-55019479D01*
X138864385Y-55015149D01*
X138864374Y-55015139D01*
X136987590Y-53138355D01*
X136987588Y-53138352D01*
X136868717Y-53019481D01*
X136868716Y-53019480D01*
X136781904Y-52969360D01*
X136781904Y-52969359D01*
X136781900Y-52969358D01*
X136731785Y-52940423D01*
X136579057Y-52899499D01*
X136420943Y-52899499D01*
X136413347Y-52899499D01*
X136413331Y-52899500D01*
X130300098Y-52899500D01*
X130270657Y-52890855D01*
X130240671Y-52884332D01*
X130235655Y-52880577D01*
X130233059Y-52879815D01*
X130212417Y-52863181D01*
X130061417Y-52712181D01*
X130027932Y-52650858D01*
X130032916Y-52581166D01*
X130074788Y-52525233D01*
X130140252Y-52500816D01*
X130149098Y-52500500D01*
X168876000Y-52500500D01*
X168943039Y-52520185D01*
G37*
%TD.AperFunction*%
%TA.AperFunction,Conductor*%
G36*
X168919334Y-63163785D02*
G01*
X168975267Y-63205657D01*
X168999684Y-63271121D01*
X169000000Y-63279967D01*
X169000000Y-69448638D01*
X168980315Y-69515677D01*
X168963681Y-69536319D01*
X167936819Y-70563181D01*
X167875496Y-70596666D01*
X167849138Y-70599500D01*
X166761623Y-70599500D01*
X166694584Y-70579815D01*
X166648829Y-70527011D01*
X166638885Y-70457853D01*
X166667910Y-70394297D01*
X166673942Y-70387819D01*
X166765485Y-70296276D01*
X166872891Y-70148444D01*
X166955848Y-69985631D01*
X167012315Y-69811845D01*
X167033284Y-69679452D01*
X167040900Y-69631370D01*
X167040900Y-69448629D01*
X167012315Y-69268158D01*
X167012315Y-69268155D01*
X166955848Y-69094369D01*
X166872891Y-68931556D01*
X166765485Y-68783724D01*
X166636276Y-68654515D01*
X166488444Y-68547109D01*
X166325631Y-68464152D01*
X166151845Y-68407685D01*
X166151843Y-68407684D01*
X166151841Y-68407684D01*
X166055802Y-68392473D01*
X165992667Y-68362544D01*
X165955736Y-68303232D01*
X165956734Y-68233370D01*
X165995344Y-68175137D01*
X166055802Y-68147527D01*
X166093101Y-68141619D01*
X166151845Y-68132315D01*
X166325631Y-68075848D01*
X166488444Y-67992891D01*
X166636276Y-67885485D01*
X166765485Y-67756276D01*
X166872891Y-67608444D01*
X166955848Y-67445631D01*
X167012315Y-67271845D01*
X167025019Y-67191631D01*
X167040900Y-67091370D01*
X167040900Y-66908629D01*
X167015189Y-66746300D01*
X167012315Y-66728155D01*
X166955848Y-66554369D01*
X166872891Y-66391556D01*
X166765485Y-66243724D01*
X166636276Y-66114515D01*
X166488444Y-66007109D01*
X166325631Y-65924152D01*
X166151845Y-65867685D01*
X166151843Y-65867684D01*
X166151841Y-65867684D01*
X165971370Y-65839100D01*
X165971365Y-65839100D01*
X165788635Y-65839100D01*
X165788630Y-65839100D01*
X165608158Y-65867684D01*
X165608155Y-65867685D01*
X165440371Y-65922202D01*
X165434366Y-65924153D01*
X165271555Y-66007109D01*
X165123721Y-66114517D01*
X164994517Y-66243721D01*
X164887109Y-66391555D01*
X164804153Y-66554366D01*
X164747684Y-66728158D01*
X164719100Y-66908629D01*
X164719100Y-67091370D01*
X164747684Y-67271841D01*
X164747685Y-67271845D01*
X164804152Y-67445631D01*
X164887109Y-67608444D01*
X164994515Y-67756276D01*
X165123724Y-67885485D01*
X165271556Y-67992891D01*
X165434369Y-68075848D01*
X165608155Y-68132315D01*
X165652212Y-68139293D01*
X165704197Y-68147527D01*
X165767332Y-68177456D01*
X165804263Y-68236768D01*
X165803265Y-68306631D01*
X165764655Y-68364863D01*
X165704197Y-68392473D01*
X165608158Y-68407684D01*
X165434366Y-68464153D01*
X165271555Y-68547109D01*
X165123721Y-68654517D01*
X164994517Y-68783721D01*
X164887109Y-68931555D01*
X164804153Y-69094366D01*
X164747684Y-69268158D01*
X164719100Y-69448629D01*
X164719100Y-69631370D01*
X164747684Y-69811841D01*
X164747685Y-69811845D01*
X164804152Y-69985631D01*
X164887109Y-70148444D01*
X164994515Y-70296276D01*
X164994517Y-70296278D01*
X165086058Y-70387819D01*
X165119543Y-70449142D01*
X165114559Y-70518834D01*
X165072687Y-70574767D01*
X165007223Y-70599184D01*
X164998377Y-70599500D01*
X164150862Y-70599500D01*
X164083823Y-70579815D01*
X164063181Y-70563181D01*
X163036319Y-69536319D01*
X163002834Y-69474996D01*
X163000000Y-69448638D01*
X163000000Y-66500000D01*
X161500000Y-65000000D01*
X161279968Y-65000000D01*
X161212929Y-64980315D01*
X161167174Y-64927511D01*
X161157230Y-64858353D01*
X161186255Y-64794797D01*
X161192287Y-64788319D01*
X162145187Y-63835419D01*
X162206510Y-63801934D01*
X162232868Y-63799100D01*
X167486043Y-63799100D01*
X167486067Y-63799101D01*
X167491178Y-63799101D01*
X167711621Y-63799101D01*
X167711622Y-63799101D01*
X167929351Y-63764615D01*
X168139006Y-63696495D01*
X168335422Y-63596415D01*
X168390100Y-63556689D01*
X168513765Y-63466842D01*
X168669642Y-63310965D01*
X168669643Y-63310963D01*
X168676699Y-63303907D01*
X168676704Y-63303900D01*
X168788321Y-63192283D01*
X168849642Y-63158801D01*
X168919334Y-63163785D01*
G37*
%TD.AperFunction*%
%TA.AperFunction,Conductor*%
G36*
X125717941Y-52520185D02*
G01*
X125763696Y-52572989D01*
X125773640Y-52642147D01*
X125744615Y-52705703D01*
X125738583Y-52712181D01*
X125138979Y-53311784D01*
X125077656Y-53345269D01*
X125031901Y-53346576D01*
X124892514Y-53324500D01*
X124707486Y-53324500D01*
X124667028Y-53330908D01*
X124524734Y-53353445D01*
X124348767Y-53410619D01*
X124348764Y-53410620D01*
X124183903Y-53494622D01*
X124098499Y-53556672D01*
X124034213Y-53603379D01*
X124034211Y-53603381D01*
X124034210Y-53603381D01*
X123903381Y-53734210D01*
X123900314Y-53738432D01*
X123844981Y-53781094D01*
X123775367Y-53787069D01*
X123713574Y-53754459D01*
X123699686Y-53738432D01*
X123696621Y-53734213D01*
X123565787Y-53603379D01*
X123416096Y-53494622D01*
X123362778Y-53467455D01*
X123251235Y-53410620D01*
X123251232Y-53410619D01*
X123075265Y-53353445D01*
X122932972Y-53330908D01*
X122892514Y-53324500D01*
X122707486Y-53324500D01*
X122667028Y-53330908D01*
X122524734Y-53353445D01*
X122348767Y-53410619D01*
X122348764Y-53410620D01*
X122183903Y-53494622D01*
X122098499Y-53556672D01*
X122034213Y-53603379D01*
X122034211Y-53603381D01*
X122034210Y-53603381D01*
X121903381Y-53734210D01*
X121900314Y-53738432D01*
X121844981Y-53781094D01*
X121775367Y-53787069D01*
X121713574Y-53754459D01*
X121699686Y-53738432D01*
X121696621Y-53734213D01*
X121565787Y-53603379D01*
X121416096Y-53494622D01*
X121362778Y-53467455D01*
X121251235Y-53410620D01*
X121251232Y-53410619D01*
X121075265Y-53353445D01*
X120932972Y-53330908D01*
X120892514Y-53324500D01*
X120707486Y-53324500D01*
X120667028Y-53330908D01*
X120524734Y-53353445D01*
X120348767Y-53410619D01*
X120348764Y-53410620D01*
X120183903Y-53494622D01*
X120098499Y-53556672D01*
X120034213Y-53603379D01*
X120034211Y-53603381D01*
X120034210Y-53603381D01*
X119903381Y-53734210D01*
X119903381Y-53734211D01*
X119903379Y-53734213D01*
X119872199Y-53777129D01*
X119794622Y-53883903D01*
X119710620Y-54048764D01*
X119710619Y-54048767D01*
X119653445Y-54224734D01*
X119624500Y-54407486D01*
X119624500Y-54592513D01*
X119653445Y-54775265D01*
X119710619Y-54951232D01*
X119710620Y-54951235D01*
X119794622Y-55116096D01*
X119903379Y-55265787D01*
X120034213Y-55396621D01*
X120183904Y-55505378D01*
X120297556Y-55563286D01*
X120300948Y-55565015D01*
X120351744Y-55612990D01*
X120368539Y-55680811D01*
X120346002Y-55746946D01*
X120291286Y-55790397D01*
X120244653Y-55799500D01*
X119599998Y-55799500D01*
X119599980Y-55799501D01*
X119497203Y-55810000D01*
X119497200Y-55810001D01*
X119330668Y-55865185D01*
X119330663Y-55865187D01*
X119181342Y-55957289D01*
X119057289Y-56081342D01*
X118965187Y-56230663D01*
X118965185Y-56230668D01*
X118953747Y-56265186D01*
X118910001Y-56397203D01*
X118910001Y-56397204D01*
X118910000Y-56397204D01*
X118899500Y-56499983D01*
X118899500Y-57500001D01*
X118899501Y-57500019D01*
X118910000Y-57602796D01*
X118910001Y-57602799D01*
X118965185Y-57769331D01*
X118965187Y-57769336D01*
X119000069Y-57825888D01*
X119057288Y-57918656D01*
X119181344Y-58042712D01*
X119330666Y-58134814D01*
X119497203Y-58189999D01*
X119599991Y-58200500D01*
X120400008Y-58200499D01*
X120400016Y-58200498D01*
X120400019Y-58200498D01*
X120459939Y-58194377D01*
X120502797Y-58189999D01*
X120669334Y-58134814D01*
X120818656Y-58042712D01*
X120918387Y-57942980D01*
X120979706Y-57909498D01*
X121049398Y-57914482D01*
X121093746Y-57942982D01*
X121181284Y-58030520D01*
X121181286Y-58030521D01*
X121181290Y-58030524D01*
X121301656Y-58100016D01*
X121318216Y-58109577D01*
X121412402Y-58134814D01*
X121470942Y-58150500D01*
X121470943Y-58150500D01*
X121525695Y-58150500D01*
X121534606Y-58151801D01*
X121558502Y-58162776D01*
X121583731Y-58170185D01*
X121595793Y-58179905D01*
X121598098Y-58180964D01*
X121599151Y-58182611D01*
X121604374Y-58186820D01*
X121635629Y-58218076D01*
X121635633Y-58218079D01*
X121635635Y-58218081D01*
X121777102Y-58301744D01*
X121782575Y-58303334D01*
X121934926Y-58347597D01*
X121934929Y-58347597D01*
X121934931Y-58347598D01*
X121971806Y-58350500D01*
X123138000Y-58350500D01*
X123205039Y-58370185D01*
X123250794Y-58422989D01*
X123262000Y-58474500D01*
X123262000Y-58715701D01*
X123264901Y-58752567D01*
X123264902Y-58752573D01*
X123310754Y-58910393D01*
X123310755Y-58910396D01*
X123310756Y-58910398D01*
X123327820Y-58939252D01*
X123394417Y-59051862D01*
X123394423Y-59051870D01*
X123510629Y-59168076D01*
X123510638Y-59168083D01*
X123617605Y-59231343D01*
X123665289Y-59282412D01*
X123677792Y-59351154D01*
X123651147Y-59415743D01*
X123642165Y-59425756D01*
X121937681Y-61130241D01*
X121876358Y-61163726D01*
X121806666Y-61158742D01*
X121762319Y-61130241D01*
X121030619Y-60398541D01*
X120997134Y-60337218D01*
X120994300Y-60310860D01*
X120994300Y-59964942D01*
X121002118Y-59921609D01*
X121043491Y-59810683D01*
X121049900Y-59751073D01*
X121049899Y-59248928D01*
X121043491Y-59189317D01*
X121035571Y-59168083D01*
X120993197Y-59054471D01*
X120993193Y-59054464D01*
X120906947Y-58939255D01*
X120906944Y-58939252D01*
X120791735Y-58853006D01*
X120791728Y-58853002D01*
X120656882Y-58802708D01*
X120656884Y-58802708D01*
X120600756Y-58796674D01*
X120566560Y-58787946D01*
X120427301Y-58730264D01*
X120427289Y-58730261D01*
X120272645Y-58699500D01*
X120272642Y-58699500D01*
X120114958Y-58699500D01*
X120114955Y-58699500D01*
X119960310Y-58730261D01*
X119960298Y-58730264D01*
X119821039Y-58787947D01*
X119786840Y-58796676D01*
X119730716Y-58802708D01*
X119595871Y-58853002D01*
X119588086Y-58857254D01*
X119587465Y-58856118D01*
X119530459Y-58877384D01*
X119521608Y-58877700D01*
X118478392Y-58877700D01*
X118411353Y-58858015D01*
X118404152Y-58853016D01*
X118404128Y-58853002D01*
X118269282Y-58802708D01*
X118269284Y-58802708D01*
X118213156Y-58796674D01*
X118178960Y-58787946D01*
X118039701Y-58730264D01*
X118039689Y-58730261D01*
X117885045Y-58699500D01*
X117885042Y-58699500D01*
X116924500Y-58699500D01*
X116857461Y-58679815D01*
X116811706Y-58627011D01*
X116800500Y-58575500D01*
X116800500Y-55799499D01*
X116820185Y-55732460D01*
X116872989Y-55686705D01*
X116924500Y-55675499D01*
X117522871Y-55675499D01*
X117522872Y-55675499D01*
X117582483Y-55669091D01*
X117717331Y-55618796D01*
X117832546Y-55532546D01*
X117918796Y-55417331D01*
X117969091Y-55282483D01*
X117975500Y-55222873D01*
X117975499Y-53777128D01*
X117969091Y-53717517D01*
X117948953Y-53663525D01*
X117918797Y-53582671D01*
X117918793Y-53582664D01*
X117832547Y-53467455D01*
X117832544Y-53467452D01*
X117717335Y-53381206D01*
X117717328Y-53381202D01*
X117582482Y-53330908D01*
X117582483Y-53330908D01*
X117522883Y-53324501D01*
X117522881Y-53324500D01*
X117522873Y-53324500D01*
X117522864Y-53324500D01*
X116077129Y-53324500D01*
X116077123Y-53324501D01*
X116017516Y-53330908D01*
X115882671Y-53381202D01*
X115882664Y-53381206D01*
X115767455Y-53467452D01*
X115767452Y-53467455D01*
X115681206Y-53582664D01*
X115681202Y-53582671D01*
X115630908Y-53717517D01*
X115626937Y-53754459D01*
X115624501Y-53777123D01*
X115624500Y-53777135D01*
X115624500Y-54492058D01*
X115615854Y-54521501D01*
X115609332Y-54551484D01*
X115605577Y-54556499D01*
X115604815Y-54559097D01*
X115588182Y-54579739D01*
X115489711Y-54678211D01*
X115489708Y-54678212D01*
X115378213Y-54789707D01*
X115378210Y-54789711D01*
X115290609Y-54920814D01*
X115290602Y-54920827D01*
X115239061Y-55045261D01*
X115195220Y-55099665D01*
X115128926Y-55121730D01*
X115061227Y-55104451D01*
X115013616Y-55053314D01*
X115000500Y-54997809D01*
X115000500Y-52624500D01*
X115020185Y-52557461D01*
X115072989Y-52511706D01*
X115124500Y-52500500D01*
X125650902Y-52500500D01*
X125717941Y-52520185D01*
G37*
%TD.AperFunction*%
%TD*%
M02*
