%TF.GenerationSoftware,KiCad,Pcbnew,9.0.6-9.0.6~ubuntu24.04.1*%
%TF.CreationDate,2025-12-27T17:06:47+01:00*%
%TF.ProjectId,controller_board,636f6e74-726f-46c6-9c65-725f626f6172,rev?*%
%TF.SameCoordinates,Original*%
%TF.FileFunction,Legend,Bot*%
%TF.FilePolarity,Positive*%
%FSLAX46Y46*%
G04 Gerber Fmt 4.6, Leading zero omitted, Abs format (unit mm)*
G04 Created by KiCad (PCBNEW 9.0.6-9.0.6~ubuntu24.04.1) date 2025-12-27 17:06:47*
%MOMM*%
%LPD*%
G01*
G04 APERTURE LIST*
%ADD10C,0.150000*%
%ADD11C,0.508000*%
%ADD12C,1.600000*%
%ADD13C,1.168400*%
%ADD14C,1.676400*%
%ADD15R,1.350000X1.350000*%
%ADD16C,1.350000*%
%ADD17C,1.300000*%
%ADD18R,1.070000X1.070000*%
%ADD19C,1.070000*%
%ADD20R,1.600000X1.600000*%
%ADD21O,1.600000X1.600000*%
G04 APERTURE END LIST*
D10*
X116361904Y-71585179D02*
X116838094Y-71585179D01*
X116838094Y-71585179D02*
X116885713Y-71108989D01*
X116885713Y-71108989D02*
X116838094Y-71156608D01*
X116838094Y-71156608D02*
X116742856Y-71204227D01*
X116742856Y-71204227D02*
X116504761Y-71204227D01*
X116504761Y-71204227D02*
X116409523Y-71156608D01*
X116409523Y-71156608D02*
X116361904Y-71108989D01*
X116361904Y-71108989D02*
X116314285Y-71013751D01*
X116314285Y-71013751D02*
X116314285Y-70775656D01*
X116314285Y-70775656D02*
X116361904Y-70680418D01*
X116361904Y-70680418D02*
X116409523Y-70632799D01*
X116409523Y-70632799D02*
X116504761Y-70585179D01*
X116504761Y-70585179D02*
X116742856Y-70585179D01*
X116742856Y-70585179D02*
X116838094Y-70632799D01*
X116838094Y-70632799D02*
X116885713Y-70680418D01*
X106095237Y-71156608D02*
X106190475Y-71204227D01*
X106190475Y-71204227D02*
X106238094Y-71251846D01*
X106238094Y-71251846D02*
X106285713Y-71347084D01*
X106285713Y-71347084D02*
X106285713Y-71394703D01*
X106285713Y-71394703D02*
X106238094Y-71489941D01*
X106238094Y-71489941D02*
X106190475Y-71537560D01*
X106190475Y-71537560D02*
X106095237Y-71585179D01*
X106095237Y-71585179D02*
X105904761Y-71585179D01*
X105904761Y-71585179D02*
X105809523Y-71537560D01*
X105809523Y-71537560D02*
X105761904Y-71489941D01*
X105761904Y-71489941D02*
X105714285Y-71394703D01*
X105714285Y-71394703D02*
X105714285Y-71347084D01*
X105714285Y-71347084D02*
X105761904Y-71251846D01*
X105761904Y-71251846D02*
X105809523Y-71204227D01*
X105809523Y-71204227D02*
X105904761Y-71156608D01*
X105904761Y-71156608D02*
X106095237Y-71156608D01*
X106095237Y-71156608D02*
X106190475Y-71108989D01*
X106190475Y-71108989D02*
X106238094Y-71061370D01*
X106238094Y-71061370D02*
X106285713Y-70966132D01*
X106285713Y-70966132D02*
X106285713Y-70775656D01*
X106285713Y-70775656D02*
X106238094Y-70680418D01*
X106238094Y-70680418D02*
X106190475Y-70632799D01*
X106190475Y-70632799D02*
X106095237Y-70585179D01*
X106095237Y-70585179D02*
X105904761Y-70585179D01*
X105904761Y-70585179D02*
X105809523Y-70632799D01*
X105809523Y-70632799D02*
X105761904Y-70680418D01*
X105761904Y-70680418D02*
X105714285Y-70775656D01*
X105714285Y-70775656D02*
X105714285Y-70966132D01*
X105714285Y-70966132D02*
X105761904Y-71061370D01*
X105761904Y-71061370D02*
X105809523Y-71108989D01*
X105809523Y-71108989D02*
X105904761Y-71156608D01*
D11*
%TO.C,CN5*%
X111381000Y-113405000D02*
G75*
G02*
X110619000Y-113405000I-381000J0D01*
G01*
X110619000Y-113405000D02*
G75*
G02*
X111381000Y-113405000I381000J0D01*
G01*
%TO.C,J5*%
X71975000Y-68500000D02*
G75*
G02*
X71213000Y-68500000I-381000J0D01*
G01*
X71213000Y-68500000D02*
G75*
G02*
X71975000Y-68500000I381000J0D01*
G01*
%TO.C,CN6*%
X115381000Y-66594999D02*
G75*
G02*
X114619000Y-66594999I-381000J0D01*
G01*
X114619000Y-66594999D02*
G75*
G02*
X115381000Y-66594999I381000J0D01*
G01*
%TO.C,CN7*%
X102381000Y-113405000D02*
G75*
G02*
X101619000Y-113405000I-381000J0D01*
G01*
X101619000Y-113405000D02*
G75*
G02*
X102381000Y-113405000I381000J0D01*
G01*
%TO.C,CN4*%
X123881000Y-66594999D02*
G75*
G02*
X123119000Y-66594999I-381000J0D01*
G01*
X123119000Y-66594999D02*
G75*
G02*
X123881000Y-66594999I381000J0D01*
G01*
%TO.C,J4*%
X105437000Y-68500000D02*
G75*
G02*
X104675000Y-68500000I-381000J0D01*
G01*
X104675000Y-68500000D02*
G75*
G02*
X105437000Y-68500000I381000J0D01*
G01*
%TO.C,CN2*%
X132381000Y-66595000D02*
G75*
G02*
X131619000Y-66595000I-381000J0D01*
G01*
X131619000Y-66595000D02*
G75*
G02*
X132381000Y-66595000I381000J0D01*
G01*
%TO.C,CN1*%
X120341000Y-113405000D02*
G75*
G02*
X119579000Y-113405000I-381000J0D01*
G01*
X119579000Y-113405000D02*
G75*
G02*
X120341000Y-113405000I381000J0D01*
G01*
%TO.C,CN3*%
X129381000Y-113405000D02*
G75*
G02*
X128619000Y-113405000I-381000J0D01*
G01*
X128619000Y-113405000D02*
G75*
G02*
X129381000Y-113405000I381000J0D01*
G01*
%TD*%
%LPC*%
D12*
%TO.C,CN5*%
X111000000Y-111500000D03*
X113540000Y-111500000D03*
%TD*%
D13*
%TO.C,U2*%
X134527500Y-104420000D03*
X134527500Y-101880000D03*
X134527500Y-99340000D03*
X134527500Y-96800000D03*
X134527500Y-94260000D03*
X134527500Y-91720000D03*
X134527500Y-89180000D03*
X126272500Y-89180000D03*
X126272500Y-91720000D03*
X126272500Y-94260000D03*
X126272500Y-96800000D03*
X126272500Y-99340000D03*
X126272500Y-101880000D03*
X126272500Y-104420000D03*
%TD*%
D14*
%TO.C,J5*%
X75150000Y-68500000D03*
X77690000Y-68500000D03*
X80230000Y-68500000D03*
X82770000Y-68500000D03*
X85310000Y-68500000D03*
X87850000Y-68500000D03*
X90390000Y-68500000D03*
%TD*%
D12*
%TO.C,CN6*%
X115000000Y-68499999D03*
X112460000Y-68499999D03*
X109920000Y-68499999D03*
X107380000Y-68499999D03*
X115000000Y-71039999D03*
X112460000Y-71039999D03*
X109920000Y-71039999D03*
X107380000Y-71039999D03*
%TD*%
D15*
%TO.C,J2*%
X72000000Y-114000000D03*
D16*
X74000000Y-114000000D03*
X76000000Y-114000000D03*
X78000000Y-114000000D03*
X80000000Y-114000000D03*
X82000000Y-114000000D03*
%TD*%
D17*
%TO.C,REF\u002A\u002A*%
X135800000Y-114800000D03*
%TD*%
D12*
%TO.C,CN7*%
X102000000Y-111500000D03*
X104540000Y-111500000D03*
%TD*%
D18*
%TO.C,IC1*%
X123140000Y-96790000D03*
D19*
X120600000Y-96790000D03*
X118060000Y-96790000D03*
X118060000Y-104410000D03*
X120600000Y-104410000D03*
X123140000Y-104410000D03*
%TD*%
D17*
%TO.C,U3*%
X90000000Y-108000000D03*
X90000000Y-113000000D03*
%TD*%
%TO.C,REF\u002A\u002A*%
X71200000Y-65200000D03*
%TD*%
D12*
%TO.C,CN4*%
X123500000Y-68499999D03*
X120960000Y-68499999D03*
%TD*%
D14*
%TO.C,J4*%
X101500000Y-68500000D03*
X98960000Y-68500000D03*
X96420000Y-68500000D03*
%TD*%
D12*
%TO.C,CN2*%
X132000000Y-68500000D03*
X129460000Y-68500000D03*
%TD*%
%TO.C,CN1*%
X119960000Y-111500000D03*
X122500000Y-111500000D03*
%TD*%
D20*
%TO.C,A1*%
X111400000Y-88260000D03*
D21*
X108860000Y-88260000D03*
X106320000Y-88260000D03*
X103780000Y-88260000D03*
X101240000Y-88260000D03*
X98700000Y-88260000D03*
X96160000Y-88260000D03*
X93620000Y-88260000D03*
X91080000Y-88260000D03*
X88540000Y-88260000D03*
X86000000Y-88260000D03*
X83460000Y-88260000D03*
X80920000Y-88260000D03*
X78380000Y-88260000D03*
X75840000Y-88260000D03*
X75840000Y-103500000D03*
X78380000Y-103500000D03*
X80920000Y-103500000D03*
X83460000Y-103500000D03*
X86000000Y-103500000D03*
X88540000Y-103500000D03*
X91080000Y-103500000D03*
X93620000Y-103500000D03*
X96160000Y-103500000D03*
X98700000Y-103500000D03*
X101240000Y-103500000D03*
X103780000Y-103500000D03*
X106320000Y-103500000D03*
X108860000Y-103500000D03*
X111400000Y-103500000D03*
%TD*%
D12*
%TO.C,CN3*%
X129000000Y-111500000D03*
X131540000Y-111500000D03*
%TD*%
%LPD*%
M02*
