M48
; DRILL file {KiCad 9.0.6-9.0.6~ubuntu24.04.1} date 2025-12-27T17:06:47+0100
; FORMAT={-:-/ absolute / inch / decimal}
; #@! TF.CreationDate,2025-12-27T17:06:47+01:00
; #@! TF.GenerationSoftware,Kicad,Pcbnew,9.0.6-9.0.6~ubuntu24.04.1
; #@! TF.FileFunction,Plated,1,2,PTH
FMAT,2
INCH
; #@! TA.AperFunction,Plated,PTH,ViaDrill
T1C0.0118
; #@! TA.AperFunction,Plated,PTH,ComponentDrill
T2C0.0260
; #@! TA.AperFunction,Plated,PTH,ComponentDrill
T3C0.0264
; #@! TA.AperFunction,Plated,PTH,ComponentDrill
T4C0.0315
; #@! TA.AperFunction,Plated,PTH,ComponentDrill
T5C0.0394
; #@! TA.AperFunction,Plated,PTH,ComponentDrill
T6C0.0433
; #@! TA.AperFunction,Plated,PTH,ComponentDrill
T7C0.0460
%
G90
G05
T1
X2.8189Y-3.874
X2.8346Y-4.2756
X2.8425Y-4.3937
X2.8465Y-3.1102
X2.8543Y-2.6969
X2.874Y-4.063
X2.8937Y-2.8543
X2.8976Y-3.8268
X2.9764Y-3.9843
X3.0157Y-3.0079
X3.0315Y-2.8346
X3.0512Y-3.0709
X3.2205Y-3.0157
X3.2598Y-3.0945
X3.2677Y-2.8543
X3.4331Y-3.0709
X3.4488Y-3.1181
X3.4567Y-3.2362
X3.5Y-3.122
X3.6378Y-2.9134
X3.6811Y-3.6614
X3.7087Y-2.937
X3.7205Y-3.8583
X3.7441Y-4.5
X3.8425Y-2.9921
X3.8898Y-4.1811
X3.8898Y-4.3307
X3.8976Y-2.9724
X3.9961Y-3.189
X3.9961Y-3.7795
X4.0551Y-3.3543
X4.063Y-4.189
X4.0866Y-3.2205
X4.0945Y-2.8031
X4.1024Y-3.126
X4.1181Y-3.0
X4.1575Y-2.8504
X4.189Y-4.189
X4.2992Y-3.1496
X4.3071Y-3.252
X4.3386Y-3.0
X4.4882Y-3.3071
X4.4882Y-3.5039
X4.5039Y-3.1024
X4.5433Y-2.9843
X4.5512Y-4.4567
X4.5748Y-3.7638
X4.6299Y-4.2047
X4.6693Y-3.6299
X4.6772Y-3.2205
X4.6772Y-3.3228
X4.685Y-3.4409
X4.7165Y-3.5906
X4.7244Y-3.1024
X4.7323Y-3.1496
X4.748Y-3.7244
X4.7559Y-4.0157
X4.7795Y-2.8346
X4.8268Y-2.9606
X4.8583Y-3.0551
X4.8898Y-3.3858
X4.9055Y-3.9327
X4.9134Y-4.063
X4.9606Y-4.2283
X5.0394Y-2.9449
X5.0551Y-4.315
X5.0709Y-3.126
X5.0866Y-3.3622
X5.0945Y-3.315
X5.1811Y-3.2756
T2
X4.9714Y-3.511
X4.9714Y-3.611
X4.9714Y-3.711
X4.9714Y-3.811
X4.9714Y-3.911
X4.9714Y-4.011
X4.9714Y-4.111
X5.2964Y-3.511
X5.2964Y-3.611
X5.2964Y-3.711
X5.2964Y-3.811
X5.2964Y-3.911
X5.2964Y-4.011
X5.2964Y-4.111
T3
X4.648Y-3.8106
X4.648Y-4.1106
X4.748Y-3.8106
X4.748Y-4.1106
X4.848Y-3.8106
X4.848Y-4.1106
T4
X2.8346Y-4.4882
X2.9134Y-4.4882
X2.9921Y-4.4882
X3.0709Y-4.4882
X3.1496Y-4.4882
X3.2283Y-4.4882
X3.5433Y-4.252
X3.5433Y-4.4488
T5
X2.9858Y-3.4748
X2.9858Y-4.0748
X3.0858Y-3.4748
X3.0858Y-4.0748
X3.1858Y-3.4748
X3.1858Y-4.0748
X3.2858Y-3.4748
X3.2858Y-4.0748
X3.3858Y-3.4748
X3.3858Y-4.0748
X3.4858Y-3.4748
X3.4858Y-4.0748
X3.5858Y-3.4748
X3.5858Y-4.0748
X3.6858Y-3.4748
X3.6858Y-4.0748
X3.7858Y-3.4748
X3.7858Y-4.0748
X3.8858Y-3.4748
X3.8858Y-4.0748
X3.9858Y-3.4748
X3.9858Y-4.0748
X4.0858Y-3.4748
X4.0858Y-4.0748
X4.1858Y-3.4748
X4.1858Y-4.0748
X4.2858Y-3.4748
X4.2858Y-4.0748
X4.3858Y-3.4748
X4.3858Y-4.0748
T6
X4.0157Y-4.3898
X4.1157Y-4.3898
X4.2276Y-2.6969
X4.2276Y-2.7969
X4.3276Y-2.6969
X4.3276Y-2.7969
X4.3701Y-4.3898
X4.4276Y-2.6969
X4.4276Y-2.7969
X4.4701Y-4.3898
X4.5276Y-2.6969
X4.5276Y-2.7969
X4.7228Y-4.3898
X4.7622Y-2.6969
X4.8228Y-4.3898
X4.8622Y-2.6969
X5.0787Y-4.3898
X5.0969Y-2.6969
X5.1787Y-4.3898
X5.1969Y-2.6969
T7
X2.9587Y-2.6969
X3.0587Y-2.6969
X3.1587Y-2.6969
X3.2587Y-2.6969
X3.3587Y-2.6969
X3.4587Y-2.6969
X3.5587Y-2.6969
X3.7961Y-2.6969
X3.8961Y-2.6969
X3.9961Y-2.6969
M30
