%TF.GenerationSoftware,KiCad,Pcbnew,9.0.6-9.0.6~ubuntu24.04.1*%
%TF.CreationDate,2025-12-27T17:06:47+01:00*%
%TF.ProjectId,controller_board,636f6e74-726f-46c6-9c65-725f626f6172,rev?*%
%TF.SameCoordinates,Original*%
%TF.FileFunction,Copper,L2,Bot*%
%TF.FilePolarity,Positive*%
%FSLAX46Y46*%
G04 Gerber Fmt 4.6, Leading zero omitted, Abs format (unit mm)*
G04 Created by KiCad (PCBNEW 9.0.6-9.0.6~ubuntu24.04.1) date 2025-12-27 17:06:47*
%MOMM*%
%LPD*%
G01*
G04 APERTURE LIST*
%TA.AperFunction,ComponentPad*%
%ADD10C,1.600000*%
%TD*%
%TA.AperFunction,ComponentPad*%
%ADD11C,1.168400*%
%TD*%
%TA.AperFunction,ComponentPad*%
%ADD12C,1.676400*%
%TD*%
%TA.AperFunction,ComponentPad*%
%ADD13R,1.350000X1.350000*%
%TD*%
%TA.AperFunction,ComponentPad*%
%ADD14C,1.350000*%
%TD*%
%TA.AperFunction,ComponentPad*%
%ADD15R,1.070000X1.070000*%
%TD*%
%TA.AperFunction,ComponentPad*%
%ADD16C,1.070000*%
%TD*%
%TA.AperFunction,ComponentPad*%
%ADD17C,1.300000*%
%TD*%
%TA.AperFunction,ComponentPad*%
%ADD18R,1.600000X1.600000*%
%TD*%
%TA.AperFunction,ComponentPad*%
%ADD19O,1.600000X1.600000*%
%TD*%
%TA.AperFunction,ViaPad*%
%ADD20C,0.600000*%
%TD*%
%TA.AperFunction,Conductor*%
%ADD21C,0.400000*%
%TD*%
%TA.AperFunction,Conductor*%
%ADD22C,0.600000*%
%TD*%
G04 APERTURE END LIST*
D10*
%TO.P,CN5,1,1*%
%TO.N,Net-(Q2-D)*%
X111000000Y-111500000D03*
%TO.P,CN5,2,2*%
%TO.N,12V*%
X113540000Y-111500000D03*
%TD*%
D11*
%TO.P,U2,1,OSCILLATOR_CAP*%
%TO.N,Net-(C4-Pad2)*%
X134527500Y-104420000D03*
%TO.P,U2,2*%
%TO.N,unconnected-(U2-Pad2)*%
X134527500Y-101880000D03*
%TO.P,U2,3*%
%TO.N,unconnected-(U2-Pad3)*%
X134527500Y-99340000D03*
%TO.P,U2,4*%
%TO.N,unconnected-(U2-Pad4)*%
X134527500Y-96800000D03*
%TO.P,U2,5,OSCILLATOR_OUT*%
%TO.N,Net-(U2-OSCILLATOR_OUT)*%
X134527500Y-94260000D03*
%TO.P,U2,6*%
%TO.N,unconnected-(U2-Pad6)*%
X134527500Y-91720000D03*
%TO.P,U2,7,OSCILLATOR_CAP*%
%TO.N,Net-(C4-Pad1)*%
X134527500Y-89180000D03*
%TO.P,U2,8*%
%TO.N,unconnected-(U2-Pad8)*%
X126272500Y-89180000D03*
%TO.P,U2,9,FILTER_CAP*%
%TO.N,Net-(U2-FILTER_CAP)*%
X126272500Y-91720000D03*
%TO.P,U2,10,DETECTOR_IN*%
%TO.N,LM1830_IN*%
X126272500Y-94260000D03*
%TO.P,U2,11,GND*%
%TO.N,GND*%
X126272500Y-96800000D03*
%TO.P,U2,12,OUTPUT*%
%TO.N,D1*%
X126272500Y-99340000D03*
%TO.P,U2,13,OSC_OUT*%
%TO.N,Net-(U2-OSC_OUT)*%
X126272500Y-101880000D03*
%TO.P,U2,14,VCC*%
%TO.N,12V*%
X126272500Y-104420000D03*
%TD*%
D12*
%TO.P,J5,1,1*%
%TO.N,GND*%
X75150000Y-68500000D03*
%TO.P,J5,2,2*%
%TO.N,A5{slash}SCL*%
X77690000Y-68500000D03*
%TO.P,J5,3,3*%
%TO.N,A4{slash}SDA*%
X80230000Y-68500000D03*
%TO.P,J5,4,4*%
%TO.N,D12*%
X82770000Y-68500000D03*
%TO.P,J5,5,5*%
%TO.N,3.3V*%
X85310000Y-68500000D03*
%TO.P,J5,6,6*%
%TO.N,12V*%
X87850000Y-68500000D03*
%TO.P,J5,7,7*%
%TO.N,D4*%
X90390000Y-68500000D03*
%TD*%
D10*
%TO.P,CN6,1,1*%
%TO.N,GND*%
X115000000Y-68499999D03*
%TO.P,CN6,2,2*%
%TO.N,Net-(CN6-Pad2)*%
X112460000Y-68499999D03*
%TO.P,CN6,3,3*%
%TO.N,Net-(CN6-Pad3)*%
X109920000Y-68499999D03*
%TO.P,CN6,4,4*%
%TO.N,Net-(CN6-Pad4)*%
X107380000Y-68499999D03*
%TO.P,CN6,5,5*%
%TO.N,12V*%
X115000000Y-71039999D03*
%TO.P,CN6,6,6*%
%TO.N,Net-(CN6-Pad6)*%
X112460000Y-71039999D03*
%TO.P,CN6,7,7*%
%TO.N,Net-(CN6-Pad7)*%
X109920000Y-71039999D03*
%TO.P,CN6,8,8*%
%TO.N,Net-(CN6-Pad8)*%
X107380000Y-71039999D03*
%TD*%
D13*
%TO.P,J2,1,Pin_1*%
%TO.N,12V*%
X72000000Y-114000000D03*
D14*
%TO.P,J2,2,Pin_2*%
%TO.N,GND*%
X74000000Y-114000000D03*
%TO.P,J2,3,Pin_3*%
%TO.N,D13*%
X76000000Y-114000000D03*
%TO.P,J2,4,Pin_4*%
%TO.N,A0*%
X78000000Y-114000000D03*
%TO.P,J2,5,Pin_5*%
%TO.N,Net-(J2-Pin_5)*%
X80000000Y-114000000D03*
%TO.P,J2,6,Pin_6*%
%TO.N,Net-(J2-Pin_6)*%
X82000000Y-114000000D03*
%TD*%
D10*
%TO.P,CN7,1,1*%
%TO.N,A6*%
X102000000Y-111500000D03*
%TO.P,CN7,2,2*%
%TO.N,GND*%
X104540000Y-111500000D03*
%TD*%
D15*
%TO.P,IC1,1,A*%
%TO.N,Net-(IC1-A)*%
X123140000Y-96790000D03*
D16*
%TO.P,IC1,2,K*%
%TO.N,GND*%
X120600000Y-96790000D03*
%TO.P,IC1,3,NC*%
%TO.N,unconnected-(IC1-NC-Pad3)*%
X118060000Y-96790000D03*
%TO.P,IC1,4,D_1*%
%TO.N,LM1830_OUT*%
X118060000Y-104410000D03*
%TO.P,IC1,5,S*%
%TO.N,unconnected-(IC1-S-Pad5)*%
X120600000Y-104410000D03*
%TO.P,IC1,6,D_2*%
%TO.N,LM1830_IN*%
X123140000Y-104410000D03*
%TD*%
D17*
%TO.P,U3,1,1*%
%TO.N,A1*%
X90000000Y-108000000D03*
%TO.P,U3,2,2*%
%TO.N,GND*%
X90000000Y-113000000D03*
%TD*%
D10*
%TO.P,CN4,1,1*%
%TO.N,Net-(CN4-Pad1)*%
X123500000Y-68499999D03*
%TO.P,CN4,2,2*%
%TO.N,3V*%
X120960000Y-68499999D03*
%TD*%
D12*
%TO.P,J4,1,1*%
%TO.N,12V*%
X101500000Y-68500000D03*
%TO.P,J4,2,2*%
%TO.N,Net-(J4-Pad2)*%
X98960000Y-68500000D03*
%TO.P,J4,3,3*%
%TO.N,GND*%
X96420000Y-68500000D03*
%TD*%
D10*
%TO.P,CN2,1,1*%
%TO.N,Net-(CN2-Pad1)*%
X132000000Y-68500000D03*
%TO.P,CN2,2,2*%
%TO.N,GND*%
X129460000Y-68500000D03*
%TD*%
%TO.P,CN1,1,1*%
%TO.N,GND*%
X119960000Y-111500000D03*
%TO.P,CN1,2,2*%
%TO.N,LM1830_OUT*%
X122500000Y-111500000D03*
%TD*%
D18*
%TO.P,A1,1,D1/TX*%
%TO.N,D1*%
X111400000Y-88260000D03*
D19*
%TO.P,A1,2,D0/RX*%
%TO.N,D0*%
X108860000Y-88260000D03*
%TO.P,A1,3,~{RESET}*%
%TO.N,unconnected-(A1-~{RESET}-Pad3)*%
X106320000Y-88260000D03*
%TO.P,A1,4,GND*%
%TO.N,GND*%
X103780000Y-88260000D03*
%TO.P,A1,5,D2*%
%TO.N,D2*%
X101240000Y-88260000D03*
%TO.P,A1,6,D3*%
%TO.N,D3*%
X98700000Y-88260000D03*
%TO.P,A1,7,D4*%
%TO.N,D4*%
X96160000Y-88260000D03*
%TO.P,A1,8,D5*%
%TO.N,D5*%
X93620000Y-88260000D03*
%TO.P,A1,9,D6*%
%TO.N,D6*%
X91080000Y-88260000D03*
%TO.P,A1,10,D7*%
%TO.N,D7*%
X88540000Y-88260000D03*
%TO.P,A1,11,D8*%
%TO.N,D8*%
X86000000Y-88260000D03*
%TO.P,A1,12,D9*%
%TO.N,D9*%
X83460000Y-88260000D03*
%TO.P,A1,13,D10/CS*%
%TO.N,D10*%
X80920000Y-88260000D03*
%TO.P,A1,14,D11/COPI*%
%TO.N,D11*%
X78380000Y-88260000D03*
%TO.P,A1,15,D12/CIPO*%
%TO.N,D12*%
X75840000Y-88260000D03*
%TO.P,A1,16,D13/SCK*%
%TO.N,D13*%
X75840000Y-103500000D03*
%TO.P,A1,17,3V3*%
%TO.N,3.3V*%
X78380000Y-103500000D03*
%TO.P,A1,18,B0*%
%TO.N,unconnected-(A1-B0-Pad18)*%
X80920000Y-103500000D03*
%TO.P,A1,19,A0*%
%TO.N,A0*%
X83460000Y-103500000D03*
%TO.P,A1,20,A1*%
%TO.N,A1*%
X86000000Y-103500000D03*
%TO.P,A1,21,A2*%
%TO.N,A2*%
X88540000Y-103500000D03*
%TO.P,A1,22,A3*%
%TO.N,A3*%
X91080000Y-103500000D03*
%TO.P,A1,23,SDA/A4*%
%TO.N,A4{slash}SDA*%
X93620000Y-103500000D03*
%TO.P,A1,24,SCL/A5*%
%TO.N,A5{slash}SCL*%
X96160000Y-103500000D03*
%TO.P,A1,25,A6*%
%TO.N,A6*%
X98700000Y-103500000D03*
%TO.P,A1,26,A7*%
%TO.N,A7*%
X101240000Y-103500000D03*
%TO.P,A1,27,VUSB/5V*%
%TO.N,unconnected-(A1-VUSB{slash}5V-Pad27)*%
X103780000Y-103500000D03*
%TO.P,A1,28,B1*%
%TO.N,unconnected-(A1-B1-Pad28)*%
X106320000Y-103500000D03*
%TO.P,A1,29,GND*%
%TO.N,GND*%
X108860000Y-103500000D03*
%TO.P,A1,30,VIN*%
%TO.N,12V*%
X111400000Y-103500000D03*
%TD*%
D10*
%TO.P,CN3,1,1*%
%TO.N,Net-(CN3-Pad1)*%
X129000000Y-111500000D03*
%TO.P,CN3,2,2*%
%TO.N,3V*%
X131540000Y-111500000D03*
%TD*%
D20*
%TO.N,D1*%
X117600000Y-106800000D03*
%TO.N,12V*%
X83000000Y-72500000D03*
%TO.N,3.3V*%
X72000000Y-108600000D03*
X115600000Y-113200000D03*
X88900000Y-79300000D03*
X95100000Y-114300000D03*
X121400000Y-72000000D03*
%TO.N,GND*%
X87600000Y-79200000D03*
X72200000Y-111600000D03*
X93500000Y-93000000D03*
X72500000Y-68500000D03*
X114000000Y-84000000D03*
X94500000Y-98000000D03*
X73600000Y-97200000D03*
X77000000Y-72000000D03*
X129400000Y-84200000D03*
X128800000Y-79400000D03*
X73000000Y-103200000D03*
X120000000Y-78800000D03*
X104200000Y-79400000D03*
X98800000Y-106200000D03*
X101500000Y-96000000D03*
X122600000Y-75200000D03*
X114400000Y-78800000D03*
X103200000Y-106400000D03*
X106400000Y-106400000D03*
X128000000Y-74800000D03*
X82800000Y-78600000D03*
X98800000Y-110000000D03*
X87800000Y-82200000D03*
X77500000Y-78000000D03*
X109200000Y-80000000D03*
%TO.N,Net-(R11-Pad2)*%
X120200000Y-80000000D03*
X109400000Y-82600000D03*
%TO.N,Net-(CN6-Pad6)*%
X104000000Y-71200000D03*
%TO.N,Net-(CN3-Pad1)*%
X131600000Y-83200000D03*
X126000000Y-107400000D03*
%TO.N,Net-(U2-OSC_OUT)*%
X124600000Y-99890000D03*
X116200000Y-95600000D03*
%TO.N,Net-(U2-FILTER_CAP)*%
X129200000Y-85400000D03*
%TO.N,Net-(C6-Pad2)*%
X120800000Y-102000000D03*
X124800000Y-103200000D03*
%TO.N,Net-(CN2-Pad1)*%
X103000000Y-85200000D03*
%TO.N,Net-(CN4-Pad1)*%
X103800000Y-81800000D03*
%TO.N,Net-(IC1-A)*%
X120600000Y-94600000D03*
X118600000Y-92200000D03*
%TO.N,D2*%
X124200000Y-86000000D03*
%TO.N,D4*%
X101500000Y-81000000D03*
X99000000Y-75500000D03*
%TO.N,D9*%
X110200000Y-76200000D03*
%TO.N,D10*%
X104600000Y-76200000D03*
%TO.N,D11*%
X115400000Y-75800000D03*
%TO.N,A4{slash}SDA*%
X119000000Y-87400000D03*
X75600000Y-101200000D03*
X123400000Y-77600000D03*
X114000000Y-89000000D03*
X72300000Y-79000000D03*
X118800000Y-84400000D03*
%TO.N,Net-(Q1-D)*%
X94200000Y-74600000D03*
X81800000Y-76600000D03*
%TO.N,Net-(Q3-D)*%
X87200000Y-78000000D03*
X97600000Y-76000000D03*
%TO.N,Net-(Q4-D)*%
X92400000Y-74000000D03*
X76600000Y-76400000D03*
%TO.N,Net-(U2-OSCILLATOR_OUT)*%
X128400000Y-109600000D03*
%TO.N,A5{slash}SCL*%
X71600000Y-98400000D03*
X119800000Y-91200000D03*
%TO.N,D12*%
X73500000Y-72500000D03*
%TO.N,Net-(J4-Pad2)*%
X118800000Y-81800000D03*
%TO.N,Net-(CN6-Pad7)*%
X105600000Y-72400000D03*
%TD*%
D21*
%TO.N,D1*%
X117600000Y-106800000D02*
X116000000Y-105200000D01*
X118200000Y-101000000D02*
X125200000Y-101000000D01*
X116000000Y-103200000D02*
X118200000Y-101000000D01*
X116000000Y-105200000D02*
X116000000Y-103200000D01*
X126272500Y-99927500D02*
X126272500Y-99340000D01*
X125200000Y-101000000D02*
X126272500Y-99927500D01*
D22*
%TO.N,12V*%
X83850000Y-72500000D02*
X83000000Y-72500000D01*
X87850000Y-68500000D02*
X83850000Y-72500000D01*
D21*
%TO.N,3.3V*%
X121400000Y-72000000D02*
X118600000Y-69200000D01*
X70600000Y-107000000D02*
X70600000Y-82200000D01*
X118600000Y-66800000D02*
X116800000Y-65000000D01*
X118600000Y-69200000D02*
X118600000Y-66800000D01*
X83400000Y-65000000D02*
X116600000Y-65000000D01*
X70600000Y-82200000D02*
X70600000Y-69200000D01*
X74800000Y-115400000D02*
X94000000Y-115400000D01*
X87400000Y-80800000D02*
X72000000Y-80800000D01*
X113400000Y-115400000D02*
X94000000Y-115400000D01*
X85310000Y-68500000D02*
X85310000Y-66910000D01*
X70600000Y-109800000D02*
X70600000Y-114400000D01*
X85310000Y-66910000D02*
X83400000Y-65000000D01*
X70600000Y-114400000D02*
X70600000Y-114600000D01*
X70600000Y-114600000D02*
X71400000Y-115400000D01*
X74800000Y-65000000D02*
X83400000Y-65000000D01*
X70600000Y-69200000D02*
X74800000Y-65000000D01*
X71400000Y-115400000D02*
X74800000Y-115400000D01*
X70600000Y-107200000D02*
X70600000Y-107000000D01*
X72000000Y-80800000D02*
X70600000Y-82200000D01*
X88900000Y-79300000D02*
X87400000Y-80800000D01*
X95100000Y-114300000D02*
X95200000Y-114200000D01*
X70600000Y-109800000D02*
X70600000Y-107000000D01*
X94000000Y-115400000D02*
X95100000Y-114300000D01*
X72000000Y-108600000D02*
X70600000Y-107200000D01*
X115600000Y-113200000D02*
X113400000Y-115400000D01*
X116800000Y-65000000D02*
X116600000Y-65000000D01*
%TO.N,Net-(R11-Pad2)*%
X120200000Y-81800000D02*
X120200000Y-80000000D01*
X109400000Y-82600000D02*
X119400000Y-82600000D01*
X119400000Y-82600000D02*
X120200000Y-81800000D01*
%TO.N,Net-(CN6-Pad6)*%
X105361001Y-69750000D02*
X111259000Y-69750000D01*
X104000000Y-71200000D02*
X105361001Y-69838999D01*
X111259000Y-69838999D02*
X112460000Y-71039999D01*
%TO.N,Net-(CN3-Pad1)*%
X129800000Y-106000000D02*
X130800000Y-105000000D01*
X130800000Y-105000000D02*
X130800000Y-104800000D01*
X126800000Y-106600000D02*
X129200000Y-106600000D01*
X130800000Y-104800000D02*
X130800000Y-84000000D01*
X130800000Y-84000000D02*
X131600000Y-83200000D01*
X126000000Y-107400000D02*
X126800000Y-106600000D01*
X129200000Y-106600000D02*
X129800000Y-106000000D01*
%TO.N,Net-(U2-OSC_OUT)*%
X124600000Y-99890000D02*
X117890000Y-99890000D01*
X117890000Y-99890000D02*
X116200000Y-98200000D01*
X116200000Y-98200000D02*
X116200000Y-95600000D01*
%TO.N,Net-(U2-FILTER_CAP)*%
X126272500Y-91720000D02*
X127280000Y-91720000D01*
X129200000Y-85400000D02*
X129200000Y-89800000D01*
X129200000Y-89800000D02*
X127280000Y-91720000D01*
%TO.N,Net-(C6-Pad2)*%
X124800000Y-103200000D02*
X123600000Y-102000000D01*
X123600000Y-102000000D02*
X120800000Y-102000000D01*
%TO.N,Net-(CN2-Pad1)*%
X121600000Y-86000000D02*
X121200000Y-86400000D01*
X121200000Y-86400000D02*
X105200000Y-86400000D01*
X103000000Y-85200000D02*
X104200000Y-86400000D01*
X104200000Y-86400000D02*
X105200000Y-86400000D01*
X132000000Y-68500000D02*
X132000000Y-80000000D01*
X132000000Y-80000000D02*
X126800000Y-85200000D01*
X122400000Y-85200000D02*
X121600000Y-86000000D01*
X126800000Y-85200000D02*
X122400000Y-85200000D01*
%TO.N,Net-(CN4-Pad1)*%
X130600000Y-72600000D02*
X130600000Y-79600000D01*
X130600000Y-79600000D02*
X130400000Y-79600000D01*
X130400000Y-79600000D02*
X126200000Y-83800000D01*
X122400000Y-83800000D02*
X120800000Y-85400000D01*
X120800000Y-85400000D02*
X107400000Y-85400000D01*
X123500000Y-68499999D02*
X126499999Y-68499999D01*
X126200000Y-83800000D02*
X122400000Y-83800000D01*
X107400000Y-85400000D02*
X103800000Y-81800000D01*
X126499999Y-68499999D02*
X130600000Y-72600000D01*
%TO.N,3V*%
X136400000Y-67600000D02*
X133800000Y-65000000D01*
X120960000Y-67040000D02*
X120960000Y-68499999D01*
X136400000Y-109600000D02*
X136400000Y-67600000D01*
X131540000Y-111500000D02*
X134500000Y-111500000D01*
X123000000Y-65000000D02*
X120960000Y-67040000D01*
X134500000Y-111500000D02*
X136400000Y-109600000D01*
X133800000Y-65000000D02*
X123000000Y-65000000D01*
%TO.N,Net-(IC1-A)*%
X120600000Y-94200000D02*
X120600000Y-94600000D01*
X118600000Y-92200000D02*
X120600000Y-94200000D01*
%TO.N,D2*%
X121600000Y-90400000D02*
X103380000Y-90400000D01*
X124200000Y-87800000D02*
X121600000Y-90400000D01*
X103380000Y-90400000D02*
X101240000Y-88260000D01*
X124200000Y-86000000D02*
X124200000Y-87800000D01*
%TO.N,D4*%
X92000000Y-68500000D02*
X99000000Y-75500000D01*
X96160000Y-86340000D02*
X96160000Y-88260000D01*
X90390000Y-68500000D02*
X92000000Y-68500000D01*
X98000000Y-84500000D02*
X96160000Y-86340000D01*
X101500000Y-82500000D02*
X99500000Y-84500000D01*
X101500000Y-81000000D02*
X101500000Y-82500000D01*
X99500000Y-84500000D02*
X98000000Y-84500000D01*
%TO.N,D13*%
X75840000Y-103500000D02*
X75840000Y-113840000D01*
X75840000Y-113840000D02*
X76000000Y-114000000D01*
%TO.N,D9*%
X94600000Y-85400000D02*
X100000000Y-80000000D01*
X86320000Y-85400000D02*
X87400000Y-85400000D01*
X102600000Y-77400000D02*
X106800000Y-77400000D01*
X100000000Y-80000000D02*
X102600000Y-77400000D01*
X87400000Y-85400000D02*
X94600000Y-85400000D01*
X106800000Y-77400000D02*
X109000000Y-77400000D01*
X83460000Y-88260000D02*
X86320000Y-85400000D01*
X109000000Y-77400000D02*
X110200000Y-76200000D01*
%TO.N,D10*%
X101800000Y-76200000D02*
X104600000Y-76200000D01*
X85180000Y-84000000D02*
X94000000Y-84000000D01*
X94000000Y-84000000D02*
X99300000Y-78700000D01*
X80920000Y-88260000D02*
X85180000Y-84000000D01*
X99300000Y-78700000D02*
X101800000Y-76200000D01*
%TO.N,D11*%
X78380000Y-88260000D02*
X83739000Y-82901000D01*
X114400000Y-74800000D02*
X115400000Y-75800000D01*
X101400000Y-74800000D02*
X111400000Y-74800000D01*
X98400000Y-77800000D02*
X101400000Y-74800000D01*
X111400000Y-74800000D02*
X114400000Y-74800000D01*
X83739000Y-82901000D02*
X93299000Y-82901000D01*
X93299000Y-82901000D02*
X98400000Y-77800000D01*
%TO.N,A1*%
X86000000Y-104000000D02*
X86000000Y-103500000D01*
X90000000Y-108000000D02*
X86000000Y-104000000D01*
%TO.N,A0*%
X83460000Y-103500000D02*
X78000000Y-108960000D01*
X78000000Y-108960000D02*
X78000000Y-114000000D01*
%TO.N,A4{slash}SDA*%
X93620000Y-103500000D02*
X91320000Y-101200000D01*
X123400000Y-81000000D02*
X120200000Y-84200000D01*
X72300000Y-78900000D02*
X80230000Y-70970000D01*
X78200000Y-101200000D02*
X75600000Y-101200000D01*
X119000000Y-87400000D02*
X115600000Y-87400000D01*
X80230000Y-70970000D02*
X80230000Y-68500000D01*
X120000000Y-84400000D02*
X118800000Y-84400000D01*
X91320000Y-101200000D02*
X78200000Y-101200000D01*
X120200000Y-84200000D02*
X120000000Y-84400000D01*
X115600000Y-87400000D02*
X114000000Y-89000000D01*
X72300000Y-79000000D02*
X72300000Y-78900000D01*
X123400000Y-77600000D02*
X123400000Y-81000000D01*
%TO.N,Net-(Q1-D)*%
X92200000Y-76600000D02*
X94200000Y-74600000D01*
X81800000Y-76600000D02*
X92200000Y-76600000D01*
%TO.N,Net-(Q3-D)*%
X87200000Y-78000000D02*
X95600000Y-78000000D01*
X95600000Y-78000000D02*
X97600000Y-76000000D01*
%TO.N,Net-(Q4-D)*%
X79000000Y-74000000D02*
X76600000Y-76400000D01*
X92400000Y-74000000D02*
X79000000Y-74000000D01*
%TO.N,Net-(U2-OSCILLATOR_OUT)*%
X128400000Y-109600000D02*
X129400000Y-109600000D01*
X131600000Y-96200000D02*
X133540000Y-94260000D01*
X133540000Y-94260000D02*
X134527500Y-94260000D01*
X131600000Y-107400000D02*
X131600000Y-96200000D01*
X129400000Y-109600000D02*
X131600000Y-107400000D01*
%TO.N,A5{slash}SCL*%
X106000000Y-101200000D02*
X98460000Y-101200000D01*
X73400000Y-100200000D02*
X92860000Y-100200000D01*
X92860000Y-100200000D02*
X96160000Y-103500000D01*
X116000000Y-91200000D02*
X106000000Y-101200000D01*
X119800000Y-91200000D02*
X116000000Y-91200000D01*
X71600000Y-98400000D02*
X73400000Y-100200000D01*
X98460000Y-101200000D02*
X96160000Y-103500000D01*
%TO.N,D12*%
X73500000Y-67500000D02*
X74500000Y-66500000D01*
X73500000Y-72500000D02*
X73500000Y-67500000D01*
X74500000Y-66500000D02*
X80770000Y-66500000D01*
X80770000Y-66500000D02*
X82770000Y-68500000D01*
%TO.N,Net-(J4-Pad2)*%
X118800000Y-81800000D02*
X118800000Y-76600000D01*
X115600000Y-73400000D02*
X103800000Y-73400000D01*
X118800000Y-76600000D02*
X115600000Y-73400000D01*
X103800000Y-73400000D02*
X98960000Y-68560000D01*
X98960000Y-68560000D02*
X98960000Y-68499999D01*
%TO.N,Net-(CN6-Pad7)*%
X108559999Y-72400000D02*
X109920000Y-71039999D01*
X105600000Y-72400000D02*
X108559999Y-72400000D01*
%TD*%
%TA.AperFunction,Conductor*%
%TO.N,GND*%
G36*
X71505703Y-99296805D02*
G01*
X71512181Y-99302837D01*
X72855886Y-100646542D01*
X72951374Y-100742030D01*
X72953459Y-100744115D01*
X73068182Y-100820771D01*
X73068186Y-100820773D01*
X73068189Y-100820775D01*
X73142866Y-100851707D01*
X73195671Y-100873580D01*
X73201649Y-100874769D01*
X73302887Y-100894906D01*
X73331005Y-100900500D01*
X73331007Y-100900500D01*
X74692297Y-100900500D01*
X74759336Y-100920185D01*
X74805091Y-100972989D01*
X74815035Y-101042147D01*
X74813914Y-101048691D01*
X74799500Y-101121153D01*
X74799500Y-101278846D01*
X74830261Y-101433489D01*
X74830264Y-101433501D01*
X74890602Y-101579172D01*
X74890609Y-101579185D01*
X74978210Y-101710288D01*
X74978213Y-101710292D01*
X75089707Y-101821786D01*
X75089711Y-101821789D01*
X75220814Y-101909390D01*
X75220827Y-101909397D01*
X75355953Y-101965367D01*
X75366503Y-101969737D01*
X75431780Y-101982721D01*
X75504993Y-101997285D01*
X75566904Y-102029670D01*
X75601478Y-102090386D01*
X75597739Y-102160155D01*
X75556872Y-102216827D01*
X75519121Y-102236833D01*
X75340776Y-102294781D01*
X75158386Y-102387715D01*
X74992786Y-102508028D01*
X74848028Y-102652786D01*
X74727715Y-102818386D01*
X74634781Y-103000776D01*
X74571522Y-103195465D01*
X74539500Y-103397648D01*
X74539500Y-103602351D01*
X74571522Y-103804534D01*
X74634781Y-103999223D01*
X74690182Y-104107951D01*
X74719756Y-104165994D01*
X74727715Y-104181613D01*
X74848028Y-104347213D01*
X74992784Y-104491969D01*
X75088385Y-104561426D01*
X75131051Y-104616755D01*
X75139500Y-104661744D01*
X75139500Y-113146730D01*
X75119815Y-113213769D01*
X75106414Y-113230398D01*
X75106543Y-113230509D01*
X75103382Y-113234210D01*
X75103379Y-113234213D01*
X75065093Y-113286909D01*
X74994622Y-113383903D01*
X74910620Y-113548764D01*
X74910619Y-113548767D01*
X74853445Y-113724734D01*
X74841149Y-113802367D01*
X74824500Y-113907486D01*
X74824500Y-114092514D01*
X74830597Y-114131006D01*
X74853445Y-114275265D01*
X74910619Y-114451232D01*
X74910623Y-114451240D01*
X74945253Y-114519206D01*
X74958149Y-114587875D01*
X74931872Y-114652615D01*
X74874766Y-114692872D01*
X74834768Y-114699500D01*
X73299500Y-114699500D01*
X73232461Y-114679815D01*
X73186706Y-114627011D01*
X73175500Y-114575500D01*
X73175499Y-113277129D01*
X73175498Y-113277123D01*
X73174321Y-113266177D01*
X73169091Y-113217517D01*
X73133151Y-113121158D01*
X73118797Y-113082671D01*
X73118793Y-113082664D01*
X73032547Y-112967455D01*
X73032544Y-112967452D01*
X72917335Y-112881206D01*
X72917328Y-112881202D01*
X72782482Y-112830908D01*
X72782483Y-112830908D01*
X72722883Y-112824501D01*
X72722881Y-112824500D01*
X72722873Y-112824500D01*
X72722865Y-112824500D01*
X71424500Y-112824500D01*
X71357461Y-112804815D01*
X71311706Y-112752011D01*
X71300500Y-112700500D01*
X71300500Y-109327350D01*
X71320185Y-109260311D01*
X71372989Y-109214556D01*
X71442147Y-109204612D01*
X71493391Y-109224248D01*
X71620814Y-109309390D01*
X71620827Y-109309397D01*
X71709587Y-109346162D01*
X71766503Y-109369737D01*
X71921153Y-109400499D01*
X71921156Y-109400500D01*
X71921158Y-109400500D01*
X72078844Y-109400500D01*
X72078845Y-109400499D01*
X72233497Y-109369737D01*
X72379179Y-109309394D01*
X72510289Y-109221789D01*
X72621789Y-109110289D01*
X72709394Y-108979179D01*
X72769737Y-108833497D01*
X72800500Y-108678842D01*
X72800500Y-108521158D01*
X72800500Y-108521155D01*
X72800499Y-108521153D01*
X72798967Y-108513453D01*
X72769737Y-108366503D01*
X72729520Y-108269409D01*
X72709397Y-108220827D01*
X72709390Y-108220814D01*
X72621789Y-108089711D01*
X72621786Y-108089707D01*
X72510292Y-107978213D01*
X72510288Y-107978210D01*
X72379185Y-107890609D01*
X72379172Y-107890602D01*
X72234814Y-107830808D01*
X72194585Y-107803928D01*
X71336819Y-106946162D01*
X71303334Y-106884839D01*
X71300500Y-106858481D01*
X71300500Y-99390518D01*
X71320185Y-99323479D01*
X71372989Y-99277724D01*
X71442147Y-99267780D01*
X71505703Y-99296805D01*
G37*
%TD.AperFunction*%
%TA.AperFunction,Conductor*%
G36*
X98491734Y-76150123D02*
G01*
X98511902Y-76148227D01*
X98537463Y-76157115D01*
X98540775Y-76157622D01*
X98543763Y-76159306D01*
X98545238Y-76159819D01*
X98551391Y-76163002D01*
X98620821Y-76209394D01*
X98722314Y-76251433D01*
X98726979Y-76253847D01*
X98748579Y-76274503D01*
X98771855Y-76293259D01*
X98773564Y-76298395D01*
X98777476Y-76302136D01*
X98784480Y-76331190D01*
X98793920Y-76359553D01*
X98792581Y-76364797D01*
X98793850Y-76370060D01*
X98784032Y-76398294D01*
X98776641Y-76427253D01*
X98772679Y-76430940D01*
X98770902Y-76436054D01*
X98757680Y-76451661D01*
X97855886Y-77353457D01*
X93045162Y-82164181D01*
X92983839Y-82197666D01*
X92957481Y-82200500D01*
X83670005Y-82200500D01*
X83574718Y-82219454D01*
X83574715Y-82219454D01*
X83567847Y-82220821D01*
X83534671Y-82227420D01*
X83488507Y-82246542D01*
X83483725Y-82248522D01*
X83483724Y-82248523D01*
X83407192Y-82280223D01*
X83362194Y-82310290D01*
X83292457Y-82356886D01*
X83292453Y-82356889D01*
X78706147Y-86943194D01*
X78644824Y-86976679D01*
X78599068Y-86977986D01*
X78549969Y-86970209D01*
X78482352Y-86959500D01*
X78277648Y-86959500D01*
X78253329Y-86963351D01*
X78075465Y-86991522D01*
X77880776Y-87054781D01*
X77698386Y-87147715D01*
X77532786Y-87268028D01*
X77388028Y-87412786D01*
X77267715Y-87578386D01*
X77220485Y-87671080D01*
X77172510Y-87721876D01*
X77104689Y-87738671D01*
X77038554Y-87716134D01*
X76999515Y-87671080D01*
X76998883Y-87669840D01*
X76952287Y-87578390D01*
X76913875Y-87525520D01*
X76831971Y-87412786D01*
X76687213Y-87268028D01*
X76521613Y-87147715D01*
X76521612Y-87147714D01*
X76521610Y-87147713D01*
X76464653Y-87118691D01*
X76339223Y-87054781D01*
X76144534Y-86991522D01*
X75969995Y-86963878D01*
X75942352Y-86959500D01*
X75737648Y-86959500D01*
X75713329Y-86963351D01*
X75535465Y-86991522D01*
X75340776Y-87054781D01*
X75158386Y-87147715D01*
X74992786Y-87268028D01*
X74848028Y-87412786D01*
X74727715Y-87578386D01*
X74634781Y-87760776D01*
X74571522Y-87955465D01*
X74539500Y-88157648D01*
X74539500Y-88362351D01*
X74571522Y-88564534D01*
X74634781Y-88759223D01*
X74698691Y-88884653D01*
X74719756Y-88925994D01*
X74727715Y-88941613D01*
X74848028Y-89107213D01*
X74992786Y-89251971D01*
X75147749Y-89364556D01*
X75158390Y-89372287D01*
X75247212Y-89417544D01*
X75340776Y-89465218D01*
X75340778Y-89465218D01*
X75340781Y-89465220D01*
X75374679Y-89476234D01*
X75535465Y-89528477D01*
X75636557Y-89544488D01*
X75737648Y-89560500D01*
X75737649Y-89560500D01*
X75942351Y-89560500D01*
X75942352Y-89560500D01*
X76144534Y-89528477D01*
X76339219Y-89465220D01*
X76521610Y-89372287D01*
X76668773Y-89265368D01*
X76687213Y-89251971D01*
X76687215Y-89251968D01*
X76687219Y-89251966D01*
X76831966Y-89107219D01*
X76831968Y-89107215D01*
X76831971Y-89107213D01*
X76952284Y-88941614D01*
X76952285Y-88941613D01*
X76952287Y-88941610D01*
X76999516Y-88848917D01*
X77047489Y-88798123D01*
X77115310Y-88781328D01*
X77181445Y-88803865D01*
X77220485Y-88848919D01*
X77267715Y-88941614D01*
X77388028Y-89107213D01*
X77532786Y-89251971D01*
X77687749Y-89364556D01*
X77698390Y-89372287D01*
X77787212Y-89417544D01*
X77880776Y-89465218D01*
X77880778Y-89465218D01*
X77880781Y-89465220D01*
X77914679Y-89476234D01*
X78075465Y-89528477D01*
X78176557Y-89544488D01*
X78277648Y-89560500D01*
X78277649Y-89560500D01*
X78482351Y-89560500D01*
X78482352Y-89560500D01*
X78684534Y-89528477D01*
X78879219Y-89465220D01*
X79061610Y-89372287D01*
X79208773Y-89265368D01*
X79227213Y-89251971D01*
X79227215Y-89251968D01*
X79227219Y-89251966D01*
X79371966Y-89107219D01*
X79371968Y-89107215D01*
X79371971Y-89107213D01*
X79492284Y-88941614D01*
X79492285Y-88941613D01*
X79492287Y-88941610D01*
X79539516Y-88848917D01*
X79587489Y-88798123D01*
X79655310Y-88781328D01*
X79721445Y-88803865D01*
X79760485Y-88848919D01*
X79807715Y-88941614D01*
X79928028Y-89107213D01*
X80072786Y-89251971D01*
X80227749Y-89364556D01*
X80238390Y-89372287D01*
X80327212Y-89417544D01*
X80420776Y-89465218D01*
X80420778Y-89465218D01*
X80420781Y-89465220D01*
X80454679Y-89476234D01*
X80615465Y-89528477D01*
X80716557Y-89544488D01*
X80817648Y-89560500D01*
X80817649Y-89560500D01*
X81022351Y-89560500D01*
X81022352Y-89560500D01*
X81224534Y-89528477D01*
X81419219Y-89465220D01*
X81601610Y-89372287D01*
X81748773Y-89265368D01*
X81767213Y-89251971D01*
X81767215Y-89251968D01*
X81767219Y-89251966D01*
X81911966Y-89107219D01*
X81911968Y-89107215D01*
X81911971Y-89107213D01*
X82032284Y-88941614D01*
X82032285Y-88941613D01*
X82032287Y-88941610D01*
X82079516Y-88848917D01*
X82127489Y-88798123D01*
X82195310Y-88781328D01*
X82261445Y-88803865D01*
X82300485Y-88848919D01*
X82347715Y-88941614D01*
X82468028Y-89107213D01*
X82612786Y-89251971D01*
X82767749Y-89364556D01*
X82778390Y-89372287D01*
X82867212Y-89417544D01*
X82960776Y-89465218D01*
X82960778Y-89465218D01*
X82960781Y-89465220D01*
X82994679Y-89476234D01*
X83155465Y-89528477D01*
X83256557Y-89544488D01*
X83357648Y-89560500D01*
X83357649Y-89560500D01*
X83562351Y-89560500D01*
X83562352Y-89560500D01*
X83764534Y-89528477D01*
X83959219Y-89465220D01*
X84141610Y-89372287D01*
X84288773Y-89265368D01*
X84307213Y-89251971D01*
X84307215Y-89251968D01*
X84307219Y-89251966D01*
X84451966Y-89107219D01*
X84451968Y-89107215D01*
X84451971Y-89107213D01*
X84572284Y-88941614D01*
X84572285Y-88941613D01*
X84572287Y-88941610D01*
X84619516Y-88848917D01*
X84667489Y-88798123D01*
X84735310Y-88781328D01*
X84801445Y-88803865D01*
X84840485Y-88848919D01*
X84887715Y-88941614D01*
X85008028Y-89107213D01*
X85152786Y-89251971D01*
X85307749Y-89364556D01*
X85318390Y-89372287D01*
X85407212Y-89417544D01*
X85500776Y-89465218D01*
X85500778Y-89465218D01*
X85500781Y-89465220D01*
X85534679Y-89476234D01*
X85695465Y-89528477D01*
X85796557Y-89544488D01*
X85897648Y-89560500D01*
X85897649Y-89560500D01*
X86102351Y-89560500D01*
X86102352Y-89560500D01*
X86304534Y-89528477D01*
X86499219Y-89465220D01*
X86681610Y-89372287D01*
X86828773Y-89265368D01*
X86847213Y-89251971D01*
X86847215Y-89251968D01*
X86847219Y-89251966D01*
X86991966Y-89107219D01*
X86991968Y-89107215D01*
X86991971Y-89107213D01*
X87112284Y-88941614D01*
X87112285Y-88941613D01*
X87112287Y-88941610D01*
X87159516Y-88848917D01*
X87207489Y-88798123D01*
X87275310Y-88781328D01*
X87341445Y-88803865D01*
X87380485Y-88848919D01*
X87427715Y-88941614D01*
X87548028Y-89107213D01*
X87692786Y-89251971D01*
X87847749Y-89364556D01*
X87858390Y-89372287D01*
X87947212Y-89417544D01*
X88040776Y-89465218D01*
X88040778Y-89465218D01*
X88040781Y-89465220D01*
X88074679Y-89476234D01*
X88235465Y-89528477D01*
X88336557Y-89544488D01*
X88437648Y-89560500D01*
X88437649Y-89560500D01*
X88642351Y-89560500D01*
X88642352Y-89560500D01*
X88844534Y-89528477D01*
X89039219Y-89465220D01*
X89221610Y-89372287D01*
X89368773Y-89265368D01*
X89387213Y-89251971D01*
X89387215Y-89251968D01*
X89387219Y-89251966D01*
X89531966Y-89107219D01*
X89531968Y-89107215D01*
X89531971Y-89107213D01*
X89652284Y-88941614D01*
X89652285Y-88941613D01*
X89652287Y-88941610D01*
X89699516Y-88848917D01*
X89747489Y-88798123D01*
X89815310Y-88781328D01*
X89881445Y-88803865D01*
X89920485Y-88848919D01*
X89967715Y-88941614D01*
X90088028Y-89107213D01*
X90232786Y-89251971D01*
X90387749Y-89364556D01*
X90398390Y-89372287D01*
X90487212Y-89417544D01*
X90580776Y-89465218D01*
X90580778Y-89465218D01*
X90580781Y-89465220D01*
X90614679Y-89476234D01*
X90775465Y-89528477D01*
X90876557Y-89544488D01*
X90977648Y-89560500D01*
X90977649Y-89560500D01*
X91182351Y-89560500D01*
X91182352Y-89560500D01*
X91384534Y-89528477D01*
X91579219Y-89465220D01*
X91761610Y-89372287D01*
X91908773Y-89265368D01*
X91927213Y-89251971D01*
X91927215Y-89251968D01*
X91927219Y-89251966D01*
X92071966Y-89107219D01*
X92071968Y-89107215D01*
X92071971Y-89107213D01*
X92192284Y-88941614D01*
X92192285Y-88941613D01*
X92192287Y-88941610D01*
X92239516Y-88848917D01*
X92287489Y-88798123D01*
X92355310Y-88781328D01*
X92421445Y-88803865D01*
X92460485Y-88848919D01*
X92507715Y-88941614D01*
X92628028Y-89107213D01*
X92772786Y-89251971D01*
X92927749Y-89364556D01*
X92938390Y-89372287D01*
X93027212Y-89417544D01*
X93120776Y-89465218D01*
X93120778Y-89465218D01*
X93120781Y-89465220D01*
X93154679Y-89476234D01*
X93315465Y-89528477D01*
X93416557Y-89544488D01*
X93517648Y-89560500D01*
X93517649Y-89560500D01*
X93722351Y-89560500D01*
X93722352Y-89560500D01*
X93924534Y-89528477D01*
X94119219Y-89465220D01*
X94301610Y-89372287D01*
X94448773Y-89265368D01*
X94467213Y-89251971D01*
X94467215Y-89251968D01*
X94467219Y-89251966D01*
X94611966Y-89107219D01*
X94611968Y-89107215D01*
X94611971Y-89107213D01*
X94732284Y-88941614D01*
X94732285Y-88941613D01*
X94732287Y-88941610D01*
X94779516Y-88848917D01*
X94827489Y-88798123D01*
X94895310Y-88781328D01*
X94961445Y-88803865D01*
X95000485Y-88848919D01*
X95047715Y-88941614D01*
X95168028Y-89107213D01*
X95312786Y-89251971D01*
X95467749Y-89364556D01*
X95478390Y-89372287D01*
X95567212Y-89417544D01*
X95660776Y-89465218D01*
X95660778Y-89465218D01*
X95660781Y-89465220D01*
X95694679Y-89476234D01*
X95855465Y-89528477D01*
X95956557Y-89544488D01*
X96057648Y-89560500D01*
X96057649Y-89560500D01*
X96262351Y-89560500D01*
X96262352Y-89560500D01*
X96464534Y-89528477D01*
X96659219Y-89465220D01*
X96841610Y-89372287D01*
X96988773Y-89265368D01*
X97007213Y-89251971D01*
X97007215Y-89251968D01*
X97007219Y-89251966D01*
X97151966Y-89107219D01*
X97151968Y-89107215D01*
X97151971Y-89107213D01*
X97272284Y-88941614D01*
X97272285Y-88941613D01*
X97272287Y-88941610D01*
X97319516Y-88848917D01*
X97367489Y-88798123D01*
X97435310Y-88781328D01*
X97501445Y-88803865D01*
X97540485Y-88848919D01*
X97587715Y-88941614D01*
X97708028Y-89107213D01*
X97852786Y-89251971D01*
X98007749Y-89364556D01*
X98018390Y-89372287D01*
X98107212Y-89417544D01*
X98200776Y-89465218D01*
X98200778Y-89465218D01*
X98200781Y-89465220D01*
X98234679Y-89476234D01*
X98395465Y-89528477D01*
X98496557Y-89544488D01*
X98597648Y-89560500D01*
X98597649Y-89560500D01*
X98802351Y-89560500D01*
X98802352Y-89560500D01*
X99004534Y-89528477D01*
X99199219Y-89465220D01*
X99381610Y-89372287D01*
X99528773Y-89265368D01*
X99547213Y-89251971D01*
X99547215Y-89251968D01*
X99547219Y-89251966D01*
X99691966Y-89107219D01*
X99691968Y-89107215D01*
X99691971Y-89107213D01*
X99812284Y-88941614D01*
X99812285Y-88941613D01*
X99812287Y-88941610D01*
X99859516Y-88848917D01*
X99907489Y-88798123D01*
X99975310Y-88781328D01*
X100041445Y-88803865D01*
X100080485Y-88848919D01*
X100127715Y-88941614D01*
X100248028Y-89107213D01*
X100392786Y-89251971D01*
X100547749Y-89364556D01*
X100558390Y-89372287D01*
X100647212Y-89417544D01*
X100740776Y-89465218D01*
X100740778Y-89465218D01*
X100740781Y-89465220D01*
X100774679Y-89476234D01*
X100935465Y-89528477D01*
X101036557Y-89544488D01*
X101137648Y-89560500D01*
X101137649Y-89560500D01*
X101342350Y-89560500D01*
X101342352Y-89560500D01*
X101459068Y-89542013D01*
X101528362Y-89550967D01*
X101566148Y-89576805D01*
X102933453Y-90944111D01*
X102933454Y-90944112D01*
X103048192Y-91020777D01*
X103175667Y-91073578D01*
X103175672Y-91073580D01*
X103175676Y-91073580D01*
X103175677Y-91073581D01*
X103311003Y-91100500D01*
X103311006Y-91100500D01*
X103311007Y-91100500D01*
X114809481Y-91100500D01*
X114876520Y-91120185D01*
X114922275Y-91172989D01*
X114932219Y-91242147D01*
X114903194Y-91305703D01*
X114897162Y-91312181D01*
X105746162Y-100463181D01*
X105684839Y-100496666D01*
X105658481Y-100499500D01*
X98391003Y-100499500D01*
X98282590Y-100521065D01*
X98282589Y-100521065D01*
X98255671Y-100526420D01*
X98128190Y-100579224D01*
X98013454Y-100655887D01*
X96486147Y-102183194D01*
X96424824Y-102216679D01*
X96379068Y-102217986D01*
X96322528Y-102209031D01*
X96262352Y-102199500D01*
X96057648Y-102199500D01*
X95940929Y-102217986D01*
X95871636Y-102209031D01*
X95833851Y-102183194D01*
X93306546Y-99655888D01*
X93306545Y-99655887D01*
X93191807Y-99579222D01*
X93064332Y-99526421D01*
X93064322Y-99526418D01*
X92928996Y-99499500D01*
X92928994Y-99499500D01*
X92928993Y-99499500D01*
X73741518Y-99499500D01*
X73674479Y-99479815D01*
X73653837Y-99463181D01*
X72396072Y-98205416D01*
X72369192Y-98165187D01*
X72309397Y-98020827D01*
X72309390Y-98020814D01*
X72221789Y-97889711D01*
X72221786Y-97889707D01*
X72110292Y-97778213D01*
X72110288Y-97778210D01*
X71979185Y-97690609D01*
X71979172Y-97690602D01*
X71833501Y-97630264D01*
X71833489Y-97630261D01*
X71678845Y-97599500D01*
X71678842Y-97599500D01*
X71521158Y-97599500D01*
X71521155Y-97599500D01*
X71448691Y-97613914D01*
X71379100Y-97607687D01*
X71323922Y-97564824D01*
X71300678Y-97498934D01*
X71300500Y-97492297D01*
X71300500Y-82541519D01*
X71320185Y-82474480D01*
X71336819Y-82453838D01*
X72253838Y-81536819D01*
X72315161Y-81503334D01*
X72341519Y-81500500D01*
X87468996Y-81500500D01*
X87560040Y-81482389D01*
X87604328Y-81473580D01*
X87669604Y-81446542D01*
X87731807Y-81420777D01*
X87731808Y-81420776D01*
X87731811Y-81420775D01*
X87846543Y-81344114D01*
X89094587Y-80096068D01*
X89134808Y-80069193D01*
X89279179Y-80009394D01*
X89410289Y-79921789D01*
X89521789Y-79810289D01*
X89609394Y-79679179D01*
X89669737Y-79533497D01*
X89700500Y-79378842D01*
X89700500Y-79221158D01*
X89700500Y-79221155D01*
X89700499Y-79221153D01*
X89678358Y-79109843D01*
X89669737Y-79066503D01*
X89609534Y-78921158D01*
X89609397Y-78920827D01*
X89609389Y-78920812D01*
X89591067Y-78893392D01*
X89570188Y-78826715D01*
X89588672Y-78759334D01*
X89640650Y-78712644D01*
X89694168Y-78700500D01*
X95668996Y-78700500D01*
X95760040Y-78682389D01*
X95804328Y-78673580D01*
X95868069Y-78647177D01*
X95931807Y-78620777D01*
X95931808Y-78620776D01*
X95931811Y-78620775D01*
X96046543Y-78544114D01*
X97794586Y-76796069D01*
X97834810Y-76769192D01*
X97889435Y-76746566D01*
X97979173Y-76709397D01*
X97979176Y-76709395D01*
X97979179Y-76709394D01*
X98110289Y-76621789D01*
X98221789Y-76510289D01*
X98309394Y-76379179D01*
X98337929Y-76310289D01*
X98372068Y-76227870D01*
X98373262Y-76228364D01*
X98380700Y-76217013D01*
X98387355Y-76197878D01*
X98399462Y-76188385D01*
X98407895Y-76175518D01*
X98426397Y-76167267D01*
X98442339Y-76154768D01*
X98457655Y-76153327D01*
X98471708Y-76147061D01*
X98491734Y-76150123D01*
G37*
%TD.AperFunction*%
%TA.AperFunction,Conductor*%
G36*
X116525520Y-65720185D02*
G01*
X116546162Y-65736819D01*
X117863181Y-67053837D01*
X117896666Y-67115160D01*
X117899500Y-67141518D01*
X117899500Y-69131006D01*
X117899500Y-69268994D01*
X117899500Y-69268996D01*
X117899499Y-69268996D01*
X117926418Y-69404322D01*
X117926421Y-69404332D01*
X117979222Y-69531807D01*
X118055887Y-69646545D01*
X118055888Y-69646546D01*
X120603928Y-72194585D01*
X120630808Y-72234814D01*
X120690602Y-72379172D01*
X120690609Y-72379185D01*
X120778210Y-72510288D01*
X120778213Y-72510292D01*
X120889707Y-72621786D01*
X120889711Y-72621789D01*
X121020814Y-72709390D01*
X121020827Y-72709397D01*
X121166498Y-72769735D01*
X121166503Y-72769737D01*
X121321153Y-72800499D01*
X121321156Y-72800500D01*
X121321158Y-72800500D01*
X121478844Y-72800500D01*
X121478845Y-72800499D01*
X121633497Y-72769737D01*
X121779179Y-72709394D01*
X121910289Y-72621789D01*
X122021789Y-72510289D01*
X122109394Y-72379179D01*
X122169737Y-72233497D01*
X122200500Y-72078842D01*
X122200500Y-71921158D01*
X122200500Y-71921155D01*
X122200499Y-71921153D01*
X122180734Y-71821789D01*
X122169737Y-71766503D01*
X122169735Y-71766498D01*
X122109397Y-71620827D01*
X122109390Y-71620814D01*
X122021789Y-71489711D01*
X122021786Y-71489707D01*
X121910292Y-71378213D01*
X121910288Y-71378210D01*
X121779185Y-71290609D01*
X121779172Y-71290602D01*
X121634814Y-71230808D01*
X121594585Y-71203928D01*
X120270394Y-69879737D01*
X120236909Y-69818414D01*
X120241893Y-69748722D01*
X120283765Y-69692789D01*
X120349229Y-69668372D01*
X120414371Y-69681572D01*
X120460774Y-69705216D01*
X120460777Y-69705216D01*
X120460781Y-69705219D01*
X120594669Y-69748722D01*
X120655465Y-69768476D01*
X120674697Y-69771522D01*
X120857648Y-69800499D01*
X120857649Y-69800499D01*
X121062351Y-69800499D01*
X121062352Y-69800499D01*
X121264534Y-69768476D01*
X121459219Y-69705219D01*
X121641610Y-69612286D01*
X121765096Y-69522569D01*
X121807213Y-69491970D01*
X121807215Y-69491967D01*
X121807219Y-69491965D01*
X121951966Y-69347218D01*
X121951970Y-69347213D01*
X121951971Y-69347212D01*
X122072284Y-69181613D01*
X122072286Y-69181610D01*
X122072287Y-69181609D01*
X122119516Y-69088916D01*
X122167489Y-69038122D01*
X122235310Y-69021327D01*
X122301445Y-69043864D01*
X122340483Y-69088916D01*
X122361930Y-69131007D01*
X122387715Y-69181613D01*
X122508028Y-69347212D01*
X122652786Y-69491970D01*
X122799500Y-69598562D01*
X122818390Y-69612286D01*
X122911080Y-69659514D01*
X123000776Y-69705217D01*
X123000778Y-69705217D01*
X123000781Y-69705219D01*
X123105137Y-69739126D01*
X123195465Y-69768476D01*
X123214697Y-69771522D01*
X123397648Y-69800499D01*
X123397649Y-69800499D01*
X123602351Y-69800499D01*
X123602352Y-69800499D01*
X123804534Y-69768476D01*
X123999219Y-69705219D01*
X124181610Y-69612286D01*
X124305096Y-69522569D01*
X124347213Y-69491970D01*
X124347215Y-69491967D01*
X124347219Y-69491965D01*
X124491966Y-69347218D01*
X124561425Y-69251614D01*
X124616755Y-69208948D01*
X124661744Y-69200499D01*
X126158480Y-69200499D01*
X126225519Y-69220184D01*
X126246161Y-69236818D01*
X129863181Y-72853838D01*
X129896666Y-72915161D01*
X129899500Y-72941519D01*
X129899500Y-79058481D01*
X129879815Y-79125520D01*
X129863181Y-79146162D01*
X125946162Y-83063181D01*
X125884839Y-83096666D01*
X125858481Y-83099500D01*
X122590517Y-83099500D01*
X122523478Y-83079815D01*
X122477723Y-83027011D01*
X122467779Y-82957853D01*
X122496804Y-82894297D01*
X122502836Y-82887819D01*
X123142133Y-82248523D01*
X123944113Y-81446543D01*
X123989125Y-81379179D01*
X123990004Y-81377864D01*
X124020774Y-81331813D01*
X124020774Y-81331812D01*
X124020775Y-81331811D01*
X124056094Y-81246543D01*
X124073580Y-81204329D01*
X124084486Y-81149500D01*
X124089824Y-81122664D01*
X124100500Y-81068995D01*
X124100500Y-78025316D01*
X124109939Y-77977864D01*
X124169735Y-77833501D01*
X124169737Y-77833497D01*
X124200500Y-77678842D01*
X124200500Y-77521158D01*
X124200500Y-77521155D01*
X124200499Y-77521153D01*
X124194245Y-77489711D01*
X124169737Y-77366503D01*
X124133830Y-77279815D01*
X124109397Y-77220827D01*
X124109390Y-77220814D01*
X124021789Y-77089711D01*
X124021786Y-77089707D01*
X123910292Y-76978213D01*
X123910288Y-76978210D01*
X123779185Y-76890609D01*
X123779172Y-76890602D01*
X123633501Y-76830264D01*
X123633489Y-76830261D01*
X123478845Y-76799500D01*
X123478842Y-76799500D01*
X123321158Y-76799500D01*
X123321155Y-76799500D01*
X123166510Y-76830261D01*
X123166498Y-76830264D01*
X123020827Y-76890602D01*
X123020814Y-76890609D01*
X122889711Y-76978210D01*
X122889707Y-76978213D01*
X122778213Y-77089707D01*
X122778210Y-77089711D01*
X122690609Y-77220814D01*
X122690602Y-77220827D01*
X122630264Y-77366498D01*
X122630261Y-77366510D01*
X122599500Y-77521153D01*
X122599500Y-77678846D01*
X122630261Y-77833489D01*
X122630264Y-77833501D01*
X122690061Y-77977864D01*
X122699500Y-78025316D01*
X122699500Y-80658480D01*
X122679815Y-80725519D01*
X122663181Y-80746161D01*
X119746161Y-83663181D01*
X119684838Y-83696666D01*
X119658480Y-83699500D01*
X119225316Y-83699500D01*
X119177864Y-83690061D01*
X119033501Y-83630264D01*
X119033489Y-83630261D01*
X118878845Y-83599500D01*
X118878842Y-83599500D01*
X118721158Y-83599500D01*
X118721155Y-83599500D01*
X118566510Y-83630261D01*
X118566498Y-83630264D01*
X118420827Y-83690602D01*
X118420814Y-83690609D01*
X118289711Y-83778210D01*
X118289707Y-83778213D01*
X118178213Y-83889707D01*
X118178210Y-83889711D01*
X118090609Y-84020814D01*
X118090602Y-84020827D01*
X118030264Y-84166498D01*
X118030261Y-84166510D01*
X117999500Y-84321153D01*
X117999500Y-84478846D01*
X118013914Y-84551309D01*
X118007687Y-84620900D01*
X117964824Y-84676078D01*
X117898934Y-84699322D01*
X117892297Y-84699500D01*
X107741519Y-84699500D01*
X107674480Y-84679815D01*
X107653838Y-84663181D01*
X104596071Y-81605414D01*
X104569191Y-81565185D01*
X104509397Y-81420827D01*
X104509390Y-81420814D01*
X104421789Y-81289711D01*
X104421786Y-81289707D01*
X104310292Y-81178213D01*
X104310288Y-81178210D01*
X104179185Y-81090609D01*
X104179172Y-81090602D01*
X104033501Y-81030264D01*
X104033489Y-81030261D01*
X103878845Y-80999500D01*
X103878842Y-80999500D01*
X103721158Y-80999500D01*
X103721155Y-80999500D01*
X103566510Y-81030261D01*
X103566498Y-81030264D01*
X103420827Y-81090602D01*
X103420814Y-81090609D01*
X103289711Y-81178210D01*
X103289707Y-81178213D01*
X103178213Y-81289707D01*
X103178210Y-81289711D01*
X103090609Y-81420814D01*
X103090602Y-81420827D01*
X103030264Y-81566498D01*
X103030261Y-81566510D01*
X102999500Y-81721153D01*
X102999500Y-81878846D01*
X103030261Y-82033489D01*
X103030264Y-82033501D01*
X103090602Y-82179172D01*
X103090609Y-82179185D01*
X103178210Y-82310288D01*
X103178213Y-82310292D01*
X103289707Y-82421786D01*
X103289711Y-82421789D01*
X103420814Y-82509390D01*
X103420827Y-82509397D01*
X103565185Y-82569191D01*
X103605414Y-82596071D01*
X106497162Y-85487819D01*
X106530647Y-85549142D01*
X106525663Y-85618834D01*
X106483791Y-85674767D01*
X106418327Y-85699184D01*
X106409481Y-85699500D01*
X104541519Y-85699500D01*
X104474480Y-85679815D01*
X104453838Y-85663181D01*
X103796071Y-85005414D01*
X103769191Y-84965185D01*
X103709397Y-84820827D01*
X103709390Y-84820814D01*
X103621789Y-84689711D01*
X103621786Y-84689707D01*
X103510292Y-84578213D01*
X103510288Y-84578210D01*
X103379185Y-84490609D01*
X103379172Y-84490602D01*
X103233501Y-84430264D01*
X103233489Y-84430261D01*
X103078845Y-84399500D01*
X103078842Y-84399500D01*
X102921158Y-84399500D01*
X102921155Y-84399500D01*
X102766510Y-84430261D01*
X102766498Y-84430264D01*
X102620827Y-84490602D01*
X102620814Y-84490609D01*
X102489711Y-84578210D01*
X102489707Y-84578213D01*
X102378213Y-84689707D01*
X102378210Y-84689711D01*
X102290609Y-84820814D01*
X102290602Y-84820827D01*
X102230264Y-84966498D01*
X102230261Y-84966510D01*
X102199500Y-85121153D01*
X102199500Y-85278846D01*
X102230261Y-85433489D01*
X102230264Y-85433501D01*
X102290602Y-85579172D01*
X102290609Y-85579185D01*
X102378210Y-85710288D01*
X102378213Y-85710292D01*
X102489707Y-85821786D01*
X102489711Y-85821789D01*
X102620814Y-85909390D01*
X102620827Y-85909397D01*
X102765185Y-85969191D01*
X102805414Y-85996071D01*
X103753453Y-86944111D01*
X103753454Y-86944112D01*
X103868190Y-87020776D01*
X103950284Y-87054780D01*
X103995671Y-87073580D01*
X103995672Y-87073580D01*
X103995677Y-87073582D01*
X104022545Y-87078925D01*
X104022551Y-87078926D01*
X104022591Y-87078934D01*
X104112937Y-87096905D01*
X104131006Y-87100500D01*
X104131007Y-87100500D01*
X105131007Y-87100500D01*
X105340953Y-87100500D01*
X105407992Y-87120185D01*
X105453747Y-87172989D01*
X105463691Y-87242147D01*
X105434666Y-87305703D01*
X105428634Y-87312181D01*
X105328032Y-87412782D01*
X105328028Y-87412786D01*
X105207715Y-87578386D01*
X105114781Y-87760776D01*
X105051522Y-87955465D01*
X105019500Y-88157648D01*
X105019500Y-88362351D01*
X105051522Y-88564534D01*
X105114781Y-88759223D01*
X105178691Y-88884653D01*
X105199756Y-88925994D01*
X105207715Y-88941613D01*
X105328028Y-89107213D01*
X105472786Y-89251971D01*
X105627749Y-89364556D01*
X105638390Y-89372287D01*
X105759518Y-89434005D01*
X105820378Y-89465015D01*
X105871174Y-89512990D01*
X105887969Y-89580811D01*
X105865431Y-89646946D01*
X105810716Y-89690397D01*
X105764083Y-89699500D01*
X103721519Y-89699500D01*
X103654480Y-89679815D01*
X103633838Y-89663181D01*
X102556805Y-88586148D01*
X102523320Y-88524825D01*
X102522013Y-88479068D01*
X102540500Y-88362352D01*
X102540500Y-88157648D01*
X102531897Y-88103334D01*
X102508477Y-87955465D01*
X102451198Y-87779179D01*
X102445220Y-87760781D01*
X102445218Y-87760778D01*
X102445218Y-87760776D01*
X102399515Y-87671080D01*
X102352287Y-87578390D01*
X102313875Y-87525520D01*
X102231971Y-87412786D01*
X102087213Y-87268028D01*
X101921613Y-87147715D01*
X101921612Y-87147714D01*
X101921610Y-87147713D01*
X101864653Y-87118691D01*
X101739223Y-87054781D01*
X101544534Y-86991522D01*
X101369995Y-86963878D01*
X101342352Y-86959500D01*
X101137648Y-86959500D01*
X101113329Y-86963351D01*
X100935465Y-86991522D01*
X100740776Y-87054781D01*
X100558386Y-87147715D01*
X100392786Y-87268028D01*
X100248028Y-87412786D01*
X100127715Y-87578386D01*
X100080485Y-87671080D01*
X100032510Y-87721876D01*
X99964689Y-87738671D01*
X99898554Y-87716134D01*
X99859515Y-87671080D01*
X99858883Y-87669840D01*
X99812287Y-87578390D01*
X99773875Y-87525520D01*
X99691971Y-87412786D01*
X99547213Y-87268028D01*
X99381613Y-87147715D01*
X99381612Y-87147714D01*
X99381610Y-87147713D01*
X99324653Y-87118691D01*
X99199223Y-87054781D01*
X99004534Y-86991522D01*
X98829995Y-86963878D01*
X98802352Y-86959500D01*
X98597648Y-86959500D01*
X98573329Y-86963351D01*
X98395465Y-86991522D01*
X98200776Y-87054781D01*
X98018386Y-87147715D01*
X97852786Y-87268028D01*
X97708028Y-87412786D01*
X97587715Y-87578386D01*
X97540485Y-87671080D01*
X97492510Y-87721876D01*
X97424689Y-87738671D01*
X97358554Y-87716134D01*
X97319515Y-87671080D01*
X97318883Y-87669840D01*
X97272287Y-87578390D01*
X97233875Y-87525520D01*
X97151971Y-87412786D01*
X97007217Y-87268032D01*
X97007212Y-87268028D01*
X96911615Y-87198573D01*
X96868949Y-87143243D01*
X96860500Y-87098255D01*
X96860500Y-86681519D01*
X96880185Y-86614480D01*
X96896819Y-86593838D01*
X98253838Y-85236819D01*
X98315161Y-85203334D01*
X98341519Y-85200500D01*
X99568996Y-85200500D01*
X99660040Y-85182389D01*
X99704328Y-85173580D01*
X99768069Y-85147177D01*
X99831807Y-85120777D01*
X99831808Y-85120776D01*
X99831811Y-85120775D01*
X99946543Y-85044114D01*
X102044114Y-82946543D01*
X102120775Y-82831811D01*
X102173580Y-82704328D01*
X102175489Y-82694728D01*
X102175490Y-82694728D01*
X102175490Y-82694724D01*
X102200500Y-82568993D01*
X102200500Y-81425316D01*
X102209939Y-81377864D01*
X102238478Y-81308963D01*
X102269737Y-81233497D01*
X102300500Y-81078842D01*
X102300500Y-80921158D01*
X102300500Y-80921155D01*
X102300499Y-80921153D01*
X102269738Y-80766510D01*
X102269737Y-80766503D01*
X102224993Y-80658480D01*
X102209397Y-80620827D01*
X102209390Y-80620814D01*
X102121789Y-80489711D01*
X102121786Y-80489707D01*
X102010292Y-80378213D01*
X102010288Y-80378210D01*
X101879185Y-80290609D01*
X101879172Y-80290602D01*
X101733501Y-80230264D01*
X101733489Y-80230261D01*
X101578845Y-80199500D01*
X101578842Y-80199500D01*
X101421158Y-80199500D01*
X101421155Y-80199500D01*
X101266510Y-80230261D01*
X101266498Y-80230264D01*
X101120827Y-80290602D01*
X101120814Y-80290609D01*
X100989711Y-80378210D01*
X100989707Y-80378213D01*
X100878213Y-80489707D01*
X100878210Y-80489711D01*
X100790609Y-80620814D01*
X100790602Y-80620827D01*
X100730264Y-80766498D01*
X100730261Y-80766510D01*
X100699500Y-80921153D01*
X100699500Y-81078846D01*
X100730261Y-81233489D01*
X100730264Y-81233501D01*
X100790061Y-81377864D01*
X100799500Y-81425316D01*
X100799500Y-82158481D01*
X100779815Y-82225520D01*
X100763181Y-82246162D01*
X99246162Y-83763181D01*
X99184839Y-83796666D01*
X99158481Y-83799500D01*
X97931004Y-83799500D01*
X97795677Y-83826418D01*
X97795667Y-83826421D01*
X97668192Y-83879222D01*
X97553454Y-83955887D01*
X95615889Y-85893452D01*
X95603002Y-85912740D01*
X95576088Y-85953021D01*
X95575797Y-85953456D01*
X95575796Y-85953457D01*
X95539223Y-86008191D01*
X95539222Y-86008193D01*
X95486421Y-86135667D01*
X95486418Y-86135677D01*
X95459500Y-86271004D01*
X95459500Y-87098255D01*
X95439815Y-87165294D01*
X95408385Y-87198573D01*
X95312787Y-87268028D01*
X95312782Y-87268032D01*
X95168028Y-87412786D01*
X95047715Y-87578386D01*
X95000485Y-87671080D01*
X94952510Y-87721876D01*
X94884689Y-87738671D01*
X94818554Y-87716134D01*
X94779515Y-87671080D01*
X94778883Y-87669840D01*
X94732287Y-87578390D01*
X94693875Y-87525520D01*
X94611971Y-87412786D01*
X94467213Y-87268028D01*
X94301613Y-87147715D01*
X94301612Y-87147714D01*
X94301610Y-87147713D01*
X94244653Y-87118691D01*
X94119223Y-87054781D01*
X93924534Y-86991522D01*
X93749995Y-86963878D01*
X93722352Y-86959500D01*
X93517648Y-86959500D01*
X93493329Y-86963351D01*
X93315465Y-86991522D01*
X93120776Y-87054781D01*
X92938386Y-87147715D01*
X92772786Y-87268028D01*
X92628028Y-87412786D01*
X92507715Y-87578386D01*
X92460485Y-87671080D01*
X92412510Y-87721876D01*
X92344689Y-87738671D01*
X92278554Y-87716134D01*
X92239515Y-87671080D01*
X92238883Y-87669840D01*
X92192287Y-87578390D01*
X92153875Y-87525520D01*
X92071971Y-87412786D01*
X91927213Y-87268028D01*
X91761613Y-87147715D01*
X91761612Y-87147714D01*
X91761610Y-87147713D01*
X91704653Y-87118691D01*
X91579223Y-87054781D01*
X91384534Y-86991522D01*
X91209995Y-86963878D01*
X91182352Y-86959500D01*
X90977648Y-86959500D01*
X90953329Y-86963351D01*
X90775465Y-86991522D01*
X90580776Y-87054781D01*
X90398386Y-87147715D01*
X90232786Y-87268028D01*
X90088028Y-87412786D01*
X89967715Y-87578386D01*
X89920485Y-87671080D01*
X89872510Y-87721876D01*
X89804689Y-87738671D01*
X89738554Y-87716134D01*
X89699515Y-87671080D01*
X89698883Y-87669840D01*
X89652287Y-87578390D01*
X89613875Y-87525520D01*
X89531971Y-87412786D01*
X89387213Y-87268028D01*
X89221613Y-87147715D01*
X89221612Y-87147714D01*
X89221610Y-87147713D01*
X89164653Y-87118691D01*
X89039223Y-87054781D01*
X88844534Y-86991522D01*
X88669995Y-86963878D01*
X88642352Y-86959500D01*
X88437648Y-86959500D01*
X88413329Y-86963351D01*
X88235465Y-86991522D01*
X88040776Y-87054781D01*
X87858386Y-87147715D01*
X87692786Y-87268028D01*
X87548028Y-87412786D01*
X87427715Y-87578386D01*
X87380485Y-87671080D01*
X87332510Y-87721876D01*
X87264689Y-87738671D01*
X87198554Y-87716134D01*
X87159515Y-87671080D01*
X87158883Y-87669840D01*
X87112287Y-87578390D01*
X87073875Y-87525520D01*
X86991971Y-87412786D01*
X86847213Y-87268028D01*
X86681613Y-87147715D01*
X86681612Y-87147714D01*
X86681610Y-87147713D01*
X86624653Y-87118691D01*
X86499223Y-87054781D01*
X86304534Y-86991522D01*
X86129995Y-86963878D01*
X86102352Y-86959500D01*
X86050518Y-86959500D01*
X85983479Y-86939815D01*
X85937724Y-86887011D01*
X85927780Y-86817853D01*
X85956805Y-86754297D01*
X85962837Y-86747819D01*
X86573838Y-86136819D01*
X86635161Y-86103334D01*
X86661519Y-86100500D01*
X94668996Y-86100500D01*
X94777864Y-86078844D01*
X94804328Y-86073580D01*
X94868069Y-86047177D01*
X94931807Y-86020777D01*
X94931808Y-86020776D01*
X94931811Y-86020775D01*
X95046543Y-85944114D01*
X100544114Y-80446543D01*
X100544115Y-80446542D01*
X102853838Y-78136819D01*
X102915161Y-78103334D01*
X102941519Y-78100500D01*
X109068996Y-78100500D01*
X109177854Y-78078846D01*
X109204328Y-78073580D01*
X109268069Y-78047177D01*
X109331807Y-78020777D01*
X109331808Y-78020776D01*
X109331811Y-78020775D01*
X109446543Y-77944114D01*
X110394586Y-76996069D01*
X110434810Y-76969192D01*
X110501624Y-76941518D01*
X110579173Y-76909397D01*
X110579176Y-76909395D01*
X110579179Y-76909394D01*
X110710289Y-76821789D01*
X110821789Y-76710289D01*
X110909394Y-76579179D01*
X110969737Y-76433497D01*
X111000500Y-76278842D01*
X111000500Y-76121158D01*
X111000500Y-76121155D01*
X111000499Y-76121153D01*
X110987517Y-76055887D01*
X110969737Y-75966503D01*
X110926940Y-75863181D01*
X110909397Y-75820827D01*
X110909390Y-75820814D01*
X110824248Y-75693391D01*
X110803370Y-75626714D01*
X110821854Y-75559334D01*
X110873833Y-75512643D01*
X110927350Y-75500500D01*
X111331007Y-75500500D01*
X114058481Y-75500500D01*
X114125520Y-75520185D01*
X114146162Y-75536819D01*
X114603928Y-75994585D01*
X114630808Y-76034814D01*
X114690602Y-76179172D01*
X114690609Y-76179185D01*
X114778210Y-76310288D01*
X114778213Y-76310292D01*
X114889707Y-76421786D01*
X114889711Y-76421789D01*
X115020814Y-76509390D01*
X115020827Y-76509397D01*
X115137812Y-76557853D01*
X115166503Y-76569737D01*
X115321153Y-76600499D01*
X115321156Y-76600500D01*
X115321158Y-76600500D01*
X115478844Y-76600500D01*
X115478845Y-76600499D01*
X115633497Y-76569737D01*
X115779179Y-76509394D01*
X115910289Y-76421789D01*
X116021789Y-76310289D01*
X116109394Y-76179179D01*
X116110911Y-76175518D01*
X116123067Y-76146166D01*
X116169737Y-76033497D01*
X116200500Y-75878842D01*
X116200500Y-75721158D01*
X116200500Y-75721155D01*
X116200499Y-75721153D01*
X116186993Y-75653253D01*
X116169737Y-75566503D01*
X116143584Y-75503363D01*
X116109397Y-75420827D01*
X116109390Y-75420814D01*
X116021789Y-75289711D01*
X116021786Y-75289707D01*
X115910292Y-75178213D01*
X115910288Y-75178210D01*
X115779185Y-75090609D01*
X115779172Y-75090602D01*
X115634814Y-75030808D01*
X115594585Y-75003928D01*
X114902839Y-74312181D01*
X114869354Y-74250858D01*
X114874338Y-74181166D01*
X114916210Y-74125233D01*
X114981674Y-74100816D01*
X114990520Y-74100500D01*
X115258481Y-74100500D01*
X115325520Y-74120185D01*
X115346162Y-74136819D01*
X118063181Y-76853837D01*
X118096666Y-76915160D01*
X118099500Y-76941518D01*
X118099500Y-81374684D01*
X118090061Y-81422136D01*
X118030264Y-81566498D01*
X118030261Y-81566510D01*
X117999500Y-81721153D01*
X117999500Y-81775500D01*
X117979815Y-81842539D01*
X117927011Y-81888294D01*
X117875500Y-81899500D01*
X109825316Y-81899500D01*
X109777864Y-81890061D01*
X109633501Y-81830264D01*
X109633489Y-81830261D01*
X109478845Y-81799500D01*
X109478842Y-81799500D01*
X109321158Y-81799500D01*
X109321155Y-81799500D01*
X109166510Y-81830261D01*
X109166498Y-81830264D01*
X109020827Y-81890602D01*
X109020814Y-81890609D01*
X108889711Y-81978210D01*
X108889707Y-81978213D01*
X108778213Y-82089707D01*
X108778210Y-82089711D01*
X108690609Y-82220814D01*
X108690602Y-82220827D01*
X108630264Y-82366498D01*
X108630261Y-82366510D01*
X108599500Y-82521153D01*
X108599500Y-82678846D01*
X108630261Y-82833489D01*
X108630264Y-82833501D01*
X108690602Y-82979172D01*
X108690609Y-82979185D01*
X108778210Y-83110288D01*
X108778213Y-83110292D01*
X108889707Y-83221786D01*
X108889711Y-83221789D01*
X109020814Y-83309390D01*
X109020827Y-83309397D01*
X109166498Y-83369735D01*
X109166503Y-83369737D01*
X109321153Y-83400499D01*
X109321156Y-83400500D01*
X109321158Y-83400500D01*
X109478844Y-83400500D01*
X109478845Y-83400499D01*
X109633497Y-83369737D01*
X109708963Y-83338478D01*
X109777864Y-83309939D01*
X109825316Y-83300500D01*
X119468996Y-83300500D01*
X119577864Y-83278844D01*
X119604328Y-83273580D01*
X119668069Y-83247177D01*
X119731807Y-83220777D01*
X119731808Y-83220776D01*
X119731811Y-83220775D01*
X119846543Y-83144114D01*
X120744114Y-82246543D01*
X120761306Y-82220814D01*
X120789125Y-82179179D01*
X120820775Y-82131811D01*
X120821109Y-82131006D01*
X120873578Y-82004332D01*
X120873580Y-82004328D01*
X120894432Y-81899500D01*
X120900500Y-81868996D01*
X120900500Y-80425316D01*
X120909939Y-80377864D01*
X120946082Y-80290605D01*
X120969737Y-80233497D01*
X121000500Y-80078842D01*
X121000500Y-79921158D01*
X121000500Y-79921155D01*
X121000499Y-79921153D01*
X120978447Y-79810292D01*
X120969737Y-79766503D01*
X120933569Y-79679185D01*
X120909397Y-79620827D01*
X120909390Y-79620814D01*
X120821789Y-79489711D01*
X120821786Y-79489707D01*
X120710292Y-79378213D01*
X120710288Y-79378210D01*
X120579185Y-79290609D01*
X120579172Y-79290602D01*
X120433501Y-79230264D01*
X120433489Y-79230261D01*
X120278845Y-79199500D01*
X120278842Y-79199500D01*
X120121158Y-79199500D01*
X120121155Y-79199500D01*
X119966510Y-79230261D01*
X119966498Y-79230264D01*
X119820827Y-79290602D01*
X119820814Y-79290609D01*
X119693391Y-79375751D01*
X119626713Y-79396629D01*
X119559333Y-79378144D01*
X119512643Y-79326165D01*
X119500500Y-79272649D01*
X119500500Y-76531004D01*
X119500499Y-76531002D01*
X119498540Y-76521153D01*
X119473580Y-76395672D01*
X119466748Y-76379179D01*
X119461500Y-76366510D01*
X119447128Y-76331811D01*
X119420778Y-76268194D01*
X119420771Y-76268182D01*
X119344115Y-76153459D01*
X119311809Y-76121153D01*
X119246542Y-76055886D01*
X118448336Y-75257680D01*
X116046546Y-72855888D01*
X116046545Y-72855887D01*
X115931807Y-72779222D01*
X115804332Y-72726421D01*
X115804322Y-72726418D01*
X115668996Y-72699500D01*
X115668994Y-72699500D01*
X115668993Y-72699500D01*
X109550517Y-72699500D01*
X109483478Y-72679815D01*
X109437723Y-72627011D01*
X109427779Y-72557853D01*
X109456804Y-72494297D01*
X109462836Y-72487819D01*
X109593851Y-72356804D01*
X109655174Y-72323319D01*
X109700930Y-72322012D01*
X109817648Y-72340499D01*
X109817649Y-72340499D01*
X110022351Y-72340499D01*
X110022352Y-72340499D01*
X110224534Y-72308476D01*
X110419219Y-72245219D01*
X110601610Y-72152286D01*
X110708421Y-72074684D01*
X110767213Y-72031970D01*
X110767215Y-72031967D01*
X110767219Y-72031965D01*
X110911966Y-71887218D01*
X110911968Y-71887214D01*
X110911971Y-71887212D01*
X111025999Y-71730264D01*
X111032287Y-71721609D01*
X111079516Y-71628916D01*
X111127489Y-71578122D01*
X111195310Y-71561327D01*
X111261445Y-71583864D01*
X111300483Y-71628916D01*
X111331914Y-71690602D01*
X111347715Y-71721613D01*
X111468028Y-71887212D01*
X111612786Y-72031970D01*
X111767749Y-72144555D01*
X111778390Y-72152286D01*
X111894607Y-72211502D01*
X111960776Y-72245217D01*
X111960778Y-72245217D01*
X111960781Y-72245219D01*
X112065137Y-72279126D01*
X112155465Y-72308476D01*
X112256557Y-72324487D01*
X112357648Y-72340499D01*
X112357649Y-72340499D01*
X112562351Y-72340499D01*
X112562352Y-72340499D01*
X112764534Y-72308476D01*
X112959219Y-72245219D01*
X113141610Y-72152286D01*
X113248421Y-72074684D01*
X113307213Y-72031970D01*
X113307215Y-72031967D01*
X113307219Y-72031965D01*
X113451966Y-71887218D01*
X113451968Y-71887214D01*
X113451971Y-71887212D01*
X113565999Y-71730264D01*
X113572287Y-71721609D01*
X113619516Y-71628916D01*
X113667489Y-71578122D01*
X113735310Y-71561327D01*
X113801445Y-71583864D01*
X113840483Y-71628916D01*
X113871914Y-71690602D01*
X113887715Y-71721613D01*
X114008028Y-71887212D01*
X114152786Y-72031970D01*
X114307749Y-72144555D01*
X114318390Y-72152286D01*
X114434607Y-72211502D01*
X114500776Y-72245217D01*
X114500778Y-72245217D01*
X114500781Y-72245219D01*
X114605137Y-72279126D01*
X114695465Y-72308476D01*
X114796557Y-72324487D01*
X114897648Y-72340499D01*
X114897649Y-72340499D01*
X115102351Y-72340499D01*
X115102352Y-72340499D01*
X115304534Y-72308476D01*
X115499219Y-72245219D01*
X115681610Y-72152286D01*
X115788421Y-72074684D01*
X115847213Y-72031970D01*
X115847215Y-72031967D01*
X115847219Y-72031965D01*
X115991966Y-71887218D01*
X115991968Y-71887214D01*
X115991971Y-71887212D01*
X116071162Y-71778213D01*
X116112287Y-71721609D01*
X116205220Y-71539218D01*
X116268477Y-71344533D01*
X116300500Y-71142351D01*
X116300500Y-70937647D01*
X116268477Y-70735465D01*
X116268476Y-70735463D01*
X116233715Y-70628480D01*
X116205220Y-70540780D01*
X116205218Y-70540777D01*
X116205218Y-70540775D01*
X116149187Y-70430809D01*
X116112287Y-70358389D01*
X116104556Y-70347748D01*
X115991971Y-70192785D01*
X115847213Y-70048027D01*
X115681613Y-69927714D01*
X115681612Y-69927713D01*
X115681610Y-69927712D01*
X115624653Y-69898690D01*
X115499223Y-69834780D01*
X115304534Y-69771521D01*
X115129995Y-69743877D01*
X115102352Y-69739499D01*
X114897648Y-69739499D01*
X114890558Y-69740622D01*
X114695465Y-69771521D01*
X114500776Y-69834780D01*
X114318386Y-69927714D01*
X114152786Y-70048027D01*
X114008028Y-70192785D01*
X113887715Y-70358385D01*
X113840485Y-70451079D01*
X113792510Y-70501875D01*
X113724689Y-70518670D01*
X113658554Y-70496133D01*
X113619515Y-70451079D01*
X113609187Y-70430809D01*
X113572287Y-70358389D01*
X113564556Y-70347748D01*
X113451971Y-70192785D01*
X113307213Y-70048027D01*
X113141614Y-69927714D01*
X113114190Y-69913741D01*
X113048917Y-69880482D01*
X112998123Y-69832510D01*
X112981328Y-69764689D01*
X113003865Y-69698554D01*
X113048917Y-69659515D01*
X113141610Y-69612286D01*
X113165808Y-69594705D01*
X113307213Y-69491970D01*
X113307215Y-69491967D01*
X113307219Y-69491965D01*
X113451966Y-69347218D01*
X113451970Y-69347213D01*
X113451971Y-69347212D01*
X113532175Y-69236819D01*
X113572287Y-69181609D01*
X113665220Y-68999218D01*
X113728477Y-68804533D01*
X113760500Y-68602351D01*
X113760500Y-68397647D01*
X113728477Y-68195465D01*
X113725570Y-68186519D01*
X113665218Y-68000775D01*
X113619515Y-67911079D01*
X113572287Y-67818389D01*
X113564556Y-67807748D01*
X113451971Y-67652785D01*
X113307213Y-67508027D01*
X113141613Y-67387714D01*
X113141612Y-67387713D01*
X113141610Y-67387712D01*
X113052184Y-67342147D01*
X112959223Y-67294780D01*
X112764534Y-67231521D01*
X112586565Y-67203334D01*
X112562352Y-67199499D01*
X112357648Y-67199499D01*
X112333435Y-67203334D01*
X112155465Y-67231521D01*
X111960776Y-67294780D01*
X111778386Y-67387714D01*
X111612786Y-67508027D01*
X111468028Y-67652785D01*
X111347715Y-67818385D01*
X111300485Y-67911079D01*
X111252510Y-67961875D01*
X111184689Y-67978670D01*
X111118554Y-67956133D01*
X111079515Y-67911079D01*
X111071081Y-67894526D01*
X111032287Y-67818389D01*
X111024556Y-67807748D01*
X110911971Y-67652785D01*
X110767213Y-67508027D01*
X110601613Y-67387714D01*
X110601612Y-67387713D01*
X110601610Y-67387712D01*
X110512184Y-67342147D01*
X110419223Y-67294780D01*
X110224534Y-67231521D01*
X110046565Y-67203334D01*
X110022352Y-67199499D01*
X109817648Y-67199499D01*
X109793435Y-67203334D01*
X109615465Y-67231521D01*
X109420776Y-67294780D01*
X109238386Y-67387714D01*
X109072786Y-67508027D01*
X108928028Y-67652785D01*
X108807715Y-67818385D01*
X108760485Y-67911079D01*
X108712510Y-67961875D01*
X108644689Y-67978670D01*
X108578554Y-67956133D01*
X108539515Y-67911079D01*
X108531081Y-67894526D01*
X108492287Y-67818389D01*
X108484556Y-67807748D01*
X108371971Y-67652785D01*
X108227213Y-67508027D01*
X108061613Y-67387714D01*
X108061612Y-67387713D01*
X108061610Y-67387712D01*
X107972184Y-67342147D01*
X107879223Y-67294780D01*
X107684534Y-67231521D01*
X107506565Y-67203334D01*
X107482352Y-67199499D01*
X107277648Y-67199499D01*
X107253435Y-67203334D01*
X107075465Y-67231521D01*
X106880776Y-67294780D01*
X106698386Y-67387714D01*
X106532786Y-67508027D01*
X106388028Y-67652785D01*
X106267715Y-67818385D01*
X106174781Y-68000775D01*
X106111522Y-68195464D01*
X106079500Y-68397647D01*
X106079500Y-68602350D01*
X106111522Y-68804533D01*
X106138377Y-68887181D01*
X106140372Y-68957023D01*
X106104292Y-69016856D01*
X106041591Y-69047684D01*
X106020446Y-69049500D01*
X105292006Y-69049500D01*
X105156678Y-69076418D01*
X105156668Y-69076421D01*
X105029196Y-69129221D01*
X105029183Y-69129228D01*
X104914459Y-69205885D01*
X104914455Y-69205888D01*
X104816889Y-69303454D01*
X104816883Y-69303462D01*
X104740227Y-69418186D01*
X104740222Y-69418195D01*
X104713651Y-69482342D01*
X104686772Y-69522569D01*
X103805412Y-70403929D01*
X103765184Y-70430809D01*
X103620823Y-70490604D01*
X103620814Y-70490609D01*
X103489711Y-70578210D01*
X103489707Y-70578213D01*
X103378213Y-70689707D01*
X103378210Y-70689711D01*
X103290609Y-70820814D01*
X103290602Y-70820827D01*
X103230264Y-70966498D01*
X103230261Y-70966510D01*
X103199500Y-71121153D01*
X103199500Y-71278846D01*
X103230261Y-71433489D01*
X103230264Y-71433501D01*
X103278863Y-71550831D01*
X103286332Y-71620301D01*
X103255056Y-71682780D01*
X103194967Y-71718431D01*
X103125142Y-71715937D01*
X103076621Y-71685964D01*
X101441038Y-70050381D01*
X101407553Y-69989058D01*
X101412537Y-69919366D01*
X101454409Y-69863433D01*
X101519873Y-69839016D01*
X101528719Y-69838700D01*
X101605363Y-69838700D01*
X101813480Y-69805737D01*
X101829601Y-69800499D01*
X102013883Y-69740622D01*
X102201632Y-69644959D01*
X102316606Y-69561426D01*
X102372099Y-69521109D01*
X102372101Y-69521106D01*
X102372105Y-69521104D01*
X102521104Y-69372105D01*
X102521106Y-69372101D01*
X102521109Y-69372099D01*
X102575420Y-69297344D01*
X102644959Y-69201632D01*
X102740622Y-69013883D01*
X102805737Y-68813480D01*
X102815244Y-68753454D01*
X102838700Y-68605363D01*
X102838700Y-68394636D01*
X102805737Y-68186519D01*
X102770000Y-68076533D01*
X102740622Y-67986117D01*
X102740620Y-67986114D01*
X102740620Y-67986112D01*
X102691728Y-67890157D01*
X102644959Y-67798368D01*
X102631479Y-67779814D01*
X102521109Y-67627900D01*
X102372099Y-67478890D01*
X102201635Y-67355043D01*
X102201634Y-67355042D01*
X102201632Y-67355041D01*
X102143001Y-67325167D01*
X102013887Y-67259379D01*
X101813480Y-67194262D01*
X101605363Y-67161300D01*
X101605358Y-67161300D01*
X101394642Y-67161300D01*
X101394637Y-67161300D01*
X101186519Y-67194262D01*
X100986112Y-67259379D01*
X100798364Y-67355043D01*
X100627900Y-67478890D01*
X100478890Y-67627900D01*
X100355041Y-67798366D01*
X100340484Y-67826936D01*
X100292509Y-67877732D01*
X100224688Y-67894526D01*
X100158553Y-67871988D01*
X100119516Y-67826936D01*
X100104958Y-67798366D01*
X99981109Y-67627900D01*
X99832099Y-67478890D01*
X99661635Y-67355043D01*
X99661634Y-67355042D01*
X99661632Y-67355041D01*
X99603001Y-67325167D01*
X99473887Y-67259379D01*
X99273480Y-67194262D01*
X99065363Y-67161300D01*
X99065358Y-67161300D01*
X98854642Y-67161300D01*
X98854637Y-67161300D01*
X98646519Y-67194262D01*
X98446112Y-67259379D01*
X98258364Y-67355043D01*
X98087900Y-67478890D01*
X97938890Y-67627900D01*
X97815043Y-67798364D01*
X97719379Y-67986112D01*
X97654262Y-68186519D01*
X97621300Y-68394636D01*
X97621300Y-68605363D01*
X97654263Y-68813480D01*
X97654262Y-68813480D01*
X97719379Y-69013887D01*
X97774603Y-69122268D01*
X97814464Y-69200500D01*
X97815043Y-69201635D01*
X97938890Y-69372099D01*
X98087900Y-69521109D01*
X98208384Y-69608644D01*
X98258368Y-69644959D01*
X98352240Y-69692789D01*
X98446112Y-69740620D01*
X98446114Y-69740620D01*
X98446117Y-69740622D01*
X98531843Y-69768476D01*
X98646519Y-69805737D01*
X98854637Y-69838700D01*
X98854642Y-69838700D01*
X99065355Y-69838700D01*
X99065358Y-69838700D01*
X99160663Y-69823604D01*
X99229952Y-69832558D01*
X99267739Y-69858396D01*
X103297161Y-73887819D01*
X103330646Y-73949142D01*
X103325662Y-74018834D01*
X103283790Y-74074767D01*
X103218326Y-74099184D01*
X103209480Y-74099500D01*
X101331004Y-74099500D01*
X101195677Y-74126418D01*
X101195667Y-74126421D01*
X101068192Y-74179222D01*
X100953454Y-74255887D01*
X99951661Y-75257680D01*
X99890338Y-75291165D01*
X99820646Y-75286181D01*
X99764713Y-75244309D01*
X99749419Y-75217451D01*
X99709397Y-75120826D01*
X99709390Y-75120814D01*
X99621789Y-74989711D01*
X99621786Y-74989707D01*
X99510292Y-74878213D01*
X99510288Y-74878210D01*
X99379185Y-74790609D01*
X99379172Y-74790602D01*
X99234814Y-74730808D01*
X99194585Y-74703928D01*
X92446546Y-67955888D01*
X92446545Y-67955887D01*
X92331807Y-67879222D01*
X92204332Y-67826421D01*
X92204322Y-67826418D01*
X92068996Y-67799500D01*
X92068994Y-67799500D01*
X92068993Y-67799500D01*
X91598963Y-67799500D01*
X91531924Y-67779815D01*
X91498644Y-67748385D01*
X91429187Y-67652785D01*
X91411104Y-67627895D01*
X91262105Y-67478896D01*
X91262099Y-67478890D01*
X91091635Y-67355043D01*
X91091634Y-67355042D01*
X91091632Y-67355041D01*
X91033001Y-67325167D01*
X90903887Y-67259379D01*
X90703480Y-67194262D01*
X90495363Y-67161300D01*
X90495358Y-67161300D01*
X90284642Y-67161300D01*
X90284637Y-67161300D01*
X90076519Y-67194262D01*
X89876112Y-67259379D01*
X89688364Y-67355043D01*
X89517900Y-67478890D01*
X89368890Y-67627900D01*
X89245041Y-67798366D01*
X89230484Y-67826936D01*
X89182509Y-67877732D01*
X89114688Y-67894526D01*
X89048553Y-67871988D01*
X89009516Y-67826936D01*
X88994958Y-67798366D01*
X88871109Y-67627900D01*
X88722099Y-67478890D01*
X88551635Y-67355043D01*
X88551634Y-67355042D01*
X88551632Y-67355041D01*
X88493001Y-67325167D01*
X88363887Y-67259379D01*
X88163480Y-67194262D01*
X87955363Y-67161300D01*
X87955358Y-67161300D01*
X87744642Y-67161300D01*
X87744637Y-67161300D01*
X87536519Y-67194262D01*
X87336112Y-67259379D01*
X87148364Y-67355043D01*
X86977900Y-67478890D01*
X86828890Y-67627900D01*
X86705041Y-67798366D01*
X86690484Y-67826936D01*
X86642509Y-67877732D01*
X86574688Y-67894526D01*
X86508553Y-67871988D01*
X86469516Y-67826936D01*
X86454958Y-67798366D01*
X86331109Y-67627900D01*
X86182105Y-67478896D01*
X86107672Y-67424818D01*
X86061614Y-67391354D01*
X86018949Y-67336026D01*
X86010500Y-67291037D01*
X86010500Y-66841010D01*
X86010500Y-66841007D01*
X86007598Y-66826420D01*
X85983580Y-66705672D01*
X85983023Y-66704328D01*
X85930776Y-66578190D01*
X85930775Y-66578189D01*
X85854112Y-66463454D01*
X85854111Y-66463453D01*
X85302838Y-65912181D01*
X85269353Y-65850858D01*
X85274337Y-65781167D01*
X85316208Y-65725233D01*
X85381673Y-65700816D01*
X85390519Y-65700500D01*
X116458481Y-65700500D01*
X116525520Y-65720185D01*
G37*
%TD.AperFunction*%
%TA.AperFunction,Conductor*%
G36*
X91982860Y-74702126D02*
G01*
X91987939Y-74701210D01*
X92022136Y-74709939D01*
X92072519Y-74730808D01*
X92166503Y-74769737D01*
X92321153Y-74800499D01*
X92321156Y-74800500D01*
X92321158Y-74800500D01*
X92478844Y-74800500D01*
X92478845Y-74800499D01*
X92633497Y-74769737D01*
X92750831Y-74721135D01*
X92820298Y-74713667D01*
X92882778Y-74744942D01*
X92918430Y-74805031D01*
X92915936Y-74874856D01*
X92885963Y-74923378D01*
X91946162Y-75863181D01*
X91884839Y-75896666D01*
X91858481Y-75899500D01*
X82225316Y-75899500D01*
X82177864Y-75890061D01*
X82033501Y-75830264D01*
X82033489Y-75830261D01*
X81878845Y-75799500D01*
X81878842Y-75799500D01*
X81721158Y-75799500D01*
X81721155Y-75799500D01*
X81566510Y-75830261D01*
X81566498Y-75830264D01*
X81420827Y-75890602D01*
X81420814Y-75890609D01*
X81289711Y-75978210D01*
X81289707Y-75978213D01*
X81178213Y-76089707D01*
X81178210Y-76089711D01*
X81090609Y-76220814D01*
X81090602Y-76220827D01*
X81030264Y-76366498D01*
X81030261Y-76366510D01*
X80999500Y-76521153D01*
X80999500Y-76678846D01*
X81030261Y-76833489D01*
X81030264Y-76833501D01*
X81090602Y-76979172D01*
X81090609Y-76979185D01*
X81178210Y-77110288D01*
X81178213Y-77110292D01*
X81289707Y-77221786D01*
X81289711Y-77221789D01*
X81420814Y-77309390D01*
X81420827Y-77309397D01*
X81527199Y-77353457D01*
X81566503Y-77369737D01*
X81721153Y-77400499D01*
X81721156Y-77400500D01*
X81721158Y-77400500D01*
X81878844Y-77400500D01*
X81878845Y-77400499D01*
X82033497Y-77369737D01*
X82108963Y-77338478D01*
X82177864Y-77309939D01*
X82225316Y-77300500D01*
X86472650Y-77300500D01*
X86539689Y-77320185D01*
X86585444Y-77372989D01*
X86595388Y-77442147D01*
X86575752Y-77493391D01*
X86490609Y-77620814D01*
X86490602Y-77620827D01*
X86430264Y-77766498D01*
X86430261Y-77766510D01*
X86399500Y-77921153D01*
X86399500Y-78078846D01*
X86430261Y-78233489D01*
X86430264Y-78233501D01*
X86490602Y-78379172D01*
X86490609Y-78379185D01*
X86578210Y-78510288D01*
X86578213Y-78510292D01*
X86689707Y-78621786D01*
X86689711Y-78621789D01*
X86820814Y-78709390D01*
X86820827Y-78709397D01*
X86958695Y-78766503D01*
X86966503Y-78769737D01*
X87116960Y-78799665D01*
X87121153Y-78800499D01*
X87121156Y-78800500D01*
X87121158Y-78800500D01*
X87278844Y-78800500D01*
X87278845Y-78800499D01*
X87433497Y-78769737D01*
X87508963Y-78738478D01*
X87577864Y-78709939D01*
X87625316Y-78700500D01*
X88105832Y-78700500D01*
X88172871Y-78720185D01*
X88218626Y-78772989D01*
X88228570Y-78842147D01*
X88218330Y-78876656D01*
X88214282Y-78885387D01*
X88190606Y-78920821D01*
X88130263Y-79066503D01*
X88130224Y-79066696D01*
X88128745Y-79069888D01*
X88124203Y-79075068D01*
X88103928Y-79105413D01*
X87146162Y-80063181D01*
X87084839Y-80096666D01*
X87058481Y-80099500D01*
X71931004Y-80099500D01*
X71795677Y-80126418D01*
X71795667Y-80126421D01*
X71668192Y-80179222D01*
X71553454Y-80255887D01*
X71553453Y-80255888D01*
X71512181Y-80297161D01*
X71450858Y-80330646D01*
X71381166Y-80325662D01*
X71325233Y-80283790D01*
X71300816Y-80218326D01*
X71300500Y-80209480D01*
X71300500Y-79302190D01*
X71320185Y-79235151D01*
X71372989Y-79189396D01*
X71442147Y-79179452D01*
X71505703Y-79208477D01*
X71539061Y-79254738D01*
X71590602Y-79379172D01*
X71590609Y-79379185D01*
X71678210Y-79510288D01*
X71678213Y-79510292D01*
X71789707Y-79621786D01*
X71789711Y-79621789D01*
X71920814Y-79709390D01*
X71920827Y-79709397D01*
X72058683Y-79766498D01*
X72066503Y-79769737D01*
X72221153Y-79800499D01*
X72221156Y-79800500D01*
X72221158Y-79800500D01*
X72378844Y-79800500D01*
X72378845Y-79800499D01*
X72533497Y-79769737D01*
X72679179Y-79709394D01*
X72810289Y-79621789D01*
X72921789Y-79510289D01*
X73009394Y-79379179D01*
X73069737Y-79233497D01*
X73090352Y-79129854D01*
X73122735Y-79067948D01*
X73124231Y-79066424D01*
X75620914Y-76569742D01*
X75682235Y-76536259D01*
X75751927Y-76541243D01*
X75807860Y-76583115D01*
X75827819Y-76627869D01*
X75828494Y-76627665D01*
X75830123Y-76633035D01*
X75830210Y-76633230D01*
X75830262Y-76633495D01*
X75830264Y-76633501D01*
X75890602Y-76779172D01*
X75890609Y-76779185D01*
X75978210Y-76910288D01*
X75978213Y-76910292D01*
X76089707Y-77021786D01*
X76089711Y-77021789D01*
X76220814Y-77109390D01*
X76220827Y-77109397D01*
X76304643Y-77144114D01*
X76366503Y-77169737D01*
X76521153Y-77200499D01*
X76521156Y-77200500D01*
X76521158Y-77200500D01*
X76678844Y-77200500D01*
X76678845Y-77200499D01*
X76833497Y-77169737D01*
X76979179Y-77109394D01*
X77110289Y-77021789D01*
X77221789Y-76910289D01*
X77309394Y-76779179D01*
X77309395Y-76779176D01*
X77309397Y-76779173D01*
X77350955Y-76678842D01*
X77369192Y-76634810D01*
X77396069Y-76594586D01*
X79253838Y-74736819D01*
X79315161Y-74703334D01*
X79341519Y-74700500D01*
X91974684Y-74700500D01*
X91982860Y-74702126D01*
G37*
%TD.AperFunction*%
%TA.AperFunction,Conductor*%
G36*
X76886480Y-67220185D02*
G01*
X76932235Y-67272989D01*
X76942179Y-67342147D01*
X76913154Y-67405703D01*
X76892326Y-67424818D01*
X76817901Y-67478890D01*
X76817896Y-67478894D01*
X76668890Y-67627900D01*
X76545043Y-67798364D01*
X76449379Y-67986112D01*
X76384262Y-68186519D01*
X76351300Y-68394636D01*
X76351300Y-68605363D01*
X76384263Y-68813480D01*
X76384262Y-68813480D01*
X76449379Y-69013887D01*
X76504603Y-69122268D01*
X76544464Y-69200500D01*
X76545043Y-69201635D01*
X76668890Y-69372099D01*
X76817900Y-69521109D01*
X76938384Y-69608644D01*
X76988368Y-69644959D01*
X77082240Y-69692789D01*
X77176112Y-69740620D01*
X77176114Y-69740620D01*
X77176117Y-69740622D01*
X77261843Y-69768476D01*
X77376519Y-69805737D01*
X77584637Y-69838700D01*
X77584642Y-69838700D01*
X77795363Y-69838700D01*
X78003480Y-69805737D01*
X78019601Y-69800499D01*
X78203883Y-69740622D01*
X78391632Y-69644959D01*
X78506606Y-69561426D01*
X78562099Y-69521109D01*
X78562101Y-69521106D01*
X78562105Y-69521104D01*
X78711104Y-69372105D01*
X78711106Y-69372101D01*
X78711109Y-69372099D01*
X78834956Y-69201636D01*
X78834957Y-69201635D01*
X78834959Y-69201632D01*
X78849515Y-69173063D01*
X78897490Y-69122268D01*
X78965311Y-69105473D01*
X79031446Y-69128010D01*
X79070485Y-69173064D01*
X79085043Y-69201636D01*
X79208890Y-69372099D01*
X79208896Y-69372105D01*
X79357895Y-69521104D01*
X79478385Y-69608645D01*
X79521051Y-69663974D01*
X79529500Y-69708963D01*
X79529500Y-70628480D01*
X79509815Y-70695519D01*
X79493181Y-70716161D01*
X71923176Y-78286165D01*
X71904386Y-78301586D01*
X71789711Y-78378210D01*
X71789707Y-78378213D01*
X71678213Y-78489707D01*
X71678210Y-78489711D01*
X71590609Y-78620814D01*
X71590602Y-78620827D01*
X71539061Y-78745261D01*
X71495220Y-78799665D01*
X71428926Y-78821730D01*
X71361227Y-78804451D01*
X71313616Y-78753314D01*
X71300500Y-78697809D01*
X71300500Y-69541519D01*
X71320185Y-69474480D01*
X71336819Y-69453838D01*
X72587819Y-68202838D01*
X72649142Y-68169353D01*
X72718834Y-68174337D01*
X72774767Y-68216209D01*
X72799184Y-68281673D01*
X72799500Y-68290519D01*
X72799500Y-72074684D01*
X72790061Y-72122136D01*
X72730264Y-72266498D01*
X72730261Y-72266510D01*
X72699500Y-72421153D01*
X72699500Y-72578846D01*
X72730261Y-72733489D01*
X72730264Y-72733501D01*
X72790602Y-72879172D01*
X72790609Y-72879185D01*
X72878210Y-73010288D01*
X72878213Y-73010292D01*
X72989707Y-73121786D01*
X72989711Y-73121789D01*
X73120814Y-73209390D01*
X73120827Y-73209397D01*
X73266498Y-73269735D01*
X73266503Y-73269737D01*
X73414542Y-73299184D01*
X73421153Y-73300499D01*
X73421156Y-73300500D01*
X73421158Y-73300500D01*
X73578844Y-73300500D01*
X73578845Y-73300499D01*
X73733497Y-73269737D01*
X73879179Y-73209394D01*
X74010289Y-73121789D01*
X74121789Y-73010289D01*
X74209394Y-72879179D01*
X74269737Y-72733497D01*
X74300500Y-72578842D01*
X74300500Y-72421158D01*
X74300500Y-72421155D01*
X74300499Y-72421153D01*
X74281038Y-72323319D01*
X74269737Y-72266503D01*
X74256062Y-72233489D01*
X74209939Y-72122136D01*
X74200500Y-72074684D01*
X74200500Y-67841519D01*
X74220185Y-67774480D01*
X74236819Y-67753838D01*
X74753838Y-67236819D01*
X74815161Y-67203334D01*
X74841519Y-67200500D01*
X76819441Y-67200500D01*
X76886480Y-67220185D01*
G37*
%TD.AperFunction*%
%TA.AperFunction,Conductor*%
G36*
X137442539Y-63520185D02*
G01*
X137488294Y-63572989D01*
X137499500Y-63624500D01*
X137499500Y-116375500D01*
X137479815Y-116442539D01*
X137427011Y-116488294D01*
X137375500Y-116499500D01*
X69624500Y-116499500D01*
X69557461Y-116479815D01*
X69511706Y-116427011D01*
X69500500Y-116375500D01*
X69500500Y-114668996D01*
X69899499Y-114668996D01*
X69926418Y-114804322D01*
X69926421Y-114804332D01*
X69979222Y-114931807D01*
X70055887Y-115046545D01*
X70953454Y-115944112D01*
X71068192Y-116020777D01*
X71195667Y-116073578D01*
X71195672Y-116073580D01*
X71195676Y-116073580D01*
X71195677Y-116073581D01*
X71331003Y-116100500D01*
X71331006Y-116100500D01*
X113468996Y-116100500D01*
X113560040Y-116082389D01*
X113604328Y-116073580D01*
X113668069Y-116047177D01*
X113731807Y-116020777D01*
X113731808Y-116020776D01*
X113731811Y-116020775D01*
X113846543Y-115944114D01*
X115075384Y-114715272D01*
X134723500Y-114715272D01*
X134723500Y-114884727D01*
X134750007Y-115052082D01*
X134802366Y-115213230D01*
X134802367Y-115213233D01*
X134879294Y-115364209D01*
X134978892Y-115501293D01*
X135098707Y-115621108D01*
X135235791Y-115720706D01*
X135309840Y-115758435D01*
X135386766Y-115797632D01*
X135386769Y-115797633D01*
X135467343Y-115823812D01*
X135547919Y-115849993D01*
X135625429Y-115862269D01*
X135715273Y-115876500D01*
X135715278Y-115876500D01*
X135884727Y-115876500D01*
X135965858Y-115863649D01*
X136052081Y-115849993D01*
X136213233Y-115797632D01*
X136364209Y-115720706D01*
X136501293Y-115621108D01*
X136621108Y-115501293D01*
X136720706Y-115364209D01*
X136797632Y-115213233D01*
X136849993Y-115052081D01*
X136869042Y-114931811D01*
X136876500Y-114884727D01*
X136876500Y-114715272D01*
X136851566Y-114557853D01*
X136849993Y-114547919D01*
X136797632Y-114386767D01*
X136797632Y-114386766D01*
X136720705Y-114235790D01*
X136710070Y-114221152D01*
X136621108Y-114098707D01*
X136501293Y-113978892D01*
X136364209Y-113879294D01*
X136342414Y-113868189D01*
X136213233Y-113802367D01*
X136213230Y-113802366D01*
X136052082Y-113750007D01*
X135884727Y-113723500D01*
X135884722Y-113723500D01*
X135715278Y-113723500D01*
X135715273Y-113723500D01*
X135547917Y-113750007D01*
X135386769Y-113802366D01*
X135386766Y-113802367D01*
X135235790Y-113879294D01*
X135098705Y-113978893D01*
X134978893Y-114098705D01*
X134879294Y-114235790D01*
X134802367Y-114386766D01*
X134802366Y-114386769D01*
X134750007Y-114547917D01*
X134723500Y-114715272D01*
X115075384Y-114715272D01*
X115794586Y-113996069D01*
X115834810Y-113969192D01*
X115889435Y-113946566D01*
X115979173Y-113909397D01*
X115979176Y-113909395D01*
X115979179Y-113909394D01*
X116110289Y-113821789D01*
X116221789Y-113710289D01*
X116309394Y-113579179D01*
X116369737Y-113433497D01*
X116400500Y-113278842D01*
X116400500Y-113121158D01*
X116400500Y-113121155D01*
X116400499Y-113121153D01*
X116396964Y-113103381D01*
X116369737Y-112966503D01*
X116346590Y-112910620D01*
X116309397Y-112820827D01*
X116309390Y-112820814D01*
X116221789Y-112689711D01*
X116221786Y-112689707D01*
X116110292Y-112578213D01*
X116110288Y-112578210D01*
X115979185Y-112490609D01*
X115979172Y-112490602D01*
X115833501Y-112430264D01*
X115833489Y-112430261D01*
X115678845Y-112399500D01*
X115678842Y-112399500D01*
X115521158Y-112399500D01*
X115521155Y-112399500D01*
X115366510Y-112430261D01*
X115366498Y-112430264D01*
X115220827Y-112490602D01*
X115220814Y-112490609D01*
X115089711Y-112578210D01*
X115089707Y-112578213D01*
X114978213Y-112689707D01*
X114978210Y-112689711D01*
X114890609Y-112820814D01*
X114890604Y-112820823D01*
X114830809Y-112965184D01*
X114803929Y-113005412D01*
X113146162Y-114663181D01*
X113084839Y-114696666D01*
X113058481Y-114699500D01*
X95986555Y-114699500D01*
X95919516Y-114679815D01*
X95873761Y-114627011D01*
X95863817Y-114557853D01*
X95868840Y-114539588D01*
X95867969Y-114539324D01*
X95869731Y-114533509D01*
X95869737Y-114533497D01*
X95900500Y-114378842D01*
X95900500Y-114221158D01*
X95900500Y-114216048D01*
X95900499Y-114216022D01*
X95900499Y-114131005D01*
X95900498Y-114131001D01*
X95887406Y-114065184D01*
X95873580Y-113995672D01*
X95820774Y-113868189D01*
X95820772Y-113868186D01*
X95820770Y-113868182D01*
X95744113Y-113753456D01*
X95646543Y-113655886D01*
X95531817Y-113579229D01*
X95531807Y-113579224D01*
X95404328Y-113526420D01*
X95404320Y-113526418D01*
X95268998Y-113499501D01*
X95268994Y-113499501D01*
X95184976Y-113499501D01*
X95184956Y-113499500D01*
X95178842Y-113499500D01*
X95021158Y-113499500D01*
X95021155Y-113499500D01*
X94866510Y-113530261D01*
X94866498Y-113530264D01*
X94720827Y-113590602D01*
X94720814Y-113590609D01*
X94589711Y-113678210D01*
X94589707Y-113678213D01*
X94478213Y-113789707D01*
X94478210Y-113789711D01*
X94390609Y-113920814D01*
X94390604Y-113920823D01*
X94330809Y-114065184D01*
X94303929Y-114105412D01*
X93746162Y-114663181D01*
X93684839Y-114696666D01*
X93658481Y-114699500D01*
X83165232Y-114699500D01*
X83098193Y-114679815D01*
X83052438Y-114627011D01*
X83042494Y-114557853D01*
X83054747Y-114519206D01*
X83089376Y-114451240D01*
X83089379Y-114451235D01*
X83146555Y-114275264D01*
X83175500Y-114092514D01*
X83175500Y-113907486D01*
X83146555Y-113724736D01*
X83102973Y-113590602D01*
X83089380Y-113548767D01*
X83089379Y-113548764D01*
X83005377Y-113383903D01*
X82999999Y-113376501D01*
X82896621Y-113234213D01*
X82765787Y-113103379D01*
X82616096Y-112994622D01*
X82616084Y-112994616D01*
X82451235Y-112910620D01*
X82451232Y-112910619D01*
X82275265Y-112853445D01*
X82132972Y-112830908D01*
X82092514Y-112824500D01*
X81907486Y-112824500D01*
X81867028Y-112830908D01*
X81724734Y-112853445D01*
X81548767Y-112910619D01*
X81548764Y-112910620D01*
X81383903Y-112994622D01*
X81324543Y-113037750D01*
X81234213Y-113103379D01*
X81234211Y-113103381D01*
X81234210Y-113103381D01*
X81103381Y-113234210D01*
X81100314Y-113238432D01*
X81044981Y-113281094D01*
X80975367Y-113287069D01*
X80913574Y-113254459D01*
X80899686Y-113238432D01*
X80896621Y-113234213D01*
X80765787Y-113103379D01*
X80616096Y-112994622D01*
X80616084Y-112994616D01*
X80451235Y-112910620D01*
X80451232Y-112910619D01*
X80275265Y-112853445D01*
X80132972Y-112830908D01*
X80092514Y-112824500D01*
X79907486Y-112824500D01*
X79867028Y-112830908D01*
X79724734Y-112853445D01*
X79548767Y-112910619D01*
X79548764Y-112910620D01*
X79383903Y-112994622D01*
X79324543Y-113037750D01*
X79234213Y-113103379D01*
X79234211Y-113103381D01*
X79234210Y-113103381D01*
X79103381Y-113234210D01*
X79100314Y-113238432D01*
X79044981Y-113281094D01*
X78975367Y-113287069D01*
X78913574Y-113254459D01*
X78913007Y-113253904D01*
X78905703Y-113246713D01*
X78896621Y-113234213D01*
X78765787Y-113103379D01*
X78744114Y-113087632D01*
X78737507Y-113081128D01*
X78724849Y-113058372D01*
X78708948Y-113037750D01*
X78706689Y-113025724D01*
X78703544Y-113020069D01*
X78704071Y-113011782D01*
X78700500Y-112992764D01*
X78700500Y-111397648D01*
X100699500Y-111397648D01*
X100699500Y-111602351D01*
X100731522Y-111804534D01*
X100794781Y-111999223D01*
X100856716Y-112120775D01*
X100883620Y-112173578D01*
X100887715Y-112181613D01*
X101008028Y-112347213D01*
X101152786Y-112491971D01*
X101307749Y-112604556D01*
X101318390Y-112612287D01*
X101434607Y-112671503D01*
X101500776Y-112705218D01*
X101500778Y-112705218D01*
X101500781Y-112705220D01*
X101605137Y-112739127D01*
X101695465Y-112768477D01*
X101796557Y-112784488D01*
X101897648Y-112800500D01*
X101897649Y-112800500D01*
X102102351Y-112800500D01*
X102102352Y-112800500D01*
X102304534Y-112768477D01*
X102499219Y-112705220D01*
X102681610Y-112612287D01*
X102774590Y-112544732D01*
X102847213Y-112491971D01*
X102847215Y-112491968D01*
X102847219Y-112491966D01*
X102991966Y-112347219D01*
X102991968Y-112347215D01*
X102991971Y-112347213D01*
X103092424Y-112208949D01*
X103112287Y-112181610D01*
X103205220Y-111999219D01*
X103268477Y-111804534D01*
X103300500Y-111602352D01*
X103300500Y-111397648D01*
X109699500Y-111397648D01*
X109699500Y-111602351D01*
X109731522Y-111804534D01*
X109794781Y-111999223D01*
X109856716Y-112120775D01*
X109883620Y-112173578D01*
X109887715Y-112181613D01*
X110008028Y-112347213D01*
X110152786Y-112491971D01*
X110307749Y-112604556D01*
X110318390Y-112612287D01*
X110434607Y-112671503D01*
X110500776Y-112705218D01*
X110500778Y-112705218D01*
X110500781Y-112705220D01*
X110605137Y-112739127D01*
X110695465Y-112768477D01*
X110796557Y-112784488D01*
X110897648Y-112800500D01*
X110897649Y-112800500D01*
X111102351Y-112800500D01*
X111102352Y-112800500D01*
X111304534Y-112768477D01*
X111499219Y-112705220D01*
X111681610Y-112612287D01*
X111774590Y-112544732D01*
X111847213Y-112491971D01*
X111847215Y-112491968D01*
X111847219Y-112491966D01*
X111991966Y-112347219D01*
X111991968Y-112347215D01*
X111991971Y-112347213D01*
X112112284Y-112181614D01*
X112112285Y-112181613D01*
X112112287Y-112181610D01*
X112159516Y-112088917D01*
X112207489Y-112038123D01*
X112275310Y-112021328D01*
X112341445Y-112043865D01*
X112380485Y-112088919D01*
X112427715Y-112181614D01*
X112548028Y-112347213D01*
X112692786Y-112491971D01*
X112847749Y-112604556D01*
X112858390Y-112612287D01*
X112974607Y-112671503D01*
X113040776Y-112705218D01*
X113040778Y-112705218D01*
X113040781Y-112705220D01*
X113145137Y-112739127D01*
X113235465Y-112768477D01*
X113336557Y-112784488D01*
X113437648Y-112800500D01*
X113437649Y-112800500D01*
X113642351Y-112800500D01*
X113642352Y-112800500D01*
X113844534Y-112768477D01*
X114039219Y-112705220D01*
X114221610Y-112612287D01*
X114314590Y-112544732D01*
X114387213Y-112491971D01*
X114387215Y-112491968D01*
X114387219Y-112491966D01*
X114531966Y-112347219D01*
X114531968Y-112347215D01*
X114531971Y-112347213D01*
X114632424Y-112208949D01*
X114652287Y-112181610D01*
X114745220Y-111999219D01*
X114808477Y-111804534D01*
X114840500Y-111602352D01*
X114840500Y-111397648D01*
X121199500Y-111397648D01*
X121199500Y-111602351D01*
X121231522Y-111804534D01*
X121294781Y-111999223D01*
X121356716Y-112120775D01*
X121383620Y-112173578D01*
X121387715Y-112181613D01*
X121508028Y-112347213D01*
X121652786Y-112491971D01*
X121807749Y-112604556D01*
X121818390Y-112612287D01*
X121934607Y-112671503D01*
X122000776Y-112705218D01*
X122000778Y-112705218D01*
X122000781Y-112705220D01*
X122105137Y-112739127D01*
X122195465Y-112768477D01*
X122296557Y-112784488D01*
X122397648Y-112800500D01*
X122397649Y-112800500D01*
X122602351Y-112800500D01*
X122602352Y-112800500D01*
X122804534Y-112768477D01*
X122999219Y-112705220D01*
X123181610Y-112612287D01*
X123274590Y-112544732D01*
X123347213Y-112491971D01*
X123347215Y-112491968D01*
X123347219Y-112491966D01*
X123491966Y-112347219D01*
X123491968Y-112347215D01*
X123491971Y-112347213D01*
X123592424Y-112208949D01*
X123612287Y-112181610D01*
X123705220Y-111999219D01*
X123768477Y-111804534D01*
X123800500Y-111602352D01*
X123800500Y-111397648D01*
X123768477Y-111195466D01*
X123705220Y-111000781D01*
X123705218Y-111000778D01*
X123705218Y-111000776D01*
X123659515Y-110911080D01*
X123612287Y-110818390D01*
X123572176Y-110763181D01*
X123491971Y-110652786D01*
X123347213Y-110508028D01*
X123181613Y-110387715D01*
X123181612Y-110387714D01*
X123181610Y-110387713D01*
X123124653Y-110358691D01*
X122999223Y-110294781D01*
X122804534Y-110231522D01*
X122629995Y-110203878D01*
X122602352Y-110199500D01*
X122397648Y-110199500D01*
X122373329Y-110203351D01*
X122195465Y-110231522D01*
X122000776Y-110294781D01*
X121818386Y-110387715D01*
X121652786Y-110508028D01*
X121508028Y-110652786D01*
X121387715Y-110818386D01*
X121294781Y-111000776D01*
X121231522Y-111195465D01*
X121199500Y-111397648D01*
X114840500Y-111397648D01*
X114808477Y-111195466D01*
X114745220Y-111000781D01*
X114745218Y-111000778D01*
X114745218Y-111000776D01*
X114699515Y-110911080D01*
X114652287Y-110818390D01*
X114612176Y-110763181D01*
X114531971Y-110652786D01*
X114387213Y-110508028D01*
X114221613Y-110387715D01*
X114221612Y-110387714D01*
X114221610Y-110387713D01*
X114164653Y-110358691D01*
X114039223Y-110294781D01*
X113844534Y-110231522D01*
X113669995Y-110203878D01*
X113642352Y-110199500D01*
X113437648Y-110199500D01*
X113413329Y-110203351D01*
X113235465Y-110231522D01*
X113040776Y-110294781D01*
X112858386Y-110387715D01*
X112692786Y-110508028D01*
X112548028Y-110652786D01*
X112427715Y-110818386D01*
X112380485Y-110911080D01*
X112332510Y-110961876D01*
X112264689Y-110978671D01*
X112198554Y-110956134D01*
X112159515Y-110911080D01*
X112158883Y-110909840D01*
X112112287Y-110818390D01*
X112072176Y-110763181D01*
X111991971Y-110652786D01*
X111847213Y-110508028D01*
X111681613Y-110387715D01*
X111681612Y-110387714D01*
X111681610Y-110387713D01*
X111624653Y-110358691D01*
X111499223Y-110294781D01*
X111304534Y-110231522D01*
X111129995Y-110203878D01*
X111102352Y-110199500D01*
X110897648Y-110199500D01*
X110873329Y-110203351D01*
X110695465Y-110231522D01*
X110500776Y-110294781D01*
X110318386Y-110387715D01*
X110152786Y-110508028D01*
X110008028Y-110652786D01*
X109887715Y-110818386D01*
X109794781Y-111000776D01*
X109731522Y-111195465D01*
X109699500Y-111397648D01*
X103300500Y-111397648D01*
X103268477Y-111195466D01*
X103205220Y-111000781D01*
X103205218Y-111000778D01*
X103205218Y-111000776D01*
X103159515Y-110911080D01*
X103112287Y-110818390D01*
X103072176Y-110763181D01*
X102991971Y-110652786D01*
X102847213Y-110508028D01*
X102681613Y-110387715D01*
X102681612Y-110387714D01*
X102681610Y-110387713D01*
X102624653Y-110358691D01*
X102499223Y-110294781D01*
X102304534Y-110231522D01*
X102129995Y-110203878D01*
X102102352Y-110199500D01*
X101897648Y-110199500D01*
X101873329Y-110203351D01*
X101695465Y-110231522D01*
X101500776Y-110294781D01*
X101318386Y-110387715D01*
X101152786Y-110508028D01*
X101008028Y-110652786D01*
X100887715Y-110818386D01*
X100794781Y-111000776D01*
X100731522Y-111195465D01*
X100699500Y-111397648D01*
X78700500Y-111397648D01*
X78700500Y-109301518D01*
X78720185Y-109234479D01*
X78736814Y-109213842D01*
X83133852Y-104816803D01*
X83195173Y-104783320D01*
X83240929Y-104782013D01*
X83295395Y-104790639D01*
X83357648Y-104800500D01*
X83357649Y-104800500D01*
X83562351Y-104800500D01*
X83562352Y-104800500D01*
X83764534Y-104768477D01*
X83959219Y-104705220D01*
X84141610Y-104612287D01*
X84234590Y-104544732D01*
X84307213Y-104491971D01*
X84307215Y-104491968D01*
X84307219Y-104491966D01*
X84451966Y-104347219D01*
X84451968Y-104347215D01*
X84451971Y-104347213D01*
X84572284Y-104181614D01*
X84572285Y-104181613D01*
X84572287Y-104181610D01*
X84619516Y-104088917D01*
X84667489Y-104038123D01*
X84735310Y-104021328D01*
X84801445Y-104043865D01*
X84840483Y-104088917D01*
X84850187Y-104107961D01*
X84887715Y-104181614D01*
X85008028Y-104347213D01*
X85152786Y-104491971D01*
X85248385Y-104561426D01*
X85318390Y-104612287D01*
X85409051Y-104658481D01*
X85500776Y-104705218D01*
X85500778Y-104705218D01*
X85500781Y-104705220D01*
X85563258Y-104725520D01*
X85695459Y-104768475D01*
X85695460Y-104768475D01*
X85695466Y-104768477D01*
X85753526Y-104777672D01*
X85816658Y-104807600D01*
X85821807Y-104812464D01*
X88814298Y-107804955D01*
X88847783Y-107866278D01*
X88848882Y-107904514D01*
X88849882Y-107904593D01*
X88849500Y-107909449D01*
X88849500Y-108090551D01*
X88877829Y-108269410D01*
X88933787Y-108441636D01*
X88933788Y-108441639D01*
X89016006Y-108602997D01*
X89122441Y-108749494D01*
X89122445Y-108749499D01*
X89250500Y-108877554D01*
X89250505Y-108877558D01*
X89378287Y-108970396D01*
X89397006Y-108983996D01*
X89502484Y-109037740D01*
X89558360Y-109066211D01*
X89558363Y-109066212D01*
X89630675Y-109089707D01*
X89730591Y-109122171D01*
X89813429Y-109135291D01*
X89909449Y-109150500D01*
X89909454Y-109150500D01*
X90090551Y-109150500D01*
X90177259Y-109136765D01*
X90269409Y-109122171D01*
X90441639Y-109066211D01*
X90602994Y-108983996D01*
X90749501Y-108877553D01*
X90877553Y-108749501D01*
X90983996Y-108602994D01*
X91066211Y-108441639D01*
X91122171Y-108269409D01*
X91137958Y-108169735D01*
X91150500Y-108090551D01*
X91150500Y-107909448D01*
X91133786Y-107803928D01*
X91122171Y-107730591D01*
X91081148Y-107604332D01*
X91066212Y-107558363D01*
X91066211Y-107558360D01*
X91020676Y-107468994D01*
X90983996Y-107397006D01*
X90940267Y-107336818D01*
X90877558Y-107250505D01*
X90877554Y-107250500D01*
X90749499Y-107122445D01*
X90749494Y-107122441D01*
X90602997Y-107016006D01*
X90602996Y-107016005D01*
X90602994Y-107016004D01*
X90551300Y-106989664D01*
X90441639Y-106933788D01*
X90441636Y-106933787D01*
X90269410Y-106877829D01*
X90090551Y-106849500D01*
X90090546Y-106849500D01*
X89909454Y-106849500D01*
X89909449Y-106849500D01*
X89904593Y-106849882D01*
X89904454Y-106848120D01*
X89842699Y-106840117D01*
X89804955Y-106814298D01*
X88259653Y-105268996D01*
X115299499Y-105268996D01*
X115326418Y-105404322D01*
X115326421Y-105404332D01*
X115379222Y-105531807D01*
X115455887Y-105646545D01*
X115455888Y-105646546D01*
X116803928Y-106994585D01*
X116830808Y-107034814D01*
X116890602Y-107179172D01*
X116890609Y-107179185D01*
X116978210Y-107310288D01*
X116978213Y-107310292D01*
X117089707Y-107421786D01*
X117089711Y-107421789D01*
X117220814Y-107509390D01*
X117220827Y-107509397D01*
X117366498Y-107569735D01*
X117366503Y-107569737D01*
X117521153Y-107600499D01*
X117521156Y-107600500D01*
X117521158Y-107600500D01*
X117678844Y-107600500D01*
X117678845Y-107600499D01*
X117833497Y-107569737D01*
X117979179Y-107509394D01*
X118110289Y-107421789D01*
X118221789Y-107310289D01*
X118309394Y-107179179D01*
X118369737Y-107033497D01*
X118400500Y-106878842D01*
X118400500Y-106721158D01*
X118400500Y-106721155D01*
X118400499Y-106721153D01*
X118382420Y-106630263D01*
X118369737Y-106566503D01*
X118369735Y-106566498D01*
X118309397Y-106420827D01*
X118309390Y-106420814D01*
X118221789Y-106289711D01*
X118221786Y-106289707D01*
X118110292Y-106178213D01*
X118110288Y-106178210D01*
X117979185Y-106090609D01*
X117979172Y-106090602D01*
X117834814Y-106030808D01*
X117794585Y-106003928D01*
X116736819Y-104946162D01*
X116703334Y-104884839D01*
X116700500Y-104858481D01*
X116700500Y-104511990D01*
X117024499Y-104511990D01*
X117064292Y-104712038D01*
X117064295Y-104712048D01*
X117142348Y-104900486D01*
X117142355Y-104900499D01*
X117255674Y-105070092D01*
X117255677Y-105070096D01*
X117399903Y-105214322D01*
X117399907Y-105214325D01*
X117569500Y-105327644D01*
X117569513Y-105327651D01*
X117754615Y-105404322D01*
X117757956Y-105405706D01*
X117757960Y-105405706D01*
X117757961Y-105405707D01*
X117958009Y-105445500D01*
X117958012Y-105445500D01*
X118161990Y-105445500D01*
X118296579Y-105418727D01*
X118362044Y-105405706D01*
X118550493Y-105327648D01*
X118720093Y-105214325D01*
X118864325Y-105070093D01*
X118977648Y-104900493D01*
X119055706Y-104712044D01*
X119078279Y-104598562D01*
X119095500Y-104511990D01*
X119564499Y-104511990D01*
X119604292Y-104712038D01*
X119604295Y-104712048D01*
X119682348Y-104900486D01*
X119682355Y-104900499D01*
X119795674Y-105070092D01*
X119795677Y-105070096D01*
X119939903Y-105214322D01*
X119939907Y-105214325D01*
X120109500Y-105327644D01*
X120109513Y-105327651D01*
X120294615Y-105404322D01*
X120297956Y-105405706D01*
X120297960Y-105405706D01*
X120297961Y-105405707D01*
X120498009Y-105445500D01*
X120498012Y-105445500D01*
X120701990Y-105445500D01*
X120836579Y-105418727D01*
X120902044Y-105405706D01*
X121090493Y-105327648D01*
X121260093Y-105214325D01*
X121404325Y-105070093D01*
X121517648Y-104900493D01*
X121595706Y-104712044D01*
X121618279Y-104598562D01*
X121635500Y-104511990D01*
X121635500Y-104308009D01*
X121595707Y-104107961D01*
X121595706Y-104107960D01*
X121595706Y-104107956D01*
X121569159Y-104043865D01*
X121517651Y-103919513D01*
X121517644Y-103919500D01*
X121404325Y-103749907D01*
X121404322Y-103749903D01*
X121260096Y-103605677D01*
X121260092Y-103605674D01*
X121090499Y-103492355D01*
X121090486Y-103492348D01*
X120902048Y-103414295D01*
X120902038Y-103414292D01*
X120701990Y-103374500D01*
X120701988Y-103374500D01*
X120498012Y-103374500D01*
X120498010Y-103374500D01*
X120297961Y-103414292D01*
X120297951Y-103414295D01*
X120109513Y-103492348D01*
X120109500Y-103492355D01*
X119939907Y-103605674D01*
X119939903Y-103605677D01*
X119795677Y-103749903D01*
X119795674Y-103749907D01*
X119682355Y-103919500D01*
X119682348Y-103919513D01*
X119604295Y-104107951D01*
X119604292Y-104107961D01*
X119564500Y-104308009D01*
X119564500Y-104308012D01*
X119564500Y-104511988D01*
X119564500Y-104511990D01*
X119564499Y-104511990D01*
X119095500Y-104511990D01*
X119095500Y-104308009D01*
X119055707Y-104107961D01*
X119055706Y-104107960D01*
X119055706Y-104107956D01*
X119029159Y-104043865D01*
X118977651Y-103919513D01*
X118977644Y-103919500D01*
X118864325Y-103749907D01*
X118864322Y-103749903D01*
X118720096Y-103605677D01*
X118720092Y-103605674D01*
X118550499Y-103492355D01*
X118550486Y-103492348D01*
X118362048Y-103414295D01*
X118362038Y-103414292D01*
X118161990Y-103374500D01*
X118161988Y-103374500D01*
X117958012Y-103374500D01*
X117958010Y-103374500D01*
X117757961Y-103414292D01*
X117757951Y-103414295D01*
X117569513Y-103492348D01*
X117569500Y-103492355D01*
X117399907Y-103605674D01*
X117399903Y-103605677D01*
X117255677Y-103749903D01*
X117255674Y-103749907D01*
X117142355Y-103919500D01*
X117142348Y-103919513D01*
X117064295Y-104107951D01*
X117064292Y-104107961D01*
X117024500Y-104308009D01*
X117024500Y-104308012D01*
X117024500Y-104511988D01*
X117024500Y-104511990D01*
X117024499Y-104511990D01*
X116700500Y-104511990D01*
X116700500Y-103541519D01*
X116720185Y-103474480D01*
X116736819Y-103453838D01*
X118453838Y-101736819D01*
X118515161Y-101703334D01*
X118541519Y-101700500D01*
X119892297Y-101700500D01*
X119959336Y-101720185D01*
X120005091Y-101772989D01*
X120015035Y-101842147D01*
X120013914Y-101848691D01*
X119999500Y-101921153D01*
X119999500Y-102078846D01*
X120030261Y-102233489D01*
X120030264Y-102233501D01*
X120090602Y-102379172D01*
X120090609Y-102379185D01*
X120178210Y-102510288D01*
X120178213Y-102510292D01*
X120289707Y-102621786D01*
X120289711Y-102621789D01*
X120420814Y-102709390D01*
X120420827Y-102709397D01*
X120487031Y-102736819D01*
X120566503Y-102769737D01*
X120721153Y-102800499D01*
X120721156Y-102800500D01*
X120721158Y-102800500D01*
X120878844Y-102800500D01*
X120878845Y-102800499D01*
X121033497Y-102769737D01*
X121112969Y-102736819D01*
X121177864Y-102709939D01*
X121225316Y-102700500D01*
X123258481Y-102700500D01*
X123325520Y-102720185D01*
X123346162Y-102736819D01*
X124003928Y-103394585D01*
X124008559Y-103401516D01*
X124012799Y-103404460D01*
X124030808Y-103434814D01*
X124076203Y-103544409D01*
X124083672Y-103613878D01*
X124052396Y-103676357D01*
X123992307Y-103712009D01*
X123922482Y-103709515D01*
X123873961Y-103679542D01*
X123800096Y-103605677D01*
X123800092Y-103605674D01*
X123630499Y-103492355D01*
X123630486Y-103492348D01*
X123442048Y-103414295D01*
X123442038Y-103414292D01*
X123241990Y-103374500D01*
X123241988Y-103374500D01*
X123038012Y-103374500D01*
X123038010Y-103374500D01*
X122837961Y-103414292D01*
X122837951Y-103414295D01*
X122649513Y-103492348D01*
X122649500Y-103492355D01*
X122479907Y-103605674D01*
X122479903Y-103605677D01*
X122335677Y-103749903D01*
X122335674Y-103749907D01*
X122222355Y-103919500D01*
X122222348Y-103919513D01*
X122144295Y-104107951D01*
X122144292Y-104107961D01*
X122104500Y-104308009D01*
X122104500Y-104308012D01*
X122104500Y-104511988D01*
X122104500Y-104511990D01*
X122104499Y-104511990D01*
X122144292Y-104712038D01*
X122144295Y-104712048D01*
X122222348Y-104900486D01*
X122222355Y-104900499D01*
X122335674Y-105070092D01*
X122335677Y-105070096D01*
X122479903Y-105214322D01*
X122479907Y-105214325D01*
X122649500Y-105327644D01*
X122649513Y-105327651D01*
X122834615Y-105404322D01*
X122837956Y-105405706D01*
X122837960Y-105405706D01*
X122837961Y-105405707D01*
X123038009Y-105445500D01*
X123038012Y-105445500D01*
X123241990Y-105445500D01*
X123376579Y-105418727D01*
X123442044Y-105405706D01*
X123630493Y-105327648D01*
X123800093Y-105214325D01*
X123944325Y-105070093D01*
X124057648Y-104900493D01*
X124135706Y-104712044D01*
X124158279Y-104598562D01*
X124175500Y-104511990D01*
X124175500Y-104308009D01*
X124135707Y-104107961D01*
X124135706Y-104107960D01*
X124135706Y-104107956D01*
X124063018Y-103932473D01*
X124055550Y-103863004D01*
X124086825Y-103800525D01*
X124146914Y-103764873D01*
X124216739Y-103767367D01*
X124265261Y-103797340D01*
X124289707Y-103821786D01*
X124289711Y-103821789D01*
X124420814Y-103909390D01*
X124420827Y-103909397D01*
X124532158Y-103955511D01*
X124566503Y-103969737D01*
X124714718Y-103999219D01*
X124721153Y-104000499D01*
X124721156Y-104000500D01*
X124721158Y-104000500D01*
X124878844Y-104000500D01*
X124878845Y-104000499D01*
X125033497Y-103969737D01*
X125067842Y-103955510D01*
X125137310Y-103948041D01*
X125199790Y-103979315D01*
X125235443Y-104039403D01*
X125233227Y-104108387D01*
X125214509Y-104165997D01*
X125187800Y-104334632D01*
X125187800Y-104505367D01*
X125214509Y-104674002D01*
X125214509Y-104674005D01*
X125267267Y-104836377D01*
X125267269Y-104836380D01*
X125344781Y-104988507D01*
X125445137Y-105126635D01*
X125565865Y-105247363D01*
X125703993Y-105347719D01*
X125856120Y-105425231D01*
X125856122Y-105425232D01*
X126018495Y-105477990D01*
X126018496Y-105477990D01*
X126018499Y-105477991D01*
X126187132Y-105504700D01*
X126187133Y-105504700D01*
X126357867Y-105504700D01*
X126357868Y-105504700D01*
X126526501Y-105477991D01*
X126526504Y-105477990D01*
X126526505Y-105477990D01*
X126688877Y-105425232D01*
X126688877Y-105425231D01*
X126688880Y-105425231D01*
X126841007Y-105347719D01*
X126979135Y-105247363D01*
X127099863Y-105126635D01*
X127200219Y-104988507D01*
X127277731Y-104836380D01*
X127318845Y-104709843D01*
X127330490Y-104674005D01*
X127330490Y-104674004D01*
X127330491Y-104674001D01*
X127357200Y-104505368D01*
X127357200Y-104334632D01*
X127330491Y-104165999D01*
X127330490Y-104165995D01*
X127330490Y-104165994D01*
X127277732Y-104003622D01*
X127277730Y-104003619D01*
X127276141Y-104000499D01*
X127200219Y-103851493D01*
X127099863Y-103713365D01*
X126979135Y-103592637D01*
X126841007Y-103492281D01*
X126688880Y-103414769D01*
X126688877Y-103414767D01*
X126526504Y-103362009D01*
X126400026Y-103341977D01*
X126357868Y-103335300D01*
X126187132Y-103335300D01*
X126130921Y-103344203D01*
X126018497Y-103362009D01*
X126018494Y-103362009D01*
X125856122Y-103414767D01*
X125856114Y-103414771D01*
X125769370Y-103458969D01*
X125700701Y-103471865D01*
X125635961Y-103445588D01*
X125595704Y-103388482D01*
X125591459Y-103324293D01*
X125600500Y-103278842D01*
X125600500Y-103121158D01*
X125600500Y-103121155D01*
X125576554Y-103000776D01*
X125569737Y-102966503D01*
X125569736Y-102966500D01*
X125569324Y-102964429D01*
X125575551Y-102894837D01*
X125618414Y-102839660D01*
X125684303Y-102816415D01*
X125747235Y-102829751D01*
X125856120Y-102885231D01*
X125856122Y-102885232D01*
X126018495Y-102937990D01*
X126018496Y-102937990D01*
X126018499Y-102937991D01*
X126187132Y-102964700D01*
X126187133Y-102964700D01*
X126357867Y-102964700D01*
X126357868Y-102964700D01*
X126526501Y-102937991D01*
X126526504Y-102937990D01*
X126526505Y-102937990D01*
X126688877Y-102885232D01*
X126688877Y-102885231D01*
X126688880Y-102885231D01*
X126841007Y-102807719D01*
X126979135Y-102707363D01*
X127099863Y-102586635D01*
X127200219Y-102448507D01*
X127277731Y-102296380D01*
X127298163Y-102233497D01*
X127330490Y-102134005D01*
X127330490Y-102134004D01*
X127330491Y-102134001D01*
X127357200Y-101965368D01*
X127357200Y-101794632D01*
X127330491Y-101625999D01*
X127330490Y-101625995D01*
X127330490Y-101625994D01*
X127277732Y-101463622D01*
X127277730Y-101463619D01*
X127262385Y-101433501D01*
X127200219Y-101311493D01*
X127099863Y-101173365D01*
X126979135Y-101052637D01*
X126841007Y-100952281D01*
X126688880Y-100874769D01*
X126688877Y-100874767D01*
X126599804Y-100845826D01*
X126542128Y-100806388D01*
X126514930Y-100742030D01*
X126526845Y-100673183D01*
X126550435Y-100640221D01*
X126816614Y-100374043D01*
X126893275Y-100259311D01*
X126897410Y-100249328D01*
X126939087Y-100196459D01*
X126979135Y-100167363D01*
X127099863Y-100046635D01*
X127200219Y-99908507D01*
X127277731Y-99756380D01*
X127310383Y-99655887D01*
X127330490Y-99594005D01*
X127330490Y-99594004D01*
X127330491Y-99594001D01*
X127357200Y-99425368D01*
X127357200Y-99254632D01*
X127330491Y-99085999D01*
X127330490Y-99085995D01*
X127330490Y-99085994D01*
X127277732Y-98923622D01*
X127277730Y-98923619D01*
X127238803Y-98847218D01*
X127200219Y-98771493D01*
X127099863Y-98633365D01*
X126979135Y-98512637D01*
X126841007Y-98412281D01*
X126688880Y-98334769D01*
X126688877Y-98334767D01*
X126526504Y-98282009D01*
X126400026Y-98261977D01*
X126357868Y-98255300D01*
X126187132Y-98255300D01*
X126130921Y-98264203D01*
X126018497Y-98282009D01*
X126018494Y-98282009D01*
X125856122Y-98334767D01*
X125856119Y-98334769D01*
X125703992Y-98412281D01*
X125625185Y-98469538D01*
X125565865Y-98512637D01*
X125565863Y-98512639D01*
X125565862Y-98512639D01*
X125445139Y-98633362D01*
X125445139Y-98633363D01*
X125445137Y-98633365D01*
X125402038Y-98692685D01*
X125344781Y-98771492D01*
X125267269Y-98923619D01*
X125267267Y-98923622D01*
X125214509Y-99085994D01*
X125208739Y-99122425D01*
X125178808Y-99185560D01*
X125119496Y-99222490D01*
X125049633Y-99221490D01*
X125017375Y-99206127D01*
X124979185Y-99180609D01*
X124979172Y-99180602D01*
X124833501Y-99120264D01*
X124833489Y-99120261D01*
X124678845Y-99089500D01*
X124678842Y-99089500D01*
X124521158Y-99089500D01*
X124521155Y-99089500D01*
X124366510Y-99120261D01*
X124366498Y-99120264D01*
X124222136Y-99180061D01*
X124174684Y-99189500D01*
X118231519Y-99189500D01*
X118164480Y-99169815D01*
X118143838Y-99153181D01*
X116936819Y-97946162D01*
X116903334Y-97884839D01*
X116900500Y-97858481D01*
X116900500Y-97320001D01*
X116920185Y-97252962D01*
X116972989Y-97207207D01*
X117042147Y-97197263D01*
X117105703Y-97226288D01*
X117139061Y-97272549D01*
X117142348Y-97280486D01*
X117142355Y-97280499D01*
X117255674Y-97450092D01*
X117255677Y-97450096D01*
X117399903Y-97594322D01*
X117399907Y-97594325D01*
X117569500Y-97707644D01*
X117569513Y-97707651D01*
X117717134Y-97768797D01*
X117757956Y-97785706D01*
X117757960Y-97785706D01*
X117757961Y-97785707D01*
X117958009Y-97825500D01*
X117958012Y-97825500D01*
X118161990Y-97825500D01*
X118296579Y-97798727D01*
X118362044Y-97785706D01*
X118550493Y-97707648D01*
X118720093Y-97594325D01*
X118864325Y-97450093D01*
X118977648Y-97280493D01*
X119055706Y-97092044D01*
X119095500Y-96891988D01*
X119095500Y-96688012D01*
X119095500Y-96688009D01*
X119055707Y-96487961D01*
X119055706Y-96487960D01*
X119055706Y-96487956D01*
X119050124Y-96474479D01*
X118977651Y-96299513D01*
X118977645Y-96299502D01*
X118959734Y-96272696D01*
X118959733Y-96272695D01*
X118915927Y-96207135D01*
X122104500Y-96207135D01*
X122104500Y-97372870D01*
X122104501Y-97372876D01*
X122110908Y-97432483D01*
X122161202Y-97567328D01*
X122161206Y-97567335D01*
X122247452Y-97682544D01*
X122247455Y-97682547D01*
X122362664Y-97768793D01*
X122362671Y-97768797D01*
X122497517Y-97819091D01*
X122497516Y-97819091D01*
X122504444Y-97819835D01*
X122557127Y-97825500D01*
X123722872Y-97825499D01*
X123782483Y-97819091D01*
X123917331Y-97768796D01*
X124032546Y-97682546D01*
X124118796Y-97567331D01*
X124169091Y-97432483D01*
X124175500Y-97372873D01*
X124175499Y-96207128D01*
X124169091Y-96147517D01*
X124162521Y-96129903D01*
X124118797Y-96012671D01*
X124118793Y-96012664D01*
X124032547Y-95897455D01*
X124032544Y-95897452D01*
X123917335Y-95811206D01*
X123917328Y-95811202D01*
X123782482Y-95760908D01*
X123782483Y-95760908D01*
X123722883Y-95754501D01*
X123722881Y-95754500D01*
X123722873Y-95754500D01*
X123722864Y-95754500D01*
X122557129Y-95754500D01*
X122557123Y-95754501D01*
X122497516Y-95760908D01*
X122362671Y-95811202D01*
X122362664Y-95811206D01*
X122247455Y-95897452D01*
X122247452Y-95897455D01*
X122161206Y-96012664D01*
X122161202Y-96012671D01*
X122110908Y-96147517D01*
X122104501Y-96207116D01*
X122104501Y-96207123D01*
X122104500Y-96207135D01*
X118915927Y-96207135D01*
X118864325Y-96129907D01*
X118864322Y-96129903D01*
X118720096Y-95985677D01*
X118720092Y-95985674D01*
X118550499Y-95872355D01*
X118550486Y-95872348D01*
X118362048Y-95794295D01*
X118362038Y-95794292D01*
X118161990Y-95754500D01*
X118161988Y-95754500D01*
X117958012Y-95754500D01*
X117958010Y-95754500D01*
X117757961Y-95794292D01*
X117757951Y-95794295D01*
X117569513Y-95872348D01*
X117569500Y-95872355D01*
X117399907Y-95985674D01*
X117399903Y-95985677D01*
X117255677Y-96129903D01*
X117255674Y-96129907D01*
X117142355Y-96299500D01*
X117142349Y-96299512D01*
X117139060Y-96307453D01*
X117131989Y-96316226D01*
X117128815Y-96327037D01*
X117110460Y-96342941D01*
X117095218Y-96361855D01*
X117084526Y-96365413D01*
X117076011Y-96372792D01*
X117051970Y-96376248D01*
X117028924Y-96383919D01*
X117018006Y-96381132D01*
X117006853Y-96382736D01*
X116984758Y-96372645D01*
X116961225Y-96366639D01*
X116953547Y-96358392D01*
X116943297Y-96353711D01*
X116930164Y-96333276D01*
X116913615Y-96315500D01*
X116910634Y-96302886D01*
X116905523Y-96294933D01*
X116900500Y-96259998D01*
X116900500Y-96025316D01*
X116909939Y-95977864D01*
X116943246Y-95897452D01*
X116969737Y-95833497D01*
X117000500Y-95678842D01*
X117000500Y-95521158D01*
X117000500Y-95521155D01*
X117000499Y-95521153D01*
X116969738Y-95366510D01*
X116969737Y-95366503D01*
X116949643Y-95317991D01*
X116909397Y-95220827D01*
X116909390Y-95220814D01*
X116821789Y-95089711D01*
X116821786Y-95089707D01*
X116710292Y-94978213D01*
X116710288Y-94978210D01*
X116579185Y-94890609D01*
X116579172Y-94890602D01*
X116433501Y-94830264D01*
X116433489Y-94830261D01*
X116278845Y-94799500D01*
X116278842Y-94799500D01*
X116121158Y-94799500D01*
X116121155Y-94799500D01*
X115966510Y-94830261D01*
X115966498Y-94830264D01*
X115820827Y-94890602D01*
X115820814Y-94890609D01*
X115689711Y-94978210D01*
X115689707Y-94978213D01*
X115578213Y-95089707D01*
X115578210Y-95089711D01*
X115490609Y-95220814D01*
X115490602Y-95220827D01*
X115430264Y-95366498D01*
X115430261Y-95366510D01*
X115399500Y-95521153D01*
X115399500Y-95678846D01*
X115430261Y-95833489D01*
X115430264Y-95833501D01*
X115490061Y-95977864D01*
X115499500Y-96025316D01*
X115499500Y-98131006D01*
X115499500Y-98268994D01*
X115499500Y-98268996D01*
X115499499Y-98268996D01*
X115526418Y-98404322D01*
X115526421Y-98404332D01*
X115579222Y-98531807D01*
X115655887Y-98646545D01*
X117443454Y-100434112D01*
X117443457Y-100434114D01*
X117516708Y-100483059D01*
X117561514Y-100536670D01*
X117570221Y-100605995D01*
X117540067Y-100669023D01*
X117535499Y-100673842D01*
X115455887Y-102753454D01*
X115379223Y-102868192D01*
X115326421Y-102995668D01*
X115326418Y-102995680D01*
X115315078Y-103052686D01*
X115315055Y-103052808D01*
X115314926Y-103053458D01*
X115299500Y-103131007D01*
X115299500Y-105131006D01*
X115299500Y-105268994D01*
X115299500Y-105268996D01*
X115299499Y-105268996D01*
X88259653Y-105268996D01*
X87891173Y-104900516D01*
X87857688Y-104839193D01*
X87862672Y-104769501D01*
X87904544Y-104713568D01*
X87970008Y-104689151D01*
X88035151Y-104702351D01*
X88040781Y-104705220D01*
X88166788Y-104746162D01*
X88235465Y-104768477D01*
X88333315Y-104783975D01*
X88437648Y-104800500D01*
X88437649Y-104800500D01*
X88642351Y-104800500D01*
X88642352Y-104800500D01*
X88844534Y-104768477D01*
X89039219Y-104705220D01*
X89221610Y-104612287D01*
X89314590Y-104544732D01*
X89387213Y-104491971D01*
X89387215Y-104491968D01*
X89387219Y-104491966D01*
X89531966Y-104347219D01*
X89531968Y-104347215D01*
X89531971Y-104347213D01*
X89652284Y-104181614D01*
X89652285Y-104181613D01*
X89652287Y-104181610D01*
X89699516Y-104088917D01*
X89747489Y-104038123D01*
X89815310Y-104021328D01*
X89881445Y-104043865D01*
X89920483Y-104088917D01*
X89930187Y-104107961D01*
X89967715Y-104181614D01*
X90088028Y-104347213D01*
X90232786Y-104491971D01*
X90328385Y-104561426D01*
X90398390Y-104612287D01*
X90489051Y-104658481D01*
X90580776Y-104705218D01*
X90580778Y-104705218D01*
X90580781Y-104705220D01*
X90643258Y-104725520D01*
X90775465Y-104768477D01*
X90873315Y-104783975D01*
X90977648Y-104800500D01*
X90977649Y-104800500D01*
X91182351Y-104800500D01*
X91182352Y-104800500D01*
X91384534Y-104768477D01*
X91579219Y-104705220D01*
X91761610Y-104612287D01*
X91854590Y-104544732D01*
X91927213Y-104491971D01*
X91927215Y-104491968D01*
X91927219Y-104491966D01*
X92071966Y-104347219D01*
X92071968Y-104347215D01*
X92071971Y-104347213D01*
X92192284Y-104181614D01*
X92192285Y-104181613D01*
X92192287Y-104181610D01*
X92239516Y-104088917D01*
X92287489Y-104038123D01*
X92355310Y-104021328D01*
X92421445Y-104043865D01*
X92460483Y-104088917D01*
X92470187Y-104107961D01*
X92507715Y-104181614D01*
X92628028Y-104347213D01*
X92772786Y-104491971D01*
X92868385Y-104561426D01*
X92938390Y-104612287D01*
X93029051Y-104658481D01*
X93120776Y-104705218D01*
X93120778Y-104705218D01*
X93120781Y-104705220D01*
X93183258Y-104725520D01*
X93315465Y-104768477D01*
X93413315Y-104783975D01*
X93517648Y-104800500D01*
X93517649Y-104800500D01*
X93722351Y-104800500D01*
X93722352Y-104800500D01*
X93924534Y-104768477D01*
X94119219Y-104705220D01*
X94301610Y-104612287D01*
X94394590Y-104544732D01*
X94467213Y-104491971D01*
X94467215Y-104491968D01*
X94467219Y-104491966D01*
X94611966Y-104347219D01*
X94611968Y-104347215D01*
X94611971Y-104347213D01*
X94732284Y-104181614D01*
X94732285Y-104181613D01*
X94732287Y-104181610D01*
X94779516Y-104088917D01*
X94827489Y-104038123D01*
X94895310Y-104021328D01*
X94961445Y-104043865D01*
X95000483Y-104088917D01*
X95010187Y-104107961D01*
X95047715Y-104181614D01*
X95168028Y-104347213D01*
X95312786Y-104491971D01*
X95408385Y-104561426D01*
X95478390Y-104612287D01*
X95569051Y-104658481D01*
X95660776Y-104705218D01*
X95660778Y-104705218D01*
X95660781Y-104705220D01*
X95723258Y-104725520D01*
X95855465Y-104768477D01*
X95953315Y-104783975D01*
X96057648Y-104800500D01*
X96057649Y-104800500D01*
X96262351Y-104800500D01*
X96262352Y-104800500D01*
X96464534Y-104768477D01*
X96659219Y-104705220D01*
X96841610Y-104612287D01*
X96934590Y-104544732D01*
X97007213Y-104491971D01*
X97007215Y-104491968D01*
X97007219Y-104491966D01*
X97151966Y-104347219D01*
X97151968Y-104347215D01*
X97151971Y-104347213D01*
X97272284Y-104181614D01*
X97272285Y-104181613D01*
X97272287Y-104181610D01*
X97319516Y-104088917D01*
X97367489Y-104038123D01*
X97435310Y-104021328D01*
X97501445Y-104043865D01*
X97540483Y-104088917D01*
X97550187Y-104107961D01*
X97587715Y-104181614D01*
X97708028Y-104347213D01*
X97852786Y-104491971D01*
X97948385Y-104561426D01*
X98018390Y-104612287D01*
X98109051Y-104658481D01*
X98200776Y-104705218D01*
X98200778Y-104705218D01*
X98200781Y-104705220D01*
X98263258Y-104725520D01*
X98395465Y-104768477D01*
X98493315Y-104783975D01*
X98597648Y-104800500D01*
X98597649Y-104800500D01*
X98802351Y-104800500D01*
X98802352Y-104800500D01*
X99004534Y-104768477D01*
X99199219Y-104705220D01*
X99381610Y-104612287D01*
X99474590Y-104544732D01*
X99547213Y-104491971D01*
X99547215Y-104491968D01*
X99547219Y-104491966D01*
X99691966Y-104347219D01*
X99691968Y-104347215D01*
X99691971Y-104347213D01*
X99812284Y-104181614D01*
X99812285Y-104181613D01*
X99812287Y-104181610D01*
X99859516Y-104088917D01*
X99907489Y-104038123D01*
X99975310Y-104021328D01*
X100041445Y-104043865D01*
X100080483Y-104088917D01*
X100090187Y-104107961D01*
X100127715Y-104181614D01*
X100248028Y-104347213D01*
X100392786Y-104491971D01*
X100488385Y-104561426D01*
X100558390Y-104612287D01*
X100649051Y-104658481D01*
X100740776Y-104705218D01*
X100740778Y-104705218D01*
X100740781Y-104705220D01*
X100803258Y-104725520D01*
X100935465Y-104768477D01*
X101033315Y-104783975D01*
X101137648Y-104800500D01*
X101137649Y-104800500D01*
X101342351Y-104800500D01*
X101342352Y-104800500D01*
X101544534Y-104768477D01*
X101739219Y-104705220D01*
X101921610Y-104612287D01*
X102014590Y-104544732D01*
X102087213Y-104491971D01*
X102087215Y-104491968D01*
X102087219Y-104491966D01*
X102231966Y-104347219D01*
X102231968Y-104347215D01*
X102231971Y-104347213D01*
X102352284Y-104181614D01*
X102352285Y-104181613D01*
X102352287Y-104181610D01*
X102399516Y-104088917D01*
X102447489Y-104038123D01*
X102515310Y-104021328D01*
X102581445Y-104043865D01*
X102620483Y-104088917D01*
X102630187Y-104107961D01*
X102667715Y-104181614D01*
X102788028Y-104347213D01*
X102932786Y-104491971D01*
X103028385Y-104561426D01*
X103098390Y-104612287D01*
X103189051Y-104658481D01*
X103280776Y-104705218D01*
X103280778Y-104705218D01*
X103280781Y-104705220D01*
X103343258Y-104725520D01*
X103475465Y-104768477D01*
X103573315Y-104783975D01*
X103677648Y-104800500D01*
X103677649Y-104800500D01*
X103882351Y-104800500D01*
X103882352Y-104800500D01*
X104084534Y-104768477D01*
X104279219Y-104705220D01*
X104461610Y-104612287D01*
X104554590Y-104544732D01*
X104627213Y-104491971D01*
X104627215Y-104491968D01*
X104627219Y-104491966D01*
X104771966Y-104347219D01*
X104771968Y-104347215D01*
X104771971Y-104347213D01*
X104892284Y-104181614D01*
X104892285Y-104181613D01*
X104892287Y-104181610D01*
X104939516Y-104088917D01*
X104987489Y-104038123D01*
X105055310Y-104021328D01*
X105121445Y-104043865D01*
X105160483Y-104088917D01*
X105170187Y-104107961D01*
X105207715Y-104181614D01*
X105328028Y-104347213D01*
X105472786Y-104491971D01*
X105568385Y-104561426D01*
X105638390Y-104612287D01*
X105729051Y-104658481D01*
X105820776Y-104705218D01*
X105820778Y-104705218D01*
X105820781Y-104705220D01*
X105883258Y-104725520D01*
X106015465Y-104768477D01*
X106113315Y-104783975D01*
X106217648Y-104800500D01*
X106217649Y-104800500D01*
X106422351Y-104800500D01*
X106422352Y-104800500D01*
X106624534Y-104768477D01*
X106819219Y-104705220D01*
X107001610Y-104612287D01*
X107094590Y-104544732D01*
X107167213Y-104491971D01*
X107167215Y-104491968D01*
X107167219Y-104491966D01*
X107311966Y-104347219D01*
X107311968Y-104347215D01*
X107311971Y-104347213D01*
X107364732Y-104274590D01*
X107432287Y-104181610D01*
X107525220Y-103999219D01*
X107588477Y-103804534D01*
X107620500Y-103602352D01*
X107620500Y-103397648D01*
X110099500Y-103397648D01*
X110099500Y-103602351D01*
X110131522Y-103804534D01*
X110194781Y-103999223D01*
X110250182Y-104107951D01*
X110279756Y-104165994D01*
X110287715Y-104181613D01*
X110408028Y-104347213D01*
X110552786Y-104491971D01*
X110648385Y-104561426D01*
X110718390Y-104612287D01*
X110809051Y-104658481D01*
X110900776Y-104705218D01*
X110900778Y-104705218D01*
X110900781Y-104705220D01*
X110963258Y-104725520D01*
X111095465Y-104768477D01*
X111193315Y-104783975D01*
X111297648Y-104800500D01*
X111297649Y-104800500D01*
X111502351Y-104800500D01*
X111502352Y-104800500D01*
X111704534Y-104768477D01*
X111899219Y-104705220D01*
X112081610Y-104612287D01*
X112174590Y-104544732D01*
X112247213Y-104491971D01*
X112247215Y-104491968D01*
X112247219Y-104491966D01*
X112391966Y-104347219D01*
X112391968Y-104347215D01*
X112391971Y-104347213D01*
X112444732Y-104274590D01*
X112512287Y-104181610D01*
X112605220Y-103999219D01*
X112668477Y-103804534D01*
X112700500Y-103602352D01*
X112700500Y-103397648D01*
X112668477Y-103195466D01*
X112605220Y-103000781D01*
X112512287Y-102818390D01*
X112476939Y-102769737D01*
X112391971Y-102652786D01*
X112247213Y-102508028D01*
X112081613Y-102387715D01*
X112081612Y-102387714D01*
X112081610Y-102387713D01*
X112024653Y-102358691D01*
X111899223Y-102294781D01*
X111704534Y-102231522D01*
X111529995Y-102203878D01*
X111502352Y-102199500D01*
X111297648Y-102199500D01*
X111273329Y-102203351D01*
X111095465Y-102231522D01*
X110900776Y-102294781D01*
X110718386Y-102387715D01*
X110552786Y-102508028D01*
X110408028Y-102652786D01*
X110287715Y-102818386D01*
X110194781Y-103000776D01*
X110131522Y-103195465D01*
X110099500Y-103397648D01*
X107620500Y-103397648D01*
X107588477Y-103195466D01*
X107525220Y-103000781D01*
X107525218Y-103000778D01*
X107525218Y-103000776D01*
X107479515Y-102911080D01*
X107432287Y-102818390D01*
X107396939Y-102769737D01*
X107311971Y-102652786D01*
X107167213Y-102508028D01*
X107001613Y-102387715D01*
X107001612Y-102387714D01*
X107001610Y-102387713D01*
X106944653Y-102358691D01*
X106819223Y-102294781D01*
X106624534Y-102231522D01*
X106449995Y-102203878D01*
X106422352Y-102199500D01*
X106217648Y-102199500D01*
X106193329Y-102203351D01*
X106015465Y-102231522D01*
X105820776Y-102294781D01*
X105638386Y-102387715D01*
X105472786Y-102508028D01*
X105328028Y-102652786D01*
X105207715Y-102818386D01*
X105160485Y-102911080D01*
X105112510Y-102961876D01*
X105044689Y-102978671D01*
X104978554Y-102956134D01*
X104939515Y-102911080D01*
X104931239Y-102894837D01*
X104892287Y-102818390D01*
X104856939Y-102769737D01*
X104771971Y-102652786D01*
X104627213Y-102508028D01*
X104461613Y-102387715D01*
X104461612Y-102387714D01*
X104461610Y-102387713D01*
X104404653Y-102358691D01*
X104279223Y-102294781D01*
X104084534Y-102231522D01*
X103909995Y-102203878D01*
X103882352Y-102199500D01*
X103677648Y-102199500D01*
X103653329Y-102203351D01*
X103475465Y-102231522D01*
X103280776Y-102294781D01*
X103098386Y-102387715D01*
X102932786Y-102508028D01*
X102788028Y-102652786D01*
X102667715Y-102818386D01*
X102620485Y-102911080D01*
X102572510Y-102961876D01*
X102504689Y-102978671D01*
X102438554Y-102956134D01*
X102399515Y-102911080D01*
X102391239Y-102894837D01*
X102352287Y-102818390D01*
X102316939Y-102769737D01*
X102231971Y-102652786D01*
X102087213Y-102508028D01*
X101921613Y-102387715D01*
X101921612Y-102387714D01*
X101921610Y-102387713D01*
X101864653Y-102358691D01*
X101739223Y-102294781D01*
X101544534Y-102231522D01*
X101369995Y-102203878D01*
X101342352Y-102199500D01*
X101137648Y-102199500D01*
X101113329Y-102203351D01*
X100935465Y-102231522D01*
X100740776Y-102294781D01*
X100558386Y-102387715D01*
X100392786Y-102508028D01*
X100248028Y-102652786D01*
X100127715Y-102818386D01*
X100080485Y-102911080D01*
X100032510Y-102961876D01*
X99964689Y-102978671D01*
X99898554Y-102956134D01*
X99859515Y-102911080D01*
X99851239Y-102894837D01*
X99812287Y-102818390D01*
X99776939Y-102769737D01*
X99691971Y-102652786D01*
X99547213Y-102508028D01*
X99381613Y-102387715D01*
X99381612Y-102387714D01*
X99381610Y-102387713D01*
X99324653Y-102358691D01*
X99199223Y-102294781D01*
X99004534Y-102231522D01*
X98829995Y-102203878D01*
X98802352Y-102199500D01*
X98750519Y-102199500D01*
X98729273Y-102193261D01*
X98707185Y-102191682D01*
X98696401Y-102183609D01*
X98683480Y-102179815D01*
X98668980Y-102163081D01*
X98651252Y-102149810D01*
X98646544Y-102137189D01*
X98637725Y-102127011D01*
X98634573Y-102105093D01*
X98626835Y-102084346D01*
X98629697Y-102071185D01*
X98627781Y-102057853D01*
X98636980Y-102037709D01*
X98641687Y-102016073D01*
X98654955Y-101998347D01*
X98656806Y-101994297D01*
X98662838Y-101987819D01*
X98713838Y-101936819D01*
X98775161Y-101903334D01*
X98801519Y-101900500D01*
X106068996Y-101900500D01*
X106160040Y-101882389D01*
X106204328Y-101873580D01*
X106280214Y-101842147D01*
X106331807Y-101820777D01*
X106331808Y-101820776D01*
X106331811Y-101820775D01*
X106446543Y-101744114D01*
X116253838Y-91936819D01*
X116315161Y-91903334D01*
X116341519Y-91900500D01*
X117692297Y-91900500D01*
X117759336Y-91920185D01*
X117805091Y-91972989D01*
X117815035Y-92042147D01*
X117813914Y-92048691D01*
X117799500Y-92121153D01*
X117799500Y-92278846D01*
X117830261Y-92433489D01*
X117830264Y-92433501D01*
X117890602Y-92579172D01*
X117890609Y-92579185D01*
X117978210Y-92710288D01*
X117978213Y-92710292D01*
X118089707Y-92821786D01*
X118089711Y-92821789D01*
X118220814Y-92909390D01*
X118220827Y-92909397D01*
X118365185Y-92969191D01*
X118405414Y-92996071D01*
X119774367Y-94365024D01*
X119807852Y-94426347D01*
X119808304Y-94476894D01*
X119799500Y-94521158D01*
X119799500Y-94678846D01*
X119830261Y-94833489D01*
X119830264Y-94833501D01*
X119890602Y-94979172D01*
X119890609Y-94979185D01*
X119978210Y-95110288D01*
X119978213Y-95110292D01*
X120089707Y-95221786D01*
X120089711Y-95221789D01*
X120220814Y-95309390D01*
X120220827Y-95309397D01*
X120358683Y-95366498D01*
X120366503Y-95369737D01*
X120521153Y-95400499D01*
X120521156Y-95400500D01*
X120521158Y-95400500D01*
X120678844Y-95400500D01*
X120678845Y-95400499D01*
X120833497Y-95369737D01*
X120979179Y-95309394D01*
X121110289Y-95221789D01*
X121221789Y-95110289D01*
X121309394Y-94979179D01*
X121314590Y-94966636D01*
X121323067Y-94946166D01*
X121369737Y-94833497D01*
X121400500Y-94678842D01*
X121400500Y-94521158D01*
X121400500Y-94521155D01*
X121400499Y-94521153D01*
X121369738Y-94366510D01*
X121369737Y-94366503D01*
X121309939Y-94222136D01*
X121308312Y-94213959D01*
X121305523Y-94209619D01*
X121300500Y-94174684D01*
X121300500Y-94174632D01*
X125187800Y-94174632D01*
X125187800Y-94345368D01*
X125191149Y-94366510D01*
X125214509Y-94514002D01*
X125214509Y-94514005D01*
X125267267Y-94676377D01*
X125267269Y-94676380D01*
X125344781Y-94828507D01*
X125445137Y-94966635D01*
X125565865Y-95087363D01*
X125703993Y-95187719D01*
X125856120Y-95265231D01*
X125856122Y-95265232D01*
X126018495Y-95317990D01*
X126018496Y-95317990D01*
X126018499Y-95317991D01*
X126187132Y-95344700D01*
X126187133Y-95344700D01*
X126357867Y-95344700D01*
X126357868Y-95344700D01*
X126526501Y-95317991D01*
X126526504Y-95317990D01*
X126526505Y-95317990D01*
X126688877Y-95265232D01*
X126688877Y-95265231D01*
X126688880Y-95265231D01*
X126841007Y-95187719D01*
X126979135Y-95087363D01*
X127099863Y-94966635D01*
X127200219Y-94828507D01*
X127277731Y-94676380D01*
X127330491Y-94514001D01*
X127357200Y-94345368D01*
X127357200Y-94174632D01*
X127330491Y-94005999D01*
X127330490Y-94005995D01*
X127330490Y-94005994D01*
X127277732Y-93843622D01*
X127277730Y-93843619D01*
X127238803Y-93767218D01*
X127200219Y-93691493D01*
X127099863Y-93553365D01*
X126979135Y-93432637D01*
X126841007Y-93332281D01*
X126688880Y-93254769D01*
X126688877Y-93254767D01*
X126526504Y-93202009D01*
X126400026Y-93181977D01*
X126357868Y-93175300D01*
X126187132Y-93175300D01*
X126130921Y-93184203D01*
X126018497Y-93202009D01*
X126018494Y-93202009D01*
X125856122Y-93254767D01*
X125856119Y-93254769D01*
X125703992Y-93332281D01*
X125625185Y-93389538D01*
X125565865Y-93432637D01*
X125565863Y-93432639D01*
X125565862Y-93432639D01*
X125445139Y-93553362D01*
X125445139Y-93553363D01*
X125445137Y-93553365D01*
X125442739Y-93556666D01*
X125344781Y-93691492D01*
X125267269Y-93843619D01*
X125267267Y-93843622D01*
X125214509Y-94005994D01*
X125214509Y-94005997D01*
X125187800Y-94174632D01*
X121300500Y-94174632D01*
X121300500Y-94131004D01*
X121273581Y-93995677D01*
X121273580Y-93995676D01*
X121273580Y-93995672D01*
X121220775Y-93868189D01*
X121219657Y-93866516D01*
X121144114Y-93753457D01*
X121144112Y-93753454D01*
X121144111Y-93753453D01*
X119598263Y-92207606D01*
X119564778Y-92146283D01*
X119569762Y-92076591D01*
X119611634Y-92020658D01*
X119677098Y-91996241D01*
X119710136Y-91998308D01*
X119721155Y-92000500D01*
X119721158Y-92000500D01*
X119878844Y-92000500D01*
X119878845Y-92000499D01*
X120033497Y-91969737D01*
X120179179Y-91909394D01*
X120310289Y-91821789D01*
X120421789Y-91710289D01*
X120509394Y-91579179D01*
X120569737Y-91433497D01*
X120600500Y-91278842D01*
X120600500Y-91224500D01*
X120620185Y-91157461D01*
X120672989Y-91111706D01*
X120724500Y-91100500D01*
X121668996Y-91100500D01*
X121760040Y-91082389D01*
X121804328Y-91073580D01*
X121868069Y-91047177D01*
X121931807Y-91020777D01*
X121931808Y-91020776D01*
X121931811Y-91020775D01*
X122046543Y-90944114D01*
X123015001Y-89975656D01*
X123896026Y-89094632D01*
X125187800Y-89094632D01*
X125187800Y-89265367D01*
X125214509Y-89434002D01*
X125214509Y-89434005D01*
X125267267Y-89596377D01*
X125267269Y-89596380D01*
X125344781Y-89748507D01*
X125445137Y-89886635D01*
X125565865Y-90007363D01*
X125703993Y-90107719D01*
X125856120Y-90185231D01*
X125856122Y-90185232D01*
X126018495Y-90237990D01*
X126018496Y-90237990D01*
X126018499Y-90237991D01*
X126187132Y-90264700D01*
X126187133Y-90264700D01*
X126357867Y-90264700D01*
X126357868Y-90264700D01*
X126526501Y-90237991D01*
X126526504Y-90237990D01*
X126526505Y-90237990D01*
X126688877Y-90185232D01*
X126688877Y-90185231D01*
X126688880Y-90185231D01*
X126841007Y-90107719D01*
X126979135Y-90007363D01*
X127099863Y-89886635D01*
X127200219Y-89748507D01*
X127277731Y-89596380D01*
X127290249Y-89557853D01*
X127330490Y-89434005D01*
X127330490Y-89434004D01*
X127330491Y-89434001D01*
X127357200Y-89265368D01*
X127357200Y-89094632D01*
X127330491Y-88925999D01*
X127330490Y-88925995D01*
X127330490Y-88925994D01*
X127277732Y-88763622D01*
X127277730Y-88763619D01*
X127275491Y-88759223D01*
X127200219Y-88611493D01*
X127099863Y-88473365D01*
X126979135Y-88352637D01*
X126841007Y-88252281D01*
X126688880Y-88174769D01*
X126688877Y-88174767D01*
X126526504Y-88122009D01*
X126390699Y-88100500D01*
X126357868Y-88095300D01*
X126187132Y-88095300D01*
X126154301Y-88100500D01*
X126018497Y-88122009D01*
X126018494Y-88122009D01*
X125856122Y-88174767D01*
X125856119Y-88174769D01*
X125703992Y-88252281D01*
X125651246Y-88290604D01*
X125565865Y-88352637D01*
X125565863Y-88352639D01*
X125565862Y-88352639D01*
X125445139Y-88473362D01*
X125445139Y-88473363D01*
X125445137Y-88473365D01*
X125440994Y-88479068D01*
X125344781Y-88611492D01*
X125267269Y-88763619D01*
X125267267Y-88763622D01*
X125214509Y-88925994D01*
X125214509Y-88925997D01*
X125187800Y-89094632D01*
X123896026Y-89094632D01*
X123988579Y-89002079D01*
X124744111Y-88246546D01*
X124744112Y-88246545D01*
X124744114Y-88246543D01*
X124820775Y-88131811D01*
X124873580Y-88004329D01*
X124888725Y-87928189D01*
X124900500Y-87868993D01*
X124900500Y-86425316D01*
X124909939Y-86377864D01*
X124969735Y-86233501D01*
X124969737Y-86233497D01*
X125000500Y-86078842D01*
X125000500Y-86024500D01*
X125020185Y-85957461D01*
X125072989Y-85911706D01*
X125124500Y-85900500D01*
X126868996Y-85900500D01*
X126960040Y-85882389D01*
X127004328Y-85873580D01*
X127068069Y-85847177D01*
X127131807Y-85820777D01*
X127131808Y-85820776D01*
X127131811Y-85820775D01*
X127246543Y-85744114D01*
X132544114Y-80446543D01*
X132620775Y-80331811D01*
X132635128Y-80297161D01*
X132673578Y-80204332D01*
X132673580Y-80204328D01*
X132689077Y-80126420D01*
X132700500Y-80068995D01*
X132700500Y-69661744D01*
X132720185Y-69594705D01*
X132751615Y-69561426D01*
X132847215Y-69491969D01*
X132847215Y-69491968D01*
X132847219Y-69491966D01*
X132991966Y-69347219D01*
X132991970Y-69347214D01*
X132991971Y-69347213D01*
X133067469Y-69243297D01*
X133112287Y-69181610D01*
X133205220Y-68999219D01*
X133268477Y-68804534D01*
X133300500Y-68602352D01*
X133300500Y-68397648D01*
X133282131Y-68281673D01*
X133268477Y-68195465D01*
X133205218Y-68000776D01*
X133143284Y-67879225D01*
X133112287Y-67818390D01*
X133061426Y-67748385D01*
X132991971Y-67652786D01*
X132847213Y-67508028D01*
X132681613Y-67387715D01*
X132681612Y-67387714D01*
X132681610Y-67387713D01*
X132592182Y-67342147D01*
X132499223Y-67294781D01*
X132304534Y-67231522D01*
X132129015Y-67203723D01*
X132102352Y-67199500D01*
X131897648Y-67199500D01*
X131873441Y-67203334D01*
X131695465Y-67231522D01*
X131500776Y-67294781D01*
X131318386Y-67387715D01*
X131152786Y-67508028D01*
X131008028Y-67652786D01*
X130887715Y-67818386D01*
X130794781Y-68000776D01*
X130731522Y-68195465D01*
X130699500Y-68397648D01*
X130699500Y-68602351D01*
X130731522Y-68804534D01*
X130794781Y-68999223D01*
X130819474Y-69047684D01*
X130887712Y-69181609D01*
X130887715Y-69181613D01*
X131008028Y-69347213D01*
X131152784Y-69491969D01*
X131248385Y-69561426D01*
X131291051Y-69616755D01*
X131299500Y-69661744D01*
X131299500Y-72009480D01*
X131279815Y-72076519D01*
X131227011Y-72122274D01*
X131157853Y-72132218D01*
X131094297Y-72103193D01*
X131087819Y-72097161D01*
X126946544Y-67955886D01*
X126831806Y-67879221D01*
X126704331Y-67826420D01*
X126704321Y-67826417D01*
X126568995Y-67799499D01*
X126568993Y-67799499D01*
X126568992Y-67799499D01*
X124661744Y-67799499D01*
X124594705Y-67779814D01*
X124561425Y-67748383D01*
X124491969Y-67652783D01*
X124347213Y-67508027D01*
X124181613Y-67387714D01*
X124181612Y-67387713D01*
X124181610Y-67387712D01*
X124092184Y-67342147D01*
X123999223Y-67294780D01*
X123804534Y-67231521D01*
X123626565Y-67203334D01*
X123602352Y-67199499D01*
X123397648Y-67199499D01*
X123373435Y-67203334D01*
X123195465Y-67231521D01*
X123000776Y-67294780D01*
X122818386Y-67387714D01*
X122652786Y-67508027D01*
X122508028Y-67652785D01*
X122387715Y-67818385D01*
X122340485Y-67911079D01*
X122292510Y-67961875D01*
X122224689Y-67978670D01*
X122158554Y-67956133D01*
X122119515Y-67911079D01*
X122111081Y-67894526D01*
X122072287Y-67818389D01*
X122064556Y-67807748D01*
X121951971Y-67652785D01*
X121807219Y-67508033D01*
X121767107Y-67478890D01*
X121736672Y-67456778D01*
X121694007Y-67401449D01*
X121688028Y-67331836D01*
X121720633Y-67270040D01*
X121721803Y-67268853D01*
X123253838Y-65736819D01*
X123315161Y-65703334D01*
X123341519Y-65700500D01*
X133458481Y-65700500D01*
X133525520Y-65720185D01*
X133546162Y-65736819D01*
X135663181Y-67853838D01*
X135696666Y-67915161D01*
X135699500Y-67941519D01*
X135699500Y-88574424D01*
X135679815Y-88641463D01*
X135627011Y-88687218D01*
X135557853Y-88697162D01*
X135494297Y-88668137D01*
X135465015Y-88630719D01*
X135455218Y-88611492D01*
X135354863Y-88473365D01*
X135234135Y-88352637D01*
X135096007Y-88252281D01*
X134943880Y-88174769D01*
X134943877Y-88174767D01*
X134781504Y-88122009D01*
X134645699Y-88100500D01*
X134612868Y-88095300D01*
X134442132Y-88095300D01*
X134409301Y-88100500D01*
X134273497Y-88122009D01*
X134273494Y-88122009D01*
X134111122Y-88174767D01*
X134111119Y-88174769D01*
X133958992Y-88252281D01*
X133906246Y-88290604D01*
X133820865Y-88352637D01*
X133820863Y-88352639D01*
X133820862Y-88352639D01*
X133700139Y-88473362D01*
X133700139Y-88473363D01*
X133700137Y-88473365D01*
X133695994Y-88479068D01*
X133599781Y-88611492D01*
X133522269Y-88763619D01*
X133522267Y-88763622D01*
X133469509Y-88925994D01*
X133469509Y-88925997D01*
X133442800Y-89094632D01*
X133442800Y-89265367D01*
X133469509Y-89434002D01*
X133469509Y-89434005D01*
X133522267Y-89596377D01*
X133522269Y-89596380D01*
X133599781Y-89748507D01*
X133700137Y-89886635D01*
X133820865Y-90007363D01*
X133958993Y-90107719D01*
X134111120Y-90185231D01*
X134111122Y-90185232D01*
X134273495Y-90237990D01*
X134273496Y-90237990D01*
X134273499Y-90237991D01*
X134442132Y-90264700D01*
X134442133Y-90264700D01*
X134612867Y-90264700D01*
X134612868Y-90264700D01*
X134781501Y-90237991D01*
X134781504Y-90237990D01*
X134781505Y-90237990D01*
X134943877Y-90185232D01*
X134943877Y-90185231D01*
X134943880Y-90185231D01*
X135096007Y-90107719D01*
X135234135Y-90007363D01*
X135354863Y-89886635D01*
X135455219Y-89748507D01*
X135465015Y-89729280D01*
X135512988Y-89678485D01*
X135580808Y-89661689D01*
X135646944Y-89684225D01*
X135690396Y-89738940D01*
X135699500Y-89785575D01*
X135699500Y-91114424D01*
X135679815Y-91181463D01*
X135627011Y-91227218D01*
X135557853Y-91237162D01*
X135494297Y-91208137D01*
X135465015Y-91170719D01*
X135455219Y-91151493D01*
X135354863Y-91013365D01*
X135234135Y-90892637D01*
X135096007Y-90792281D01*
X134943880Y-90714769D01*
X134943877Y-90714767D01*
X134781504Y-90662009D01*
X134655026Y-90641977D01*
X134612868Y-90635300D01*
X134442132Y-90635300D01*
X134385921Y-90644203D01*
X134273497Y-90662009D01*
X134273494Y-90662009D01*
X134111122Y-90714767D01*
X134111119Y-90714769D01*
X133958992Y-90792281D01*
X133880185Y-90849538D01*
X133820865Y-90892637D01*
X133820863Y-90892639D01*
X133820862Y-90892639D01*
X133700139Y-91013362D01*
X133700139Y-91013363D01*
X133700137Y-91013365D01*
X133694752Y-91020777D01*
X133599781Y-91151492D01*
X133522269Y-91303619D01*
X133522267Y-91303622D01*
X133469509Y-91465994D01*
X133469509Y-91465997D01*
X133442800Y-91634632D01*
X133442800Y-91805367D01*
X133469509Y-91974002D01*
X133469509Y-91974005D01*
X133522267Y-92136377D01*
X133522269Y-92136380D01*
X133599781Y-92288507D01*
X133700137Y-92426635D01*
X133820865Y-92547363D01*
X133958993Y-92647719D01*
X134111120Y-92725231D01*
X134111122Y-92725232D01*
X134273495Y-92777990D01*
X134273496Y-92777990D01*
X134273499Y-92777991D01*
X134442132Y-92804700D01*
X134442133Y-92804700D01*
X134612867Y-92804700D01*
X134612868Y-92804700D01*
X134781501Y-92777991D01*
X134781504Y-92777990D01*
X134781505Y-92777990D01*
X134943877Y-92725232D01*
X134943877Y-92725231D01*
X134943880Y-92725231D01*
X135096007Y-92647719D01*
X135234135Y-92547363D01*
X135354863Y-92426635D01*
X135455219Y-92288507D01*
X135465015Y-92269280D01*
X135512988Y-92218485D01*
X135580808Y-92201689D01*
X135646944Y-92224225D01*
X135690396Y-92278940D01*
X135699500Y-92325575D01*
X135699500Y-93654424D01*
X135679815Y-93721463D01*
X135627011Y-93767218D01*
X135557853Y-93777162D01*
X135494297Y-93748137D01*
X135465015Y-93710719D01*
X135455218Y-93691492D01*
X135354863Y-93553365D01*
X135234135Y-93432637D01*
X135096007Y-93332281D01*
X134943880Y-93254769D01*
X134943877Y-93254767D01*
X134781504Y-93202009D01*
X134655026Y-93181977D01*
X134612868Y-93175300D01*
X134442132Y-93175300D01*
X134385921Y-93184203D01*
X134273497Y-93202009D01*
X134273494Y-93202009D01*
X134111122Y-93254767D01*
X134111119Y-93254769D01*
X133958992Y-93332281D01*
X133880185Y-93389538D01*
X133820865Y-93432637D01*
X133820863Y-93432639D01*
X133820862Y-93432639D01*
X133730321Y-93523181D01*
X133668998Y-93556666D01*
X133642640Y-93559500D01*
X133471003Y-93559500D01*
X133362590Y-93581065D01*
X133362589Y-93581065D01*
X133349131Y-93583742D01*
X133335673Y-93586419D01*
X133298330Y-93601887D01*
X133208191Y-93639223D01*
X133129965Y-93691493D01*
X133129964Y-93691493D01*
X133093461Y-93715883D01*
X133093453Y-93715889D01*
X131712181Y-95097162D01*
X131650858Y-95130647D01*
X131581166Y-95125663D01*
X131525233Y-95083791D01*
X131500816Y-95018327D01*
X131500500Y-95009481D01*
X131500500Y-84341518D01*
X131520185Y-84274479D01*
X131536815Y-84253841D01*
X131794586Y-83996069D01*
X131834810Y-83969192D01*
X131889435Y-83946566D01*
X131979173Y-83909397D01*
X131979176Y-83909395D01*
X131979179Y-83909394D01*
X132110289Y-83821789D01*
X132221789Y-83710289D01*
X132309394Y-83579179D01*
X132369737Y-83433497D01*
X132400500Y-83278842D01*
X132400500Y-83121158D01*
X132400500Y-83121155D01*
X132400499Y-83121153D01*
X132392276Y-83079815D01*
X132369737Y-82966503D01*
X132339829Y-82894297D01*
X132309397Y-82820827D01*
X132309390Y-82820814D01*
X132221789Y-82689711D01*
X132221786Y-82689707D01*
X132110292Y-82578213D01*
X132110288Y-82578210D01*
X131979185Y-82490609D01*
X131979172Y-82490602D01*
X131833501Y-82430264D01*
X131833489Y-82430261D01*
X131678845Y-82399500D01*
X131678842Y-82399500D01*
X131521158Y-82399500D01*
X131521155Y-82399500D01*
X131366510Y-82430261D01*
X131366498Y-82430264D01*
X131220827Y-82490602D01*
X131220814Y-82490609D01*
X131089711Y-82578210D01*
X131089707Y-82578213D01*
X130978213Y-82689707D01*
X130978210Y-82689711D01*
X130890609Y-82820814D01*
X130890604Y-82820823D01*
X130830809Y-82965184D01*
X130803929Y-83005412D01*
X130255887Y-83553454D01*
X130223785Y-83601500D01*
X130179223Y-83668191D01*
X130126421Y-83795667D01*
X130126418Y-83795677D01*
X130099500Y-83931004D01*
X130099500Y-84896560D01*
X130079815Y-84963599D01*
X130027011Y-85009354D01*
X129957853Y-85019298D01*
X129894297Y-84990273D01*
X129872398Y-84965451D01*
X129821789Y-84889711D01*
X129821786Y-84889707D01*
X129710292Y-84778213D01*
X129710288Y-84778210D01*
X129579185Y-84690609D01*
X129579172Y-84690602D01*
X129433501Y-84630264D01*
X129433489Y-84630261D01*
X129278845Y-84599500D01*
X129278842Y-84599500D01*
X129121158Y-84599500D01*
X129121155Y-84599500D01*
X128966510Y-84630261D01*
X128966498Y-84630264D01*
X128820827Y-84690602D01*
X128820814Y-84690609D01*
X128689711Y-84778210D01*
X128689707Y-84778213D01*
X128578213Y-84889707D01*
X128578210Y-84889711D01*
X128490609Y-85020814D01*
X128490602Y-85020827D01*
X128430264Y-85166498D01*
X128430261Y-85166510D01*
X128399500Y-85321153D01*
X128399500Y-85478846D01*
X128430261Y-85633489D01*
X128430264Y-85633501D01*
X128490061Y-85777864D01*
X128499500Y-85825316D01*
X128499500Y-89458480D01*
X128479815Y-89525519D01*
X128463181Y-89546161D01*
X127133701Y-90875640D01*
X127072378Y-90909125D01*
X127002686Y-90904141D01*
X126973135Y-90888277D01*
X126841010Y-90792283D01*
X126841009Y-90792282D01*
X126841007Y-90792281D01*
X126688880Y-90714769D01*
X126688877Y-90714767D01*
X126526504Y-90662009D01*
X126400026Y-90641977D01*
X126357868Y-90635300D01*
X126187132Y-90635300D01*
X126130921Y-90644203D01*
X126018497Y-90662009D01*
X126018494Y-90662009D01*
X125856122Y-90714767D01*
X125856119Y-90714769D01*
X125703992Y-90792281D01*
X125625185Y-90849538D01*
X125565865Y-90892637D01*
X125565863Y-90892639D01*
X125565862Y-90892639D01*
X125445139Y-91013362D01*
X125445139Y-91013363D01*
X125445137Y-91013365D01*
X125439752Y-91020777D01*
X125344781Y-91151492D01*
X125267269Y-91303619D01*
X125267267Y-91303622D01*
X125214509Y-91465994D01*
X125214509Y-91465997D01*
X125187800Y-91634632D01*
X125187800Y-91805367D01*
X125214509Y-91974002D01*
X125214509Y-91974005D01*
X125267267Y-92136377D01*
X125267269Y-92136380D01*
X125344781Y-92288507D01*
X125445137Y-92426635D01*
X125565865Y-92547363D01*
X125703993Y-92647719D01*
X125856120Y-92725231D01*
X125856122Y-92725232D01*
X126018495Y-92777990D01*
X126018496Y-92777990D01*
X126018499Y-92777991D01*
X126187132Y-92804700D01*
X126187133Y-92804700D01*
X126357867Y-92804700D01*
X126357868Y-92804700D01*
X126526501Y-92777991D01*
X126526504Y-92777990D01*
X126526505Y-92777990D01*
X126688877Y-92725232D01*
X126688877Y-92725231D01*
X126688880Y-92725231D01*
X126841007Y-92647719D01*
X126979135Y-92547363D01*
X127069679Y-92456819D01*
X127131002Y-92423334D01*
X127157360Y-92420500D01*
X127348996Y-92420500D01*
X127440040Y-92402389D01*
X127484328Y-92393580D01*
X127548069Y-92367177D01*
X127611807Y-92340777D01*
X127611808Y-92340776D01*
X127611811Y-92340775D01*
X127726543Y-92264114D01*
X129744114Y-90246543D01*
X129820775Y-90131811D01*
X129860939Y-90034845D01*
X129904779Y-89980442D01*
X129971073Y-89958377D01*
X130038773Y-89975656D01*
X130086384Y-90026793D01*
X130099500Y-90082298D01*
X130099500Y-104658481D01*
X130079815Y-104725520D01*
X130063181Y-104746162D01*
X128946162Y-105863181D01*
X128884839Y-105896666D01*
X128858481Y-105899500D01*
X126731004Y-105899500D01*
X126595677Y-105926418D01*
X126595667Y-105926421D01*
X126468192Y-105979222D01*
X126353454Y-106055887D01*
X125805412Y-106603929D01*
X125765184Y-106630809D01*
X125620823Y-106690604D01*
X125620814Y-106690609D01*
X125489711Y-106778210D01*
X125489707Y-106778213D01*
X125378213Y-106889707D01*
X125378210Y-106889711D01*
X125290609Y-107020814D01*
X125290602Y-107020827D01*
X125230264Y-107166498D01*
X125230261Y-107166510D01*
X125199500Y-107321153D01*
X125199500Y-107478846D01*
X125230261Y-107633489D01*
X125230264Y-107633501D01*
X125290602Y-107779172D01*
X125290609Y-107779185D01*
X125378210Y-107910288D01*
X125378213Y-107910292D01*
X125489707Y-108021786D01*
X125489711Y-108021789D01*
X125620814Y-108109390D01*
X125620827Y-108109397D01*
X125766498Y-108169735D01*
X125766503Y-108169737D01*
X125921153Y-108200499D01*
X125921156Y-108200500D01*
X125921158Y-108200500D01*
X126078844Y-108200500D01*
X126078845Y-108200499D01*
X126233497Y-108169737D01*
X126379179Y-108109394D01*
X126510289Y-108021789D01*
X126621789Y-107910289D01*
X126709394Y-107779179D01*
X126709395Y-107779176D01*
X126709397Y-107779173D01*
X126769192Y-107634812D01*
X126796067Y-107594588D01*
X127053839Y-107336816D01*
X127115161Y-107303334D01*
X127141519Y-107300500D01*
X129268996Y-107300500D01*
X129360040Y-107282389D01*
X129404328Y-107273580D01*
X129468069Y-107247177D01*
X129531807Y-107220777D01*
X129531808Y-107220776D01*
X129531811Y-107220775D01*
X129646543Y-107144114D01*
X130344114Y-106446543D01*
X130687819Y-106102838D01*
X130749142Y-106069353D01*
X130818834Y-106074337D01*
X130874767Y-106116209D01*
X130899184Y-106181673D01*
X130899500Y-106190519D01*
X130899500Y-107058481D01*
X130879815Y-107125520D01*
X130863181Y-107146162D01*
X129146162Y-108863181D01*
X129119234Y-108877884D01*
X129093416Y-108894477D01*
X129087215Y-108895368D01*
X129084839Y-108896666D01*
X129058481Y-108899500D01*
X128825316Y-108899500D01*
X128777864Y-108890061D01*
X128633501Y-108830264D01*
X128633489Y-108830261D01*
X128478845Y-108799500D01*
X128478842Y-108799500D01*
X128321158Y-108799500D01*
X128321155Y-108799500D01*
X128166510Y-108830261D01*
X128166498Y-108830264D01*
X128020827Y-108890602D01*
X128020814Y-108890609D01*
X127889711Y-108978210D01*
X127889707Y-108978213D01*
X127778213Y-109089707D01*
X127778210Y-109089711D01*
X127690609Y-109220814D01*
X127690602Y-109220827D01*
X127630264Y-109366498D01*
X127630261Y-109366510D01*
X127599500Y-109521153D01*
X127599500Y-109678846D01*
X127630261Y-109833489D01*
X127630264Y-109833501D01*
X127690602Y-109979172D01*
X127690609Y-109979185D01*
X127778210Y-110110288D01*
X127778213Y-110110292D01*
X127889707Y-110221786D01*
X127889711Y-110221789D01*
X128020814Y-110309390D01*
X128020818Y-110309392D01*
X128020821Y-110309394D01*
X128083139Y-110335206D01*
X128137541Y-110379046D01*
X128159606Y-110445340D01*
X128142327Y-110513039D01*
X128123367Y-110537448D01*
X128008027Y-110652788D01*
X127887715Y-110818386D01*
X127794781Y-111000776D01*
X127731522Y-111195465D01*
X127699500Y-111397648D01*
X127699500Y-111602351D01*
X127731522Y-111804534D01*
X127794781Y-111999223D01*
X127856716Y-112120775D01*
X127883620Y-112173578D01*
X127887715Y-112181613D01*
X128008028Y-112347213D01*
X128152786Y-112491971D01*
X128307749Y-112604556D01*
X128318390Y-112612287D01*
X128434607Y-112671503D01*
X128500776Y-112705218D01*
X128500778Y-112705218D01*
X128500781Y-112705220D01*
X128605137Y-112739127D01*
X128695465Y-112768477D01*
X128796557Y-112784488D01*
X128897648Y-112800500D01*
X128897649Y-112800500D01*
X129102351Y-112800500D01*
X129102352Y-112800500D01*
X129304534Y-112768477D01*
X129499219Y-112705220D01*
X129681610Y-112612287D01*
X129774590Y-112544732D01*
X129847213Y-112491971D01*
X129847215Y-112491968D01*
X129847219Y-112491966D01*
X129991966Y-112347219D01*
X129991968Y-112347215D01*
X129991971Y-112347213D01*
X130112284Y-112181614D01*
X130112285Y-112181613D01*
X130112287Y-112181610D01*
X130159516Y-112088917D01*
X130207489Y-112038123D01*
X130275310Y-112021328D01*
X130341445Y-112043865D01*
X130380485Y-112088919D01*
X130427715Y-112181614D01*
X130548028Y-112347213D01*
X130692786Y-112491971D01*
X130847749Y-112604556D01*
X130858390Y-112612287D01*
X130974607Y-112671503D01*
X131040776Y-112705218D01*
X131040778Y-112705218D01*
X131040781Y-112705220D01*
X131145137Y-112739127D01*
X131235465Y-112768477D01*
X131336557Y-112784488D01*
X131437648Y-112800500D01*
X131437649Y-112800500D01*
X131642351Y-112800500D01*
X131642352Y-112800500D01*
X131844534Y-112768477D01*
X132039219Y-112705220D01*
X132221610Y-112612287D01*
X132314590Y-112544732D01*
X132387213Y-112491971D01*
X132387215Y-112491968D01*
X132387219Y-112491966D01*
X132531966Y-112347219D01*
X132601425Y-112251615D01*
X132656755Y-112208949D01*
X132701744Y-112200500D01*
X134568996Y-112200500D01*
X134663959Y-112181610D01*
X134704328Y-112173580D01*
X134768069Y-112147177D01*
X134831807Y-112120777D01*
X134831808Y-112120776D01*
X134831811Y-112120775D01*
X134946543Y-112044114D01*
X136944114Y-110046543D01*
X137020775Y-109931811D01*
X137073580Y-109804328D01*
X137088165Y-109731007D01*
X137100500Y-109668996D01*
X137100500Y-67531004D01*
X137100499Y-67531002D01*
X137073582Y-67395679D01*
X137073579Y-67395670D01*
X137070298Y-67387748D01*
X137070283Y-67387713D01*
X137020775Y-67268189D01*
X136944114Y-67153457D01*
X136944112Y-67153454D01*
X134246545Y-64455887D01*
X134131807Y-64379222D01*
X134004332Y-64326421D01*
X134004322Y-64326418D01*
X133868996Y-64299500D01*
X133868994Y-64299500D01*
X133868993Y-64299500D01*
X123068994Y-64299500D01*
X122931006Y-64299500D01*
X122931004Y-64299500D01*
X122795677Y-64326418D01*
X122795667Y-64326421D01*
X122668192Y-64379222D01*
X122553454Y-64455887D01*
X120415887Y-66593454D01*
X120341808Y-66704324D01*
X120341806Y-66704326D01*
X120339227Y-66708184D01*
X120339221Y-66708196D01*
X120286421Y-66835667D01*
X120286418Y-66835677D01*
X120259500Y-66971004D01*
X120259500Y-67338254D01*
X120239815Y-67405293D01*
X120208385Y-67438572D01*
X120112787Y-67508027D01*
X120112782Y-67508031D01*
X119968028Y-67652785D01*
X119847715Y-67818385D01*
X119754781Y-68000775D01*
X119691522Y-68195464D01*
X119659500Y-68397647D01*
X119659500Y-68602350D01*
X119691522Y-68804533D01*
X119754781Y-68999222D01*
X119778427Y-69045628D01*
X119791323Y-69114297D01*
X119765047Y-69179038D01*
X119707940Y-69219295D01*
X119638135Y-69222287D01*
X119580261Y-69189604D01*
X119336819Y-68946162D01*
X119303334Y-68884839D01*
X119300500Y-68858481D01*
X119300500Y-66731004D01*
X119273581Y-66595676D01*
X119273578Y-66595666D01*
X119266340Y-66578195D01*
X119266338Y-66578189D01*
X119232247Y-66495886D01*
X119220775Y-66468189D01*
X119217611Y-66463454D01*
X119144115Y-66353459D01*
X119144114Y-66353458D01*
X119046542Y-66255886D01*
X118617076Y-65826420D01*
X117246546Y-64455888D01*
X117246545Y-64455887D01*
X117131807Y-64379222D01*
X117004332Y-64326421D01*
X117004322Y-64326418D01*
X116868996Y-64299500D01*
X116868994Y-64299500D01*
X116868993Y-64299500D01*
X116668993Y-64299500D01*
X83468994Y-64299500D01*
X83468993Y-64299500D01*
X74868994Y-64299500D01*
X74731006Y-64299500D01*
X74731004Y-64299500D01*
X74595677Y-64326418D01*
X74595667Y-64326421D01*
X74468192Y-64379222D01*
X74353454Y-64455887D01*
X70055887Y-68753454D01*
X70035788Y-68783534D01*
X70015780Y-68813480D01*
X69997439Y-68840928D01*
X69979223Y-68868191D01*
X69926421Y-68995667D01*
X69926418Y-68995677D01*
X69899500Y-69131004D01*
X69899500Y-69131006D01*
X69899500Y-69131007D01*
X69899500Y-82131006D01*
X69899500Y-82131007D01*
X69899500Y-106931007D01*
X69899500Y-109731007D01*
X69899500Y-114331007D01*
X69899500Y-114531006D01*
X69899500Y-114668994D01*
X69899500Y-114668996D01*
X69899499Y-114668996D01*
X69500500Y-114668996D01*
X69500500Y-65115272D01*
X70123500Y-65115272D01*
X70123500Y-65284727D01*
X70150007Y-65452082D01*
X70202366Y-65613230D01*
X70202367Y-65613233D01*
X70279294Y-65764209D01*
X70378892Y-65901293D01*
X70498707Y-66021108D01*
X70635791Y-66120706D01*
X70709840Y-66158435D01*
X70786766Y-66197632D01*
X70786769Y-66197633D01*
X70867343Y-66223812D01*
X70947919Y-66249993D01*
X71025429Y-66262269D01*
X71115273Y-66276500D01*
X71115278Y-66276500D01*
X71284727Y-66276500D01*
X71365858Y-66263649D01*
X71452081Y-66249993D01*
X71613233Y-66197632D01*
X71764209Y-66120706D01*
X71901293Y-66021108D01*
X72021108Y-65901293D01*
X72120706Y-65764209D01*
X72197632Y-65613233D01*
X72249993Y-65452081D01*
X72263649Y-65365858D01*
X72276500Y-65284727D01*
X72276500Y-65115272D01*
X72261079Y-65017913D01*
X72249993Y-64947919D01*
X72197632Y-64786767D01*
X72197632Y-64786766D01*
X72120705Y-64635790D01*
X72021108Y-64498707D01*
X71901293Y-64378892D01*
X71764209Y-64279294D01*
X71613233Y-64202367D01*
X71613230Y-64202366D01*
X71452082Y-64150007D01*
X71284727Y-64123500D01*
X71284722Y-64123500D01*
X71115278Y-64123500D01*
X71115273Y-64123500D01*
X70947917Y-64150007D01*
X70786769Y-64202366D01*
X70786766Y-64202367D01*
X70635790Y-64279294D01*
X70498705Y-64378893D01*
X70378893Y-64498705D01*
X70279294Y-64635790D01*
X70202367Y-64786766D01*
X70202366Y-64786769D01*
X70150007Y-64947917D01*
X70123500Y-65115272D01*
X69500500Y-65115272D01*
X69500500Y-63624500D01*
X69520185Y-63557461D01*
X69572989Y-63511706D01*
X69624500Y-63500500D01*
X137375500Y-63500500D01*
X137442539Y-63520185D01*
G37*
%TD.AperFunction*%
%TD*%
M02*
