M48
; DRILL file {KiCad 9.0.6-9.0.6~ubuntu24.04.1} date 2025-12-27T17:57:41+0100
; FORMAT={-:-/ absolute / inch / decimal}
; #@! TF.CreationDate,2025-12-27T17:57:41+01:00
; #@! TF.GenerationSoftware,Kicad,Pcbnew,9.0.6-9.0.6~ubuntu24.04.1
; #@! TF.FileFunction,Plated,1,2,PTH
FMAT,2
INCH
; #@! TA.AperFunction,Plated,PTH,ViaDrill
T1C0.0118
; #@! TA.AperFunction,Plated,PTH,ComponentDrill
T2C0.0300
; #@! TA.AperFunction,Plated,PTH,ViaDrill
T3C0.0315
; #@! TA.AperFunction,Plated,PTH,ComponentDrill
T4C0.0315
; #@! TA.AperFunction,Plated,PTH,ComponentDrill
T5C0.0320
; #@! TA.AperFunction,Plated,PTH,ComponentDrill
T6C0.0380
; #@! TA.AperFunction,Plated,PTH,ViaDrill
T7C0.0394
; #@! TA.AperFunction,Plated,PTH,ComponentDrill
T8C0.0394
; #@! TA.AperFunction,Plated,PTH,ComponentDrill
T9C0.0410
; #@! TA.AperFunction,Plated,PTH,ComponentDrill
T10C0.0440
; #@! TA.AperFunction,Plated,PTH,ComponentDrill
T11C0.0500
; #@! TA.AperFunction,Plated,PTH,ComponentDrill
T12C0.0512
; #@! TA.AperFunction,Plated,PTH,ComponentDrill
T13C0.0520
; #@! TA.AperFunction,Plated,PTH,ComponentDrill
T14C0.0571
; #@! TA.AperFunction,Plated,PTH,ComponentDrill
T15C0.1000
%
G90
G05
T1
X4.7047Y-2.6772
X4.8031Y-2.3858
X4.8623Y-2.6772
X4.8661Y-2.2126
X5.1378Y-2.4213
X5.1378Y-2.5591
X5.1732Y-2.2598
X5.2441Y-2.2835
X5.6102Y-2.3622
X5.8661Y-2.9134
X6.4567Y-2.6772
X6.6142Y-2.6772
T2
X6.535Y-2.1677
X6.535Y-2.2677
X6.535Y-2.3677
X6.835Y-2.1677
X6.835Y-2.2677
X6.835Y-2.3677
T3
X6.1811Y-3.5039
T4
X4.5984Y-2.1457
X4.6772Y-2.1457
X4.7559Y-2.1457
X4.8346Y-2.1457
X4.9134Y-2.1457
X4.9921Y-2.1457
X5.315Y-2.1654
X5.315Y-2.2638
T5
X6.535Y-2.5378
X6.535Y-2.6378
X6.535Y-2.7378
X6.835Y-2.5378
X6.835Y-2.6378
X6.835Y-2.7378
T6
X6.6142Y-3.4774
X6.6142Y-3.6774
T7
X5.0492Y-3.7205
X5.3622Y-3.6496
X5.6146Y-3.0512
X5.8071Y-3.3858
X6.0472Y-3.4646
X6.0728Y-2.9232
X6.2008Y-3.0512
X6.2992Y-3.1614
X6.4764Y-2.9331
X6.811Y-2.9134
X7.0472Y-2.874
T8
X6.8687Y-3.4636
X6.8687Y-3.6636
X7.0687Y-3.4636
X7.0687Y-3.6636
T9
X5.1831Y-3.1614
X5.1831Y-3.4374
X5.1831Y-2.7084
X5.3681Y-2.7084
T10
X6.552Y-3.9567
X6.752Y-3.9567
T11
X5.5646Y-2.2043
X5.5646Y-3.5043
X6.0646Y-2.2043
X6.3146Y-3.5043
T12
X4.6949Y-2.4941
X4.6949Y-3.0949
X4.6949Y-3.2933
X4.6949Y-3.4917
X4.9902Y-2.4941
X4.9902Y-3.0949
X4.9902Y-3.2933
X4.9902Y-3.4917
T13
X6.7323Y-3.0118
X6.7323Y-3.1122
X6.7323Y-3.2126
T14
X4.9016Y-3.8543
X4.9016Y-4.0551
X5.0984Y-3.8543
X5.0984Y-4.0551
X5.5709Y-3.8543
X5.5709Y-4.0551
X6.2008Y-3.8543
X6.2008Y-4.0551
X6.9882Y-3.8543
X6.9882Y-4.0551
T15
X6.5906Y-3.1102
M30
