%TF.GenerationSoftware,KiCad,Pcbnew,9.0.7-9.0.7~ubuntu24.04.1*%
%TF.CreationDate,2026-01-26T21:59:01+01:00*%
%TF.ProjectId,hv_board,68765f62-6f61-4726-942e-6b696361645f,rev?*%
%TF.SameCoordinates,Original*%
%TF.FileFunction,Soldermask,Top*%
%TF.FilePolarity,Negative*%
%FSLAX46Y46*%
G04 Gerber Fmt 4.6, Leading zero omitted, Abs format (unit mm)*
G04 Created by KiCad (PCBNEW 9.0.7-9.0.7~ubuntu24.04.1) date 2026-01-26 21:59:01*
%MOMM*%
%LPD*%
G01*
G04 APERTURE LIST*
G04 Aperture macros list*
%AMRoundRect*
0 Rectangle with rounded corners*
0 $1 Rounding radius*
0 $2 $3 $4 $5 $6 $7 $8 $9 X,Y pos of 4 corners*
0 Add a 4 corners polygon primitive as box body*
4,1,4,$2,$3,$4,$5,$6,$7,$8,$9,$2,$3,0*
0 Add four circle primitives for the rounded corners*
1,1,$1+$1,$2,$3*
1,1,$1+$1,$4,$5*
1,1,$1+$1,$6,$7*
1,1,$1+$1,$8,$9*
0 Add four rect primitives between the rounded corners*
20,1,$1+$1,$2,$3,$4,$5,0*
20,1,$1+$1,$4,$5,$6,$7,0*
20,1,$1+$1,$6,$7,$8,$9,0*
20,1,$1+$1,$8,$9,$2,$3,0*%
G04 Aperture macros list end*
%ADD10C,1.549400*%
%ADD11C,1.320800*%
%ADD12RoundRect,0.249999X1.075001X-0.450001X1.075001X0.450001X-1.075001X0.450001X-1.075001X-0.450001X0*%
%ADD13R,1.625600X1.625600*%
%ADD14C,1.625600*%
%ADD15R,2.000000X2.000000*%
%ADD16O,2.000000X2.000000*%
%ADD17RoundRect,0.250000X-0.350000X-0.450000X0.350000X-0.450000X0.350000X0.450000X-0.350000X0.450000X0*%
%ADD18C,3.810000*%
%ADD19C,1.270000*%
%ADD20R,2.175000X2.175000*%
%ADD21C,2.175000*%
%ADD22R,5.350000X1.060000*%
%ADD23R,0.711200X0.406400*%
%ADD24RoundRect,0.249999X-0.450001X-1.075001X0.450001X-1.075001X0.450001X1.075001X-0.450001X1.075001X0*%
%ADD25O,3.000000X2.000000*%
%ADD26R,2.000000X3.000000*%
%ADD27O,2.000000X3.000000*%
%ADD28RoundRect,0.250000X0.350000X0.450000X-0.350000X0.450000X-0.350000X-0.450000X0.350000X-0.450000X0*%
%ADD29C,1.300000*%
%ADD30RoundRect,0.150000X-0.587500X-0.150000X0.587500X-0.150000X0.587500X0.150000X-0.587500X0.150000X0*%
%ADD31R,0.965200X1.600200*%
%ADD32RoundRect,0.250000X0.450000X-0.350000X0.450000X0.350000X-0.450000X0.350000X-0.450000X-0.350000X0*%
%ADD33R,1.980000X1.980000*%
%ADD34C,1.980000*%
%ADD35RoundRect,0.250000X0.550000X-0.550000X0.550000X0.550000X-0.550000X0.550000X-0.550000X-0.550000X0*%
%ADD36C,1.600000*%
%ADD37RoundRect,0.249999X-1.075001X0.450001X-1.075001X-0.450001X1.075001X-0.450001X1.075001X0.450001X0*%
%ADD38C,1.778000*%
%ADD39R,1.473200X1.473200*%
%ADD40C,1.473200*%
%ADD41R,1.350000X1.350000*%
%ADD42C,1.350000*%
%ADD43RoundRect,0.150000X-0.150000X0.587500X-0.150000X-0.587500X0.150000X-0.587500X0.150000X0.587500X0*%
G04 APERTURE END LIST*
D10*
%TO.C,U2*%
X131649500Y-87309100D03*
X131649500Y-80298700D03*
X136349500Y-68792500D03*
X131650500Y-68792500D03*
%TD*%
D11*
%TO.C,U5*%
X173610000Y-69540000D03*
X173610000Y-67000000D03*
X173610000Y-64460000D03*
X165990000Y-64460000D03*
X165990000Y-67000000D03*
X165990000Y-69540000D03*
%TD*%
D12*
%TO.C,R6*%
X179000000Y-80800000D03*
X179000000Y-76000000D03*
%TD*%
D13*
%TO.C,F1*%
X171500000Y-100500000D03*
D14*
X166420000Y-100500000D03*
%TD*%
D15*
%TO.C,D1*%
X179545000Y-87975000D03*
D16*
X174465000Y-87975000D03*
X174465000Y-93055000D03*
X179545000Y-93055000D03*
%TD*%
D17*
%TO.C,R1*%
X127000000Y-59600000D03*
X129000000Y-59600000D03*
%TD*%
D12*
%TO.C,R5*%
X179045000Y-68300000D03*
X179045000Y-63500000D03*
%TD*%
D18*
%TO.C,H1*%
X167400000Y-79000000D03*
%TD*%
D19*
%TO.C,U7*%
X165990000Y-55060000D03*
X165990000Y-57600000D03*
X165990000Y-60140000D03*
X173610000Y-60140000D03*
X173610000Y-57600000D03*
X173610000Y-55060000D03*
%TD*%
D20*
%TO.C,FA1*%
X177500000Y-97900000D03*
D21*
X177500000Y-103000000D03*
%TD*%
D22*
%TO.C,C1*%
X149600000Y-95800000D03*
X149600000Y-101000000D03*
%TD*%
D20*
%TO.C,FA11*%
X124500000Y-97900000D03*
D21*
X124500000Y-103000000D03*
%TD*%
D23*
%TO.C,U3*%
X117806200Y-59500000D03*
X120193800Y-59500000D03*
%TD*%
D24*
%TO.C,R11*%
X138400000Y-94200000D03*
X143200000Y-94200000D03*
%TD*%
D25*
%TO.C,K1*%
X126750000Y-83650000D03*
X119250000Y-83650000D03*
X126750000Y-78610000D03*
X119250000Y-78610000D03*
X126750000Y-88690000D03*
X119250000Y-88690000D03*
D26*
X119250000Y-63350000D03*
D27*
X126750000Y-63350000D03*
%TD*%
D28*
%TO.C,R7*%
X157000000Y-93500000D03*
X155000000Y-93500000D03*
%TD*%
D29*
%TO.C,REF\u002A\u002A*%
X117000000Y-103500000D03*
%TD*%
D30*
%TO.C,Q1*%
X122625000Y-57550000D03*
X122625000Y-59450000D03*
X124500000Y-58500000D03*
%TD*%
D31*
%TO.C,F4*%
X119000000Y-57200000D03*
X116053600Y-57200000D03*
%TD*%
D32*
%TO.C,R8*%
X132600000Y-62400000D03*
X132600000Y-60400000D03*
%TD*%
D20*
%TO.C,FA4*%
X157500000Y-97900000D03*
D21*
X157500000Y-103000000D03*
%TD*%
D33*
%TO.C,Q3*%
X171000000Y-81600000D03*
D34*
X171000000Y-79050000D03*
X171000000Y-76500000D03*
%TD*%
D20*
%TO.C,FA10*%
X129500000Y-97900000D03*
D21*
X129500000Y-103000000D03*
%TD*%
D35*
%TO.C,C3*%
X135000000Y-57500000D03*
D36*
X135000000Y-55000000D03*
%TD*%
D37*
%TO.C,R9*%
X177200000Y-55200000D03*
X177200000Y-60000000D03*
%TD*%
D20*
%TO.C,FA7*%
X141500000Y-97900000D03*
D21*
X141500000Y-103000000D03*
%TD*%
D17*
%TO.C,R28*%
X127000000Y-57000000D03*
X129000000Y-57000000D03*
%TD*%
D29*
%TO.C,REF\u002A\u002A*%
X181000000Y-54500000D03*
%TD*%
D38*
%TO.C,U1*%
X141340000Y-89010000D03*
X160390000Y-89010000D03*
X141340000Y-55990000D03*
X154040000Y-55990000D03*
%TD*%
D39*
%TO.C,F2*%
X168000000Y-93405000D03*
D40*
X168000000Y-88325000D03*
%TD*%
D41*
%TO.C,J6*%
X116800000Y-54500000D03*
D42*
X118800000Y-54500000D03*
X120800000Y-54500000D03*
X122800000Y-54500000D03*
X124800000Y-54500000D03*
X126800000Y-54500000D03*
%TD*%
D23*
%TO.C,U4*%
X136193800Y-66000000D03*
X133806200Y-66000000D03*
%TD*%
D43*
%TO.C,Q2*%
X137000000Y-61500000D03*
X135100000Y-61500000D03*
X136050000Y-63375000D03*
%TD*%
M02*
