%TF.GenerationSoftware,KiCad,Pcbnew,9.0.7-9.0.7~ubuntu24.04.1*%
%TF.CreationDate,2026-01-26T21:59:01+01:00*%
%TF.ProjectId,hv_board,68765f62-6f61-4726-942e-6b696361645f,rev?*%
%TF.SameCoordinates,Original*%
%TF.FileFunction,Copper,L2,Bot*%
%TF.FilePolarity,Positive*%
%FSLAX46Y46*%
G04 Gerber Fmt 4.6, Leading zero omitted, Abs format (unit mm)*
G04 Created by KiCad (PCBNEW 9.0.7-9.0.7~ubuntu24.04.1) date 2026-01-26 21:59:01*
%MOMM*%
%LPD*%
G01*
G04 APERTURE LIST*
G04 Aperture macros list*
%AMRoundRect*
0 Rectangle with rounded corners*
0 $1 Rounding radius*
0 $2 $3 $4 $5 $6 $7 $8 $9 X,Y pos of 4 corners*
0 Add a 4 corners polygon primitive as box body*
4,1,4,$2,$3,$4,$5,$6,$7,$8,$9,$2,$3,0*
0 Add four circle primitives for the rounded corners*
1,1,$1+$1,$2,$3*
1,1,$1+$1,$4,$5*
1,1,$1+$1,$6,$7*
1,1,$1+$1,$8,$9*
0 Add four rect primitives between the rounded corners*
20,1,$1+$1,$2,$3,$4,$5,0*
20,1,$1+$1,$4,$5,$6,$7,0*
20,1,$1+$1,$6,$7,$8,$9,0*
20,1,$1+$1,$8,$9,$2,$3,0*%
G04 Aperture macros list end*
%TA.AperFunction,ComponentPad*%
%ADD10C,1.549400*%
%TD*%
%TA.AperFunction,ComponentPad*%
%ADD11C,1.320800*%
%TD*%
%TA.AperFunction,ComponentPad*%
%ADD12R,1.625600X1.625600*%
%TD*%
%TA.AperFunction,ComponentPad*%
%ADD13C,1.625600*%
%TD*%
%TA.AperFunction,ComponentPad*%
%ADD14R,2.000000X2.000000*%
%TD*%
%TA.AperFunction,ComponentPad*%
%ADD15O,2.000000X2.000000*%
%TD*%
%TA.AperFunction,ComponentPad*%
%ADD16C,3.810000*%
%TD*%
%TA.AperFunction,ComponentPad*%
%ADD17C,1.270000*%
%TD*%
%TA.AperFunction,ComponentPad*%
%ADD18R,2.175000X2.175000*%
%TD*%
%TA.AperFunction,ComponentPad*%
%ADD19C,2.175000*%
%TD*%
%TA.AperFunction,ComponentPad*%
%ADD20O,3.000000X2.000000*%
%TD*%
%TA.AperFunction,ComponentPad*%
%ADD21R,2.000000X3.000000*%
%TD*%
%TA.AperFunction,ComponentPad*%
%ADD22O,2.000000X3.000000*%
%TD*%
%TA.AperFunction,ComponentPad*%
%ADD23R,1.980000X1.980000*%
%TD*%
%TA.AperFunction,ComponentPad*%
%ADD24C,1.980000*%
%TD*%
%TA.AperFunction,ComponentPad*%
%ADD25RoundRect,0.250000X0.550000X-0.550000X0.550000X0.550000X-0.550000X0.550000X-0.550000X-0.550000X0*%
%TD*%
%TA.AperFunction,ComponentPad*%
%ADD26C,1.600000*%
%TD*%
%TA.AperFunction,ComponentPad*%
%ADD27C,1.778000*%
%TD*%
%TA.AperFunction,ComponentPad*%
%ADD28R,1.473200X1.473200*%
%TD*%
%TA.AperFunction,ComponentPad*%
%ADD29C,1.473200*%
%TD*%
%TA.AperFunction,ComponentPad*%
%ADD30R,1.350000X1.350000*%
%TD*%
%TA.AperFunction,ComponentPad*%
%ADD31C,1.350000*%
%TD*%
%TA.AperFunction,ViaPad*%
%ADD32C,0.600000*%
%TD*%
%TA.AperFunction,ViaPad*%
%ADD33C,1.600000*%
%TD*%
%TA.AperFunction,Conductor*%
%ADD34C,0.600000*%
%TD*%
%TA.AperFunction,Conductor*%
%ADD35C,1.600000*%
%TD*%
%TA.AperFunction,Conductor*%
%ADD36C,0.400000*%
%TD*%
G04 APERTURE END LIST*
D10*
%TO.P,U2,1,1*%
%TO.N,COFFEE_RELAY_L*%
X131649500Y-87309100D03*
%TO.P,U2,2,2*%
%TO.N,230V_L*%
X131649500Y-80298700D03*
%TO.P,U2,3,3*%
%TO.N,12V*%
X136349500Y-68792500D03*
%TO.P,U2,4,4*%
%TO.N,Net-(Q2-D)*%
X131650500Y-68792500D03*
%TD*%
D11*
%TO.P,U5,1*%
%TO.N,Net-(R7-Pad2)*%
X173610000Y-69540000D03*
%TO.P,U5,2*%
%TO.N,Net-(D1--)*%
X173610000Y-67000000D03*
%TO.P,U5,3*%
%TO.N,unconnected-(U5-Pad3)*%
X173610000Y-64460000D03*
%TO.P,U5,4*%
%TO.N,PIN3*%
X165990000Y-64460000D03*
%TO.P,U5,5*%
%TO.N,GND*%
X165990000Y-67000000D03*
%TO.P,U5,6*%
%TO.N,12V*%
X165990000Y-69540000D03*
%TD*%
D12*
%TO.P,F1,1,1*%
%TO.N,230V_L*%
X171500000Y-100500000D03*
D13*
%TO.P,F1,2,2*%
%TO.N,Net-(U1-ACL)*%
X166420000Y-100500000D03*
%TD*%
D14*
%TO.P,D1,1,+*%
%TO.N,Net-(D1-+)*%
X179545000Y-87975000D03*
D15*
%TO.P,D1,2*%
%TO.N,Net-(D1-Pad2)*%
X174465000Y-87975000D03*
%TO.P,D1,3,-*%
%TO.N,Net-(D1--)*%
X174465000Y-93055000D03*
%TO.P,D1,4*%
%TO.N,Net-(D1-Pad4)*%
X179545000Y-93055000D03*
%TD*%
D16*
%TO.P,H1,1,1*%
%TO.N,COFFEE_RELAY_L*%
X167400000Y-79000000D03*
%TD*%
D17*
%TO.P,U7,1*%
%TO.N,Net-(R8-Pad2)*%
X165990000Y-55060000D03*
%TO.P,U7,2*%
%TO.N,GND*%
X165990000Y-57600000D03*
%TO.P,U7,3,NC*%
%TO.N,unconnected-(U7-NC-Pad3)*%
X165990000Y-60140000D03*
%TO.P,U7,4*%
%TO.N,Net-(Q3-G)*%
X173610000Y-60140000D03*
%TO.P,U7,5,NC*%
%TO.N,unconnected-(U7-NC-Pad5)*%
X173610000Y-57600000D03*
%TO.P,U7,6*%
%TO.N,Net-(R9-Pad1)*%
X173610000Y-55060000D03*
%TD*%
D18*
%TO.P,FA1,1,1*%
%TO.N,Net-(F2-Pad1)*%
X177500000Y-97900000D03*
D19*
%TO.P,FA1,2,2*%
X177500000Y-103000000D03*
%TD*%
D18*
%TO.P,FA11,1,1*%
%TO.N,Net-(FA11-Pad1)*%
X124500000Y-97900000D03*
D19*
%TO.P,FA11,2,2*%
X124500000Y-103000000D03*
%TD*%
D20*
%TO.P,K1,11*%
%TO.N,230V_L*%
X126750000Y-83650000D03*
X119250000Y-83650000D03*
%TO.P,K1,12*%
%TO.N,unconnected-(K1-Pad12)*%
X126750000Y-78610000D03*
X119250000Y-78610000D03*
%TO.P,K1,14*%
%TO.N,Net-(FA11-Pad1)*%
X126750000Y-88690000D03*
X119250000Y-88690000D03*
D21*
%TO.P,K1,A1*%
%TO.N,Net-(Q1-D)*%
X119250000Y-63350000D03*
D22*
%TO.P,K1,A2*%
%TO.N,12V*%
X126750000Y-63350000D03*
%TD*%
D18*
%TO.P,FA4,1,1*%
%TO.N,230V_N*%
X157500000Y-97900000D03*
D19*
%TO.P,FA4,2,2*%
X157500000Y-103000000D03*
%TD*%
D23*
%TO.P,Q3,1,A1*%
%TO.N,Net-(Q3-A1)*%
X171000000Y-81600000D03*
D24*
%TO.P,Q3,2,A2*%
%TO.N,COFFEE_RELAY_L*%
X171000000Y-79050000D03*
%TO.P,Q3,3,G*%
%TO.N,Net-(Q3-G)*%
X171000000Y-76500000D03*
%TD*%
D18*
%TO.P,FA10,1,1*%
%TO.N,Net-(Q3-A1)*%
X129500000Y-97900000D03*
D19*
%TO.P,FA10,2,2*%
X129500000Y-103000000D03*
%TD*%
D25*
%TO.P,C3,1*%
%TO.N,Net-(U1-+VOUT)*%
X135000000Y-57500000D03*
D26*
%TO.P,C3,2*%
%TO.N,GND*%
X135000000Y-55000000D03*
%TD*%
D18*
%TO.P,FA7,1,1*%
%TO.N,COFFEE_RELAY_L*%
X141500000Y-97900000D03*
D19*
%TO.P,FA7,2,2*%
X141500000Y-103000000D03*
%TD*%
D27*
%TO.P,U1,1,ACN*%
%TO.N,230V_N*%
X141340000Y-89010000D03*
%TO.P,U1,2,ACL*%
%TO.N,Net-(U1-ACL)*%
X160390000Y-89010000D03*
%TO.P,U1,3,-VOUT*%
%TO.N,GND*%
X141340000Y-55990000D03*
%TO.P,U1,4,+VOUT*%
%TO.N,Net-(U1-+VOUT)*%
X154040000Y-55990000D03*
%TD*%
D28*
%TO.P,F2,1,1*%
%TO.N,Net-(F2-Pad1)*%
X168000000Y-93405000D03*
D29*
%TO.P,F2,2,2*%
%TO.N,230V_L*%
X168000000Y-88325000D03*
%TD*%
D30*
%TO.P,J6,1,Pin_1*%
%TO.N,12V*%
X116800000Y-54500000D03*
D31*
%TO.P,J6,2,Pin_2*%
%TO.N,GND*%
X118800000Y-54500000D03*
%TO.P,J6,3,Pin_3*%
%TO.N,PIN3*%
X120800000Y-54500000D03*
%TO.P,J6,4,Pin_4*%
%TO.N,PIN4*%
X122800000Y-54500000D03*
%TO.P,J6,5,Pin_5*%
%TO.N,PIN5*%
X124800000Y-54500000D03*
%TO.P,J6,6,Pin_6*%
%TO.N,PIN6*%
X126800000Y-54500000D03*
%TD*%
D32*
%TO.N,GND*%
X119500000Y-68000000D03*
X123502872Y-68000000D03*
X164000000Y-66200000D03*
X122000000Y-60600000D03*
X168000000Y-68000000D03*
%TO.N,Net-(U1-+VOUT)*%
X131400000Y-57400000D03*
X123600000Y-56200000D03*
D33*
%TO.N,230V_L*%
X179000000Y-73000000D03*
X160000000Y-80300000D03*
X173000000Y-74000000D03*
%TO.N,230V_N*%
X142610000Y-77500000D03*
X153600000Y-88000000D03*
X157500000Y-77500000D03*
%TO.N,COFFEE_RELAY_L*%
X128250000Y-94500000D03*
X154250000Y-74250000D03*
X147500000Y-86000000D03*
D32*
%TO.N,Net-(D1-+)*%
X157000000Y-89000000D03*
%TO.N,PIN6*%
X133200000Y-58000000D03*
D33*
%TO.N,Net-(Q3-A1)*%
X136200000Y-92700000D03*
D32*
%TO.N,Net-(R7-Pad2)*%
X149000000Y-74000000D03*
%TO.N,Net-(R8-Pad2)*%
X142500000Y-60000000D03*
X130500000Y-61500000D03*
D33*
%TO.N,Net-(Q3-G)*%
X164500000Y-74500000D03*
D32*
%TO.N,PIN4*%
X130500000Y-65000000D03*
%TD*%
D34*
%TO.N,Net-(U1-+VOUT)*%
X138750000Y-57500000D02*
X139500000Y-58250000D01*
X124800000Y-57400000D02*
X131400000Y-57400000D01*
X139500000Y-58250000D02*
X151780000Y-58250000D01*
X151780000Y-58250000D02*
X154030029Y-55999971D01*
X123600000Y-56200000D02*
X124800000Y-57400000D01*
X135000000Y-57500000D02*
X138750000Y-57500000D01*
D35*
%TO.N,230V_L*%
X171500000Y-91825000D02*
X168000000Y-88325000D01*
X137124200Y-81073400D02*
X159226600Y-81073400D01*
X136349500Y-80298700D02*
X137124200Y-81073400D01*
X131649500Y-80298700D02*
X136349500Y-80298700D01*
X179000000Y-73000000D02*
X174000000Y-73000000D01*
X171500000Y-100500000D02*
X171500000Y-91825000D01*
X174000000Y-73000000D02*
X173000000Y-74000000D01*
X159226600Y-81073400D02*
X160000000Y-80300000D01*
%TO.N,230V_N*%
X142610000Y-77500000D02*
X157500000Y-77500000D01*
X153600000Y-94000000D02*
X157500000Y-97900000D01*
X153600000Y-88000000D02*
X153600000Y-94000000D01*
%TO.N,COFFEE_RELAY_L*%
X138100000Y-94500000D02*
X141500000Y-97900000D01*
X157362684Y-74250000D02*
X162112684Y-79000000D01*
X162112684Y-79000000D02*
X167400000Y-79000000D01*
X128250000Y-94500000D02*
X138100000Y-94500000D01*
X157362684Y-74250000D02*
X154250000Y-74250000D01*
X131649500Y-87309100D02*
X132958600Y-86000000D01*
X132958600Y-86000000D02*
X147500000Y-86000000D01*
D34*
%TO.N,Net-(D1-+)*%
X160250000Y-85750000D02*
X157000000Y-89000000D01*
X177320000Y-85750000D02*
X163250000Y-85750000D01*
X179545000Y-87975000D02*
X177320000Y-85750000D01*
X163250000Y-85750000D02*
X160250000Y-85750000D01*
%TO.N,Net-(D1--)*%
X182000000Y-94000000D02*
X182000000Y-93500000D01*
X173500000Y-67000000D02*
X178500000Y-67000000D01*
X182000000Y-70500000D02*
X182000000Y-78000000D01*
X182000000Y-78000000D02*
X182000000Y-93500000D01*
X174465000Y-93055000D02*
X176910000Y-95500000D01*
X178500000Y-67000000D02*
X182000000Y-70500000D01*
X180500000Y-95500000D02*
X182000000Y-94000000D01*
X176910000Y-95500000D02*
X180500000Y-95500000D01*
D36*
%TO.N,PIN6*%
X133200000Y-58000000D02*
X129700000Y-54500000D01*
X129700000Y-54500000D02*
X126800000Y-54500000D01*
D35*
%TO.N,Net-(Q3-A1)*%
X144400000Y-92600000D02*
X153200000Y-83800000D01*
X168800000Y-83800000D02*
X171000000Y-81600000D01*
X136299000Y-92700000D02*
X136399000Y-92600000D01*
X136399000Y-92600000D02*
X144400000Y-92600000D01*
X136200000Y-92700000D02*
X136299000Y-92700000D01*
X153200000Y-83800000D02*
X168800000Y-83800000D01*
D34*
%TO.N,Net-(R7-Pad2)*%
X163001000Y-76501000D02*
X158000000Y-71500000D01*
X165499000Y-76501000D02*
X163001000Y-76501000D01*
X165499000Y-76501000D02*
X172460000Y-69540000D01*
X151500000Y-71500000D02*
X149000000Y-74000000D01*
X172460000Y-69540000D02*
X173610000Y-69540000D01*
X158000000Y-71500000D02*
X151500000Y-71500000D01*
D36*
%TO.N,Net-(R8-Pad2)*%
X142500000Y-60000000D02*
X132000000Y-60000000D01*
X132000000Y-60000000D02*
X130500000Y-61500000D01*
D34*
%TO.N,12V*%
X165990000Y-69540000D02*
X165140000Y-69540000D01*
X158400000Y-62800000D02*
X142342000Y-62800000D01*
X165140000Y-69540000D02*
X158400000Y-62800000D01*
X142342000Y-62800000D02*
X136349500Y-68792500D01*
D35*
%TO.N,Net-(Q3-G)*%
X170000000Y-63600000D02*
X170090000Y-63600000D01*
X164500000Y-74500000D02*
X170000000Y-69000000D01*
X170000000Y-69000000D02*
X170000000Y-63600000D01*
X170090000Y-63600000D02*
X173610000Y-60080000D01*
D36*
%TO.N,PIN3*%
X156000000Y-53000000D02*
X159750000Y-56750000D01*
X159750000Y-61350000D02*
X162860000Y-64460000D01*
X120800000Y-54500000D02*
X122300000Y-53000000D01*
X162860000Y-64460000D02*
X165990000Y-64460000D01*
X159750000Y-56750000D02*
X159750000Y-61350000D01*
X122300000Y-53000000D02*
X156000000Y-53000000D01*
%TO.N,PIN4*%
X129300000Y-66200000D02*
X124800000Y-66200000D01*
X120800000Y-62200000D02*
X120800000Y-56500000D01*
X124800000Y-66200000D02*
X120800000Y-62200000D01*
X130500000Y-65000000D02*
X129300000Y-66200000D01*
X120800000Y-56500000D02*
X122800000Y-54500000D01*
%TD*%
%TA.AperFunction,Conductor*%
%TO.N,GND*%
G36*
X121576521Y-52520185D02*
G01*
X121622276Y-52572989D01*
X121632220Y-52642147D01*
X121603195Y-52705703D01*
X121597163Y-52712181D01*
X121016895Y-53292447D01*
X120955572Y-53325932D01*
X120909819Y-53327240D01*
X120892517Y-53324500D01*
X120892514Y-53324500D01*
X120707486Y-53324500D01*
X120667028Y-53330908D01*
X120524734Y-53353445D01*
X120348767Y-53410619D01*
X120348764Y-53410620D01*
X120183903Y-53494622D01*
X120098499Y-53556672D01*
X120034213Y-53603379D01*
X120034211Y-53603381D01*
X120034210Y-53603381D01*
X119903381Y-53734210D01*
X119903381Y-53734211D01*
X119903379Y-53734213D01*
X119872199Y-53777129D01*
X119794622Y-53883903D01*
X119710620Y-54048764D01*
X119710619Y-54048767D01*
X119653445Y-54224734D01*
X119624500Y-54407486D01*
X119624500Y-54592513D01*
X119653445Y-54775265D01*
X119710619Y-54951232D01*
X119710620Y-54951235D01*
X119778676Y-55084801D01*
X119794622Y-55116096D01*
X119903379Y-55265787D01*
X120034213Y-55396621D01*
X120183904Y-55505378D01*
X120237224Y-55532546D01*
X120348764Y-55589379D01*
X120348767Y-55589380D01*
X120436485Y-55617881D01*
X120494160Y-55657318D01*
X120521359Y-55721677D01*
X120509445Y-55790523D01*
X120485848Y-55823493D01*
X120255887Y-56053454D01*
X120179222Y-56168192D01*
X120126421Y-56295667D01*
X120126418Y-56295679D01*
X120100521Y-56425872D01*
X120100520Y-56425877D01*
X120099501Y-56430996D01*
X120099500Y-56431011D01*
X120099500Y-61225500D01*
X120079815Y-61292539D01*
X120027011Y-61338294D01*
X119975500Y-61349500D01*
X118202129Y-61349500D01*
X118202123Y-61349501D01*
X118142516Y-61355908D01*
X118007671Y-61406202D01*
X118007664Y-61406206D01*
X117892455Y-61492452D01*
X117892452Y-61492455D01*
X117806206Y-61607664D01*
X117806202Y-61607671D01*
X117755908Y-61742517D01*
X117749501Y-61802116D01*
X117749500Y-61802135D01*
X117749500Y-64897870D01*
X117749501Y-64897876D01*
X117755908Y-64957483D01*
X117806202Y-65092328D01*
X117806206Y-65092335D01*
X117892452Y-65207544D01*
X117892455Y-65207547D01*
X118007664Y-65293793D01*
X118007671Y-65293797D01*
X118142517Y-65344091D01*
X118142516Y-65344091D01*
X118149444Y-65344835D01*
X118202127Y-65350500D01*
X120297872Y-65350499D01*
X120357483Y-65344091D01*
X120492331Y-65293796D01*
X120607546Y-65207546D01*
X120693796Y-65092331D01*
X120744091Y-64957483D01*
X120750500Y-64897873D01*
X120750499Y-63440517D01*
X120770184Y-63373479D01*
X120822987Y-63327724D01*
X120892146Y-63317780D01*
X120955702Y-63346805D01*
X120962180Y-63352837D01*
X124353453Y-66744111D01*
X124353454Y-66744112D01*
X124468190Y-66820776D01*
X124566790Y-66861617D01*
X124595671Y-66873580D01*
X124595672Y-66873580D01*
X124595677Y-66873582D01*
X124622545Y-66878925D01*
X124622551Y-66878926D01*
X124622591Y-66878934D01*
X124712937Y-66896905D01*
X124731006Y-66900500D01*
X124731007Y-66900500D01*
X129368996Y-66900500D01*
X129477457Y-66878925D01*
X129504328Y-66873580D01*
X129568069Y-66847177D01*
X129631807Y-66820777D01*
X129631808Y-66820776D01*
X129631811Y-66820775D01*
X129746543Y-66744114D01*
X130694586Y-65796069D01*
X130734810Y-65769192D01*
X130789435Y-65746566D01*
X130879173Y-65709397D01*
X130879176Y-65709395D01*
X130879179Y-65709394D01*
X131010289Y-65621789D01*
X131121789Y-65510289D01*
X131209394Y-65379179D01*
X131269737Y-65233497D01*
X131300500Y-65078842D01*
X131300500Y-64921158D01*
X131300500Y-64921155D01*
X131300499Y-64921153D01*
X131295868Y-64897870D01*
X131269737Y-64766503D01*
X131215861Y-64636433D01*
X131209397Y-64620827D01*
X131209390Y-64620814D01*
X131121789Y-64489711D01*
X131121786Y-64489707D01*
X131010292Y-64378213D01*
X131010288Y-64378210D01*
X130879185Y-64290609D01*
X130879172Y-64290602D01*
X130733501Y-64230264D01*
X130733489Y-64230261D01*
X130578845Y-64199500D01*
X130578842Y-64199500D01*
X130421158Y-64199500D01*
X130421155Y-64199500D01*
X130266510Y-64230261D01*
X130266498Y-64230264D01*
X130120827Y-64290602D01*
X130120814Y-64290609D01*
X129989711Y-64378210D01*
X129989707Y-64378213D01*
X129878213Y-64489707D01*
X129878210Y-64489711D01*
X129790609Y-64620814D01*
X129790604Y-64620823D01*
X129730809Y-64765184D01*
X129703929Y-64805412D01*
X129046162Y-65463181D01*
X128984839Y-65496666D01*
X128958481Y-65499500D01*
X127311986Y-65499500D01*
X127244947Y-65479815D01*
X127199192Y-65427011D01*
X127189248Y-65357853D01*
X127218273Y-65294297D01*
X127273665Y-65257569D01*
X127325992Y-65240568D01*
X127536433Y-65133343D01*
X127727510Y-64994517D01*
X127894517Y-64827510D01*
X128033343Y-64636433D01*
X128140568Y-64425992D01*
X128213553Y-64201368D01*
X128243171Y-64014369D01*
X128250500Y-63968097D01*
X128250500Y-62731902D01*
X128213553Y-62498631D01*
X128140566Y-62274003D01*
X128084002Y-62162991D01*
X128033343Y-62063567D01*
X127894517Y-61872490D01*
X127727510Y-61705483D01*
X127536433Y-61566657D01*
X127512224Y-61554322D01*
X127325996Y-61459433D01*
X127101368Y-61386446D01*
X126868097Y-61349500D01*
X126868092Y-61349500D01*
X126631908Y-61349500D01*
X126631903Y-61349500D01*
X126398631Y-61386446D01*
X126174003Y-61459433D01*
X125963566Y-61566657D01*
X125907119Y-61607669D01*
X125772490Y-61705483D01*
X125772488Y-61705485D01*
X125772487Y-61705485D01*
X125605485Y-61872487D01*
X125605485Y-61872488D01*
X125605483Y-61872490D01*
X125551957Y-61946162D01*
X125466657Y-62063566D01*
X125359433Y-62274003D01*
X125286446Y-62498631D01*
X125249500Y-62731902D01*
X125249500Y-63968097D01*
X125286446Y-64201368D01*
X125359433Y-64425996D01*
X125423315Y-64551370D01*
X125466657Y-64636433D01*
X125605483Y-64827510D01*
X125772490Y-64994517D01*
X125963567Y-65133343D01*
X126016866Y-65160500D01*
X126174003Y-65240566D01*
X126174005Y-65240566D01*
X126174008Y-65240568D01*
X126226334Y-65257569D01*
X126284008Y-65297007D01*
X126311206Y-65361366D01*
X126299291Y-65430212D01*
X126252047Y-65481688D01*
X126188014Y-65499500D01*
X125141519Y-65499500D01*
X125074480Y-65479815D01*
X125053838Y-65463181D01*
X121536819Y-61946162D01*
X121503334Y-61884839D01*
X121500500Y-61858481D01*
X121500500Y-56841518D01*
X121520185Y-56774479D01*
X121536814Y-56753841D01*
X122583106Y-55707549D01*
X122612383Y-55691562D01*
X122641257Y-55674799D01*
X122643235Y-55674716D01*
X122644427Y-55674066D01*
X122676383Y-55671358D01*
X122683314Y-55671671D01*
X122707486Y-55675500D01*
X122768031Y-55675500D01*
X122770819Y-55675626D01*
X122801326Y-55686101D01*
X122832260Y-55695185D01*
X122834158Y-55697375D01*
X122836902Y-55698318D01*
X122856903Y-55723625D01*
X122878015Y-55747989D01*
X122878427Y-55750858D01*
X122880226Y-55753134D01*
X122883369Y-55785230D01*
X122887959Y-55817147D01*
X122886880Y-55821076D01*
X122887037Y-55822670D01*
X122885760Y-55825161D01*
X122879782Y-55846952D01*
X122830264Y-55966498D01*
X122830261Y-55966510D01*
X122799500Y-56121153D01*
X122799500Y-56278846D01*
X122830261Y-56433489D01*
X122830264Y-56433501D01*
X122890602Y-56579172D01*
X122890609Y-56579185D01*
X122978210Y-56710288D01*
X122978213Y-56710292D01*
X124173870Y-57905947D01*
X124173891Y-57905970D01*
X124289707Y-58021786D01*
X124289711Y-58021789D01*
X124420814Y-58109390D01*
X124420827Y-58109397D01*
X124566498Y-58169735D01*
X124566503Y-58169737D01*
X124566507Y-58169737D01*
X124566508Y-58169738D01*
X124721154Y-58200500D01*
X124721157Y-58200500D01*
X131478844Y-58200500D01*
X131478845Y-58200499D01*
X131633497Y-58169737D01*
X131779179Y-58109394D01*
X131910289Y-58021789D01*
X131983031Y-57949046D01*
X132044352Y-57915563D01*
X132114044Y-57920547D01*
X132158392Y-57949048D01*
X132403927Y-58194583D01*
X132430807Y-58234812D01*
X132490602Y-58379172D01*
X132490609Y-58379185D01*
X132578210Y-58510288D01*
X132578213Y-58510292D01*
X132689707Y-58621786D01*
X132689711Y-58621789D01*
X132820814Y-58709390D01*
X132820827Y-58709397D01*
X132943693Y-58760289D01*
X132966503Y-58769737D01*
X133121148Y-58800498D01*
X133121153Y-58800499D01*
X133121156Y-58800500D01*
X133121158Y-58800500D01*
X133278844Y-58800500D01*
X133278845Y-58800499D01*
X133433497Y-58769737D01*
X133579179Y-58709394D01*
X133710289Y-58621789D01*
X133747673Y-58584405D01*
X133808995Y-58550919D01*
X133878687Y-58555903D01*
X133923036Y-58584404D01*
X133981344Y-58642712D01*
X134130666Y-58734814D01*
X134297203Y-58789999D01*
X134399991Y-58800500D01*
X135600008Y-58800499D01*
X135702797Y-58789999D01*
X135869334Y-58734814D01*
X136018656Y-58642712D01*
X136142712Y-58518656D01*
X136234814Y-58369334D01*
X136234814Y-58369332D01*
X136238605Y-58363187D01*
X136240399Y-58364293D01*
X136279687Y-58319663D01*
X136345908Y-58300500D01*
X138367060Y-58300500D01*
X138434099Y-58320185D01*
X138454741Y-58336819D01*
X138878211Y-58760289D01*
X138989708Y-58871786D01*
X138989712Y-58871790D01*
X139120814Y-58959390D01*
X139120827Y-58959397D01*
X139229717Y-59004500D01*
X139266503Y-59019737D01*
X139266507Y-59019737D01*
X139266508Y-59019738D01*
X139421154Y-59050500D01*
X142077099Y-59050500D01*
X142087918Y-59053676D01*
X142099130Y-59052473D01*
X142120842Y-59063344D01*
X142144138Y-59070185D01*
X142151521Y-59078706D01*
X142161605Y-59083755D01*
X142173993Y-59104640D01*
X142189893Y-59122989D01*
X142191497Y-59134148D01*
X142197251Y-59143848D01*
X142196381Y-59168114D01*
X142199837Y-59192147D01*
X142195152Y-59202403D01*
X142194749Y-59213673D01*
X142180898Y-59233616D01*
X142170812Y-59255703D01*
X142160292Y-59263288D01*
X142154894Y-59271061D01*
X142124544Y-59289063D01*
X142122120Y-59290067D01*
X142074684Y-59299500D01*
X131931003Y-59299500D01*
X131822590Y-59321065D01*
X131822589Y-59321065D01*
X131809131Y-59323742D01*
X131795673Y-59326419D01*
X131795671Y-59326420D01*
X131742866Y-59348292D01*
X131742864Y-59348293D01*
X131742863Y-59348292D01*
X131668196Y-59379221D01*
X131668185Y-59379227D01*
X131647190Y-59393256D01*
X131636691Y-59400272D01*
X131636690Y-59400273D01*
X131553454Y-59455888D01*
X130305414Y-60703928D01*
X130265186Y-60730808D01*
X130120823Y-60790604D01*
X130120814Y-60790609D01*
X129989711Y-60878210D01*
X129989707Y-60878213D01*
X129878213Y-60989707D01*
X129878210Y-60989711D01*
X129790609Y-61120814D01*
X129790602Y-61120827D01*
X129730264Y-61266498D01*
X129730261Y-61266510D01*
X129699500Y-61421153D01*
X129699500Y-61578846D01*
X129730261Y-61733489D01*
X129730264Y-61733501D01*
X129790602Y-61879172D01*
X129790609Y-61879185D01*
X129878210Y-62010288D01*
X129878213Y-62010292D01*
X129989707Y-62121786D01*
X129989711Y-62121789D01*
X130120814Y-62209390D01*
X130120827Y-62209397D01*
X130266498Y-62269735D01*
X130266503Y-62269737D01*
X130421153Y-62300499D01*
X130421156Y-62300500D01*
X130421158Y-62300500D01*
X130578844Y-62300500D01*
X130578845Y-62300499D01*
X130733497Y-62269737D01*
X130879179Y-62209394D01*
X131010289Y-62121789D01*
X131121789Y-62010289D01*
X131209394Y-61879179D01*
X131212166Y-61872488D01*
X131269193Y-61734810D01*
X131296070Y-61694584D01*
X132253837Y-60736819D01*
X132315160Y-60703334D01*
X132341518Y-60700500D01*
X142074684Y-60700500D01*
X142122136Y-60709939D01*
X142266498Y-60769735D01*
X142266503Y-60769737D01*
X142421153Y-60800499D01*
X142421156Y-60800500D01*
X142421158Y-60800500D01*
X142578844Y-60800500D01*
X142578845Y-60800499D01*
X142733497Y-60769737D01*
X142879179Y-60709394D01*
X143010289Y-60621789D01*
X143121789Y-60510289D01*
X143209394Y-60379179D01*
X143269737Y-60233497D01*
X143300500Y-60078842D01*
X143300500Y-59921158D01*
X143300500Y-59921155D01*
X143300499Y-59921153D01*
X143291139Y-59874098D01*
X143269737Y-59766503D01*
X143243897Y-59704119D01*
X143209397Y-59620827D01*
X143209390Y-59620814D01*
X143121789Y-59489711D01*
X143121786Y-59489707D01*
X143010292Y-59378213D01*
X143010288Y-59378210D01*
X142879185Y-59290609D01*
X142879178Y-59290605D01*
X142875451Y-59289062D01*
X142821047Y-59245222D01*
X142798981Y-59178928D01*
X142816259Y-59111229D01*
X142867395Y-59063617D01*
X142922902Y-59050500D01*
X151858844Y-59050500D01*
X151858845Y-59050499D01*
X152013497Y-59019737D01*
X152159179Y-58959394D01*
X152290289Y-58871789D01*
X153758148Y-57403928D01*
X153819469Y-57370445D01*
X153865221Y-57369138D01*
X153930644Y-57379500D01*
X153930646Y-57379500D01*
X154149361Y-57379500D01*
X154254082Y-57362912D01*
X154365375Y-57345286D01*
X154573383Y-57277701D01*
X154768257Y-57178407D01*
X154924128Y-57065161D01*
X154945193Y-57049857D01*
X154945195Y-57049854D01*
X154945199Y-57049852D01*
X155099852Y-56895199D01*
X155099854Y-56895195D01*
X155099857Y-56895193D01*
X155171050Y-56797203D01*
X155228407Y-56718257D01*
X155327701Y-56523383D01*
X155395286Y-56315375D01*
X155414272Y-56195500D01*
X155429500Y-56099361D01*
X155429500Y-55880638D01*
X155408944Y-55750858D01*
X155395286Y-55664625D01*
X155343544Y-55505377D01*
X155327702Y-55456619D01*
X155327701Y-55456616D01*
X155261097Y-55325901D01*
X155228407Y-55261743D01*
X155200169Y-55222876D01*
X155099857Y-55084806D01*
X154945193Y-54930142D01*
X154768260Y-54801595D01*
X154768259Y-54801594D01*
X154768257Y-54801593D01*
X154705825Y-54769782D01*
X154573383Y-54702298D01*
X154573380Y-54702297D01*
X154365376Y-54634714D01*
X154149361Y-54600500D01*
X154149356Y-54600500D01*
X153930644Y-54600500D01*
X153930639Y-54600500D01*
X153714623Y-54634714D01*
X153506619Y-54702297D01*
X153506616Y-54702298D01*
X153311739Y-54801595D01*
X153134806Y-54930142D01*
X152980142Y-55084806D01*
X152851595Y-55261739D01*
X152752298Y-55456616D01*
X152752297Y-55456619D01*
X152684714Y-55664623D01*
X152650500Y-55880638D01*
X152650500Y-56099361D01*
X152660860Y-56164774D01*
X152651905Y-56234067D01*
X152626068Y-56271852D01*
X151484741Y-57413181D01*
X151423418Y-57446666D01*
X151397060Y-57449500D01*
X139882940Y-57449500D01*
X139815901Y-57429815D01*
X139795259Y-57413181D01*
X139260292Y-56878213D01*
X139260288Y-56878210D01*
X139129185Y-56790609D01*
X139129172Y-56790602D01*
X138983501Y-56730264D01*
X138983489Y-56730261D01*
X138828845Y-56699500D01*
X138828842Y-56699500D01*
X136345908Y-56699500D01*
X136278869Y-56679815D01*
X136240363Y-56635728D01*
X136238605Y-56636813D01*
X136234812Y-56630663D01*
X136142712Y-56481344D01*
X136018656Y-56357288D01*
X135891474Y-56278842D01*
X135869336Y-56265187D01*
X135869331Y-56265185D01*
X135867862Y-56264698D01*
X135702797Y-56210001D01*
X135702795Y-56210000D01*
X135600010Y-56199500D01*
X134399998Y-56199500D01*
X134399981Y-56199501D01*
X134297203Y-56210000D01*
X134297200Y-56210001D01*
X134130668Y-56265185D01*
X134130663Y-56265187D01*
X133981342Y-56357289D01*
X133857289Y-56481342D01*
X133765187Y-56630663D01*
X133765187Y-56630664D01*
X133765186Y-56630666D01*
X133710001Y-56797203D01*
X133710001Y-56797204D01*
X133710000Y-56797204D01*
X133699500Y-56899983D01*
X133699500Y-57154865D01*
X133690257Y-57186341D01*
X133682142Y-57218138D01*
X133680461Y-57219702D01*
X133679815Y-57221904D01*
X133655033Y-57243377D01*
X133631005Y-57265749D01*
X133628744Y-57266156D01*
X133627011Y-57267659D01*
X133594550Y-57272326D01*
X133562246Y-57278155D01*
X133559279Y-57277397D01*
X133557853Y-57277603D01*
X133528048Y-57269426D01*
X133434812Y-57230807D01*
X133394583Y-57203927D01*
X130146546Y-53955888D01*
X130146545Y-53955887D01*
X130104214Y-53927603D01*
X130059408Y-53873991D01*
X130050701Y-53804666D01*
X130080855Y-53741638D01*
X130140298Y-53704918D01*
X130173104Y-53700500D01*
X155658481Y-53700500D01*
X155725520Y-53720185D01*
X155746162Y-53736819D01*
X159013181Y-57003838D01*
X159046666Y-57065161D01*
X159049500Y-57091519D01*
X159049500Y-61281006D01*
X159049500Y-61418994D01*
X159049500Y-61418996D01*
X159049499Y-61418996D01*
X159076418Y-61554322D01*
X159076421Y-61554332D01*
X159129222Y-61681807D01*
X159205887Y-61796545D01*
X162413454Y-65004112D01*
X162528190Y-65080776D01*
X162626790Y-65121617D01*
X162655671Y-65133580D01*
X162655672Y-65133580D01*
X162655677Y-65133582D01*
X162682545Y-65138925D01*
X162682551Y-65138926D01*
X162682591Y-65138934D01*
X162772937Y-65156905D01*
X162791006Y-65160500D01*
X162791007Y-65160500D01*
X165000810Y-65160500D01*
X165067849Y-65180185D01*
X165101124Y-65211609D01*
X165104515Y-65216276D01*
X165233724Y-65345485D01*
X165381556Y-65452891D01*
X165544369Y-65535848D01*
X165718155Y-65592315D01*
X165785835Y-65603034D01*
X165898630Y-65620900D01*
X165898635Y-65620900D01*
X166081370Y-65620900D01*
X166181631Y-65605019D01*
X166261845Y-65592315D01*
X166435631Y-65535848D01*
X166598444Y-65452891D01*
X166746276Y-65345485D01*
X166875485Y-65216276D01*
X166982891Y-65068444D01*
X167065848Y-64905631D01*
X167122315Y-64731845D01*
X167137427Y-64636433D01*
X167150900Y-64551370D01*
X167150900Y-64368629D01*
X167128734Y-64228684D01*
X167122315Y-64188155D01*
X167065848Y-64014369D01*
X166982891Y-63851556D01*
X166875485Y-63703724D01*
X166746276Y-63574515D01*
X166598444Y-63467109D01*
X166435631Y-63384152D01*
X166261845Y-63327685D01*
X166261843Y-63327684D01*
X166261841Y-63327684D01*
X166081370Y-63299100D01*
X166081365Y-63299100D01*
X165898635Y-63299100D01*
X165898630Y-63299100D01*
X165718158Y-63327684D01*
X165544366Y-63384153D01*
X165381555Y-63467109D01*
X165233721Y-63574517D01*
X165104514Y-63703724D01*
X165101125Y-63708390D01*
X165045793Y-63751053D01*
X165000810Y-63759500D01*
X163201519Y-63759500D01*
X163134480Y-63739815D01*
X163113838Y-63723181D01*
X160486819Y-61096162D01*
X160453334Y-61034839D01*
X160450500Y-61008481D01*
X160450500Y-60050634D01*
X164854500Y-60050634D01*
X164854500Y-60229365D01*
X164882460Y-60405898D01*
X164882460Y-60405901D01*
X164937689Y-60575878D01*
X164937691Y-60575881D01*
X165018833Y-60735132D01*
X165123889Y-60879728D01*
X165250272Y-61006111D01*
X165394868Y-61111167D01*
X165554119Y-61192309D01*
X165554121Y-61192310D01*
X165712670Y-61243825D01*
X165724103Y-61247540D01*
X165900634Y-61275500D01*
X165900635Y-61275500D01*
X166079365Y-61275500D01*
X166079366Y-61275500D01*
X166255897Y-61247540D01*
X166255900Y-61247539D01*
X166255901Y-61247539D01*
X166425878Y-61192310D01*
X166425878Y-61192309D01*
X166425881Y-61192309D01*
X166585132Y-61111167D01*
X166729728Y-61006111D01*
X166856111Y-60879728D01*
X166961167Y-60735132D01*
X167042309Y-60575881D01*
X167063621Y-60510289D01*
X167097539Y-60405901D01*
X167097539Y-60405900D01*
X167097540Y-60405897D01*
X167125500Y-60229366D01*
X167125500Y-60050634D01*
X167097540Y-59874103D01*
X167097539Y-59874099D01*
X167097539Y-59874098D01*
X167042310Y-59704121D01*
X167042308Y-59704118D01*
X166999870Y-59620827D01*
X166961167Y-59544868D01*
X166856111Y-59400272D01*
X166729728Y-59273889D01*
X166585132Y-59168833D01*
X166425881Y-59087691D01*
X166425878Y-59087689D01*
X166255899Y-59032460D01*
X166138209Y-59013820D01*
X166079366Y-59004500D01*
X165900634Y-59004500D01*
X165841790Y-59013820D01*
X165724101Y-59032460D01*
X165724098Y-59032460D01*
X165554121Y-59087689D01*
X165554118Y-59087691D01*
X165394867Y-59168833D01*
X165250270Y-59273890D01*
X165123890Y-59400270D01*
X165018833Y-59544867D01*
X164937691Y-59704118D01*
X164937689Y-59704121D01*
X164882460Y-59874098D01*
X164882460Y-59874101D01*
X164854500Y-60050634D01*
X160450500Y-60050634D01*
X160450500Y-56681006D01*
X160440486Y-56630667D01*
X160440486Y-56630665D01*
X160429367Y-56574767D01*
X160423580Y-56545672D01*
X160370775Y-56418189D01*
X160294114Y-56303457D01*
X160294112Y-56303454D01*
X159044101Y-55053443D01*
X158961292Y-54970634D01*
X164854500Y-54970634D01*
X164854500Y-55149365D01*
X164882460Y-55325898D01*
X164882460Y-55325901D01*
X164937689Y-55495878D01*
X164937691Y-55495881D01*
X165018833Y-55655132D01*
X165123889Y-55799728D01*
X165250272Y-55926111D01*
X165394868Y-56031167D01*
X165554119Y-56112309D01*
X165554121Y-56112310D01*
X165581353Y-56121158D01*
X165724103Y-56167540D01*
X165900634Y-56195500D01*
X165900635Y-56195500D01*
X166079365Y-56195500D01*
X166079366Y-56195500D01*
X166255897Y-56167540D01*
X166255900Y-56167539D01*
X166255901Y-56167539D01*
X166425878Y-56112310D01*
X166425878Y-56112309D01*
X166425881Y-56112309D01*
X166585132Y-56031167D01*
X166729728Y-55926111D01*
X166856111Y-55799728D01*
X166961167Y-55655132D01*
X167042309Y-55495881D01*
X167067830Y-55417335D01*
X167097539Y-55325901D01*
X167097539Y-55325900D01*
X167097540Y-55325897D01*
X167125500Y-55149366D01*
X167125500Y-54970634D01*
X167097540Y-54794103D01*
X167097539Y-54794099D01*
X167097539Y-54794098D01*
X167042310Y-54624121D01*
X167042308Y-54624118D01*
X167030275Y-54600500D01*
X166961167Y-54464868D01*
X166856111Y-54320272D01*
X166729728Y-54193889D01*
X166585132Y-54088833D01*
X166425881Y-54007691D01*
X166425878Y-54007689D01*
X166255899Y-53952460D01*
X166098957Y-53927603D01*
X166079366Y-53924500D01*
X165900634Y-53924500D01*
X165881043Y-53927603D01*
X165724101Y-53952460D01*
X165724098Y-53952460D01*
X165554121Y-54007689D01*
X165554118Y-54007691D01*
X165394867Y-54088833D01*
X165250270Y-54193890D01*
X165123890Y-54320270D01*
X165018833Y-54464867D01*
X164937691Y-54624118D01*
X164937689Y-54624121D01*
X164882460Y-54794098D01*
X164882460Y-54794101D01*
X164854500Y-54970634D01*
X158961292Y-54970634D01*
X156702838Y-52712181D01*
X156669353Y-52650858D01*
X156674337Y-52581166D01*
X156716209Y-52525233D01*
X156781673Y-52500816D01*
X156790519Y-52500500D01*
X168876000Y-52500500D01*
X168943039Y-52520185D01*
X168988794Y-52572989D01*
X169000000Y-52624500D01*
X169000000Y-62723547D01*
X168980315Y-62790586D01*
X168976319Y-62796431D01*
X168887713Y-62918389D01*
X168887712Y-62918391D01*
X168794781Y-63100776D01*
X168731522Y-63295465D01*
X168699500Y-63497648D01*
X168699500Y-68409953D01*
X168679815Y-68476992D01*
X168663181Y-68497634D01*
X167349515Y-69811299D01*
X167288192Y-69844784D01*
X167218500Y-69839800D01*
X167162567Y-69797928D01*
X167138150Y-69732464D01*
X167139361Y-69704219D01*
X167150900Y-69631369D01*
X167150900Y-69448629D01*
X167131843Y-69328315D01*
X167122315Y-69268155D01*
X167065848Y-69094369D01*
X166982891Y-68931556D01*
X166875485Y-68783724D01*
X166746276Y-68654515D01*
X166598444Y-68547109D01*
X166435631Y-68464152D01*
X166261845Y-68407685D01*
X166261843Y-68407684D01*
X166261841Y-68407684D01*
X166081370Y-68379100D01*
X166081365Y-68379100D01*
X165898635Y-68379100D01*
X165898630Y-68379100D01*
X165718158Y-68407684D01*
X165544363Y-68464154D01*
X165394011Y-68540762D01*
X165325342Y-68553658D01*
X165260602Y-68527381D01*
X165250036Y-68517958D01*
X158910292Y-62178213D01*
X158910288Y-62178210D01*
X158779185Y-62090609D01*
X158779172Y-62090602D01*
X158633501Y-62030264D01*
X158633489Y-62030261D01*
X158478845Y-61999500D01*
X158478842Y-61999500D01*
X142420843Y-61999500D01*
X142263158Y-61999500D01*
X142263153Y-61999500D01*
X142108510Y-62030260D01*
X142108502Y-62030262D01*
X141962824Y-62090604D01*
X141962814Y-62090609D01*
X141831711Y-62178210D01*
X141831707Y-62178213D01*
X136528940Y-67480981D01*
X136467617Y-67514466D01*
X136441259Y-67517300D01*
X136249140Y-67517300D01*
X136183056Y-67527766D01*
X136050888Y-67548700D01*
X136050885Y-67548700D01*
X135859995Y-67610724D01*
X135681149Y-67701851D01*
X135588502Y-67769163D01*
X135518763Y-67819832D01*
X135518761Y-67819834D01*
X135518760Y-67819834D01*
X135376834Y-67961760D01*
X135376834Y-67961761D01*
X135376832Y-67961763D01*
X135359399Y-67985758D01*
X135258851Y-68124149D01*
X135167724Y-68302995D01*
X135105700Y-68493885D01*
X135105700Y-68493888D01*
X135074300Y-68692140D01*
X135074300Y-68892859D01*
X135105700Y-69091111D01*
X135105700Y-69091114D01*
X135167724Y-69282004D01*
X135252624Y-69448629D01*
X135258851Y-69460850D01*
X135376832Y-69623237D01*
X135518763Y-69765168D01*
X135681150Y-69883149D01*
X135751863Y-69919179D01*
X135859995Y-69974275D01*
X136050886Y-70036299D01*
X136050887Y-70036299D01*
X136050890Y-70036300D01*
X136249140Y-70067700D01*
X136249141Y-70067700D01*
X136449859Y-70067700D01*
X136449860Y-70067700D01*
X136648110Y-70036300D01*
X136648113Y-70036299D01*
X136648114Y-70036299D01*
X136839004Y-69974275D01*
X136839004Y-69974274D01*
X136839007Y-69974274D01*
X137017850Y-69883149D01*
X137180237Y-69765168D01*
X137322168Y-69623237D01*
X137440149Y-69460850D01*
X137531274Y-69282007D01*
X137570650Y-69160821D01*
X137593299Y-69091114D01*
X137593299Y-69091113D01*
X137593300Y-69091110D01*
X137624700Y-68892860D01*
X137624700Y-68700739D01*
X137644385Y-68633700D01*
X137661019Y-68613058D01*
X138288319Y-67985758D01*
X138349642Y-67952273D01*
X138419334Y-67957257D01*
X138475267Y-67999129D01*
X138499684Y-68064593D01*
X138500000Y-68073439D01*
X138500000Y-69448638D01*
X138480315Y-69515677D01*
X138463681Y-69536319D01*
X137036319Y-70963681D01*
X136974996Y-70997166D01*
X136948638Y-71000000D01*
X115124500Y-71000000D01*
X115057461Y-70980315D01*
X115011706Y-70927511D01*
X115000500Y-70876000D01*
X115000500Y-68692140D01*
X130375300Y-68692140D01*
X130375300Y-68892859D01*
X130406700Y-69091111D01*
X130406700Y-69091114D01*
X130468724Y-69282004D01*
X130553624Y-69448629D01*
X130559851Y-69460850D01*
X130677832Y-69623237D01*
X130819763Y-69765168D01*
X130982150Y-69883149D01*
X131052863Y-69919179D01*
X131160995Y-69974275D01*
X131351886Y-70036299D01*
X131351887Y-70036299D01*
X131351890Y-70036300D01*
X131550140Y-70067700D01*
X131550141Y-70067700D01*
X131750859Y-70067700D01*
X131750860Y-70067700D01*
X131949110Y-70036300D01*
X131949113Y-70036299D01*
X131949114Y-70036299D01*
X132140004Y-69974275D01*
X132140004Y-69974274D01*
X132140007Y-69974274D01*
X132318850Y-69883149D01*
X132481237Y-69765168D01*
X132623168Y-69623237D01*
X132741149Y-69460850D01*
X132832274Y-69282007D01*
X132871650Y-69160821D01*
X132894299Y-69091114D01*
X132894299Y-69091113D01*
X132894300Y-69091110D01*
X132925700Y-68892860D01*
X132925700Y-68692140D01*
X132894300Y-68493890D01*
X132894299Y-68493886D01*
X132894299Y-68493885D01*
X132832275Y-68302995D01*
X132741148Y-68124149D01*
X132697878Y-68064593D01*
X132623168Y-67961763D01*
X132481237Y-67819832D01*
X132318850Y-67701851D01*
X132140004Y-67610724D01*
X131949113Y-67548700D01*
X131787770Y-67523146D01*
X131750860Y-67517300D01*
X131550140Y-67517300D01*
X131484056Y-67527766D01*
X131351888Y-67548700D01*
X131351885Y-67548700D01*
X131160995Y-67610724D01*
X130982149Y-67701851D01*
X130889502Y-67769163D01*
X130819763Y-67819832D01*
X130819761Y-67819834D01*
X130819760Y-67819834D01*
X130677834Y-67961760D01*
X130677834Y-67961761D01*
X130677832Y-67961763D01*
X130660399Y-67985758D01*
X130559851Y-68124149D01*
X130468724Y-68302995D01*
X130406700Y-68493885D01*
X130406700Y-68493888D01*
X130375300Y-68692140D01*
X115000500Y-68692140D01*
X115000500Y-53777135D01*
X115624500Y-53777135D01*
X115624500Y-55222870D01*
X115624501Y-55222876D01*
X115630908Y-55282483D01*
X115681202Y-55417328D01*
X115681206Y-55417335D01*
X115767452Y-55532544D01*
X115767455Y-55532547D01*
X115882664Y-55618793D01*
X115882671Y-55618797D01*
X116017517Y-55669091D01*
X116017516Y-55669091D01*
X116024444Y-55669835D01*
X116077127Y-55675500D01*
X117522872Y-55675499D01*
X117582483Y-55669091D01*
X117717331Y-55618796D01*
X117832546Y-55532546D01*
X117918796Y-55417331D01*
X117969091Y-55282483D01*
X117975500Y-55222873D01*
X117975499Y-53777128D01*
X117969091Y-53717517D01*
X117926520Y-53603379D01*
X117918797Y-53582671D01*
X117918793Y-53582664D01*
X117832547Y-53467455D01*
X117832544Y-53467452D01*
X117717335Y-53381206D01*
X117717328Y-53381202D01*
X117582482Y-53330908D01*
X117582483Y-53330908D01*
X117522883Y-53324501D01*
X117522881Y-53324500D01*
X117522873Y-53324500D01*
X117522864Y-53324500D01*
X116077129Y-53324500D01*
X116077123Y-53324501D01*
X116017516Y-53330908D01*
X115882671Y-53381202D01*
X115882664Y-53381206D01*
X115767455Y-53467452D01*
X115767452Y-53467455D01*
X115681206Y-53582664D01*
X115681202Y-53582671D01*
X115630908Y-53717517D01*
X115624501Y-53777116D01*
X115624501Y-53777123D01*
X115624500Y-53777135D01*
X115000500Y-53777135D01*
X115000500Y-52624500D01*
X115020185Y-52557461D01*
X115072989Y-52511706D01*
X115124500Y-52500500D01*
X121509482Y-52500500D01*
X121576521Y-52520185D01*
G37*
%TD.AperFunction*%
%TD*%
M02*
